<?xml version="1.0" encoding="UTF-8" standalone="no"?>
<svg
   version="1.1"
   width="28"
   height="28"
   color-interpolation="linearRGB"
   id="svg15"
   sodipodi:docname="+nuevo.svg"
   inkscape:version="1.2.2 (b0a8486541, 2022-12-01)"
   xmlns:inkscape="http://www.inkscape.org/namespaces/inkscape"
   xmlns:sodipodi="http://sodipodi.sourceforge.net/DTD/sodipodi-0.dtd"
   xmlns="http://www.w3.org/2000/svg"
   xmlns:svg="http://www.w3.org/2000/svg">
  <defs
     id="defs19" />
  <sodipodi:namedview
     id="namedview17"
     pagecolor="#ffffff"
     bordercolor="#000000"
     borderopacity="0.25"
     inkscape:showpageshadow="2"
     inkscape:pageopacity="0.0"
     inkscape:pagecheckerboard="0"
     inkscape:deskcolor="#d1d1d1"
     showgrid="false"
     inkscape:zoom="12.9375"
     inkscape:cx="32.038647"
     inkscape:cy="19.63285"
     inkscape:window-width="1920"
     inkscape:window-height="1008"
     inkscape:window-x="0"
     inkscape:window-y="0"
     inkscape:window-maximized="1"
     inkscape:current-layer="svg15" />
  <g
     id="g13"
     transform="matrix(0.44540697,0,0,0.44540697,-0.22911037,-0.19613782)">
    <path
       style="fill:none;stroke:#000000;stroke-width:4;stroke-linecap:round;stroke-linejoin:round;stroke-opacity:0.4"
       d="M 26,2 H 16 V 16 H 2 V 26 H 16 V 40 H 26 V 26 H 40 V 16 H 26 Z"
       transform="matrix(1.409,0,0,1.409,3.8181,3.8181)"
       id="path2" />
    <path
       style="fill:none;stroke:#005900;stroke-width:4;stroke-linecap:round;stroke-linejoin:round"
       d="M 26,2 H 16 V 16 H 2 V 26 H 16 V 40 H 26 V 26 H 40 V 16 H 26 Z"
       transform="matrix(1.409,0,0,1.409,1,1)"
       id="path4" />
    <linearGradient
       id="gradient0"
       gradientUnits="userSpaceOnUse"
       x1="128"
       y1="1.99"
       x2="128"
       y2="40">
      <stop
         offset="0"
         stop-color="#80ff80"
         id="stop6" />
      <stop
         offset="1"
         stop-color="#00b300"
         id="stop8" />
    </linearGradient>
    <path
       style="fill:url(#gradient0)"
       d="M 26,2 H 16 V 16 H 2 V 26 H 16 V 40 H 26 V 26 H 40 V 16 H 26 Z"
       transform="matrix(1.409,0,0,1.409,1,1)"
       id="path11" />
  </g>
</svg>
