<?xml version="1.0" encoding="utf-8"?>
<!-- Generator: Adobe Illustrator 16.0.3, SVG Export Plug-In . SVG Version: 6.00 Build 0)  -->
<!DOCTYPE svg PUBLIC "-//W3C//DTD SVG 1.1//EN" "http://www.w3.org/Graphics/SVG/1.1/DTD/svg11.dtd">
<svg version="1.1"
	 id="svg8" xmlns:inkscape="http://www.inkscape.org/namespaces/inkscape" xmlns:sodipodi="http://sodipodi.sourceforge.net/DTD/sodipodi-0.dtd" xmlns:svg="http://www.w3.org/2000/svg" xmlns:rdf="http://www.w3.org/1999/02/22-rdf-syntax-ns#" xmlns:cc="http://creativecommons.org/ns#" xmlns:dc="http://purl.org/dc/elements/1.1/" sodipodi:docname="epub.svg" inkscape:version="1.2.1 (9c6d41e410, 2022-07-14)"
	 xmlns="http://www.w3.org/2000/svg" xmlns:xlink="http://www.w3.org/1999/xlink" x="0px" y="0px" width="22px" height="22px"
	 viewBox="0 0 22 22" enable-background="new 0 0 22 22" xml:space="preserve">
<sodipodi:namedview  id="base" units="px" showguides="true" showgrid="true" inkscape:cy="13.718751" inkscape:cx="17.343751" inkscape:zoom="15.999999" borderopacity="1.0" bordercolor="#666666" pagecolor="#ffffff" inkscape:deskcolor="#d1d1d1" inkscape:showpageshadow="2" inkscape:guide-bbox="true" inkscape:window-y="0" inkscape:window-x="0" inkscape:window-height="1005" inkscape:window-width="1920" inkscape:current-layer="g1070" inkscape:document-units="px" inkscape:pageshadow="2" inkscape:pageopacity="0.0" inkscape:pagecheckerboard="0" inkscape:window-maximized="1">
	<inkscape:grid  id="grid841" type="xygrid"></inkscape:grid>
	<sodipodi:guide  id="guide930" inkscape:locked="false" orientation="1,0" position="7.6729165,2.9104167"></sodipodi:guide>
</sodipodi:namedview>
<g id="layer1" transform="translate(0,-288.53332)" inkscape:label="Capa 1" inkscape:groupmode="layer">
	<g id="g1070" transform="matrix(0.26458333,0,0,0.26458333,1.0583335,213.05431)">
		<path id="rect827-6" inkscape:connector-curvature="0" d="M2.391,285.275h70.292c3.543,0,6.393,2.475,6.393,5.544v72.066
			c0,3.063-2.849,5.54-6.393,5.54H2.391c-3.541,0-6.391-2.477-6.391-5.54v-72.066C-4,287.75-1.151,285.275,2.391,285.275z"/>
		<path id="rect829-0" inkscape:connector-curvature="0" fill="#FFFFFF" d="M2.391,288.045h70.292c1.775,0,3.2,1.238,3.2,2.774
			v72.066c0,1.532-1.425,2.768-3.2,2.768H2.391c-1.772,0-3.195-1.236-3.195-2.768v-72.066
			C-0.804,289.284,0.619,288.045,2.391,288.045z"/>
		<path id="rect969" fill="#90A4AE" d="M8.782,296.365v5.542h19.171v-5.542H8.782z M31.147,296.365v5.542h9.587v-5.542H31.147z
			 M43.931,296.365v5.542h12.774v-5.542H43.931z M59.905,296.365v5.542h6.389v-5.542H59.905z M8.782,307.449v5.546h9.584v-5.546
			H8.782z M21.564,307.449v5.546h25.56v-5.546H21.564z M50.316,307.449v5.546h6.389v-5.546H50.316z M59.905,307.449v5.546h6.389
			v-5.546H59.905z M8.782,318.538v5.542h15.976v-5.542H8.782z M27.953,318.538v5.542h6.389v-5.542H27.953z M37.536,318.538v5.542
			h12.78v-5.542H37.536z M53.512,318.538v5.542h12.782v-5.542H53.512z M8.782,329.622v5.54h6.395v-5.54H8.782z M18.365,329.622v5.54
			h6.393v-5.54H18.365z M27.953,329.622v5.54h15.978v-5.54H27.953z M47.123,329.622v5.54h12.782v-5.54H47.123z M8.782,340.71v5.548
			h19.171v-5.548H8.782z M31.147,340.71v5.548h6.389v-5.548H31.147z M40.734,340.71v5.548h9.582v-5.548H40.734z M53.512,340.71
			v5.548h9.589v-5.548H53.512z M8.782,351.794v5.547h9.584v-5.547H8.782z M21.564,351.794v5.547h22.367v-5.547H21.564z
			 M47.123,351.794v5.547h6.389v-5.547H47.123z M56.705,351.794v5.547h6.396v-5.547H56.705z"/>
	</g>
</g>
<g>
	<circle id="circle3581_2_" fill="#1B9531" cx="15.339" cy="6.529" r="5.796"/>
	<g id="g6850" transform="translate(-26.000031,-3.999996)">
		<path id="rect3232" sodipodi:nodetypes="ccccccccccccc" fill="#FFFFFF" d="M40.614,6.907v2.897h-2.9v1.45h2.9v2.898h1.449v-2.898
			h2.898v-1.45h-2.898V6.907H40.614z"/>
	</g>
</g>
</svg>
