<?xml version="1.0" encoding="UTF-8" standalone="no"?>
<svg
   version="1.1"
   width="28"
   height="28"
   color-interpolation="linearRGB"
   id="svg58"
   sodipodi:docname="abrirBuscar.svg"
   inkscape:version="1.2.2 (b0a8486541, 2022-12-01)"
   xmlns:inkscape="http://www.inkscape.org/namespaces/inkscape"
   xmlns:sodipodi="http://sodipodi.sourceforge.net/DTD/sodipodi-0.dtd"
   xmlns="http://www.w3.org/2000/svg"
   xmlns:svg="http://www.w3.org/2000/svg">
  <defs
     id="defs62">
    <linearGradient
       id="gradient0"
       gradientUnits="userSpaceOnUse"
       x1="102.6"
       y1="8.5"
       x2="102.74"
       y2="47.07"
       gradientTransform="translate(0.97476709,-4.6131808)">
      <stop
         offset="0"
         stop-color="#face79"
         id="stop6" />
      <stop
         offset="1"
         stop-color="#bc4105"
         id="stop8" />
    </linearGradient>
    <linearGradient
       id="gradient1"
       gradientUnits="userSpaceOnUse"
       x1="103.24"
       y1="12.68"
       x2="103.39"
       y2="55.34"
       gradientTransform="translate(0.97476709,-4.6131808)">
      <stop
         offset="0"
         stop-color="#ffffff"
         id="stop13" />
      <stop
         offset="1"
         stop-color="#8e8e8e"
         id="stop15" />
    </linearGradient>
    <linearGradient
       id="gradient2"
       gradientUnits="userSpaceOnUse"
       x1="78.339996"
       y1="-26.66"
       x2="101.46"
       y2="12.94"
       gradientTransform="translate(0.97476709,-4.6131808)">
      <stop
         offset="0"
         stop-color="#9a9a9a"
         id="stop20" />
      <stop
         offset="1"
         stop-color="#505050"
         id="stop22" />
    </linearGradient>
    <linearGradient
       id="gradient3"
       gradientUnits="userSpaceOnUse"
       x1="88.519997"
       y1="9.5900002"
       x2="97.540001"
       y2="51.290001"
       gradientTransform="translate(0.97476709,-4.6131808)">
      <stop
         offset="0"
         stop-color="#ffe2ac"
         id="stop27" />
      <stop
         offset="1"
         stop-color="#f49806"
         id="stop29" />
    </linearGradient>
    <linearGradient
       id="gradient4"
       gradientUnits="userSpaceOnUse"
       x1="23.15"
       y1="39.189999"
       x2="25.459999"
       y2="41.669998"
       gradientTransform="matrix(1.3895851,0,0,1.3895851,-1.8590081,-22.835039)">
      <stop
         offset="0"
         stop-color="#d4d4d4"
         id="stop38" />
      <stop
         offset="1"
         stop-color="#474747"
         id="stop40" />
    </linearGradient>
    <radialGradient
       id="gradient5"
       gradientUnits="userSpaceOnUse"
       cx="0"
       cy="0"
       r="64"
       gradientTransform="matrix(0.28222473,0,0,0.28222473,24.543109,41.085875)">
      <stop
         offset="0"
         stop-color="#dcf4ff"
         id="stop47" />
      <stop
         offset="1"
         stop-color="#6094aa"
         id="stop49" />
    </radialGradient>
  </defs>
  <sodipodi:namedview
     id="namedview60"
     pagecolor="#ffffff"
     bordercolor="#000000"
     borderopacity="0.25"
     inkscape:showpageshadow="2"
     inkscape:pageopacity="0.0"
     inkscape:pagecheckerboard="0"
     inkscape:deskcolor="#d1d1d1"
     showgrid="false"
     inkscape:zoom="9.148194"
     inkscape:cx="42.194121"
     inkscape:cy="34.105092"
     inkscape:window-width="1920"
     inkscape:window-height="1008"
     inkscape:window-x="0"
     inkscape:window-y="0"
     inkscape:window-maximized="1"
     inkscape:current-layer="svg58" />
  <g
     id="g387"
     transform="matrix(0.43642668,0,0,0.43642668,-0.04700743,0.03542101)">
    <path
       style="fill:#010101;fill-opacity:0.396"
       d="m 42.974767,56.386819 h 6 l 4,-4 h 4 l 6,-6 -14,-4 z"
       id="path2" />
    <path
       style="fill:none;stroke:#000000;stroke-width:4"
       d="m 3.9747671,10.386819 9.9999999,26 29,18 18,-47 -12,-1.9999998 -4,1.9999998 -18,-3.9999998 -2,4.9999998 -8,-2 -0.09,8.2 z"
       id="path4" />
    <path
       style="fill:url(#gradient0)"
       d="m 26.974767,3.3868192 -12,32.9999998 28,17 18,-46 -12,-1.9999998 -4,1.9999998 z"
       id="path11" />
    <path
       style="fill:url(#gradient1)"
       d="m 16.974767,6.386819 v 30 l 26,16 7,-35 z"
       id="path18" />
    <path
       style="fill:url(#gradient2)"
       d="m 16.974767,6.386819 33,11 -7,35 10,-36.63 z"
       id="path25" />
    <path
       style="fill:url(#gradient3)"
       d="m 3.9747671,10.386819 9.9999999,26 29,18 -4,-29 z"
       id="path32" />
    <path
       style="fill:#a03d03"
       d="m 3.9747671,10.386819 34.9999999,15 4,29 -1.5,-31 z"
       id="path34" />
    <path
       style="fill:none;stroke:#000000;stroke-width:5.55834"
       d="m 9.2576725,52.202555 -5.5583403,5.558341 c 0,0 -0.1806461,1.556335 0.5141465,2.251127 0.6947925,0.694793 2.2650237,0.528043 2.2650237,0.528043 L 12.036843,54.981725 16.205598,48.0338 Z"
       id="path36" />
    <path
       style="fill:url(#gradient4);stroke-width:1.38959"
       d="m 9.2576725,52.202555 -5.5583403,5.558341 c 0,0 -0.1806461,1.556335 0.5141465,2.251127 0.6947925,0.694793 2.2650237,0.528043 2.2650237,0.528043 L 12.036843,54.981725 16.205598,48.0338 Z"
       id="path43" />
    <path
       style="fill:none;stroke:#000000;stroke-width:5.55834"
       d="m 23.153523,29.969194 c -6.141966,0 -11.11668,4.974715 -11.11668,11.116681 0,6.12807 4.974714,11.11668 11.11668,11.11668 6.128071,0 11.116681,-4.98861 11.116681,-11.11668 0,-6.141966 -4.98861,-11.116681 -11.116681,-11.116681 z"
       id="path45" />
    <path
       style="fill:url(#gradient5);stroke-width:1.38959"
       d="m 23.153523,29.969194 c -6.141966,0 -11.11668,4.974715 -11.11668,11.116681 0,6.12807 4.974714,11.11668 11.11668,11.11668 6.128071,0 11.116681,-4.98861 11.116681,-11.11668 0,-6.141966 -4.98861,-11.116681 -11.116681,-11.116681 z"
       id="path52" />
    <path
       style="fill:#ffffff;stroke-width:0.347396"
       d="m 20.374353,34.137949 c -1.535491,0 -2.77917,1.243679 -2.77917,2.77917 0,1.532018 1.243679,2.77917 2.77917,2.77917 1.532018,0 2.77917,-1.247152 2.77917,-2.77917 0,-1.535491 -1.247152,-2.77917 -2.77917,-2.77917 z"
       id="path54" />
  </g>
</svg>
