<?xml version="1.0" encoding="utf-8"?>
<!-- Generator: Adobe Illustrator 16.0.3, SVG Export Plug-In . SVG Version: 6.00 Build 0)  -->
<!DOCTYPE svg PUBLIC "-//W3C//DTD SVG 1.1//EN" "http://www.w3.org/Graphics/SVG/1.1/DTD/svg11.dtd">
<svg version="1.1"
	 id="svg8" inkscape:version="0.92.2 5c3e80d, 2017-08-06" sodipodi:docname="application-pdf.svg" xmlns:dc="http://purl.org/dc/elements/1.1/" xmlns:cc="http://creativecommons.org/ns#" xmlns:rdf="http://www.w3.org/1999/02/22-rdf-syntax-ns#" xmlns:svg="http://www.w3.org/2000/svg" xmlns:sodipodi="http://sodipodi.sourceforge.net/DTD/sodipodi-0.dtd" xmlns:inkscape="http://www.inkscape.org/namespaces/inkscape"
	 xmlns="http://www.w3.org/2000/svg" xmlns:xlink="http://www.w3.org/1999/xlink" x="0px" y="0px" width="24px" height="24px"
	 viewBox="0 0 24 24" enable-background="new 0 0 24 24" xml:space="preserve">
<title  id="title7895">Antu icon Theme</title>
<sodipodi:namedview  id="base" units="px" inkscape:pageopacity="0.0" inkscape:pageshadow="2" inkscape:document-units="px" inkscape:current-layer="g2446" inkscape:window-width="1366" inkscape:window-height="697" inkscape:window-x="0" inkscape:window-y="0" objecttolerance="10" gridtolerance="10" guidetolerance="10" pagecolor="#ffffff" showgrid="true" bordercolor="#666666" borderopacity="1.0" inkscape:cx="5.2219006" inkscape:cy="17.169119" inkscape:zoom="11.313708" inkscape:window-maximized="1">
	<inkscape:grid  id="grid7897" type="xygrid" empspacing="4"></inkscape:grid>
</sodipodi:namedview>
<g id="layer1" transform="translate(0,-282.64999)" inkscape:groupmode="layer" inkscape:label="Capa 1">
	<g id="g2446" transform="translate(8.0000005,-20)">
		<path id="rect827" inkscape:connector-curvature="0" fill="#B52D2D" d="M-2.765,306.334h17.201c0.867,0,1.564,0.603,1.564,1.353
			v17.589c0,0.75-0.697,1.354-1.564,1.354H-2.765c-0.867,0-1.565-0.604-1.565-1.354v-17.589
			C-4.33,306.937-3.631,306.334-2.765,306.334z"/>
		
			<linearGradient id="rect829_1_" gradientUnits="userSpaceOnUse" x1="-524.1655" y1="346.0065" x2="-524.1655" y2="341.5307" gradientTransform="matrix(3.7795 0 0 3.7795 1986.9199 -982.4399)">
			<stop  offset="0" style="stop-color:#F34242"/>
			<stop  offset="1" style="stop-color:#FF6767"/>
		</linearGradient>
		<path id="rect829" inkscape:connector-curvature="0" fill="url(#rect829_1_)" d="M-2.765,307.009h17.201
			c0.435,0,0.783,0.301,0.783,0.677v17.589c0,0.375-0.349,0.679-0.783,0.679H-2.765c-0.434,0-0.784-0.304-0.784-0.679v-17.589
			C-3.548,307.312-3.2,307.009-2.765,307.009z"/>
		<path id="path1376-6" sodipodi:nodetypes="cccccccccccccc" inkscape:connector-curvature="0" fill="#B52D2D" d="M0.361,326.63
			h1.564c0.036-2.132-1.41-4.488-3.127-6.088c1.563,0,6.254-2.03,7.038-2.705c-0.871,2.598-1.751,4.885-1.564,8.795h7.037
			c-2.881-6.028-2.756-11.451,3.911-15.562v-1.352l-3.128,2.029c0-0.676,1.564-3.382,3.128-4.736h-2.349
			c-2.422,6.578-9.409,10.576-16.419,12.177v2.03C-2.765,321.216,0.283,323.683,0.361,326.63z"/>
		<path id="path1376" sodipodi:nodetypes="cccccccccccccc" inkscape:connector-curvature="0" fill="#FFFFFF" d="M0.361,325.954
			h1.564c0.036-2.133-1.41-4.49-3.127-6.089c1.563,0,6.254-2.03,7.038-2.706c-0.871,2.599-1.751,4.887-1.564,8.796h7.037
			c-2.881-6.029-2.756-11.451,3.911-15.562v-1.354l-3.128,2.03c0-0.677,0.782-2.707,2.345-4.06h-2.345
			c-2.423,6.578-8.629,9.9-15.639,11.501v2.03C-2.765,320.541,0.283,323.006,0.361,325.954z"/>
	</g>
</g>
<g id="layer1_1_" transform="translate(0,-282.64999)" inkscape:groupmode="layer" inkscape:label="Capa 1">
	<g id="g5608" transform="translate(12,-11)">
		<path id="rect843-5-4" sodipodi:nodetypes="sssssssss" inkscape:connector-curvature="0" fill="#1466B2" d="M-11.006,293.669
			h10.934c0.55,0,0.994,0.384,0.994,0.861v11.199c0,0.477-0.443,0.862-0.994,0.862h-10.934c-0.551,0-0.995-0.385-0.995-0.862v-11.2
			C-12,294.053-11.557,293.669-11.006,293.669z"/>
		
			<linearGradient id="rect843-3-9-3_1_" gradientUnits="userSpaceOnUse" x1="-529.9019" y1="342.4576" x2="-529.9019" y2="339.6083" gradientTransform="matrix(3.7795 0 0 3.7795 1997.2256 -988.1549)">
			<stop  offset="0" style="stop-color:#1980F1"/>
			<stop  offset="1" style="stop-color:#1FB5F9"/>
		</linearGradient>
		<path id="rect843-3-9-3" sodipodi:nodetypes="sssssssss" inkscape:connector-curvature="0" fill="url(#rect843-3-9-3_1_)" d="
			M-11.006,294.1h10.934c0.276,0,0.498,0.192,0.498,0.432v11.198c0,0.239-0.222,0.432-0.498,0.432h-10.934
			c-0.276,0-0.498-0.193-0.498-0.432V294.53C-11.503,294.291-11.282,294.1-11.006,294.1z"/>
		
			<path id="rect926-8-3" sodipodi:nodetypes="ccccccccccccccc" inkscape:connector-curvature="0" opacity="0.98" fill="#1466B2" enable-background="new    " d="
			M-11.006,294.531v0.43v10.769h10.934v-7.5l-2.134-1.85l-2.134-1.849H-11.006L-11.006,294.531z M-10.013,295.392h5.262l1.843,1.597
			l1.841,1.597v6.283h-8.946V295.392z"/>
		
			<linearGradient id="rect926-6-4-3_1_" gradientUnits="userSpaceOnUse" x1="-60.1245" y1="846.024" x2="-60.1245" y2="836.9775" gradientTransform="matrix(1 0 0 1 54.585 -541.5859)">
			<stop  offset="0" style="stop-color:#E3E3E3"/>
			<stop  offset="1" style="stop-color:#FCFCFC"/>
		</linearGradient>
		
			<path id="rect926-6-4-3" sodipodi:nodetypes="ccccccc" inkscape:connector-curvature="0" opacity="0.98" fill="url(#rect926-6-4-3_1_)" enable-background="new    " d="
			M-10.51,294.961h5.965l1.986,1.723l1.989,1.723v6.893h-9.94V294.961z"/>
		
			<path id="rect1562-9-8-8" sodipodi:nodetypes="ccccccccccccccc" inkscape:connector-curvature="0" opacity="0.98" fill="#A5A5A5" enable-background="new    " d="
			M-9.516,298.407v0.862h4.97v-0.862H-9.516z M-9.516,300.13v0.861h7.953v-0.861H-9.516z M-9.516,301.853v0.862h7.953v-0.862H-9.516
			z"/>
	</g>
</g>
</svg>
