<?xml version="1.0" encoding="UTF-8" standalone="no"?>
<!-- Uploaded to: SVG Repo, www.svgrepo.com, Generator: SVG Repo Mixer Tools -->

<svg
   fill="#000000"
   width="28"
   height="28"
   viewBox="0 0 0.84 0.84"
   role="img"
   version="1.1"
   id="svg6"
   sodipodi:docname="adobe-acrobat-reader-svgrepo-com.svg"
   inkscape:version="1.2.2 (b0a8486541, 2022-12-01)"
   xmlns:inkscape="http://www.inkscape.org/namespaces/inkscape"
   xmlns:sodipodi="http://sodipodi.sourceforge.net/DTD/sodipodi-0.dtd"
   xmlns="http://www.w3.org/2000/svg"
   xmlns:svg="http://www.w3.org/2000/svg"
   xmlns:rdf="http://www.w3.org/1999/02/22-rdf-syntax-ns#"
   xmlns:cc="http://creativecommons.org/ns#"
   xmlns:dc="http://purl.org/dc/elements/1.1/">
  <defs
     id="defs10" />
  <sodipodi:namedview
     id="namedview8"
     pagecolor="#ffffff"
     bordercolor="#000000"
     borderopacity="0.25"
     inkscape:showpageshadow="2"
     inkscape:pageopacity="0.0"
     inkscape:pagecheckerboard="0"
     inkscape:deskcolor="#d1d1d1"
     showgrid="false"
     inkscape:zoom="21.842365"
     inkscape:cx="15.016689"
     inkscape:cy="14.833559"
     inkscape:window-width="1920"
     inkscape:window-height="1054"
     inkscape:window-x="0"
     inkscape:window-y="0"
     inkscape:window-maximized="1"
     inkscape:current-layer="svg6" />
  <title
     id="title2">Adobe Acrobat Reader icon</title>
  <path
     d="m 0.82261718,0.53865818 c -0.0246015,-0.0258141 -0.075052,-0.0405406 -0.14636188,-0.0405406 -0.0381154,0 -0.0823633,0.003675 -0.13031883,0.012266 a 0.6737012,0.6737012 0 0 1 -0.0799377,-0.0922036 c -0.0184338,-0.0246015 -0.0344423,-0.0516288 -0.0492029,-0.0774776 0.0283093,-0.0860707 0.0418226,-0.15616777 0.0418226,-0.20658366 0,-0.05654891 -0.0208936,-0.11559259 -0.0811504,-0.11559259 -0.0184337,0 -0.0369021,0.01108811 -0.046743,0.02706195 C 0.3036978,0.09354365 0.3159986,0.1980483 0.3627069,0.3013401 A 2.0886019,2.0886019 0 0 1 0.3036977,0.45750799 c -0.019681,0.046743 -0.0418226,0.0946985 -0.0664241,0.13894669 -0.13523925,0.0541233 -0.22255738,0.11684005 -0.23239809,0.16597379 -0.00367477,0.0184684 0.00246102,0.0356895 0.01600852,0.0492029 0.0049221,0.003708 0.02214154,0.0184684 0.05162873,0.0184684 0.0897436,0 0.18444223,-0.14511445 0.23239797,-0.23239797 0.0369023,-0.0123007 0.0738046,-0.0246015 0.11067224,-0.0344423 A 1.2114702,1.2114702 0 0 1 0.53363571,0.5374454 c 0.094664,0.0848235 0.17827463,0.0983716 0.22009723,0.0983716 0.0516288,0 0.070097,-0.0209289 0.0762302,-0.0381149 0.0110881,-0.0221763 0.003675,-0.046743 -0.00738,-0.0590438 z m -0.0492029,0.0356895 c -0.003708,0.0184338 -0.0221763,0.0307345 -0.0479556,0.0307345 -0.00738,0 -0.0135134,-0.001247 -0.0209284,-0.002461 -0.0467084,-0.0110881 -0.0909911,-0.0344423 -0.13523925,-0.0713444 a 0.61389516,0.61389516 0 0 1 0.1032572,-0.008593 c 0.0258488,0 0.0479903,0.001214 0.0627166,0.004922 0.0172211,0.003675 0.0442825,0.0147606 0.0381154,0.0467083 z M 0.51270699,0.51655143 a 1.3170489,1.3170489 0 0 0 -0.10204437,0.0233541 1.3749145,1.3749145 0 0 0 -0.0873182,0.0258141 1.387735,1.387735 0 0 0 0.0418226,-0.0885309 c 0.0147606,-0.0344423 0.0270267,-0.0700971 0.0393627,-0.10329184 0.012266,0.0208943 0.0258146,0.0418226 0.039328,0.0602565 a 1.7369037,1.7369037 0 0 0 0.0688493,0.082398 z M 0.35165354,0.05910137 a 0.02661125,0.02661125 0 0 1 0.0233541,-0.01472654 c 0.0258141,0 0.0307345,0.02948719 0.0307345,0.05287603 0,0.039328 -0.0123008,0.09958424 -0.033195,0.16843394 C 0.33685765,0.16977343 0.3344324,0.08987037 0.35165354,0.05910137 Z M 0.21637966,0.63210945 C 0.15366311,0.73540131 0.09340664,0.79933066 0.05653895,0.79933066 A 0.03021485,0.03021485 0 0 1 0.0381052,0.79319776 C 0.0307248,0.78581776 0.02701709,0.77722386 0.0294776,0.76738366 0.036858,0.73048136 0.10816782,0.67885266 0.21637966,0.63210945 Z"
     id="path4"
     style="stroke-width:0.0346501;fill:#ff0000" />
  <metadata
     id="metadata185">
    <rdf:RDF>
      <cc:Work
         rdf:about="">
        <dc:title>Adobe Acrobat Reader icon</dc:title>
      </cc:Work>
    </rdf:RDF>
  </metadata>
</svg>
