<?xml version="1.0" encoding="UTF-8" standalone="no"?>
<svg
   version="1.1"
   width="28"
   height="28"
   color-interpolation="linearRGB"
   id="svg88"
   sodipodi:docname="AI.svg"
   inkscape:version="1.2.2 (b0a8486541, 2022-12-01)"
   xmlns:inkscape="http://www.inkscape.org/namespaces/inkscape"
   xmlns:sodipodi="http://sodipodi.sourceforge.net/DTD/sodipodi-0.dtd"
   xmlns="http://www.w3.org/2000/svg"
   xmlns:svg="http://www.w3.org/2000/svg">
  <defs
     id="defs92" />
  <sodipodi:namedview
     id="namedview90"
     pagecolor="#ffffff"
     bordercolor="#000000"
     borderopacity="0.25"
     inkscape:showpageshadow="2"
     inkscape:pageopacity="0.0"
     inkscape:pagecheckerboard="0"
     inkscape:deskcolor="#d1d1d1"
     showgrid="false"
     inkscape:zoom="13.5625"
     inkscape:cx="26.764977"
     inkscape:cy="27.207373"
     inkscape:window-width="1920"
     inkscape:window-height="1052"
     inkscape:window-x="0"
     inkscape:window-y="0"
     inkscape:window-maximized="1"
     inkscape:current-layer="svg88" />
  <g
     id="g86"
     transform="matrix(0.43177061,0,0,0.41736733,0.15623082,0.71069032)">
    <path
       style="fill:#000000;fill-opacity:0.4078"
       d="m 19,58 10,-1 5,7 c 0,0 9,1 16,-2 C 57,59 65.26,51.95 64,45 62,34 50,40 50,40 H 38 v 4 h 6 l -9,8 H 24 Z"
       id="path2" />
    <path
       style="fill:none;stroke:#000000;stroke-width:4;stroke-linejoin:round"
       d="m 20,16 c -4,6 -4,10 -4,14 0,4 2,6 2,6 v 14 c 0,0 -8,6 2,6 8,0 4,-18 4,-18 l 8,4 v 12 c 0,0 -12,8 2,8 8,0 2,-28 2,-28 l 4,-4 c 0,0 4,4 6,4 2,0 4,0 4,0 l 2,6 c 0,0 -8,6 4,6 8,0 -2,-16 -2,-16 h -2 c 0,0 0,-6 0,-10 C 52,16.81 50.72,11.81 46.16,8.08 58,16 58,2 58,2 58,2 52,10 42,6 36.12,3.65 24,10 20,16 Z"
       id="path4" />
    <radialGradient
       id="gradient0"
       gradientUnits="userSpaceOnUse"
       cx="0"
       cy="0"
       r="64"
       gradientTransform="matrix(0.7031,0,0,0.7499,19,13)">
      <stop
         offset="0"
         stop-color="#dda771"
         id="stop6" />
      <stop
         offset="0.9962"
         stop-color="#a97644"
         id="stop8" />
    </radialGradient>
    <path
       style="fill:url(#gradient0)"
       d=""
       id="path11" />
    <linearGradient
       id="gradient1"
       gradientUnits="userSpaceOnUse"
       x1="21.52"
       y1="-12.88"
       x2="53.860001"
       y2="-5.6599998">
      <stop
         offset="0"
         stop-color="#875b2f"
         id="stop13" />
      <stop
         offset="1"
         stop-color="#c58a50"
         id="stop15" />
      <stop
         offset="0.7706"
         stop-color="#a97644"
         id="stop17" />
    </linearGradient>
    <path
       style="fill:url(#gradient1)"
       d="M 32,17 16,29 v 2 c 0,0 3,0 5,2 2,2 3,5 3,5 l 8,4 v 12 c 0,0 -12,8 2,8 8,0 2,-28 2,-28 0,0 2,-6 2,-8 0,-2 -1.67,-6.3 -6,-9 z"
       id="path20" />
    <radialGradient
       id="gradient2"
       gradientUnits="userSpaceOnUse"
       cx="0"
       cy="0"
       r="64"
       gradientTransform="matrix(0.7031,0,0,0.7499,19,13)">
      <stop
         offset="0"
         stop-color="#dda771"
         id="stop22" />
      <stop
         offset="0.9962"
         stop-color="#a97644"
         id="stop24" />
    </radialGradient>
    <path
       style="fill:url(#gradient2)"
       d="m 40,30 c 0,0 3.15,0.94 6,0 3,-1 4,-8 4,-10 C 50,14 46.16,8.08 46.16,8.08 46.16,8.08 41,6 37,7 29,9 21,19 21,19 l 11,-2 c 4.33,2.7 6,7 6,9 0,2 -2,8 -2,8 z"
       id="path27" />
    <path
       style="fill:#d7a26e"
       d="m 18,36 v 14 c 0,0 -8,6 2,6 8,0 4,-18 4,-18 0,0 -1,-3 -3,-5 -2,-2 -5,-2 -5,-2 z"
       id="path29" />
    <linearGradient
       id="gradient3"
       gradientUnits="userSpaceOnUse"
       x1="42.369999"
       y1="-14.97"
       x2="64.489998"
       y2="-12.12">
      <stop
         offset="0"
         stop-color="#c28d59"
         id="stop31" />
      <stop
         offset="1"
         stop-color="#b6783b"
         id="stop33" />
      <stop
         offset="0.8646"
         stop-color="#a26c38"
         id="stop35" />
    </linearGradient>
    <path
       style="fill:url(#gradient3)"
       d="m 50,20 c 0,2 -1,9 -4,10 -2.85,0.94 -6,0 -6,0 0,0 4,4 6,4 2,0 4,0 4,0 l 2,6 c 0,0 -8,6 4,6 8,0 -2,-16 -2,-16 h -2 c 0,0 0,-6 0,-10 C 52,16.81 50.72,11.81 46.16,8.08 46.16,8.08 50,14 50,20 Z"
       id="path38" />
    <linearGradient
       id="gradient4"
       gradientUnits="userSpaceOnUse"
       x1="19.030001"
       y1="-15.59"
       x2="40.049999"
       y2="-20.719999">
      <stop
         offset="0"
         stop-color="#f4c597"
         id="stop40" />
      <stop
         offset="1"
         stop-color="#daa470"
         id="stop42" />
    </linearGradient>
    <path
       style="fill:url(#gradient4)"
       d="m 20,16 1,4 c 0,0 8,-11.01 16,-13 4,-1 9.16,1.08 9.16,1.08 L 42,6 C 36.12,3.65 24,10 20,16 Z"
       id="path45" />
    <path
       style="fill:#daa470"
       d="m 58,2 c 0,0 -6,8 -16,4 l 2,1 C 57,12 58,2 58,2 Z"
       id="path47" />
    <linearGradient
       id="gradient5"
       gradientUnits="userSpaceOnUse"
       x1="42.369999"
       y1="-14.97"
       x2="64.489998"
       y2="-12.12">
      <stop
         offset="0"
         stop-color="#c28d59"
         id="stop49" />
      <stop
         offset="1"
         stop-color="#b6783b"
         id="stop51" />
      <stop
         offset="0.8646"
         stop-color="#a26c38"
         id="stop53" />
    </linearGradient>
    <path
       style="fill:url(#gradient5)"
       d="M 46.16,8.08 C 58,16 58,2 58,2 58,2 57,12 44.02,7.01 Z"
       id="path56" />
    <path
       style="fill:none;stroke:#000000;stroke-width:4;stroke-linejoin:round"
       d="M 16,6 C 16,6 13,4 8,6 2.74,8.1 2,14 2,14 l 10,-2 z"
       id="path58" />
    <path
       style="fill:#f8cca1"
       d="M 16,6 C 16,6 13,4 8,6 2.74,8.1 2,14 2,14 l 10,-2 z"
       id="path60" />
    <path
       style="fill:none;stroke:#000000;stroke-width:4;stroke-linejoin:round"
       d="m 28.09,12.5 c 0.57,1.59 0.6,3.43 -0.09,5.5 -0.75,2.23 -2.6,4.33 -4.95,6.03 C 23.05,24.03 22,17 21,15 Z M 20,6 c 3.93,1.3 7,3.47 8.09,6.5 L 21,15 c 1,2 2.05,9.03 2.05,9.03 C 19.76,26.41 15.5,28 12,28 6,28 4.46,24.13 6,18 8,10 11.51,3.17 20,6 Z"
       id="path62" />
    <radialGradient
       id="gradient6"
       gradientUnits="userSpaceOnUse"
       cx="0"
       cy="0"
       r="64"
       gradientTransform="matrix(0.2047,0.1393,-0.3093,0.4543,8.9428,7.1471)">
      <stop
         offset="0"
         stop-color="#fdd6ab"
         id="stop64" />
      <stop
         offset="1"
         stop-color="#c48b54"
         id="stop66" />
    </radialGradient>
    <path
       style="fill:url(#gradient6)"
       d="m 20,6 c 3.93,1.3 7,3.47 8.09,6.5 L 21,15 c 1,2 2.05,9.03 2.05,9.03 C 19.76,26.41 15.5,28 12,28 6,28 4.46,24.13 6,18 8,10 11.51,3.17 20,6 Z"
       id="path69" />
    <path
       style="fill:#99632d"
       d="m 28.09,12.5 c 0.57,1.59 0.6,3.43 -0.09,5.5 -0.75,2.23 -2.6,4.33 -4.95,6.03 C 23.05,24.03 22,17 21,15 Z"
       id="path71" />
    <path
       style="fill:#000000"
       d="m 20,14 c 0,0 2,2 4,4 1.05,1.05 6,6 6,6 0,0 3,-4 2,-8 -1.22,-4.86 -8,-8 -8,-8 0,0 9.01,2.08 10,8 1,6 -3,10 -3,10 0,0 -5,-4 -7,-6 -2,-2 -4,-6 -4,-6 z"
       id="path73" />
    <linearGradient
       id="gradient7"
       gradientUnits="userSpaceOnUse"
       x1="32.029999"
       y1="-0.0099999998"
       x2="41.41"
       y2="9.3699999">
      <stop
         offset="0"
         stop-color="#d4975b"
         id="stop75" />
      <stop
         offset="1"
         stop-color="#a06f40"
         id="stop77" />
    </linearGradient>
    <path
       style="fill:url(#gradient7)"
       d="m 20,14 4,-6 c 0,0 6.78,3.14 8,8 1,4 -2,8 -2,8 0,0 -4,-4 -6,-6 -2,-2 -4,-4 -4,-4 z"
       id="path80" />
    <path
       style="fill:#000000"
       d="M 8.09,24.4 11,23 V 22 L 6,20 v 1 z"
       id="path82" />
    <path
       style="fill:#000000"
       d="M 9,12 C 8.44,12 8,13.11 8,14.5 8,15.88 8.44,17 9,17 9.55,17 11,15.88 11,14.5 11,13.11 9.55,12 9,12 Z m 7,4 c -1.11,0 -2,0.89 -2,2 0,1.1 0.89,2 2,2 1.1,0 2,-0.9 2,-2 0,-1.11 -0.9,-2 -2,-2 z"
       id="path84" />
  </g>
</svg>
