<?xml version="1.0" encoding="UTF-8" standalone="no"?>
<svg
   version="1.1"
   width="28"
   height="28"
   color-interpolation="linearRGB"
   id="svg75"
   sodipodi:docname="archive-zip.svg"
   inkscape:version="1.2.2 (b0a8486541, 2022-12-01)"
   xmlns:inkscape="http://www.inkscape.org/namespaces/inkscape"
   xmlns:sodipodi="http://sodipodi.sourceforge.net/DTD/sodipodi-0.dtd"
   xmlns="http://www.w3.org/2000/svg"
   xmlns:svg="http://www.w3.org/2000/svg">
  <defs
     id="defs79" />
  <sodipodi:namedview
     id="namedview77"
     pagecolor="#ffffff"
     bordercolor="#000000"
     borderopacity="0.25"
     inkscape:showpageshadow="2"
     inkscape:pageopacity="0.0"
     inkscape:pagecheckerboard="0"
     inkscape:deskcolor="#d1d1d1"
     showgrid="false"
     inkscape:zoom="13.5625"
     inkscape:cx="26.986175"
     inkscape:cy="26.101382"
     inkscape:window-width="1920"
     inkscape:window-height="1054"
     inkscape:window-x="0"
     inkscape:window-y="0"
     inkscape:window-maximized="1"
     inkscape:current-layer="svg75" />
  <g
     id="g73"
     transform="matrix(0.43541031,0,0,0.43541031,0.19311186,0.30303766)">
    <path
       style="fill:#010101;fill-opacity:0.5333"
       d="m 36,63 h 5 c 0,0 4.5,-3.38 7.12,-6.92 2.91,-3.91 3.96,-8.03 3.96,-8.03 0,0 4.98,-4.01 7.96,-8.03 C 63.02,36.01 63,32 63,32 l -4,-2 -2,5 z"
       id="path2" />
    <path
       style="fill:none;stroke:#010000;stroke-width:4"
       d="m 3,32 c 0,0 -1,2.47 -1,5.25 0,3.61 0.62,7.37 0.62,7.37 0,0 2.35,1.95 5.61,3.68 3.97,2.1 8.38,3.43 8.38,3.43 L 16.62,37.87 29.5,24.75 c 0,0 -4.05,-1.65 -7.84,-3.2 -3.37,-1.38 -6.55,-1.67 -6.55,-1.67 0,0 -4.07,2.07 -7.24,5.24 C 4.49,28.5 3,32 3,32 Z m 27,-8.25 8.93,-9.69 c 0,0 -3.86,-1.4 -7.51,-2.73 C 28.13,10.13 25,10 25,10 c 0,0 -1.73,0.72 -3.63,2.62 -2.32,2.32 -4.88,4.88 -4.88,4.88 z m 1.5,1.62 16.37,5.63 0.05,14.96 c 0,0 3.92,-3.85 6.44,-7.18 1.93,-2.54 2.64,-5.16 2.64,-5.16 0,0 1,-3.67 1,-7.25 0,-2.84 -1.75,-4.87 -1.75,-4.87 0,0 -4.04,-2.61 -8.92,-4.38 -3.54,-1.29 -6.61,-1.91 -6.61,-1.91 0,0 -2.05,1.44 -4.32,3.58 -2.79,2.64 -4.9,6.58 -4.9,6.58 z M 46.62,33 c 0,0 -4.2,-2.15 -8.65,-4.06 -3.97,-1.7 -7.47,-2.69 -7.47,-2.69 0,0 -2.91,2.24 -5.72,5.29 -3.16,3.43 -6.16,7.08 -6.16,7.08 0,0 -0.38,2.97 -0.38,6.26 0,4.1 0.63,8.59 0.63,8.59 0,0 3.28,2.19 7.43,4.39 4.69,2.49 9.7,3.39 9.7,3.39 0,0 3.12,-2.38 6.12,-6.33 2.76,-3.63 4.65,-7.25 4.65,-7.25 0,0 0.46,-3.59 0.43,-7.31 C 47.16,36.62 46.62,33 46.62,33 Z"
       id="path4" />
    <linearGradient
       id="gradient0"
       gradientUnits="userSpaceOnUse"
       x1="13.84"
       y1="-34.139999"
       x2="58.34"
       y2="-23.700001">
      <stop
         offset="0"
         stop-color="#fff8ea"
         id="stop6" />
      <stop
         offset="1"
         stop-color="#f5deac"
         id="stop8" />
    </linearGradient>
    <path
       style="fill:url(#gradient0)"
       d="m 46.62,33 c 0,0 -4.2,-2.15 -8.65,-4.06 -3.97,-1.7 -7.47,-2.69 -7.47,-2.69 0,0 -2.91,2.24 -5.72,5.29 -3.16,3.43 -6.16,7.08 -6.16,7.08 L 36,46 c 0,0 3.67,-3.28 6.34,-6.54 C 44.98,36.22 46.62,33 46.62,33 Z M 3,32 16.62,37.87 29.5,24.75 c 0,0 -4.05,-1.65 -7.84,-3.2 -3.37,-1.38 -6.55,-1.67 -6.55,-1.67 0,0 -4.07,2.07 -7.24,5.24 C 4.49,28.5 3,32 3,32 Z m 27,-8.25 8.93,-9.69 c 0,0 -3.86,-1.4 -7.51,-2.73 C 28.13,10.13 25,10 25,10 c 0,0 -1.73,0.72 -3.63,2.62 -2.32,2.32 -4.88,4.88 -4.88,4.88 z m 1.5,1.62 16.37,5.63 c 0,0 3.47,-2.81 5.73,-5.37 1.9,-2.15 2.65,-4.13 2.65,-4.13 0,0 -4.04,-2.61 -8.92,-4.38 -3.54,-1.29 -6.61,-1.91 -6.61,-1.91 0,0 -2.05,1.44 -4.32,3.58 -2.79,2.64 -4.9,6.58 -4.9,6.58 z"
       id="path11" />
    <linearGradient
       id="gradient1"
       gradientUnits="userSpaceOnUse"
       x1="44.720001"
       y1="-3.9000001"
       x2="86.099998"
       y2="14.51">
      <stop
         offset="0"
         stop-color="#983f04"
         id="stop13" />
      <stop
         offset="1"
         stop-color="#e6c276"
         id="stop15" />
    </linearGradient>
    <path
       style="fill:url(#gradient1)"
       d="m 46.62,33 c 0,0 -1.64,3.22 -4.28,6.46 C 39.67,42.72 36,46 36,46 v 15.25 c 0,0 3.12,-2.38 6.12,-6.33 2.76,-3.63 4.65,-7.25 4.65,-7.25 0,0 0.46,-3.59 0.43,-7.31 C 47.16,36.62 46.62,33 46.62,33 Z m 1.25,-2 0.05,14.96 c 0,0 3.92,-3.85 6.44,-7.18 1.93,-2.54 2.64,-5.16 2.64,-5.16 0,0 1,-3.67 1,-7.25 0,-2.84 -1.75,-4.87 -1.75,-4.87 0,0 -0.75,1.98 -2.65,4.13 C 51.34,28.19 47.87,31 47.87,31 Z"
       id="path18" />
    <linearGradient
       id="gradient2"
       gradientUnits="userSpaceOnUse"
       x1="17.719999"
       y1="94.919998"
       x2="-10.6"
       y2="75.849998">
      <stop
         offset="0"
         stop-color="#eebf5a"
         id="stop20" />
      <stop
         offset="1"
         stop-color="#ffebc0"
         id="stop22" />
    </linearGradient>
    <path
       style="fill:url(#gradient2)"
       d="M 36,46 18.62,38.62 c 0,0 -0.38,2.97 -0.38,6.26 0,4.1 0.63,8.59 0.63,8.59 0,0 3.28,2.19 7.43,4.39 4.69,2.49 9.7,3.39 9.7,3.39 z"
       id="path25" />
    <linearGradient
       id="gradient3"
       gradientUnits="userSpaceOnUse"
       x1="2.8499999"
       y1="-60"
       x2="21.139999"
       y2="-60">
      <stop
         offset="0"
         stop-color="#ffefce"
         id="stop27" />
      <stop
         offset="1"
         stop-color="#ffd16e"
         id="stop29" />
    </linearGradient>
    <path
       style="fill:url(#gradient3)"
       d="m 3,32 c 0,0 -1,2.47 -1,5.25 0,3.61 0.62,7.37 0.62,7.37 0,0 2.35,1.95 5.61,3.68 3.97,2.1 8.38,3.43 8.38,3.43 l 0.01,-13.86 z"
       id="path32" />
    <path
       style="fill:none;stroke:#000000;stroke-width:4"
       d="m 22,13 -4,-1 -4,2 15,16 13,-6 4,-4 -8,-2 V 5 L 26,2 22,4 Z"
       id="path34" />
    <linearGradient
       id="gradient4"
       gradientUnits="userSpaceOnUse"
       x1="56.400002"
       y1="-21.280001"
       x2="74.739998"
       y2="8.8100004">
      <stop
         offset="0"
         stop-color="#f37676"
         id="stop36" />
      <stop
         offset="1"
         stop-color="#e54747"
         id="stop38" />
    </linearGradient>
    <path
       style="fill:url(#gradient4)"
       d="M 42,24 29,30 14,14 22.04,16.87 22,4 34,8 34.04,21.15 Z"
       id="path41" />
    <linearGradient
       id="gradient5"
       gradientUnits="userSpaceOnUse"
       x1="46.93"
       y1="-13.38"
       x2="67.709999"
       y2="3">
      <stop
         offset="0"
         stop-color="#a3043c"
         id="stop43" />
      <stop
         offset="1"
         stop-color="#ff90af"
         id="stop45" />
    </linearGradient>
    <path
       style="fill:url(#gradient5)"
       d="m 34,8 v 14 l 4,-4 V 5 Z"
       id="path48" />
    <linearGradient
       id="gradient6"
       gradientUnits="userSpaceOnUse"
       x1="13"
       y1="-28"
       x2="47"
       y2="-28">
      <stop
         offset="0"
         stop-color="#ffd3d3"
         id="stop50" />
      <stop
         offset="1"
         stop-color="#ffacac"
         id="stop52" />
    </linearGradient>
    <path
       style="fill:url(#gradient6)"
       d="M 22,4 34,8 38,5 26,2 Z"
       id="path55" />
    <linearGradient
       id="gradient7"
       gradientUnits="userSpaceOnUse"
       x1="13"
       y1="-28"
       x2="47"
       y2="-28">
      <stop
         offset="0"
         stop-color="#ffd3d3"
         id="stop57" />
      <stop
         offset="1"
         stop-color="#ffacac"
         id="stop59" />
    </linearGradient>
    <path
       style="fill:url(#gradient7)"
       d="m 18,12 -4,2 8.04,2.87 L 22,13.25 Z"
       id="path62" />
    <path
       style="fill:#f08888"
       d="m 41,21 5,-1 -8.16,-2.34 -3.8,3.49 z"
       id="path64" />
    <linearGradient
       id="gradient8"
       gradientUnits="userSpaceOnUse"
       x1="13"
       y1="-28"
       x2="47"
       y2="-28">
      <stop
         offset="0"
         stop-color="#ffd3d3"
         id="stop66" />
      <stop
         offset="1"
         stop-color="#ffacac"
         id="stop68" />
    </linearGradient>
    <path
       style="fill:url(#gradient8)"
       d="m 42,24 4,-4 -5,1 -6.96,0.15 z"
       id="path71" />
  </g>
</svg>
