<?xml version="1.0" encoding="UTF-8" standalone="no"?>
<svg
   version="1.1"
   width="32"
   height="32"
   color-interpolation="linearRGB"
   id="svg51"
   sodipodi:docname="archive-insert.svg"
   inkscape:version="1.2.2 (b0a8486541, 2022-12-01)"
   xmlns:inkscape="http://www.inkscape.org/namespaces/inkscape"
   xmlns:sodipodi="http://sodipodi.sourceforge.net/DTD/sodipodi-0.dtd"
   xmlns="http://www.w3.org/2000/svg"
   xmlns:svg="http://www.w3.org/2000/svg">
  <defs
     id="defs55" />
  <sodipodi:namedview
     id="namedview53"
     pagecolor="#ffffff"
     bordercolor="#000000"
     borderopacity="0.25"
     inkscape:showpageshadow="2"
     inkscape:pageopacity="0.0"
     inkscape:pagecheckerboard="0"
     inkscape:deskcolor="#d1d1d1"
     showgrid="false"
     inkscape:zoom="12.9375"
     inkscape:cx="32.038647"
     inkscape:cy="25.816425"
     inkscape:window-width="1920"
     inkscape:window-height="1008"
     inkscape:window-x="0"
     inkscape:window-y="0"
     inkscape:window-maximized="1"
     inkscape:current-layer="svg51" />
  <g
     id="g49"
     transform="matrix(0.49970574,0,0,0.49970574,0.29554454,0.26543296)">
    <path
       style="fill:#010101;fill-opacity:0.5333"
       d="m 36,63 h 5 c 0,0 4.5,-3.38 7.12,-6.92 2.91,-3.91 3.96,-8.03 3.96,-8.03 0,0 4.98,-4.01 7.96,-8.03 C 63.02,36.01 63,32 63,32 l -4,-2 -2,5 z"
       id="path2" />
    <path
       style="fill:none;stroke:#010000;stroke-width:4"
       d="m 3,32 c 0,0 -1,2.47 -1,5.25 0,3.61 0.62,7.37 0.62,7.37 0,0 2.35,1.95 5.61,3.68 3.97,2.1 8.38,3.43 8.38,3.43 L 16.62,37.87 29.5,24.75 c 0,0 -4.05,-1.65 -7.84,-3.2 -3.37,-1.38 -6.55,-1.67 -6.55,-1.67 0,0 -4.07,2.07 -7.24,5.24 C 4.49,28.5 3,32 3,32 Z m 27,-8.25 8.93,-9.69 c 0,0 -3.86,-1.4 -7.51,-2.73 C 28.13,10.13 25,10 25,10 c 0,0 -1.73,0.72 -3.63,2.62 -2.32,2.32 -4.88,4.88 -4.88,4.88 z m 1.5,1.62 16.37,5.63 0.05,14.96 c 0,0 3.92,-3.85 6.44,-7.18 1.93,-2.54 2.64,-5.16 2.64,-5.16 0,0 1,-3.67 1,-7.25 0,-2.84 -1.75,-4.87 -1.75,-4.87 0,0 -4.04,-2.61 -8.92,-4.38 -3.54,-1.29 -6.61,-1.91 -6.61,-1.91 0,0 -2.05,1.44 -4.32,3.58 -2.79,2.64 -4.9,6.58 -4.9,6.58 z M 46.62,33 c 0,0 -4.2,-2.15 -8.65,-4.06 -3.97,-1.7 -7.47,-2.69 -7.47,-2.69 0,0 -2.91,2.24 -5.72,5.29 -3.16,3.43 -6.16,7.08 -6.16,7.08 0,0 -0.38,2.97 -0.38,6.26 0,4.1 0.63,8.59 0.63,8.59 0,0 3.28,2.19 7.43,4.39 4.69,2.49 9.7,3.39 9.7,3.39 0,0 3.12,-2.38 6.12,-6.33 2.76,-3.63 4.65,-7.25 4.65,-7.25 0,0 0.46,-3.59 0.43,-7.31 C 47.16,36.62 46.62,33 46.62,33 Z"
       id="path4" />
    <linearGradient
       id="gradient0"
       gradientUnits="userSpaceOnUse"
       x1="13.84"
       y1="-34.139999"
       x2="58.34"
       y2="-23.700001">
      <stop
         offset="0"
         stop-color="#fff8ea"
         id="stop6" />
      <stop
         offset="1"
         stop-color="#f5deac"
         id="stop8" />
    </linearGradient>
    <path
       style="fill:url(#gradient0)"
       d="m 46.62,33 c 0,0 -4.2,-2.15 -8.65,-4.06 -3.97,-1.7 -7.47,-2.69 -7.47,-2.69 0,0 -2.91,2.24 -5.72,5.29 -3.16,3.43 -6.16,7.08 -6.16,7.08 L 36,46 c 0,0 3.67,-3.28 6.34,-6.54 C 44.98,36.22 46.62,33 46.62,33 Z M 3,32 16.62,37.87 29.5,24.75 c 0,0 -4.05,-1.65 -7.84,-3.2 -3.37,-1.38 -6.55,-1.67 -6.55,-1.67 0,0 -4.07,2.07 -7.24,5.24 C 4.49,28.5 3,32 3,32 Z m 27,-8.25 8.93,-9.69 c 0,0 -3.86,-1.4 -7.51,-2.73 C 28.13,10.13 25,10 25,10 c 0,0 -1.73,0.72 -3.63,2.62 -2.32,2.32 -4.88,4.88 -4.88,4.88 z m 1.5,1.62 16.37,5.63 c 0,0 3.47,-2.81 5.73,-5.37 1.9,-2.15 2.65,-4.13 2.65,-4.13 0,0 -4.04,-2.61 -8.92,-4.38 -3.54,-1.29 -6.61,-1.91 -6.61,-1.91 0,0 -2.05,1.44 -4.32,3.58 -2.79,2.64 -4.9,6.58 -4.9,6.58 z"
       id="path11" />
    <linearGradient
       id="gradient1"
       gradientUnits="userSpaceOnUse"
       x1="44.720001"
       y1="-3.9000001"
       x2="86.099998"
       y2="14.51">
      <stop
         offset="0"
         stop-color="#983f04"
         id="stop13" />
      <stop
         offset="1"
         stop-color="#e6c276"
         id="stop15" />
    </linearGradient>
    <path
       style="fill:url(#gradient1)"
       d="m 46.62,33 c 0,0 -1.64,3.22 -4.28,6.46 C 39.67,42.72 36,46 36,46 v 15.25 c 0,0 3.12,-2.38 6.12,-6.33 2.76,-3.63 4.65,-7.25 4.65,-7.25 0,0 0.46,-3.59 0.43,-7.31 C 47.16,36.62 46.62,33 46.62,33 Z m 1.25,-2 0.05,14.96 c 0,0 3.92,-3.85 6.44,-7.18 1.93,-2.54 2.64,-5.16 2.64,-5.16 0,0 1,-3.67 1,-7.25 0,-2.84 -1.75,-4.87 -1.75,-4.87 0,0 -0.75,1.98 -2.65,4.13 C 51.34,28.19 47.87,31 47.87,31 Z"
       id="path18" />
    <linearGradient
       id="gradient2"
       gradientUnits="userSpaceOnUse"
       x1="17.719999"
       y1="94.919998"
       x2="-10.6"
       y2="75.849998">
      <stop
         offset="0"
         stop-color="#e1ab36"
         id="stop20" />
      <stop
         offset="1"
         stop-color="#ffebc0"
         id="stop22" />
    </linearGradient>
    <path
       style="fill:url(#gradient2)"
       d="M 36,46 18.62,38.62 c 0,0 -0.38,2.97 -0.38,6.26 0,4.1 0.63,8.59 0.63,8.59 0,0 3.28,2.19 7.43,4.39 4.69,2.49 9.7,3.39 9.7,3.39 z"
       id="path25" />
    <linearGradient
       id="gradient3"
       gradientUnits="userSpaceOnUse"
       x1="2.8499999"
       y1="-60"
       x2="21.139999"
       y2="-60">
      <stop
         offset="0"
         stop-color="#ffefce"
         id="stop27" />
      <stop
         offset="1"
         stop-color="#ffd16e"
         id="stop29" />
    </linearGradient>
    <path
       style="fill:url(#gradient3)"
       d="m 3,32 c 0,0 -1,2.47 -1,5.25 0,3.61 0.62,7.37 0.62,7.37 0,0 2.35,1.95 5.61,3.68 3.97,2.1 8.38,3.43 8.38,3.43 l 0.01,-13.86 z"
       id="path32" />
    <path
       style="fill:none;stroke:#010000;stroke-width:2;stroke-linecap:round"
       d="m 31,34 c 0,0 0,-12 -5,-15 -3.84,-2.31 -15,5 -8,6 7,1 25,-2 29,1 2.26,1.69 -4,8 -9,7 -3.93,-0.79 -7,-9 -7,-9 0,0 -2.63,0.67 -7,3.25 -4.12,2.42 -9,4 -9,4"
       id="path34" />
    <path
       style="fill:none;stroke:#010000;stroke-width:2"
       d="M 31,24 V 14"
       id="path36" />
    <path
       style="fill:none;stroke:#010000;stroke-width:4;stroke-linejoin:round"
       d="M 30,16 V 2 c 0,0 6,2 11,2 4,0 12,-2 17,-2 v 14 c -5,0 -13,2 -17,2 -5,0 -11,-2 -11,-2 z"
       id="path38" />
    <linearGradient
       id="gradient4"
       gradientUnits="userSpaceOnUse"
       x1="38.950001"
       y1="-23.75"
       x2="66"
       y2="-12.14">
      <stop
         offset="0"
         stop-color="#ffc0c0"
         id="stop40" />
      <stop
         offset="1"
         stop-color="#ff9e9e"
         id="stop42" />
    </linearGradient>
    <path
       style="fill:url(#gradient4)"
       d="M 30,16 V 2 c 0,0 6,2 11,2 4,0 12,-2 17,-2 v 14 c -5,0 -13,2 -17,2 -5,0 -11,-2 -11,-2 z"
       id="path45" />
    <path
       style="fill:none;stroke:#010000;stroke-width:2;stroke-linecap:round;stroke-linejoin:round"
       d="m 32,7 h 6 m -3,0 v 7 m 14,0 V 7 c 0,0 4,-1 4,2 0,3 -3,2 -3,2 l 4,3 m -14,0 3,-7 3,7 m -5,-2 h 4"
       id="path47" />
  </g>
</svg>
