<?xml version="1.0" encoding="utf-8"?>
<!-- Generator: Adobe Illustrator 16.0.3, SVG Export Plug-In . SVG Version: 6.00 Build 0)  -->
<!DOCTYPE svg PUBLIC "-//W3C//DTD SVG 1.1//EN" "http://www.w3.org/Graphics/SVG/1.1/DTD/svg11.dtd">
<svg version="1.1"
	 id="svg8" sodipodi:docname="application-x-rar.svg" inkscape:version="0.92.2 5c3e80d, 2017-08-06" xmlns:dc="http://purl.org/dc/elements/1.1/" xmlns:cc="http://creativecommons.org/ns#" xmlns:rdf="http://www.w3.org/1999/02/22-rdf-syntax-ns#" xmlns:svg="http://www.w3.org/2000/svg" xmlns:sodipodi="http://sodipodi.sourceforge.net/DTD/sodipodi-0.dtd" xmlns:inkscape="http://www.inkscape.org/namespaces/inkscape"
	 xmlns="http://www.w3.org/2000/svg" xmlns:xlink="http://www.w3.org/1999/xlink" x="0px" y="0px" width="24px" height="24px"
	 viewBox="4 4 24 24" enable-background="new 4 4 24 24" xml:space="preserve">
<title  id="title7895">Antu icon Theme</title>
<sodipodi:namedview  id="base" units="px" inkscape:window-y="0" inkscape:window-x="0" inkscape:window-height="697" inkscape:window-width="1366" inkscape:current-layer="layer1" inkscape:document-units="px" inkscape:pageshadow="2" inkscape:pageopacity="0.0" inkscape:zoom="7.9999999" borderopacity="1.0" bordercolor="#666666" showgrid="true" pagecolor="#ffffff" guidetolerance="10" gridtolerance="10" objecttolerance="10" inkscape:cy="18.477717" inkscape:cx="-8.5350262" inkscape:window-maximized="1">
	<inkscape:grid  id="grid7897" type="xygrid" empspacing="4"></inkscape:grid>
</sodipodi:namedview>
<g id="layer1" transform="translate(0,-282.64999)" inkscape:groupmode="layer" inkscape:label="Capa 1">
	<g id="g3063" transform="translate(18,-14.374995)">
		<path id="rect827" inkscape:connector-curvature="0" fill="#B2262C" d="M-12.179,301.109H8.245c1.028,0,1.856,0.713,1.856,1.599
			v20.789c0,0.886-0.828,1.6-1.856,1.6h-20.424c-1.028,0-1.856-0.714-1.856-1.6v-20.789
			C-14.036,301.822-13.208,301.109-12.179,301.109z"/>
		
			<linearGradient id="rect829_1_" gradientUnits="userSpaceOnUse" x1="-218.5659" y1="337.3287" x2="-218.5659" y2="342.6171" gradientTransform="matrix(3.7795 0 0 -3.7795 824.1088 1598.437)">
			<stop  offset="0" style="stop-color:#FC393D"/>
			<stop  offset="1" style="stop-color:#FD5238"/>
		</linearGradient>
		<path id="rect829" inkscape:connector-curvature="0" fill="url(#rect829_1_)" d="M-12.179,301.908H8.245
			c0.515,0,0.928,0.357,0.928,0.8v20.789c0,0.444-0.413,0.8-0.928,0.8h-20.424c-0.514,0-0.928-0.355-0.928-0.8v-20.789
			C-13.107,302.265-12.693,301.908-12.179,301.908z"/>
		<path id="rect4856" sodipodi:nodetypes="cccsssccccccc" inkscape:connector-curvature="0" fill="#010102" d="M-4.752,301.109
			v3.998v0.8v10.396c0,1.328,1.243,2.398,2.786,2.398s2.785-1.07,2.785-2.398v-10.396v-0.8v-3.998H-0.11h-1.856h-1.857H-4.752z"/>
		
			<linearGradient id="rect4917_1_" gradientUnits="userSpaceOnUse" x1="6.3926" y1="335.403" x2="6.3926" y2="347.3971" gradientTransform="matrix(1 0 0 -1 -8.3599 650.1047)">
			<stop  offset="0" style="stop-color:#212121"/>
			<stop  offset="1" style="stop-color:#2C2C2C"/>
		</linearGradient>
		<path id="rect4917" sodipodi:nodetypes="ccssscccc" inkscape:connector-curvature="0" fill="url(#rect4917_1_)" d="
			M-3.824,301.908v2.399v11.995c0,0.885,0.828,1.599,1.857,1.599c1.028,0,1.856-0.714,1.856-1.599v-11.995v-2.399h-1.856H-3.824z"/>
		<path id="path904" inkscape:connector-curvature="0" fill="#FEFEFE" d="M-1.967,301.908v0.8h0.929v-0.8H-1.967z M-1.967,302.708
			h-0.929v0.8h0.929V302.708z M-1.967,303.507v0.799h0.929v-0.799H-1.967z M-1.967,304.307h-0.929v0.799h0.929V304.307z
			 M-1.967,305.106v0.8h0.929v-0.8H-1.967z M-1.967,305.906h-0.929v0.8h0.929V305.906z M-1.967,306.706v0.8h0.929v-0.8H-1.967z
			 M-1.967,307.505h-0.929v0.799h0.929V307.505z M-1.967,308.305v0.8h0.929v-0.8H-1.967z M-1.967,309.105h-0.929v0.8h0.929V309.105z
			 M-1.967,309.904v0.799h0.929v-0.799H-1.967z M-1.967,310.704h-0.929v0.799h0.929V310.704z M-1.967,311.503v0.8h0.929v-0.8H-1.967
			z M-1.967,312.303h-0.929v0.8h0.929V312.303z M-1.967,313.103v0.799h0.929v-0.799H-1.967z M-1.967,313.902h-0.929v0.8h0.929
			V313.902z M-1.967,314.702v0.8h0.929v-0.8H-1.967z M-1.967,315.502h-0.929v0.8h0.929V315.502z M-1.967,316.301v0.799h0.929v-0.799
			H-1.967z"/>
	</g>
</g>
</svg>
