<?xml version="1.0" encoding="utf-8"?>
<!-- Generator: Adobe Illustrator 16.0.3, SVG Export Plug-In . SVG Version: 6.00 Build 0)  -->
<!DOCTYPE svg PUBLIC "-//W3C//DTD SVG 1.1//EN" "http://www.w3.org/Graphics/SVG/1.1/DTD/svg11.dtd">
<svg version="1.1"
	 id="Capa_1" xmlns:cc="http://creativecommons.org/ns#" xmlns:rdf="http://www.w3.org/1999/02/22-rdf-syntax-ns#" xmlns:dc="http://purl.org/dc/elements/1.1/"
	 xmlns="http://www.w3.org/2000/svg" xmlns:xlink="http://www.w3.org/1999/xlink" x="0px" y="0px" width="24px" height="24px"
	 viewBox="0 0 24 24" enable-background="new 0 0 24 24" xml:space="preserve">
<g>
	<path fill="#484759" d="M12.431-0.03c-0.401-0.014-0.803-0.008-1.205,0.017C4.59,0.416-0.44,6.14-0.014,12.773
		c0.429,6.636,6.153,11.668,12.788,11.24c6.638-0.43,11.666-6.152,11.24-12.791C23.615,5.057,18.609,0.191,12.431-0.03z"/>
</g>
<g enable-background="new    ">
	<path fill="#FFFFFF" d="M8.028,15.426H4.324v-0.433c0.172-0.015,0.375-0.051,0.607-0.107c0.232-0.058,0.349-0.129,0.349-0.214
		c0-0.029-0.002-0.063-0.007-0.1s-0.019-0.087-0.041-0.149l-0.581-1.63H2.304c-0.054,0.152-0.114,0.329-0.179,0.532
		c-0.065,0.203-0.122,0.385-0.169,0.543c-0.061,0.207-0.096,0.356-0.107,0.449s-0.017,0.157-0.017,0.194
		c0,0.118,0.078,0.219,0.232,0.302s0.413,0.144,0.773,0.18v0.433h-2.79v-0.433c0.105-0.007,0.225-0.026,0.357-0.058
		c0.132-0.031,0.237-0.075,0.313-0.131c0.131-0.088,0.242-0.197,0.333-0.326c0.091-0.13,0.167-0.283,0.228-0.46
		c0.371-1.038,0.742-2.079,1.114-3.121s0.784-2.191,1.234-3.447h0.958c0.626,1.781,1.117,3.188,1.472,4.223
		c0.354,1.034,0.656,1.892,0.906,2.571c0.042,0.111,0.094,0.212,0.158,0.303c0.064,0.09,0.155,0.176,0.273,0.257
		c0.089,0.06,0.193,0.104,0.312,0.134c0.118,0.029,0.226,0.048,0.321,0.055V15.426z M4.455,12.245L3.47,9.402L2.5,12.245H4.455z"/>
	<path fill="#FFFFFF" d="M15.897,15.426h-2.609c-0.45-0.798-0.825-1.434-1.123-1.906c-0.299-0.473-0.67-1.02-1.114-1.641h-0.263
		v2.389c0,0.133,0.021,0.246,0.065,0.338c0.043,0.093,0.125,0.17,0.247,0.232c0.061,0.03,0.156,0.061,0.285,0.092
		s0.241,0.053,0.333,0.063v0.433H8.09v-0.433c0.093-0.011,0.215-0.026,0.367-0.047s0.26-0.045,0.324-0.074
		c0.121-0.06,0.203-0.135,0.244-0.225c0.042-0.091,0.063-0.206,0.063-0.347V8.753c0-0.133-0.018-0.244-0.053-0.333
		C9,8.332,8.915,8.254,8.781,8.188C8.678,8.14,8.558,8.1,8.419,8.066C8.28,8.033,8.17,8.009,8.09,7.994V7.562h3.815
		c0.854,0,1.501,0.154,1.943,0.462c0.442,0.309,0.664,0.775,0.664,1.399c0,0.551-0.137,0.993-0.41,1.327
		c-0.272,0.334-0.689,0.596-1.248,0.784c0.217,0.325,0.471,0.702,0.76,1.131s0.59,0.866,0.903,1.313
		c0.099,0.144,0.233,0.32,0.404,0.529s0.322,0.337,0.453,0.385c0.073,0.026,0.167,0.048,0.28,0.066s0.194,0.03,0.242,0.033V15.426z
		 M12.634,9.579c0-0.524-0.127-0.908-0.381-1.15s-0.616-0.363-1.085-0.363h-0.379v3.292h0.364c0.47,0,0.834-0.142,1.093-0.427
		C12.505,10.647,12.634,10.196,12.634,9.579z"/>
	<path fill="#FFFFFF" d="M23.906,15.426h-2.693c-0.406-0.721-0.772-1.322-1.098-1.807c-0.326-0.484-0.743-1.092-1.251-1.823h-0.249
		v2.472c0,0.133,0.021,0.246,0.062,0.338c0.042,0.093,0.125,0.17,0.25,0.232c0.058,0.03,0.143,0.06,0.256,0.089
		c0.113,0.03,0.227,0.052,0.338,0.066v0.433h-3.613v-0.433c0.086-0.007,0.208-0.019,0.366-0.033s0.27-0.036,0.333-0.066
		c0.115-0.052,0.195-0.124,0.24-0.216c0.044-0.093,0.066-0.209,0.066-0.35V8.753c0-0.129-0.019-0.238-0.057-0.327
		c-0.039-0.088-0.122-0.168-0.25-0.238c-0.099-0.052-0.219-0.094-0.359-0.127s-0.254-0.055-0.34-0.066V7.562h3.733v0.432
		c-0.1,0.011-0.218,0.027-0.357,0.047c-0.139,0.021-0.258,0.049-0.356,0.086c-0.125,0.048-0.208,0.124-0.25,0.228
		c-0.041,0.104-0.062,0.218-0.062,0.343v2.649h0.201c0.249-0.263,0.54-0.579,0.872-0.948c0.332-0.37,0.59-0.672,0.771-0.909
		c0.256-0.329,0.443-0.589,0.563-0.781c0.119-0.192,0.18-0.358,0.18-0.499c0-0.063-0.058-0.111-0.173-0.145
		c-0.115-0.033-0.291-0.057-0.527-0.072V7.562h2.957v0.432c-0.357,0.044-0.657,0.119-0.9,0.225
		c-0.242,0.105-0.483,0.282-0.723,0.529c-0.341,0.354-0.622,0.662-0.844,0.922c-0.222,0.26-0.506,0.593-0.854,0.999
		c0.307,0.433,0.675,0.962,1.105,1.589c0.431,0.626,0.86,1.238,1.288,1.833c0.108,0.152,0.232,0.297,0.373,0.436
		s0.295,0.25,0.464,0.335c0.08,0.041,0.171,0.072,0.272,0.095c0.103,0.021,0.19,0.035,0.264,0.038V15.426z"/>
</g>
</svg>
