<?xml version="1.0" encoding="UTF-8" standalone="no"?>
<svg
   version="1.1"
   width="28"
   height="28"
   color-interpolation="linearRGB"
   id="svg149"
   sodipodi:docname="autores.svg"
   inkscape:version="1.2.2 (b0a8486541, 2022-12-01)"
   xmlns:inkscape="http://www.inkscape.org/namespaces/inkscape"
   xmlns:sodipodi="http://sodipodi.sourceforge.net/DTD/sodipodi-0.dtd"
   xmlns="http://www.w3.org/2000/svg"
   xmlns:svg="http://www.w3.org/2000/svg">
  <defs
     id="defs153" />
  <sodipodi:namedview
     id="namedview151"
     pagecolor="#ffffff"
     bordercolor="#000000"
     borderopacity="0.25"
     inkscape:showpageshadow="2"
     inkscape:pageopacity="0.0"
     inkscape:pagecheckerboard="0"
     inkscape:deskcolor="#d1d1d1"
     showgrid="false"
     inkscape:zoom="13.5625"
     inkscape:cx="26.986175"
     inkscape:cy="20.202765"
     inkscape:window-width="1920"
     inkscape:window-height="1052"
     inkscape:window-x="0"
     inkscape:window-y="0"
     inkscape:window-maximized="1"
     inkscape:current-layer="svg149" />
  <g
     id="g147"
     transform="matrix(0.44363982,0,0,0.44363982,-0.41262834,-0.66807212)">
    <path
       style="fill:#010101;fill-opacity:0.4235"
       d="m 34,64 c 0,0 6,0 11,0 5,0 6,-1 11,-2 7.84,-1.57 7,-4 4,-6 -3.44,-2.29 2.56,-1.87 1,-5 -1,-2 -9,-4 -9,-4 l -10,9 z"
       id="path2" />
    <path
       style="fill:none;stroke:#000000;stroke-width:4"
       d="m 22,21 v 17 l 2,2 v 17 l 4,2 h 2 v 1 l 4,2 6,-6 V 42 l 2,-2 V 23 L 29,17 Z"
       transform="translate(10,-6)"
       id="path4" />
    <linearGradient
       id="gradient0"
       gradientUnits="userSpaceOnUse"
       x1="96.599998"
       y1="-47.07"
       x2="124.61"
       y2="-15.05">
      <stop
         offset="0"
         stop-color="#ee9bb0"
         id="stop6" />
      <stop
         offset="1"
         stop-color="#cc5876"
         id="stop8" />
    </linearGradient>
    <path
       style="fill:url(#gradient0)"
       d="m 22,21 v 16 l 2,3 v 17 l 4,2 h 2 v 1 l 4,2 V 45 h 2 V 27 Z"
       transform="translate(10,-6)"
       id="path11" />
    <linearGradient
       id="gradient1"
       gradientUnits="userSpaceOnUse"
       x1="-37.970001"
       y1="-32.98"
       x2="-18.83"
       y2="-50.950001">
      <stop
         offset="0"
         stop-color="#ffe3ea"
         id="stop13" />
      <stop
         offset="0.9962"
         stop-color="#f0a8bb"
         id="stop15" />
    </linearGradient>
    <path
       style="fill:url(#gradient1)"
       d="M 22,21 36,27 42,23 32,22 35.99,19.99 29,17 Z"
       transform="translate(10,-6)"
       id="path18" />
    <linearGradient
       id="gradient2"
       gradientUnits="userSpaceOnUse"
       x1="57.23"
       y1="-50.610001"
       x2="78.839996"
       y2="-43.970001">
      <stop
         offset="0"
         stop-color="#a02646"
         id="stop20" />
      <stop
         offset="1"
         stop-color="#d53961"
         id="stop22" />
    </linearGradient>
    <path
       style="fill:url(#gradient2)"
       d="m 36,45 h -2 v 17 l 6,-6 V 42 l 2,-2 V 23 l -6,4 z"
       transform="translate(10,-6)"
       id="path25" />
    <path
       style="fill:#71152d"
       d="m 34,45 v 6 l 6,-9 -4,3 z"
       transform="translate(10,-6)"
       id="path27" />
    <linearGradient
       id="gradient3"
       gradientUnits="userSpaceOnUse"
       x1="30.92"
       y1="-67"
       x2="41.07"
       y2="-67">
      <stop
         offset="0"
         stop-color="#ab123a"
         id="stop29" />
      <stop
         offset="1"
         stop-color="#dd718d"
         id="stop31" />
    </linearGradient>
    <path
       style="fill:url(#gradient3)"
       d="m 32,22 10,1 -6,-3 z"
       transform="translate(10,-6)"
       id="path34" />
    <path
       style="fill:none;stroke:#000000;stroke-width:4"
       d="m 31,10 c -2.5,0 -5,2.5 -5,5 0,2.5 2.5,5 5,5 2.5,0 5,-2.5 5,-5 0,-2.5 -2.5,-5 -5,-5 z"
       transform="translate(12,-6)"
       id="path36" />
    <radialGradient
       id="gradient4"
       gradientUnits="userSpaceOnUse"
       cx="0"
       cy="0"
       r="64"
       gradientTransform="matrix(0.1707,0,0,0.1694,30.5529,12.4743)">
      <stop
         offset="0"
         stop-color="#f2f2f2"
         id="stop38" />
      <stop
         offset="1"
         stop-color="#bca184"
         id="stop40" />
      <stop
         offset="0.6742"
         stop-color="#7d7a7a"
         id="stop42" />
    </radialGradient>
    <path
       style="fill:url(#gradient4)"
       d="m 31,10 c -2.5,0 -5,2.5 -5,5 0,2.5 2.5,5 5,5 2.5,0 5,-2.5 5,-5 0,-2.5 -2.5,-5 -5,-5 z"
       transform="translate(12,-6)"
       id="path45" />
    <path
       style="fill:none;stroke:#000000;stroke-width:4"
       d="m 22,21 v 17 l 2,2 v 17 l 4,2 h 2 v 1 l 4,2 6,-6 V 42 l 2,-2 V 23 L 29,17 Z"
       transform="translate(-16,-6)"
       id="path47" />
    <linearGradient
       id="gradient5"
       gradientUnits="userSpaceOnUse"
       x1="85.739998"
       y1="-57.07"
       x2="128.61"
       y2="-8.0500002">
      <stop
         offset="0"
         stop-color="#d5dcff"
         id="stop49" />
      <stop
         offset="1"
         stop-color="#9d9bd5"
         id="stop51" />
    </linearGradient>
    <path
       style="fill:url(#gradient5)"
       d="m 22,21 v 16 l 2,3 v 17 l 4,2 h 2 v 1 l 4,2 V 45 h 2 V 27 Z"
       transform="translate(-16,-6)"
       id="path54" />
    <linearGradient
       id="gradient6"
       gradientUnits="userSpaceOnUse"
       x1="-37.970001"
       y1="-32.98"
       x2="-18.83"
       y2="-50.950001">
      <stop
         offset="0"
         stop-color="#ffffff"
         id="stop56" />
      <stop
         offset="0.9962"
         stop-color="#a4a3d7"
         id="stop58" />
    </linearGradient>
    <path
       style="fill:url(#gradient6)"
       d="M 22,21 36,27 42,23 32,22 35.99,19.99 29,17 Z"
       transform="translate(-16,-6)"
       id="path61" />
    <linearGradient
       id="gradient7"
       gradientUnits="userSpaceOnUse"
       x1="56.23"
       y1="-51.610001"
       x2="77.839996"
       y2="-44.970001">
      <stop
         offset="0"
         stop-color="#373583"
         id="stop63" />
      <stop
         offset="1"
         stop-color="#6967c0"
         id="stop65" />
    </linearGradient>
    <path
       style="fill:url(#gradient7)"
       d="m 36,45 h -2 v 17 l 6,-6 V 42 l 2,-2 V 23 l -6,4 z"
       transform="translate(-16,-6)"
       id="path68" />
    <path
       style="fill:#252382"
       d="m 34,45 v 6 l 6,-9 -4,3 z"
       transform="translate(-16,-6)"
       id="path70" />
    <linearGradient
       id="gradient8"
       gradientUnits="userSpaceOnUse"
       x1="30.92"
       y1="-66"
       x2="41.07"
       y2="-66">
      <stop
         offset="0"
         stop-color="#33318c"
         id="stop72" />
      <stop
         offset="1"
         stop-color="#a4a3d7"
         id="stop74" />
    </linearGradient>
    <path
       style="fill:url(#gradient8)"
       d="m 32,22 10,1 -6,-3 z"
       transform="translate(-16,-6)"
       id="path77" />
    <path
       style="fill:none;stroke:#000000;stroke-width:4"
       d="m 31,10 c -2.5,0 -5,2.5 -5,5 0,2.5 2.5,5 5,5 2.5,0 5,-2.5 5,-5 0,-2.5 -2.5,-5 -5,-5 z"
       transform="translate(-16,-6)"
       id="path79" />
    <radialGradient
       id="gradient9"
       gradientUnits="userSpaceOnUse"
       cx="0"
       cy="0"
       r="64"
       gradientTransform="matrix(0.1707,0,0,0.1694,30.5529,12.4743)">
      <stop
         offset="0"
         stop-color="#f2f2f2"
         id="stop81" />
      <stop
         offset="1"
         stop-color="#bca184"
         id="stop83" />
      <stop
         offset="0.6742"
         stop-color="#7d7a7a"
         id="stop85" />
    </radialGradient>
    <path
       style="fill:url(#gradient9)"
       d="m 31,10 c -2.5,0 -5,2.5 -5,5 0,2.5 2.5,5 5,5 2.5,0 5,-2.5 5,-5 0,-2.5 -2.5,-5 -5,-5 z"
       transform="translate(-16,-6)"
       id="path88" />
    <linearGradient
       id="gradient10"
       gradientUnits="userSpaceOnUse"
       x1="56.23"
       y1="-51.610001"
       x2="77.839996"
       y2="-44.970001">
      <stop
         offset="0"
         stop-color="#373583"
         id="stop90" />
      <stop
         offset="1"
         stop-color="#6967c0"
         id="stop92" />
    </linearGradient>
    <path
       style="fill:url(#gradient10)"
       d="m 28,59 h 2 V 45 l -2,-1 z"
       transform="translate(-16,-6)"
       id="path95" />
    <path
       style="fill:none;stroke:#000000;stroke-width:4"
       d="m 22,21 v 17 l 2,2 v 17 l 4,2 h 2 v 1 l 4,2 6,-6 V 42 l 2,-2 V 23 L 29,17 Z"
       id="path97" />
    <linearGradient
       id="gradient11"
       gradientUnits="userSpaceOnUse"
       x1="85.739998"
       y1="-57.07"
       x2="128.61"
       y2="-8.0500002">
      <stop
         offset="0"
         stop-color="#ffdb97"
         id="stop99" />
      <stop
         offset="1"
         stop-color="#fcaf29"
         id="stop101" />
    </linearGradient>
    <path
       style="fill:url(#gradient11)"
       d="m 22,21 v 16 l 2,3 v 17 l 4,2 h 2 v 1 l 4,2 V 45 h 2 V 27 Z"
       id="path104" />
    <linearGradient
       id="gradient12"
       gradientUnits="userSpaceOnUse"
       x1="-37.970001"
       y1="-32.98"
       x2="-18.83"
       y2="-50.950001">
      <stop
         offset="0"
         stop-color="#fff7ea"
         id="stop106" />
      <stop
         offset="0.9962"
         stop-color="#fdd17b"
         id="stop108" />
    </linearGradient>
    <path
       style="fill:url(#gradient12)"
       d="M 22,21 36,27 42,23 32,22 35.99,19.99 29,17 Z"
       id="path111" />
    <linearGradient
       id="gradient13"
       gradientUnits="userSpaceOnUse"
       x1="55.23"
       y1="-51.610001"
       x2="76.839996"
       y2="-44.970001">
      <stop
         offset="0"
         stop-color="#c85805"
         id="stop113" />
      <stop
         offset="1"
         stop-color="#f06306"
         id="stop115" />
    </linearGradient>
    <path
       style="fill:url(#gradient13)"
       d="m 36,45 h -2 v 17 l 6,-6 V 42 l 2,-2 V 23 l -6,4 z"
       id="path118" />
    <path
       style="fill:#a32904"
       d="m 34,45 v 6 l 6,-9 -4,3 z"
       id="path120" />
    <linearGradient
       id="gradient14"
       gradientUnits="userSpaceOnUse"
       x1="29.92"
       y1="-66"
       x2="40.07"
       y2="-66">
      <stop
         offset="0"
         stop-color="#c85804"
         id="stop122" />
      <stop
         offset="1"
         stop-color="#dc952f"
         id="stop124" />
    </linearGradient>
    <path
       style="fill:url(#gradient14)"
       d="m 32,22 10,1 -6,-3 z"
       id="path127" />
    <path
       style="fill:none;stroke:#000000;stroke-width:4"
       d="m 32,8 c -3,0 -6,3 -6,6 0,3 3,6 6,6 3,0 6,-3 6,-6 0,-3 -3,-6 -6,-6 z"
       id="path129" />
    <radialGradient
       id="gradient15"
       gradientUnits="userSpaceOnUse"
       cx="0"
       cy="0"
       r="64"
       gradientTransform="matrix(0.1707,0,0,0.1694,30.5529,12.4743)">
      <stop
         offset="0"
         stop-color="#f2f2f2"
         id="stop131" />
      <stop
         offset="1"
         stop-color="#bca184"
         id="stop133" />
      <stop
         offset="0.6742"
         stop-color="#7d7a7a"
         id="stop135" />
    </radialGradient>
    <path
       style="fill:url(#gradient15)"
       d="m 32,8 c -3,0 -6,3 -6,6 0,3 3,6 6,6 3,0 6,-3 6,-6 0,-3 -3,-6 -6,-6 z"
       id="path138" />
    <linearGradient
       id="gradient16"
       gradientUnits="userSpaceOnUse"
       x1="55.23"
       y1="-51.610001"
       x2="76.839996"
       y2="-44.970001">
      <stop
         offset="0"
         stop-color="#c85805"
         id="stop140" />
      <stop
         offset="1"
         stop-color="#f06306"
         id="stop142" />
    </linearGradient>
    <path
       style="fill:url(#gradient16)"
       d="m 28,59 h 2 V 45 l -2,-1 z"
       id="path145" />
  </g>
</svg>
