<?xml version="1.0" encoding="UTF-8" standalone="no"?>
<svg
   version="1.1"
   width="28"
   height="28"
   color-interpolation="linearRGB"
   id="svg107"
   sodipodi:docname="basededatos.svg"
   inkscape:version="1.2.2 (b0a8486541, 2022-12-01)"
   xmlns:inkscape="http://www.inkscape.org/namespaces/inkscape"
   xmlns:sodipodi="http://sodipodi.sourceforge.net/DTD/sodipodi-0.dtd"
   xmlns="http://www.w3.org/2000/svg"
   xmlns:svg="http://www.w3.org/2000/svg">
  <defs
     id="defs111" />
  <sodipodi:namedview
     id="namedview109"
     pagecolor="#ffffff"
     bordercolor="#000000"
     borderopacity="0.25"
     inkscape:showpageshadow="2"
     inkscape:pageopacity="0.0"
     inkscape:pagecheckerboard="0"
     inkscape:deskcolor="#d1d1d1"
     showgrid="false"
     inkscape:zoom="12.9375"
     inkscape:cx="21.024155"
     inkscape:cy="19.63285"
     inkscape:window-width="1920"
     inkscape:window-height="1008"
     inkscape:window-x="0"
     inkscape:window-y="0"
     inkscape:window-maximized="1"
     inkscape:current-layer="svg107" />
  <g
     id="g105"
     transform="matrix(0.43432186,0,0,0.43432186,0.09642021,0.41028946)">
    <path
       style="fill:#000000;fill-opacity:0.4588"
       d="M 34,62 H 52 L 54,60 43,55 66,32 60,30 H 34 Z M 56,52 48,48 H 60 L 52,44 H 64 L 56,40 H 68 L 56,34 38,52 Z"
       transform="translate(-4)"
       id="path2" />
    <path
       style="fill:none;stroke:#010000;stroke-width:4;stroke-linecap:square"
       d="M 10,32 V 44 L 34,56 58,32 V 22 L 34,12 Z"
       transform="translate(-4)"
       id="path4" />
    <linearGradient
       id="gradient0"
       gradientUnits="userSpaceOnUse"
       x1="69.57"
       y1="20.52"
       x2="59.580002"
       y2="48.07">
      <stop
         offset="0"
         stop-color="#ffcc99"
         id="stop6" />
      <stop
         offset="1"
         stop-color="#bd8752"
         id="stop8" />
    </linearGradient>
    <path
       style="fill:url(#gradient0)"
       d="M 10,32 34,44 58,22 34,12 Z"
       transform="translate(-4)"
       id="path11" />
    <linearGradient
       id="gradient1"
       gradientUnits="userSpaceOnUse"
       x1="7.8000002"
       y1="7.2600002"
       x2="36.419998"
       y2="-7.04">
      <stop
         offset="0.4886"
         stop-color="#996633"
         id="stop13" />
      <stop
         offset="0.7537"
         stop-color="#b78759"
         id="stop15" />
    </linearGradient>
    <path
       style="fill:url(#gradient1)"
       d="M 49.02,27.51 54.33,22.64 34.34,14.31 13.62,31.57 18.63,34.08 34,20 Z"
       transform="translate(-4)"
       id="path18" />
    <linearGradient
       id="gradient2"
       gradientUnits="userSpaceOnUse"
       x1="49.939999"
       y1="4.8699999"
       x2="57.380001"
       y2="14.77">
      <stop
         offset="0"
         stop-color="#c88c51"
         id="stop20" />
      <stop
         offset="1"
         stop-color="#ffcc99"
         id="stop22" />
    </linearGradient>
    <path
       style="fill:url(#gradient2)"
       d="M 49.02,27.51 33.66,41.59 18.63,34.08 34,20 Z"
       transform="translate(-4)"
       id="path25" />
    <linearGradient
       id="gradient3"
       gradientUnits="userSpaceOnUse"
       x1="73.800003"
       y1="49.07"
       x2="49.209999"
       y2="69.550003">
      <stop
         offset="0"
         stop-color="#996633"
         id="stop27" />
      <stop
         offset="1"
         stop-color="#683a0e"
         id="stop29" />
    </linearGradient>
    <path
       style="fill:url(#gradient3)"
       d="M 34,56 58,32 V 22 L 34,44 Z"
       transform="translate(-4)"
       id="path32" />
    <path
       style="fill:none;stroke:#010000;stroke-width:4;stroke-linecap:square"
       d="M 38,37 V 22 L 22,15 v 20 l 11.49,5.74 z"
       transform="translate(8,-12)"
       id="path34" />
    <linearGradient
       id="gradient4"
       gradientUnits="userSpaceOnUse"
       x1="25.120001"
       y1="36.560001"
       x2="33.119999"
       y2="20.559999">
      <stop
         offset="0"
         stop-color="#4b4116"
         id="stop36" />
      <stop
         offset="0.7424"
         stop-color="#bab088"
         id="stop38" />
      <stop
         offset="1"
         stop-color="#fcf8e8"
         id="stop40" />
    </linearGradient>
    <path
       style="fill:url(#gradient4)"
       d="M 38,37 V 22 L 22,15 v 20 l 11.49,5.74 z"
       transform="translate(8,-12)"
       id="path43" />
    <path
       style="fill:none;stroke:#010000;stroke-width:4;stroke-linecap:square"
       d="M 38,37 V 22 L 22,15 v 20 l 11.49,5.74 z"
       transform="translate(4,-8)"
       id="path45" />
    <linearGradient
       id="gradient5"
       gradientUnits="userSpaceOnUse"
       x1="25.120001"
       y1="36.560001"
       x2="33.119999"
       y2="20.559999">
      <stop
         offset="0"
         stop-color="#4b4116"
         id="stop47" />
      <stop
         offset="0.7424"
         stop-color="#bab088"
         id="stop49" />
      <stop
         offset="1"
         stop-color="#fcf8e8"
         id="stop51" />
    </linearGradient>
    <path
       style="fill:url(#gradient5)"
       d="M 38,37 V 22 L 22,15 v 20 l 11.49,5.74 z"
       transform="translate(4,-8)"
       id="path54" />
    <path
       style="fill:none;stroke:#010000;stroke-width:4;stroke-linecap:square"
       d="M 38,37 V 22 L 22,15 v 20 l 11.49,5.74 z"
       transform="translate(0,-4)"
       id="path56" />
    <linearGradient
       id="gradient6"
       gradientUnits="userSpaceOnUse"
       x1="25.120001"
       y1="36.560001"
       x2="33.119999"
       y2="20.559999">
      <stop
         offset="0"
         stop-color="#4b4116"
         id="stop58" />
      <stop
         offset="0.7424"
         stop-color="#bab088"
         id="stop60" />
      <stop
         offset="1"
         stop-color="#fcf8e8"
         id="stop62" />
    </linearGradient>
    <path
       style="fill:url(#gradient6)"
       d="M 38,37 V 22 L 22,15 v 20 l 11.49,5.74 z"
       transform="translate(0,-4)"
       id="path65" />
    <path
       style="fill:none;stroke:#010000;stroke-width:4;stroke-linecap:square"
       d="M 38,37 V 22 L 22,15 v 20 l 11.49,5.74 z"
       transform="translate(-4)"
       id="path67" />
    <linearGradient
       id="gradient7"
       gradientUnits="userSpaceOnUse"
       x1="25.120001"
       y1="36.560001"
       x2="33.119999"
       y2="20.559999">
      <stop
         offset="0"
         stop-color="#4b4116"
         id="stop69" />
      <stop
         offset="0.7424"
         stop-color="#bab088"
         id="stop71" />
      <stop
         offset="1"
         stop-color="#fcf8e8"
         id="stop73" />
    </linearGradient>
    <path
       style="fill:url(#gradient7)"
       d="M 38,37 V 22 L 22,15 v 20 l 11.49,5.74 z"
       transform="translate(-4)"
       id="path76" />
    <path
       style="fill:none;stroke:#010000;stroke-width:4"
       d="m 6,18 v 28 l 28,14 2,-2 V 28 L 8,16 Z"
       transform="translate(-4)"
       id="path78" />
    <linearGradient
       id="gradient8"
       gradientUnits="userSpaceOnUse"
       x1="34.23"
       y1="-2.9200001"
       x2="50.689999"
       y2="24.51">
      <stop
         offset="0"
         stop-color="#ffe6ce"
         id="stop80" />
      <stop
         offset="1"
         stop-color="#ffcc99"
         id="stop82" />
    </linearGradient>
    <path
       style="fill:url(#gradient8)"
       d="M 6,18 34,30 36,28 8,16 Z"
       transform="translate(-4)"
       id="path85" />
    <linearGradient
       id="gradient9"
       gradientUnits="userSpaceOnUse"
       x1="42.07"
       y1="14.6"
       x2="60.279999"
       y2="40.91">
      <stop
         offset="0"
         stop-color="#ad8a67"
         id="stop87" />
      <stop
         offset="1"
         stop-color="#7e4e1e"
         id="stop89" />
    </linearGradient>
    <path
       style="fill:url(#gradient9)"
       d="m 34,60 2,-2 V 28 l -2,2 z"
       transform="translate(-4)"
       id="path92" />
    <linearGradient
       id="gradient10"
       gradientUnits="userSpaceOnUse"
       x1="39.029999"
       y1="12.64"
       x2="47.240002"
       y2="43.57">
      <stop
         offset="0"
         stop-color="#eeceae"
         id="stop94" />
      <stop
         offset="1"
         stop-color="#cc9966"
         id="stop96" />
    </linearGradient>
    <path
       style="fill:url(#gradient10)"
       d="M 6,46 34,60 V 30 L 6,18 Z"
       transform="translate(-4)"
       id="path99" />
    <path
       style="fill:#996633"
       d="m 12,32 16,7 v 5 L 12,36 Z"
       transform="translate(-2,4)"
       id="path101" />
    <path
       style="fill:#010000"
       d="m 12,32 16,7 v 5 L 12,36 Z"
       transform="translate(-4)"
       id="path103" />
  </g>
</svg>
