<?xml version="1.0" encoding="utf-8"?>
<!-- Generator: Adobe Illustrator 16.0.3, SVG Export Plug-In . SVG Version: 6.00 Build 0)  -->
<!DOCTYPE svg PUBLIC "-//W3C//DTD SVG 1.1//EN" "http://www.w3.org/Graphics/SVG/1.1/DTD/svg11.dtd">
<svg version="1.1"
	 id="Capa_1" xmlns:dc="http://purl.org/dc/elements/1.1/" xmlns:cc="http://creativecommons.org/ns#" xmlns:rdf="http://www.w3.org/1999/02/22-rdf-syntax-ns#"
	 xmlns="http://www.w3.org/2000/svg" xmlns:xlink="http://www.w3.org/1999/xlink" x="0px" y="0px" width="24px" height="24px"
	 viewBox="0 0 24 24" enable-background="new 0 0 24 24" xml:space="preserve">
<g>
	<g>
		<path fill="#FF0043" d="M12.431-0.03c-0.401-0.014-0.803-0.008-1.205,0.017C4.59,0.416-0.44,6.14-0.014,12.773
			c0.429,6.636,6.153,11.668,12.787,11.24c6.637-0.428,11.666-6.152,11.24-12.789C23.615,5.057,18.609,0.191,12.431-0.03z"/>
	</g>
	<g enable-background="new    ">
		<path fill="#FFFFFF" d="M17.803,12.806c0.438,0.302,0.793,0.68,1.067,1.134c0.273,0.455,0.411,0.991,0.411,1.606
			c0,0.739-0.156,1.363-0.468,1.873s-0.758,0.912-1.339,1.206c-0.616,0.315-1.326,0.537-2.13,0.667s-1.75,0.195-2.838,0.195H4.942
			v-0.801c0.212-0.021,0.479-0.051,0.801-0.092c0.321-0.041,0.547-0.089,0.677-0.144c0.253-0.104,0.426-0.238,0.519-0.406
			c0.092-0.167,0.138-0.385,0.138-0.651V7.13c0-0.246-0.038-0.451-0.113-0.615C6.889,6.35,6.708,6.206,6.42,6.083
			C6.208,5.994,5.962,5.921,5.682,5.862C5.401,5.805,5.155,5.759,4.942,5.724v-0.8h7.913c1.991,0,3.428,0.273,4.311,0.82
			C18.049,6.292,18.49,7.1,18.49,8.167c0,0.492-0.1,0.925-0.297,1.298c-0.199,0.373-0.482,0.696-0.853,0.97
			c-0.335,0.254-0.735,0.473-1.2,0.657c-0.466,0.185-0.965,0.339-1.499,0.462v0.195c0.534,0.055,1.088,0.173,1.663,0.354
			C16.879,12.284,17.379,12.519,17.803,12.806z M14.498,8.423c0-0.807-0.228-1.437-0.683-1.888
			c-0.455-0.452-1.138-0.678-2.048-0.678c-0.13,0-0.299,0.005-0.508,0.016c-0.209,0.01-0.389,0.019-0.539,0.025v5.398h0.534
			c1.109,0,1.926-0.258,2.453-0.774C14.234,10.006,14.498,9.306,14.498,8.423z M15.217,15.418c0-1.015-0.302-1.792-0.904-2.334
			c-0.602-0.541-1.467-0.812-2.596-0.812c-0.13,0-0.303,0.005-0.518,0.015c-0.216,0.011-0.375,0.02-0.478,0.026v5.335
			c0.062,0.254,0.253,0.468,0.575,0.643c0.322,0.175,0.712,0.263,1.17,0.263c0.813,0,1.476-0.274,1.985-0.822
			C14.961,17.183,15.217,16.412,15.217,15.418z"/>
	</g>
</g>
</svg>
