<?xml version="1.0" encoding="utf-8"?>
<!-- Generator: Adobe Illustrator 16.0.3, SVG Export Plug-In . SVG Version: 6.00 Build 0)  -->
<!DOCTYPE svg PUBLIC "-//W3C//DTD SVG 1.1//EN" "http://www.w3.org/Graphics/SVG/1.1/DTD/svg11.dtd">
<svg version="1.1"
	 id="Capa_1" xmlns:cc="http://creativecommons.org/ns#" xmlns:rdf="http://www.w3.org/1999/02/22-rdf-syntax-ns#" xmlns:dc="http://purl.org/dc/elements/1.1/"
	 xmlns="http://www.w3.org/2000/svg" xmlns:xlink="http://www.w3.org/1999/xlink" x="0px" y="0px" width="24px" height="24px"
	 viewBox="0 0 24 24" enable-background="new 0 0 24 24" xml:space="preserve">
<g>
	<g>
		<path fill="#B3123C" d="M12.431-0.03c-0.401-0.014-0.803-0.008-1.205,0.017C4.59,0.416-0.44,6.14-0.014,12.773
			c0.429,6.636,6.153,11.668,12.788,11.24c6.637-0.429,11.666-6.152,11.24-12.79C23.615,5.057,18.609,0.191,12.431-0.03z"/>
	</g>
	<g enable-background="new    ">
		<path fill="#A7AFE0" d="M20.521,14.807c0.438,0.301,0.793,0.68,1.067,1.133C21.861,16.395,22,16.932,22,17.546
			c0,0.739-0.156,1.363-0.469,1.873c-0.312,0.511-0.758,0.912-1.338,1.206c-0.617,0.314-1.326,0.537-2.131,0.667
			c-0.804,0.13-1.75,0.194-2.838,0.194H7.661v-0.801c0.212-0.021,0.479-0.051,0.801-0.092c0.321-0.041,0.547-0.089,0.677-0.144
			c0.253-0.104,0.426-0.238,0.519-0.406c0.092-0.167,0.138-0.385,0.138-0.651V9.13c0-0.246-0.038-0.45-0.113-0.614
			C9.608,8.35,9.427,8.206,9.139,8.083C8.927,7.994,8.681,7.921,8.401,7.861C8.12,7.805,7.874,7.759,7.661,7.725V6.924h7.914
			c1.99,0,3.428,0.273,4.311,0.82c0.883,0.548,1.324,1.355,1.324,2.423c0,0.492-0.1,0.925-0.297,1.298
			c-0.199,0.373-0.482,0.696-0.854,0.971c-0.335,0.254-0.734,0.473-1.199,0.656c-0.467,0.186-0.966,0.34-1.5,0.463v0.194
			c0.534,0.056,1.088,0.173,1.664,0.354C19.598,14.284,20.098,14.52,20.521,14.807z M17.217,10.423c0-0.807-0.229-1.437-0.684-1.888
			c-0.455-0.452-1.138-0.678-2.047-0.678c-0.131,0-0.3,0.004-0.509,0.016c-0.209,0.01-0.389,0.02-0.538,0.025v5.397h0.533
			c1.109,0,1.926-0.258,2.453-0.774C16.953,12.006,17.217,11.307,17.217,10.423z M17.936,17.418c0-1.016-0.302-1.792-0.904-2.334
			c-0.602-0.541-1.467-0.813-2.596-0.813c-0.13,0-0.303,0.006-0.518,0.016c-0.217,0.011-0.375,0.02-0.479,0.025v5.336
			c0.063,0.254,0.254,0.468,0.575,0.643c0.322,0.175,0.712,0.264,1.17,0.264c0.813,0,1.476-0.274,1.985-0.822
			C17.68,19.184,17.936,18.412,17.936,17.418z"/>
	</g>
	<g enable-background="new    ">
		<path fill="#FFFFFF" d="M15.803,11.807c0.438,0.301,0.793,0.68,1.067,1.133c0.272,0.455,0.411,0.992,0.411,1.606
			c0,0.739-0.156,1.363-0.469,1.873c-0.312,0.511-0.758,0.912-1.338,1.206c-0.617,0.314-1.326,0.537-2.131,0.667
			c-0.804,0.13-1.75,0.194-2.838,0.194H2.942v-0.801c0.212-0.021,0.479-0.051,0.801-0.092c0.321-0.041,0.547-0.089,0.677-0.144
			c0.253-0.104,0.426-0.238,0.519-0.406c0.092-0.167,0.138-0.385,0.138-0.651V6.13c0-0.246-0.038-0.451-0.113-0.615
			C4.889,5.35,4.708,5.206,4.42,5.083C4.208,4.994,3.962,4.921,3.682,4.862c-0.281-0.057-0.527-0.103-0.74-0.138v-0.8h7.914
			c1.99,0,3.428,0.273,4.311,0.82C16.049,5.292,16.49,6.1,16.49,7.167c0,0.492-0.1,0.925-0.297,1.298
			c-0.199,0.373-0.482,0.696-0.854,0.97c-0.335,0.254-0.734,0.473-1.199,0.657c-0.467,0.185-0.966,0.339-1.5,0.462v0.195
			c0.534,0.055,1.088,0.173,1.664,0.354C14.879,11.284,15.379,11.52,15.803,11.807z M12.498,7.423c0-0.807-0.229-1.437-0.684-1.888
			c-0.455-0.452-1.138-0.678-2.047-0.678c-0.13,0-0.299,0.005-0.508,0.016C9.05,4.883,8.87,4.892,8.72,4.898v5.398h0.534
			c1.109,0,1.926-0.258,2.453-0.774S12.498,8.306,12.498,7.423z M13.217,14.418c0-1.016-0.302-1.792-0.904-2.334
			c-0.602-0.541-1.467-0.812-2.596-0.812c-0.13,0-0.303,0.005-0.518,0.015c-0.216,0.011-0.375,0.02-0.478,0.026v5.335
			c0.062,0.254,0.253,0.468,0.575,0.643c0.322,0.175,0.712,0.264,1.17,0.264c0.813,0,1.476-0.274,1.985-0.822
			C12.961,16.184,13.217,15.412,13.217,14.418z"/>
	</g>
</g>
</svg>
