<?xml version="1.0" encoding="utf-8"?>
<!-- Generator: Adobe Illustrator 16.0.3, SVG Export Plug-In . SVG Version: 6.00 Build 0)  -->
<!DOCTYPE svg PUBLIC "-//W3C//DTD SVG 1.1//EN" "http://www.w3.org/Graphics/SVG/1.1/DTD/svg11.dtd">
<svg version="1.1"
	 id="svg8" sodipodi:docname="siglas.svg" inkscape:version="1.2.1 (9c6d41e410, 2022-07-14)" xmlns:inkscape="http://www.inkscape.org/namespaces/inkscape" xmlns:sodipodi="http://sodipodi.sourceforge.net/DTD/sodipodi-0.dtd" xmlns:svg="http://www.w3.org/2000/svg" xmlns:rdf="http://www.w3.org/1999/02/22-rdf-syntax-ns#" xmlns:cc="http://creativecommons.org/ns#" xmlns:dc="http://purl.org/dc/elements/1.1/"
	 xmlns="http://www.w3.org/2000/svg" xmlns:xlink="http://www.w3.org/1999/xlink" x="0px" y="0px" width="24px" height="24px"
	 viewBox="4 4 24 24" enable-background="new 4 4 24 24" xml:space="preserve">
<title  id="title7895">Antu icon Theme</title>
<sodipodi:namedview  id="base" units="px" inkscape:deskcolor="#d1d1d1" inkscape:showpageshadow="2" inkscape:window-y="0" inkscape:window-x="0" inkscape:window-height="1005" inkscape:window-width="1920" inkscape:current-layer="layer1" inkscape:document-units="px" inkscape:pageshadow="2" inkscape:pageopacity="0.0" inkscape:cx="18.257042" inkscape:zoom="18.458631" borderopacity="1.0" bordercolor="#666666" showgrid="true" pagecolor="#ffffff" guidetolerance="10" gridtolerance="10" objecttolerance="10" inkscape:cy="16.767224" inkscape:pagecheckerboard="0" inkscape:window-maximized="1">
	<inkscape:grid  id="grid7897" type="xygrid" empspacing="4"></inkscape:grid>
</sodipodi:namedview>
<g id="layer1" transform="translate(0,-282.64999)" inkscape:groupmode="layer" inkscape:label="Capa 1">
	<g id="g1235">
		<path id="rect868-2" opacity="0.98" fill="#1770D9" fill-opacity="0.9804" enable-background="new    " d="M25.689,292.957h1.669
			c0.463,0,0.835,0.364,0.835,0.813v4.068c0,0.45-0.372,0.813-0.835,0.813h-1.669c-0.46,0-0.832-0.364-0.832-0.813v-4.068
			C24.857,293.321,25.229,292.957,25.689,292.957z"/>
		<path id="rect868" inkscape:connector-curvature="0" opacity="0.98" fill="#CC0120" enable-background="new    " d="
			M25.689,287.261h1.669c0.464,0,0.835,0.363,0.835,0.813v4.068c0,0.45-0.371,0.813-0.835,0.813h-1.669
			c-0.462,0-0.832-0.363-0.832-0.813v-4.068C24.857,287.624,25.228,287.261,25.689,287.261z"/>
		<path id="rect870" inkscape:connector-curvature="0" opacity="0.98" fill="#FC3A56" enable-background="new    " d="
			M25.689,288.075h1.669v4.068h-1.669V288.075z"/>
		
			<path id="rect870-9" inkscape:connector-curvature="0" opacity="0.98" fill="#03B0FD" fill-opacity="0.9804" enable-background="new    " d="
			M25.689,293.77h1.669v4.068h-1.669V293.77z"/>
		<path id="rect868-2-1" inkscape:connector-curvature="0" opacity="0.98" fill="#2AA65A" enable-background="new    " d="
			M25.689,298.651h1.669c0.464,0,0.835,0.363,0.835,0.814v4.068c0,0.45-0.371,0.813-0.835,0.813h-1.669
			c-0.462,0-0.832-0.363-0.832-0.813v-4.068C24.857,299.014,25.228,298.651,25.689,298.651z"/>
		<path id="rect870-9-2" inkscape:connector-curvature="0" opacity="0.98" fill="#6BDF73" enable-background="new    " d="
			M25.689,299.465h1.669v4.068h-1.669V299.465z"/>
		<path id="rect868-2-7" inkscape:connector-curvature="0" opacity="0.98" fill="#F89804" enable-background="new    " d="
			M25.689,304.347h1.669c0.464,0,0.835,0.361,0.835,0.813v4.068c0,0.451-0.371,0.814-0.835,0.814h-1.669
			c-0.462,0-0.832-0.363-0.832-0.814v-4.068C24.857,304.709,25.228,304.347,25.689,304.347z"/>
		<g id="g1598" transform="translate(4,-11)">
			<path id="rect843" sodipodi:nodetypes="sssssssss" inkscape:connector-curvature="0" fill="#501616" d="M1.668,297.448h18.354
				c0.924,0,1.667,0.726,1.667,1.627v21.153c0,0.901-0.743,1.628-1.667,1.628H1.668c-0.924,0-1.668-0.727-1.668-1.628v-21.153
				C0,298.174,0.744,297.448,1.668,297.448z"/>
			<path id="rect843-3" inkscape:connector-curvature="0" fill="#DEAA87" d="M1.668,298.261c-0.462,0-0.834,0.363-0.834,0.813
				v21.153c0,0.451,0.372,0.814,0.834,0.814h0.834v-22.781H1.668z M3.337,298.261v22.781h16.685c0.462,0,0.835-0.363,0.835-0.814
				v-21.153c0-0.451-0.373-0.813-0.835-0.813H3.337z"/>
		</g>
		<path id="rect870-9-0" inkscape:connector-curvature="0" opacity="0.98" fill="#FFE200" enable-background="new    " d="
			M25.689,305.16h1.669v4.068h-1.669V305.16z"/>
	</g>
</g>
</svg>
