<?xml version="1.0" encoding="UTF-8" standalone="no"?>
<svg
   version="1.1"
   width="28"
   height="28"
   color-interpolation="linearRGB"
   id="svg106"
   sodipodi:docname="borrar.svg"
   inkscape:version="1.2.2 (b0a8486541, 2022-12-01)"
   xmlns:inkscape="http://www.inkscape.org/namespaces/inkscape"
   xmlns:sodipodi="http://sodipodi.sourceforge.net/DTD/sodipodi-0.dtd"
   xmlns="http://www.w3.org/2000/svg"
   xmlns:svg="http://www.w3.org/2000/svg">
  <defs
     id="defs110" />
  <sodipodi:namedview
     id="namedview108"
     pagecolor="#ffffff"
     bordercolor="#000000"
     borderopacity="0.25"
     inkscape:showpageshadow="2"
     inkscape:pageopacity="0.0"
     inkscape:pagecheckerboard="0"
     inkscape:deskcolor="#d1d1d1"
     showgrid="false"
     inkscape:zoom="12.9375"
     inkscape:cx="32.038647"
     inkscape:cy="25.816425"
     inkscape:window-width="1920"
     inkscape:window-height="1008"
     inkscape:window-x="0"
     inkscape:window-y="0"
     inkscape:window-maximized="1"
     inkscape:current-layer="svg106" />
  <g
     id="g104"
     transform="matrix(0.43818253,0,0,0.43818253,1.5805163,-0.33799522)">
    <path
       style="fill:#010101;fill-opacity:0.4509"
       d="M 32,64 H 45 L 57,52 45,46 Z"
       id="path2" />
    <path
       style="fill:none;stroke:#000000;stroke-width:4"
       d="M 16,53 32,62 44,50 50,18 H 8 Z"
       id="path4" />
    <linearGradient
       id="gradient0"
       gradientUnits="userSpaceOnUse"
       x1="88.169998"
       y1="55.080002"
       x2="69.82"
       y2="91.620003">
      <stop
         offset="0.2651"
         stop-color="#02585d"
         id="stop6" />
      <stop
         offset="0.4015"
         stop-color="#04d47e"
         id="stop8" />
      <stop
         offset="1"
         stop-color="#04a197"
         id="stop10" />
    </linearGradient>
    <path
       style="fill:url(#gradient0)"
       d="m 8,18 8,35 16,9 V 18 Z"
       id="path13" />
    <linearGradient
       id="gradient1"
       gradientUnits="userSpaceOnUse"
       x1="46.290001"
       y1="-49.950001"
       x2="77.809998"
       y2="-40.959999">
      <stop
         offset="0"
         stop-color="#025752"
         id="stop15" />
      <stop
         offset="1"
         stop-color="#04aba1"
         id="stop17" />
    </linearGradient>
    <path
       style="fill:url(#gradient1)"
       d="M 32,18 V 62 L 44,50 50,18 Z"
       id="path20" />
    <path
       style="fill:none;stroke:#000000;stroke-width:4;stroke-linejoin:round"
       d="m 4,22 24.05,12.88 c 2.39,1.28 5.55,0.88 7.89,-0.93 L 54,20 v -3 c 0,-1.07 -0.77,-2.36 -2.04,-2.95 L 30.05,4.63 C 27.62,3.5 24.81,3.55 23.02,4.77 L 5.82,15.75 C 4.68,16.53 4,17.93 4,19 Z"
       id="path22" />
    <linearGradient
       id="gradient2"
       gradientUnits="userSpaceOnUse"
       x1="23.120001"
       y1="-64"
       x2="31.870001"
       y2="-64">
      <stop
         offset="0"
         stop-color="#767676"
         id="stop24" />
      <stop
         offset="1"
         stop-color="#4b4b4b"
         id="stop26" />
    </linearGradient>
    <path
       style="fill:url(#gradient2)"
       d="m 4,19 v 3 L 28.05,34.88 C 30.44,36.16 32,35.5 32,35.5 v -3 c 0,0 -1.56,0.66 -3.95,-0.62 z"
       id="path29" />
    <linearGradient
       id="gradient3"
       gradientUnits="userSpaceOnUse"
       x1="85.580002"
       y1="-0.58999997"
       x2="85.580002"
       y2="35.720001">
      <stop
         offset="0"
         stop-color="#a9a9a9"
         id="stop31" />
      <stop
         offset="1"
         stop-color="#474747"
         id="stop33" />
    </linearGradient>
    <path
       style="fill:url(#gradient3)"
       d="m 32,35.5 c 0,0 1.6,0.25 3.94,-1.58 L 54,19.87 V 16 L 35.94,29.95 C 33.6,31.76 32,31.5 32,31.5 Z"
       id="path36" />
    <linearGradient
       id="gradient4"
       gradientUnits="userSpaceOnUse"
       x1="85.580002"
       y1="-0.58999997"
       x2="85.580002"
       y2="35.720001">
      <stop
         offset="0"
         stop-color="#a9a9a9"
         id="stop38" />
      <stop
         offset="1"
         stop-color="#474747"
         id="stop40" />
    </linearGradient>
    <path
       style="fill:url(#gradient4)"
       d="M 28,4.75 V 28 L 32,30 52,14.12 30.06,4.64 C 27.62,3.5 28,4.75 28,4.75 Z"
       id="path43" />
    <linearGradient
       id="gradient5"
       gradientUnits="userSpaceOnUse"
       x1="-15.52"
       y1="-67.720001"
       x2="23.77"
       y2="-70.040001">
      <stop
         offset="0"
         stop-color="#010101"
         id="stop45" />
      <stop
         offset="0.8787"
         stop-color="#010101"
         id="stop47" />
      <stop
         offset="0.9962"
         stop-color="#838383"
         id="stop49" />
    </linearGradient>
    <path
       style="fill:url(#gradient5)"
       d="m 26,3.75 2,0.12 V 28 L 7,16 23.09,4.89 C 24.84,3.6 26,3.75 26,3.75 Z"
       id="path52" />
    <linearGradient
       id="gradient6"
       gradientUnits="userSpaceOnUse"
       x1="-64"
       y1="-64"
       x2="64"
       y2="-64">
      <stop
         offset="0"
         stop-color="#ffffff"
         id="stop54" />
      <stop
         offset="1"
         stop-color="#aeaeae"
         id="stop56" />
    </linearGradient>
    <path
       style="fill:none;stroke:url(#gradient6);stroke-width:4;stroke-linecap:round"
       d="m 6,18 22.05,11.87 c 2.37,1.28 5.57,0.86 7.89,-0.96 L 52,16.37"
       id="path59" />
    <path
       style="fill:none;stroke:#000000;stroke-width:4"
       d="m 3,10 7,13 c 0,0 6,-1 9,0 3,1 6,2 6,2 L 18,16 C 18,16 14,12 11,11 8,10 3,10 3,10 Z M 29,14 39,4 c 0,0 3.33,2.49 5,5 2,3 3,7 3,7 L 31,26 Z"
       id="path61" />
    <linearGradient
       id="gradient7"
       gradientUnits="userSpaceOnUse"
       x1="10.59"
       y1="-7.1100001"
       x2="28.82"
       y2="0.47999999">
      <stop
         offset="0"
         stop-color="#fbffce"
         id="stop63" />
      <stop
         offset="1"
         stop-color="#eccd60"
         id="stop65" />
    </linearGradient>
    <path
       style="fill:url(#gradient7)"
       d="m 3,10 7,13 c 0,0 6,-1 9,0 3,1 6,2 6,2 L 18,16 C 18,16 14,12 11,11 8,10 3,10 3,10 Z"
       id="path68" />
    <path
       style="fill:none;stroke:#000000;stroke-width:0.5"
       d="m 12.25,12.75 4.37,8.87 m -5.87,-7.37 3.37,6.37 M 7,12 l 5,9"
       id="path70" />
    <linearGradient
       id="gradient8"
       gradientUnits="userSpaceOnUse"
       x1="18.610001"
       y1="-0.34"
       x2="40.860001"
       y2="-9.5699997">
      <stop
         offset="0"
         stop-color="#55719e"
         id="stop72" />
      <stop
         offset="1"
         stop-color="#dce9ff"
         id="stop74" />
    </linearGradient>
    <path
       style="fill:url(#gradient8)"
       d="M 29,14 39,4 c 0,0 3.33,2.49 5,5 2,3 3,7 3,7 L 31,26 Z"
       id="path77" />
    <linearGradient
       id="gradient9"
       gradientUnits="userSpaceOnUse"
       x1="30.66"
       y1="-2.2"
       x2="40.02"
       y2="-4.4499998">
      <stop
         offset="0"
         stop-color="#893754"
         id="stop79" />
      <stop
         offset="1"
         stop-color="#ce3269"
         id="stop81" />
    </linearGradient>
    <path
       style="fill:url(#gradient9)"
       d="m 34.12,18.75 c 0,0 5.5,-2.14 5.5,-4.38 0,-3 -0.62,-4.37 1.38,-4.37 1.41,0 3.54,2.42 2,5 -1.71,2.84 -9.88,6.37 -9.88,6.37 z M 40,10 c 0,4 -2,3 -2,0 0,-2 2,-1 2,0 z"
       id="path84" />
    <path
       style="fill:none;stroke:#000000;stroke-width:4"
       d="m 18,11 v 11 l 9,4 7,-6 V 10 L 25,6 Z"
       transform="matrix(0.9479,0.3183,-0.3183,0.9479,6.4535,-7.4429)"
       id="path86" />
    <path
       style="fill:#db5959"
       d="m 18,11 v 10 l 9,5 V 15 Z"
       transform="matrix(0.9479,0.3183,-0.3183,0.9479,6.4535,-7.4429)"
       id="path88" />
    <linearGradient
       id="gradient10"
       gradientUnits="userSpaceOnUse"
       x1="39.110001"
       y1="-17.4"
       x2="61.970001"
       y2="-5.3800001">
      <stop
         offset="0"
         stop-color="#a3043c"
         id="stop90" />
      <stop
         offset="1"
         stop-color="#ff90af"
         id="stop92" />
    </linearGradient>
    <path
       style="fill:url(#gradient10)"
       d="m 27,15 v 11 l 7,-6 V 10 Z"
       transform="matrix(0.9479,0.3183,-0.3183,0.9479,6.4535,-7.4429)"
       id="path95" />
    <linearGradient
       id="gradient11"
       gradientUnits="userSpaceOnUse"
       x1="25.299999"
       y1="-7.25"
       x2="35.060001"
       y2="-4.5900002">
      <stop
         offset="0"
         stop-color="#ffc7c7"
         id="stop97" />
      <stop
         offset="1"
         stop-color="#ffacac"
         id="stop99" />
    </linearGradient>
    <path
       style="fill:url(#gradient11)"
       d="m 18,11 9,4 7,-5 -9,-4 z"
       transform="matrix(0.9479,0.3183,-0.3183,0.9479,6.4535,-7.4429)"
       id="path102" />
  </g>
</svg>
