<?xml version="1.0" encoding="utf-8"?>
<!-- Generator: Adobe Illustrator 16.0.3, SVG Export Plug-In . SVG Version: 6.00 Build 0)  -->
<!DOCTYPE svg PUBLIC "-//W3C//DTD SVG 1.1//EN" "http://www.w3.org/Graphics/SVG/1.1/DTD/svg11.dtd">
<svg version="1.1"
	 id="svg8" sodipodi:docname="accessories-calculator.svg" inkscape:version="0.92.2 2405546, 2018-03-11" xmlns:dc="http://purl.org/dc/elements/1.1/" xmlns:cc="http://creativecommons.org/ns#" xmlns:rdf="http://www.w3.org/1999/02/22-rdf-syntax-ns#" xmlns:svg="http://www.w3.org/2000/svg" xmlns:sodipodi="http://sodipodi.sourceforge.net/DTD/sodipodi-0.dtd" xmlns:inkscape="http://www.inkscape.org/namespaces/inkscape"
	 xmlns="http://www.w3.org/2000/svg" xmlns:xlink="http://www.w3.org/1999/xlink" x="0px" y="0px" width="24px" height="24px"
	 viewBox="4 4 24 24" enable-background="new 4 4 24 24" xml:space="preserve">
<title  id="title7895">Antu icon Theme</title>
<sodipodi:namedview  id="base" units="px" inkscape:window-y="28" inkscape:window-x="0" inkscape:window-height="711" inkscape:window-width="1360" inkscape:current-layer="g1240" inkscape:document-units="px" inkscape:pageshadow="2" inkscape:pageopacity="0.0" inkscape:zoom="0.99999996" borderopacity="1.0" bordercolor="#666666" showgrid="true" pagecolor="#ffffff" guidetolerance="10" gridtolerance="10" objecttolerance="10" inkscape:cy="32.427622" inkscape:cx="-72.599564" inkscape:window-maximized="1">
	<inkscape:grid  id="grid7897" type="xygrid" empspacing="4"></inkscape:grid>
</sodipodi:namedview>
<g id="layer1" transform="translate(0,-282.64999)" inkscape:groupmode="layer" inkscape:label="Capa 1">
	<g id="g1240" transform="translate(1e-7,-10e-6)">
		<path id="rect827" inkscape:connector-curvature="0" fill="#DD4D25" d="M5.846,286.65h20.308c1.021,0,1.846,0.714,1.846,1.6
			v20.799c0,0.886-0.824,1.601-1.846,1.601H5.846c-1.022,0-1.846-0.715-1.846-1.601V288.25C4,287.364,4.824,286.65,5.846,286.65z"/>
		
			<linearGradient id="rect829_1_" gradientUnits="userSpaceOnUse" x1="-208.6694" y1="299.2223" x2="-208.6694" y2="304.5141" gradientTransform="matrix(3.7795 0 0 -3.7795 804.673 1439.9695)">
			<stop  offset="0" style="stop-color:#FF6A3E"/>
			<stop  offset="1" style="stop-color:#FF9065"/>
		</linearGradient>
		<path id="rect829" inkscape:connector-curvature="0" fill="url(#rect829_1_)" d="M5.846,287.45h20.308
			c0.512,0,0.923,0.357,0.923,0.8v20.799c0,0.444-0.411,0.8-0.923,0.8H5.846c-0.512,0-0.923-0.355-0.923-0.8V288.25
			C4.923,287.807,5.334,287.45,5.846,287.45z"/>
		<path id="rect827-5" sodipodi:nodetypes="cssccccsc" inkscape:connector-curvature="0" fill="#010102" d="M5.846,286.65h20.308
			c1.021,0,1.846,0.714,1.846,1.6v5.6v1.599H4v-1.599v-5.6C4,287.364,4.824,286.65,5.846,286.65L5.846,286.65z"/>
		<path id="rect829-3" sodipodi:nodetypes="sssccccss" inkscape:connector-curvature="0" fill="#2C2C2C" d="M5.846,287.45h20.308
			c0.512,0,0.923,0.357,0.923,0.8v5.6v0.8H4.923v-0.8v-5.6C4.923,287.807,5.334,287.45,5.846,287.45z"/>
		<path id="path839-3" inkscape:connector-curvature="0" fill="#EB5227" d="M11.384,297.85c-0.511,0-0.923,0.357-0.923,0.8v0.8
			H9.539c-0.512,0-0.923,0.356-0.923,0.8s0.411,0.801,0.923,0.801h0.923v0.799c0,0.443,0.412,0.801,0.923,0.801
			c0.512,0,0.923-0.357,0.923-0.801v-0.799h0.923c0.512,0,0.923-0.357,0.923-0.801s-0.411-0.8-0.923-0.8h-0.923v-0.8
			C12.308,298.207,11.896,297.85,11.384,297.85z M20.615,298.65c-1.021,0-1.847,0.714-1.847,1.6c0,0.887,0.825,1.6,1.847,1.6
			c1.022,0,1.846-0.713,1.846-1.6C22.461,299.364,21.638,298.65,20.615,298.65z M18.769,305.05c-0.511,0-0.923,0.355-0.923,0.799
			s0.412,0.801,0.923,0.801h3.692c0.512,0,0.924-0.357,0.924-0.801s-0.412-0.799-0.924-0.799H18.769z M9.539,306.65
			c-0.512,0-0.923,0.355-0.923,0.8c0,0.442,0.411,0.8,0.923,0.8h3.692c0.512,0,0.923-0.357,0.923-0.8c0-0.444-0.411-0.8-0.923-0.8
			H9.539z M18.769,307.45c-0.511,0-0.923,0.356-0.923,0.8s0.412,0.8,0.923,0.8h3.692c0.512,0,0.924-0.356,0.924-0.8
			s-0.412-0.8-0.924-0.8H18.769z"/>
		<path id="path839" inkscape:connector-curvature="0" fill="#FEFFFF" d="M11.384,297.05c-0.511,0-0.923,0.356-0.923,0.8v0.8H9.539
			c-0.512,0-0.923,0.356-0.923,0.8c0,0.442,0.411,0.8,0.923,0.8h0.923v0.801c0,0.442,0.412,0.799,0.923,0.799
			c0.512,0,0.923-0.356,0.923-0.799v-0.801h0.923c0.512,0,0.923-0.357,0.923-0.8c0-0.443-0.411-0.8-0.923-0.8h-0.923v-0.8
			C12.308,297.406,11.896,297.05,11.384,297.05z"/>
		<path id="path837" inkscape:connector-curvature="0" fill="#FEFFFF" d="M20.615,297.85c-1.021,0-1.847,0.714-1.847,1.6
			c0,0.886,0.825,1.601,1.847,1.601c1.022,0,1.846-0.715,1.846-1.601C22.461,298.564,21.638,297.85,20.615,297.85z"/>
		<path id="path835" inkscape:connector-curvature="0" fill="#FEFFFF" d="M18.769,304.25c-0.511,0-0.923,0.356-0.923,0.801
			c0,0.442,0.412,0.799,0.923,0.799h3.692c0.512,0,0.924-0.356,0.924-0.799c0-0.444-0.412-0.801-0.924-0.801H18.769z"/>
		<path id="path833" inkscape:connector-curvature="0" fill="#FEFFFF" d="M9.539,305.849c-0.512,0-0.923,0.356-0.923,0.801
			c0,0.442,0.411,0.8,0.923,0.8h3.692c0.512,0,0.923-0.357,0.923-0.8c0-0.444-0.411-0.801-0.923-0.801H9.539z"/>
		<path id="rect1046" inkscape:connector-curvature="0" fill="#FEFFFF" d="M18.769,306.65c-0.511,0-0.923,0.355-0.923,0.8
			c0,0.442,0.412,0.8,0.923,0.8h3.692c0.512,0,0.924-0.357,0.924-0.8c0-0.444-0.412-0.8-0.924-0.8H18.769z"/>
		<path id="path925-8-3" inkscape:connector-curvature="0" fill="#010102" d="M15.539,289.85c-0.256,0-0.461,0.179-0.461,0.4
			c0,0.222,0.206,0.4,0.461,0.4h1.384v0.8h-0.461c-0.255,0-0.461,0.179-0.461,0.4c0,0.221,0.206,0.399,0.461,0.399h0.461v0.8h-1.384
			c-0.256,0-0.461,0.179-0.461,0.4c0,0.222,0.206,0.4,0.461,0.4h1.846c0.063,0,0.125-0.011,0.18-0.031
			c0.166-0.061,0.281-0.203,0.281-0.369v-1.6v-1.601c0-0.222-0.205-0.4-0.461-0.4H15.539z M21.076,289.85
			c-0.255,0-0.461,0.179-0.461,0.4v3.2c0,0.222,0.206,0.4,0.461,0.4c0.256,0,0.463-0.179,0.463-0.4v-3.2
			C21.539,290.028,21.332,289.85,21.076,289.85z M22.924,289.85c-0.256,0-0.463,0.179-0.463,0.4v1.587v0.013v0.012
			c0,0.215,0.2,0.387,0.447,0.387h0.016h1.384v1.2c0,0.222,0.205,0.4,0.462,0.4c0.256,0,0.462-0.179,0.462-0.4v-1.587v-0.025v-1.587
			c0-0.221-0.206-0.4-0.462-0.4c-0.257,0-0.462,0.178-0.462,0.4v1.2h-0.923v-1.2C23.385,290.028,23.179,289.85,22.924,289.85z
			 M19.23,293.05c-0.256,0-0.462,0.179-0.462,0.4c0,0.222,0.206,0.4,0.462,0.4c0.257,0,0.462-0.179,0.462-0.4
			C19.692,293.229,19.487,293.05,19.23,293.05z"/>
		<path id="path925-8" fill="#FEFFFF" d="M15.539,289.05c-0.256,0-0.461,0.178-0.461,0.399c0,0.222,0.206,0.4,0.461,0.4h1.384v0.8
			h-0.461c-0.255,0-0.461,0.178-0.461,0.4c0,0.221,0.206,0.399,0.461,0.399h0.461v0.8h-1.384c-0.256,0-0.461,0.179-0.461,0.4
			s0.206,0.4,0.461,0.4h1.846c0.063,0,0.125-0.011,0.18-0.031c0.166-0.061,0.281-0.203,0.281-0.369v-1.6v-1.601
			c0-0.221-0.205-0.399-0.461-0.399H15.539z M21.076,289.05c-0.255,0-0.461,0.178-0.461,0.399v3.2c0,0.221,0.206,0.4,0.461,0.4
			c0.256,0,0.463-0.179,0.463-0.4v-3.2C21.539,289.229,21.332,289.05,21.076,289.05z M22.924,289.05
			c-0.256,0-0.463,0.178-0.463,0.399v1.587v0.013v0.012c0,0.215,0.2,0.388,0.447,0.388h0.016h1.384v1.2c0,0.221,0.205,0.4,0.462,0.4
			c0.256,0,0.462-0.179,0.462-0.4v-1.588v-0.025v-1.587c0-0.221-0.206-0.399-0.462-0.399c-0.257,0-0.462,0.178-0.462,0.399v1.2
			h-0.923v-1.2C23.385,289.229,23.179,289.05,22.924,289.05z M19.23,292.25c-0.256,0-0.462,0.179-0.462,0.4s0.206,0.4,0.462,0.4
			c0.257,0,0.462-0.179,0.462-0.4S19.487,292.25,19.23,292.25z"/>
	</g>
</g>
</svg>
