<?xml version="1.0" encoding="UTF-8" standalone="no"?>
<svg
   viewBox="0 0 24 24"
   version="1.1"
   id="svg5"
   sodipodi:docname="ChatGPT_logo.svg"
   width="24"
   height="24"
   inkscape:version="1.3.2 (091e20ef0f, 2023-11-25)"
   xmlns:inkscape="http://www.inkscape.org/namespaces/inkscape"
   xmlns:sodipodi="http://sodipodi.sourceforge.net/DTD/sodipodi-0.dtd"
   xmlns:xlink="http://www.w3.org/1999/xlink"
   xmlns="http://www.w3.org/2000/svg"
   xmlns:svg="http://www.w3.org/2000/svg">
  <defs
     id="defs5" />
  <sodipodi:namedview
     id="namedview5"
     pagecolor="#ffffff"
     bordercolor="#000000"
     borderopacity="0.25"
     inkscape:showpageshadow="2"
     inkscape:pageopacity="0.0"
     inkscape:pagecheckerboard="0"
     inkscape:deskcolor="#d1d1d1"
     inkscape:zoom="19.17995"
     inkscape:cx="12.226309"
     inkscape:cy="12.69555"
     inkscape:window-width="1920"
     inkscape:window-height="1000"
     inkscape:window-x="0"
     inkscape:window-y="0"
     inkscape:window-maximized="1"
     inkscape:current-layer="svg5" />
  <g
     id="g5"
     transform="matrix(0.00991562,0,0,0.00991562,0.10374212,0.10374212)">
    <path
       d="M 1,578.4 C 1,259.5 259.5,1 578.4,1 h 1249.1 c 319,0 577.5,258.5 577.5,577.4 V 2406 H 578.4 C 259.5,2406 1,2147.5 1,1828.6 Z"
       fill="#74aa9c"
       id="path1" />
    <path
       id="a"
       d="m 1107.3,299.1 c -197.999,0 -373.9,127.3 -435.2,315.3 L 650,743.5 v 427.9 c 0,21.4 11,40.4 29.4,51.4 l 344.5,198.515 V 833.3 h 0.1 V 805.4 L 1372.7,604 c 33.715,-19.52 70.44,-32.857 108.47,-39.828 L 1447.6,450.3 C 1361,353.5 1237.1,298.5 1107.3,299.1 Z m 0,117.5 -0.6,0.6 c 79.699,0 156.3,27.5 217.6,78.4 -2.5,1.2 -7.4,4.3 -11,6.1 L 952.8,709.3 c -18.4,10.4 -29.4,30 -29.4,51.4 V 1248 L 768.3,1158.6 V 755.8 c -0.1,-187.099 151.601,-338.9 339,-339.2 z"
       fill="#ffffff" />
    <use
       xlink:href="#a"
       transform="rotate(60,1203,1203)"
       id="use1" />
    <use
       xlink:href="#a"
       transform="rotate(120,1203,1203)"
       id="use2" />
    <use
       xlink:href="#a"
       transform="rotate(180,1203,1203)"
       id="use3" />
    <use
       xlink:href="#a"
       transform="rotate(-120,1203,1203)"
       id="use4" />
    <use
       xlink:href="#a"
       transform="rotate(-60,1203,1203)"
       id="use5" />
  </g>
</svg>
