<?xml version="1.0" encoding="UTF-8" standalone="no"?>
<svg
   version="1.1"
   width="28"
   height="28"
   color-interpolation="linearRGB"
   id="svg36"
   sodipodi:docname="checklist.svg"
   inkscape:version="1.2.2 (b0a8486541, 2022-12-01)"
   xmlns:inkscape="http://www.inkscape.org/namespaces/inkscape"
   xmlns:sodipodi="http://sodipodi.sourceforge.net/DTD/sodipodi-0.dtd"
   xmlns="http://www.w3.org/2000/svg"
   xmlns:svg="http://www.w3.org/2000/svg">
  <defs
     id="defs40" />
  <sodipodi:namedview
     id="namedview38"
     pagecolor="#ffffff"
     bordercolor="#000000"
     borderopacity="0.25"
     inkscape:showpageshadow="2"
     inkscape:pageopacity="0.0"
     inkscape:pagecheckerboard="0"
     inkscape:deskcolor="#d1d1d1"
     showgrid="false"
     inkscape:zoom="13.5625"
     inkscape:cx="26.764977"
     inkscape:cy="20.202765"
     inkscape:window-width="1920"
     inkscape:window-height="1052"
     inkscape:window-x="0"
     inkscape:window-y="0"
     inkscape:window-maximized="1"
     inkscape:current-layer="svg36" />
  <g
     id="g34"
     transform="matrix(0.44722432,0,0,0.44722432,-0.71621907,-0.93659328)">
    <path
       style="fill:#000000;fill-opacity:0.4666"
       d="m 57,25 6,5 c 2,2 1,6 -2,9 L 46,56 c -3,4 -9,6 -14,6 H 20 Z"
       id="path2" />
    <path
       style="fill:none;stroke:#000000;stroke-width:4"
       d="M 44.71,41 56.25,28.69 C 58.55,26.5 60,23.41 60.01,20 c 0,-6.63 -5.4,-12 -12,-12 -2.82,0 -5.38,0.95 -7.42,2.55 l -13.72,9.4 z M 32.13,54.39 43.69,42.07 C 46.33,39.51 48,35.95 48.01,32 c 0,-7.75 -6.28,-14 -14,-14 -3.22,0 -6.18,1.09 -8.54,2.89 L 11.83,30.25 Z M 36,44 C 36.01,35.15 28.83,28 20.01,28 11.15,28 4,35.15 4.01,44 c 0,8.83 7.14,16 16,16 8.82,0 15.99,-7.17 16,-16 z"
       id="path4" />
    <radialGradient
       id="gradient0"
       gradientUnits="userSpaceOnUse"
       cx="0"
       cy="0"
       r="64"
       gradientTransform="matrix(0.155,0.1716,-0.2583,0.2333,41.2573,17.2946)">
      <stop
         offset="0.2666"
         stop-color="#ff066a"
         id="stop6" />
      <stop
         offset="1"
         stop-color="#d8055a"
         id="stop8" />
    </radialGradient>
    <path
       style="fill:url(#gradient0)"
       d="M 44.71,41 56.25,28.69 C 58.55,26.5 60,23.41 60.01,20 c 0,-6.63 -5.4,-12 -12,-12 -2.82,0 -5.38,0.95 -7.42,2.55 l -13.72,9.4 z"
       id="path11" />
    <linearGradient
       id="gradient1"
       gradientUnits="userSpaceOnUse"
       x1="32.91"
       y1="32.209999"
       x2="42.189999"
       y2="43.25">
      <stop
         offset="0"
         stop-color="#ffcc00"
         id="stop13" />
      <stop
         offset="1"
         stop-color="#ff9900"
         id="stop15" />
    </linearGradient>
    <path
       style="fill:url(#gradient1)"
       d="M 32.13,54.39 43.69,42.07 C 46.33,39.51 48,35.95 48.01,32 c 0,-7.75 -6.28,-14 -14,-14 -3.22,0 -6.18,1.09 -8.54,2.89 l -13.64,9.36 z"
       id="path18" />
    <radialGradient
       id="gradient2"
       gradientUnits="userSpaceOnUse"
       cx="0"
       cy="0"
       r="64"
       gradientTransform="matrix(0.6729,0.0638,-0.0638,0.6729,6.1397,18.0535)">
      <stop
         offset="0.6666"
         stop-color="#ffcc00"
         id="stop20" />
      <stop
         offset="1"
         stop-color="#ff9600"
         id="stop22" />
    </radialGradient>
    <path
       style="fill:url(#gradient2)"
       d="M 36,44 C 36.01,35.15 28.83,28 20.01,28 11.15,28 4,35.15 4.01,44 c 0,8.83 7.14,16 16,16 8.82,0 15.99,-7.17 16,-16 z"
       id="path25" />
    <radialGradient
       id="gradient3"
       gradientUnits="userSpaceOnUse"
       cx="0"
       cy="0"
       r="64"
       gradientTransform="matrix(0.3533,-0.2572,0.1336,0.1835,15.5397,33.6672)">
      <stop
         offset="0"
         stop-color="#ffffff"
         id="stop27" />
      <stop
         offset="1"
         stop-color="#ffcc00"
         id="stop29" />
    </radialGradient>
    <path
       style="fill:none;stroke:url(#gradient3);stroke-width:3;stroke-linecap:round;stroke-linejoin:round"
       d="m 8,42 v 2 M 27,25 12,36"
       id="path32" />
  </g>
</svg>
