<?xml version="1.0" encoding="UTF-8" standalone="no"?>
<svg
   viewBox="0 0 24 24"
   height="24"
   width="24"
   version="1.1"
   id="svg9"
   sodipodi:docname="Chrome.svg"
   inkscape:version="1.3.2 (091e20ef0f, 2023-11-25, custom)"
   xmlns:inkscape="http://www.inkscape.org/namespaces/inkscape"
   xmlns:sodipodi="http://sodipodi.sourceforge.net/DTD/sodipodi-0.dtd"
   xmlns="http://www.w3.org/2000/svg"
   xmlns:svg="http://www.w3.org/2000/svg">
  <sodipodi:namedview
     id="namedview9"
     pagecolor="#ffffff"
     bordercolor="#000000"
     borderopacity="0.25"
     inkscape:showpageshadow="2"
     inkscape:pageopacity="0.0"
     inkscape:pagecheckerboard="0"
     inkscape:deskcolor="#d1d1d1"
     inkscape:zoom="16.208333"
     inkscape:cx="23.969152"
     inkscape:cy="24"
     inkscape:window-width="1920"
     inkscape:window-height="1004"
     inkscape:window-x="0"
     inkscape:window-y="0"
     inkscape:window-maximized="1"
     inkscape:current-layer="svg9" />
  <defs
     id="defs6">
    <linearGradient
       id="a"
       x1="3.2172999"
       y1="15"
       x2="44.7812"
       y2="15"
       gradientUnits="userSpaceOnUse"
       gradientTransform="matrix(0.49614396,0,0,0.48329104,0.12339891,0.49355026)">
      <stop
         offset="0"
         stop-color="#d93025"
         id="stop1" />
      <stop
         offset="1"
         stop-color="#ea4335"
         id="stop2" />
    </linearGradient>
    <linearGradient
       id="b"
       x1="20.721901"
       y1="47.6791"
       x2="41.503899"
       y2="11.6837"
       gradientUnits="userSpaceOnUse"
       gradientTransform="matrix(0.49614396,0,0,0.48329104,0.12339891,0.49355026)">
      <stop
         offset="0"
         stop-color="#fcc934"
         id="stop3" />
      <stop
         offset="1"
         stop-color="#fbbc04"
         id="stop4" />
    </linearGradient>
    <linearGradient
       id="c"
       x1="26.598101"
       y1="46.501499"
       x2="5.8161001"
       y2="10.506"
       gradientUnits="userSpaceOnUse"
       gradientTransform="matrix(0.49614396,0,0,0.48329104,0.12339891,0.49355026)">
      <stop
         offset="0"
         stop-color="#1e8e3e"
         id="stop5" />
      <stop
         offset="1"
         stop-color="#34a853"
         id="stop6" />
    </linearGradient>
  </defs>
  <ellipse
     cx="12.030854"
     cy="12.089972"
     style="fill:#ffffff;stroke-width:0.489675"
     id="circle6"
     rx="5.9537277"
     ry="5.7994924" />
  <path
     d="M 1.7186999,17.892026 A 11.907456,11.598984 0 1 0 6.0771266,2.0475237 11.907456,11.598984 0 0 0 1.7186999,17.892026 Z M 17.186932,9.1927886 A 5.9537276,5.799492 0 1 1 9.0539903,7.0700289 5.9537276,5.799492 0 0 1 17.186932,9.1927886 Z"
     style="fill:none;stroke-width:0.489675"
     id="path6" />
  <path
     d="m 12.030855,6.2930422 h 10.310466 a 11.904429,11.596036 0 0 0 -20.6216777,0.00143 l 5.1552333,8.6978378 0.00462,-0.0011 A 5.9463846,5.7923392 0 0 1 12.030857,6.2931461 Z"
     style="fill:url(#a);stroke-width:0.489675"
     id="path7" />
  <ellipse
     cx="12.030854"
     cy="12.092534"
     style="fill:#1a73e8;stroke-width:0.489675"
     id="circle7"
     rx="4.7133675"
     ry="4.5912647" />
  <path
     d="m 17.186435,14.993682 -5.155233,8.697836 A 11.904478,11.596084 0 0 0 22.340726,6.2945401 H 12.030309 l -0.0012,0.00447 a 5.9462854,5.7922426 0 0 1 5.157367,8.6946469 z"
     style="fill:url(#b);stroke-width:0.489675"
     id="path8" />
  <path
     d="M 6.8752236,14.993778 1.7199904,6.2959415 A 11.904478,11.596084 0 0 0 12.032095,23.691518 l 5.155234,-8.697836 -0.0033,-0.0032 a 5.9463846,5.7923392 0 0 1 -10.308783,0.0033 z"
     style="fill:url(#c);stroke-width:0.489675"
     id="path9" />
</svg>
