<?xml version="1.0" encoding="UTF-8" standalone="no"?>
<svg
   version="1.1"
   width="28"
   height="28"
   color-interpolation="linearRGB"
   id="svg66"
   sodipodi:docname="clave.svg"
   inkscape:version="1.2.2 (b0a8486541, 2022-12-01)"
   xmlns:inkscape="http://www.inkscape.org/namespaces/inkscape"
   xmlns:sodipodi="http://sodipodi.sourceforge.net/DTD/sodipodi-0.dtd"
   xmlns="http://www.w3.org/2000/svg"
   xmlns:svg="http://www.w3.org/2000/svg">
  <defs
     id="defs70" />
  <sodipodi:namedview
     id="namedview68"
     pagecolor="#ffffff"
     bordercolor="#000000"
     borderopacity="0.25"
     inkscape:showpageshadow="2"
     inkscape:pageopacity="0.0"
     inkscape:pagecheckerboard="0"
     inkscape:deskcolor="#d1d1d1"
     showgrid="false"
     inkscape:zoom="12.9375"
     inkscape:cx="32.038647"
     inkscape:cy="19.63285"
     inkscape:window-width="1920"
     inkscape:window-height="1008"
     inkscape:window-x="0"
     inkscape:window-y="0"
     inkscape:window-maximized="1"
     inkscape:current-layer="svg66" />
  <g
     id="g64"
     transform="matrix(0.42759905,0,0,0.42759905,-0.43082666,0.424421)">
    <radialGradient
       id="gradient0"
       gradientUnits="userSpaceOnUse"
       cx="0"
       cy="0"
       r="64"
       gradientTransform="matrix(0.4687,0,0,0.4375,32,36)">
      <stop
         offset="0.4908"
         stop-color="#010000"
         stop-opacity="0.2666"
         id="stop2" />
      <stop
         offset="1"
         stop-color="#010000"
         stop-opacity="0"
         id="stop4" />
    </radialGradient>
    <path
       style="fill:url(#gradient0)"
       d="M 32,0 C 14,0 0,14 0,32 0,50 14,64 32,64 50,64 64,50 64,32 64,14 50,0 32,0 Z"
       transform="matrix(0.7187,0,0,0.3125,18,44)"
       id="path7" />
    <path
       style="fill:none;stroke:#010000;stroke-width:4"
       d="m 40,51 v 5 c 0,3.45 -3.47,6 -8,6 -4.54,0 -8,-2.55 -8,-6 v -5"
       id="path9" />
    <radialGradient
       id="gradient1"
       gradientUnits="userSpaceOnUse"
       cx="0"
       cy="0"
       r="64"
       gradientTransform="matrix(0.2158,0.038,-0.0246,0.1394,27.9031,52.2302)">
      <stop
         offset="0.4395"
         stop-color="#f2f2f2"
         id="stop11" />
      <stop
         offset="0.641"
         stop-color="#8e8e8e"
         id="stop13" />
      <stop
         offset="0.8351"
         stop-color="#e1e1e1"
         id="stop15" />
      <stop
         offset="1"
         stop-color="#595959"
         id="stop17" />
    </radialGradient>
    <path
       style="fill:url(#gradient1)"
       d="m 40,51 v 5 c 0,3.45 -3.47,6 -8,6 -4.54,0 -8,-2.55 -8,-6 v -5"
       id="path20" />
    <path
       style="fill:none;stroke:#010000;stroke-width:4"
       d="m 43,43 v 2 c 0,4.75 -4.95,9 -11,9 -6.06,0 -11,-4.25 -11,-9 v -2 m 15,2 C 46.23,43.13 54,34.7 54,24 53.99,11.93 44.14,2 32,2 19.85,2 10,11.93 10,24 c 0,10.7 7.76,19.13 18,21"
       id="path22" />
    <radialGradient
       id="gradient2"
       gradientUnits="userSpaceOnUse"
       cx="0"
       cy="0"
       r="64"
       gradientTransform="matrix(0.4687,0,0,0.4687,24,16)">
      <stop
         offset="0.1941"
         stop-color="#ffffff"
         id="stop24" />
      <stop
         offset="0.8388"
         stop-color="#ffe500"
         id="stop26" />
      <stop
         offset="1"
         stop-color="#ffc800"
         id="stop28" />
    </radialGradient>
    <path
       style="fill:url(#gradient2)"
       d="m 43,43 v 2 c 0,4.75 -4.95,9 -11,9 -6.06,0 -11,-4.25 -11,-9 v -2"
       id="path31" />
    <radialGradient
       id="gradient3"
       gradientUnits="userSpaceOnUse"
       cx="0"
       cy="0"
       r="64"
       gradientTransform="matrix(0.4687,0,0,0.4687,24,16)">
      <stop
         offset="0.1941"
         stop-color="#ffffff"
         id="stop33" />
      <stop
         offset="0.8388"
         stop-color="#ffe500"
         id="stop35" />
      <stop
         offset="1"
         stop-color="#ffc800"
         id="stop37" />
    </radialGradient>
    <path
       style="fill:url(#gradient3)"
       d="M 36,45 C 46.23,43.13 54,34.7 54,24 53.99,11.93 44.14,2 32,2 19.85,2 10,11.93 10,24 c 0,10.7 7.76,19.13 18,21"
       id="path40" />
    <radialGradient
       id="gradient4"
       gradientUnits="userSpaceOnUse"
       cx="0"
       cy="0"
       r="64"
       gradientTransform="matrix(0.4687,0,0,0.4687,24,16)">
      <stop
         offset="0"
         stop-color="#ffe6a5"
         id="stop42" />
      <stop
         offset="1"
         stop-color="#ffbf00"
         id="stop44" />
      <stop
         offset="0.8901"
         stop-color="#ffbb03"
         id="stop46" />
    </radialGradient>
    <path
       style="fill:none;stroke:url(#gradient4);stroke-width:4;stroke-linecap:round;stroke-linejoin:round"
       d="M 32,48 V 34"
       id="path49" />
    <radialGradient
       id="gradient5"
       gradientUnits="userSpaceOnUse"
       cx="0"
       cy="0"
       r="64"
       gradientTransform="matrix(0.4687,0,0,0.4687,24,16)">
      <stop
         offset="0"
         stop-color="#ffe6a5"
         id="stop51" />
      <stop
         offset="1"
         stop-color="#ffbf00"
         id="stop53" />
      <stop
         offset="0.8901"
         stop-color="#ffbb03"
         id="stop55" />
    </radialGradient>
    <path
       style="fill:none;stroke:url(#gradient5);stroke-width:4;stroke-linecap:round;stroke-linejoin:round"
       d="m 28,28 c 0,-3.23 1.73,-6 4,-6 2.26,0 4,2.77 4,6 0,3.22 -1.74,6 -4,6 -2.27,0 -4,-2.78 -4,-6 z"
       id="path58" />
    <path
       style="fill:#010000"
       d="m 20,42 c 2.38,1.48 5.1,2.47 8,3 0,0 -5,0 -8,-2 z"
       id="path60" />
    <path
       style="fill:#010000"
       d="m 20,42 c 2.38,1.48 5.1,2.47 8,3 0,0 -5,0 -8,-2 z"
       transform="matrix(-1,0,0,1,64,0)"
       id="path62" />
  </g>
</svg>
