<?xml version="1.0" encoding="UTF-8" standalone="no"?>
<svg
   version="1.1"
   width="28"
   height="28"
   color-interpolation="linearRGB"
   id="svg41"
   sodipodi:docname="conversor.svg"
   inkscape:version="1.2.2 (b0a8486541, 2022-12-01)"
   xmlns:inkscape="http://www.inkscape.org/namespaces/inkscape"
   xmlns:sodipodi="http://sodipodi.sourceforge.net/DTD/sodipodi-0.dtd"
   xmlns="http://www.w3.org/2000/svg"
   xmlns:svg="http://www.w3.org/2000/svg">
  <defs
     id="defs45" />
  <sodipodi:namedview
     id="namedview43"
     pagecolor="#ffffff"
     bordercolor="#000000"
     borderopacity="0.25"
     inkscape:showpageshadow="2"
     inkscape:pageopacity="0.0"
     inkscape:pagecheckerboard="0"
     inkscape:deskcolor="#d1d1d1"
     showgrid="false"
     inkscape:zoom="12.9375"
     inkscape:cx="32.038647"
     inkscape:cy="25.816425"
     inkscape:window-width="1920"
     inkscape:window-height="1008"
     inkscape:window-x="0"
     inkscape:window-y="0"
     inkscape:window-maximized="1"
     inkscape:current-layer="svg41" />
  <g
     id="g39"
     transform="matrix(0.42406094,0,0,0.4262516,-0.18382965,0.29816889)">
    <path
       style="fill:#010101;fill-opacity:0.3921"
       d="m 27.63,54.57 c 0,0 8.91,1.11 11.14,-1.12 L 50,43 l 1,9 c 4,-1 4,-5.33 4,-7 l -1,-7 9,-10 c 1.11,-1.12 1.04,-7.62 -3.41,-8.73 L 38.77,20.04 14,21 9,26 31,29 15.38,62.36 h 3.34 l 4.46,-3.34 z"
       id="path2" />
    <path
       style="fill:none;stroke:#010101;stroke-width:4"
       d="m 19.83,51.23 c 3.3,1.64 11.35,2 13.37,0 L 56.36,28.07 c 2.23,-2.23 2.26,-6.12 -1.12,-7.8 -3.3,-1.66 -7.79,-1.11 -10.02,1.11 l -26.5,22.05 c -2.23,3.34 -2.27,6.1 1.11,7.8 z"
       id="path4" />
    <path
       style="fill:#a60e03"
       d="m 19.83,51.23 c 3.3,1.64 11.35,2 13.37,0 L 56.36,28.07 c 2.23,-2.23 2.26,-6.12 -1.12,-7.8 -3.3,-1.66 -7.79,-1.11 -10.02,1.11 l -26.5,22.05 c -2.23,3.34 -2.27,6.1 1.11,7.8 z"
       id="path6" />
    <path
       style="fill:none;stroke:#010101;stroke-width:4"
       d="m 26.63,50 c 0,0 -5.91,5.5 -9.76,9.03 -2.58,2.36 -5.83,3.22 -5.83,3.22 L 8,61 9.92,56.68 c 2.23,-2.23 3.35,1 6.69,-2.34 C 18.83,52.11 13.27,51 13.27,51 L 17.72,46.54 35.43,25.5 C 35.43,25.5 24,24 8,22 c 2,-2 8,-4 12,-4 h 28 v -6 c 2,0 4,-2 4,-4 V 6 h -4 c 0,0 1.77,-4 4,-4 2.22,0 2,4 2,4 V 18 L 46.56,33.41 C 46.56,33.41 56,44 50,48 L 43.98,35.68 Z"
       id="path8" />
    <radialGradient
       id="gradient0"
       gradientUnits="userSpaceOnUse"
       cx="0"
       cy="0"
       r="64"
       gradientTransform="matrix(0.2361,0.2087,-0.4445,0.5029,38.9695,29.4478)">
      <stop
         offset="0.2152"
         stop-color="#87aec1"
         id="stop10" />
      <stop
         offset="0.7929"
         stop-color="#ffffff"
         id="stop12" />
      <stop
         offset="1"
         stop-color="#d8e5eb"
         id="stop14" />
    </radialGradient>
    <path
       style="fill:url(#gradient0)"
       d="m 26.63,50 c 0,0 -5.91,5.5 -9.76,9.03 -2.58,2.36 -5.83,3.22 -5.83,3.22 L 8,61 9.92,56.68 c 2.23,-2.23 3.35,1 6.69,-2.34 C 18.83,52.11 13.27,51 13.27,51 L 17.72,46.54 35.43,25.5 C 35.43,25.5 24,24 8,22 c 2,-2 8,-4 12,-4 h 28 v -6 c 2,0 4,-2 4,-4 V 6 h -4 c 0,0 1.77,-4 4,-4 2.22,0 2,4 2,4 V 18 L 46.56,33.41 C 46.56,33.41 56,44 50,48 L 43.98,35.68 Z"
       id="path17" />
    <path
       style="fill:none;stroke:#010101;stroke-width:4"
       d="m 21.83,46.77 c 3.3,1.65 9.35,2.01 11.37,0 L 56.36,23.61 c 2.23,-2.23 2.26,-5.11 -1.12,-6.8 -3.3,-1.65 -7.79,-1.11 -10.02,1.12 L 20,39 c -3,3 -1.55,6.08 1.83,7.77 z"
       id="path19" />
    <path
       style="fill:none;stroke:#010101;stroke-width:4"
       d="m 21.83,46.77 c 3.3,1.65 9.35,2.01 11.37,0 L 56.36,23.61 c 2.23,-2.23 2.26,-5.11 -1.12,-6.8 -3.3,-1.65 -7.79,-1.11 -10.02,1.12 L 20,39 c -3,3 -1.55,6.08 1.83,7.77 z"
       transform="translate(0,-2)"
       id="path21" />
    <linearGradient
       id="gradient1"
       gradientUnits="userSpaceOnUse"
       x1="54.029999"
       y1="-62.790001"
       x2="76.949997"
       y2="-55.66">
      <stop
         offset="0"
         stop-color="#ff9e9e"
         id="stop23" />
      <stop
         offset="0.4945"
         stop-color="#dd1005"
         id="stop25" />
      <stop
         offset="1"
         stop-color="#a60f04"
         id="stop27" />
    </linearGradient>
    <path
       style="fill:url(#gradient1)"
       d="m 21.83,46.77 c 3.3,1.65 9.35,2.01 11.37,0 L 56.36,23.61 c 2.23,-2.23 2.26,-5.11 -1.12,-6.8 -3.3,-1.65 -7.79,-1.11 -10.02,1.12 L 20,39 c -3,3 -1.55,6.08 1.83,7.77 z"
       id="path30" />
    <linearGradient
       id="gradient2"
       gradientUnits="userSpaceOnUse"
       x1="88.709999"
       y1="-49.709999"
       x2="101.05"
       y2="-40.689999">
      <stop
         offset="1"
         stop-color="#f10606"
         id="stop32" />
      <stop
         offset="0"
         stop-color="#ff7575"
         id="stop34" />
    </linearGradient>
    <path
       style="fill:url(#gradient2)"
       d="m 21.83,46.77 c 3.3,1.65 9.35,2.01 11.37,0 L 56.36,23.61 c 2.23,-2.23 2.26,-5.11 -1.12,-6.8 -3.3,-1.65 -7.79,-1.11 -10.02,1.12 L 20,39 c -3,3 -1.55,6.08 1.83,7.77 z"
       transform="translate(0,-2)"
       id="path37" />
  </g>
</svg>
