<?xml version="1.0" encoding="utf-8"?>
<!-- Generator: Adobe Illustrator 16.0.3, SVG Export Plug-In . SVG Version: 6.00 Build 0)  -->
<!DOCTYPE svg PUBLIC "-//W3C//DTD SVG 1.1//EN" "http://www.w3.org/Graphics/SVG/1.1/DTD/svg11.dtd">
<svg version="1.1"
	 id="svg8" inkscape:version="1.2.1 (9c6d41e410, 2022-07-14)" sodipodi:docname="inicio.svg" xmlns:inkscape="http://www.inkscape.org/namespaces/inkscape" xmlns:sodipodi="http://sodipodi.sourceforge.net/DTD/sodipodi-0.dtd" xmlns:svg="http://www.w3.org/2000/svg" xmlns:rdf="http://www.w3.org/1999/02/22-rdf-syntax-ns#" xmlns:cc="http://creativecommons.org/ns#" xmlns:dc="http://purl.org/dc/elements/1.1/"
	 xmlns="http://www.w3.org/2000/svg" xmlns:xlink="http://www.w3.org/1999/xlink" x="0px" y="0px" width="22px" height="22px"
	 viewBox="0 0 22 22" enable-background="new 0 0 22 22" xml:space="preserve">
<title  id="title7895">Antu icon Theme</title>
<sodipodi:namedview  id="base" units="px" inkscape:pageopacity="0.0" inkscape:pageshadow="2" inkscape:document-units="px" inkscape:current-layer="g1383" inkscape:window-width="1920" inkscape:window-height="1005" inkscape:window-x="0" inkscape:window-y="0" inkscape:snap-bbox="true" inkscape:bbox-paths="true" inkscape:bbox-nodes="true" inkscape:object-paths="true" inkscape:showpageshadow="2" inkscape:deskcolor="#d1d1d1" inkscape:cx="7.1657696" inkscape:cy="17.046324" bordercolor="#666666" borderopacity="1.0" objecttolerance="10" inkscape:zoom="15.839192" gridtolerance="10" guidetolerance="10" pagecolor="#ffffff" showgrid="true" inkscape:window-maximized="1" inkscape:snap-bbox-edge-midpoints="true" inkscape:snap-bbox-midpoints="true" inkscape:snap-intersection-paths="true" inkscape:pagecheckerboard="0">
	<inkscape:grid  originx="0" originy="0" id="grid7897" type="xygrid" empspacing="4"></inkscape:grid>
</sodipodi:namedview>
<g id="layer1" transform="translate(0,-282.64999)" inkscape:groupmode="layer" inkscape:label="Capa 1">
	<g id="g1383" transform="translate(-20,7.999995)">
		<g id="g1288" transform="translate(16,17)">
			<g id="layer1-0-6" transform="matrix(0.68630029,0,0,0.68630029,31.969442,85.00288)" inkscape:label="Capa 1">
				<g id="g6719-0" transform="translate(-40.753942,-34.63084)">
					<path id="path1151" sodipodi:nodetypes="ssssssssscccss" inkscape:connector-curvature="0" d="M2,287.65c-1.091,0-2,0.909-2,2
						v26.001c0,1.09,0.909,1.999,2,1.999h28c1.091,0,1.999-0.909,1.999-1.999V293.65c0-1.091-0.908-2-1.999-2H16
						c-0.167,0-0.221-0.025-0.42-0.265c-0.2-0.241-0.435-0.682-0.684-1.182c-0.25-0.499-0.515-1.059-0.941-1.568
						c-0.424-0.509-1.121-0.985-1.954-0.985H2z"/>
				</g>
			</g>
			<g id="layer1-0" transform="matrix(0.68630029,0,0,0.68630029,31.969442,85.00288)" inkscape:label="Capa 1">
				<g id="g6719" transform="translate(-40.753942,-34.63084)">
					
						<linearGradient id="path13-6-3-1-3-0-7-7_1_" gradientUnits="userSpaceOnUse" x1="832.5754" y1="2594.2871" x2="832.5754" y2="2587.2874" gradientTransform="matrix(0.471 0 0 0.471 -376.1488 -926.2788)">
						<stop  offset="0" style="stop-color:#6C7B99"/>
						<stop  offset="1" style="stop-color:#7283A2"/>
					</linearGradient>
					
						<path id="path13-6-3-1-3-0-7-7" sodipodi:nodetypes="ssssssssccs" inkscape:connector-curvature="0" fill="url(#path13-6-3-1-3-0-7-7_1_)" d="
						M2,288.651c-0.554,0-1,0.445-1,1v26.001c0,0.554,0.445,0.999,1,0.999h28c0.554,0,1-0.445,1-0.999V293.65c0-0.554-0.447-1-1-1
						H16c-2,0-2-4-4-4L2,288.651L2,288.651z"/>
				</g>
			</g>
			<g id="g999" transform="matrix(-0.68630029,0,0,0.68630029,-9.7260057,85.256231)">
				<g id="layer1-0-6-2" transform="translate(-11.246058,-0.36915507)" inkscape:label="Capa 1">
					<g id="g6719-0-6" transform="translate(-40.753942,-34.63084)">
					</g>
				</g>
				<g id="layer1-0-8" transform="translate(-11.246058,-0.36915507)" inkscape:label="Capa 1">
					<g id="g6719-7" transform="translate(-40.753942,-34.63084)">
						<path id="path1105" sodipodi:nodetypes="scccssssssssss" inkscape:connector-curvature="0" fill="#130955" d="M16,291.65
							c0.835,0,1.555,0.549,1.895,1.094c0.34,0.545,0.492,1.089,0.666,1.555c0.175,0.466,0.361,0.835,0.553,1.037
							c0.193,0.201,0.359,0.316,0.886,0.316h10c1.091,0,2,0.909,2,2v18.001c0,1.09-0.909,1.999-2,1.999H2
							c-1.091,0-1.999-0.909-1.999-1.999V293.65c0-1.091,0.908-2,1.999-2H16z"/>
					</g>
				</g>
			</g>
			<path id="path13-6-3-1-3-0-7-7-9-2" sodipodi:nodetypes="ssssssssccs" inkscape:connector-curvature="0" fill="#F9B314" d="
				M5.373,264.827c-0.38,0-0.686,0.306-0.686,0.686v12.354c0,0.381,0.306,0.686,0.686,0.686h19.216c0.38,0,0.687-0.305,0.687-0.686
				v-15.099c0-0.38-0.307-0.686-0.687-0.686h-9.608c-1.373,0-0.687,2.745-2.745,2.745H5.373z"/>
		</g>
	</g>
</g>
</svg>
