<?xml version="1.0" encoding="UTF-8" standalone="no"?>
<!-- Generator: Adobe Illustrator 16.0.3, SVG Export Plug-In . SVG Version: 6.00 Build 0)  -->

<svg
   version="1.1"
   id="svg8"
   sodipodi:docname="document.svg"
   inkscape:version="1.3 (0e150ed6c4, 2023-07-21)"
   x="0px"
   y="0px"
   width="22px"
   height="22px"
   viewBox="0 0 22 22"
   enable-background="new 0 0 22 22"
   xml:space="preserve"
   inkscape:export-filename="document.png"
   inkscape:export-xdpi="104.72727"
   inkscape:export-ydpi="104.72727"
   xmlns:inkscape="http://www.inkscape.org/namespaces/inkscape"
   xmlns:sodipodi="http://sodipodi.sourceforge.net/DTD/sodipodi-0.dtd"
   xmlns="http://www.w3.org/2000/svg"
   xmlns:svg="http://www.w3.org/2000/svg"
   xmlns:rdf="http://www.w3.org/1999/02/22-rdf-syntax-ns#"
   xmlns:cc="http://creativecommons.org/ns#"
   xmlns:dc="http://purl.org/dc/elements/1.1/"><defs
   id="defs2" />&#10;<title
   id="title7895">Antu icon Theme</title>&#10;<sodipodi:namedview
   id="base"
   units="px"
   inkscape:deskcolor="#d1d1d1"
   inkscape:showpageshadow="2"
   inkscape:object-paths="true"
   inkscape:bbox-nodes="true"
   inkscape:bbox-paths="true"
   inkscape:snap-bbox="true"
   inkscape:window-y="39"
   inkscape:window-x="0"
   inkscape:window-height="1007"
   inkscape:window-width="1920"
   inkscape:current-layer="g1383"
   inkscape:document-units="px"
   inkscape:pageshadow="2"
   inkscape:pageopacity="0.0"
   inkscape:zoom="15.839192"
   borderopacity="1.0"
   bordercolor="#666666"
   showgrid="true"
   pagecolor="#ffffff"
   guidetolerance="10"
   gridtolerance="10"
   objecttolerance="10"
   inkscape:cy="16.98319"
   inkscape:cx="7.1342023"
   inkscape:pagecheckerboard="0"
   inkscape:snap-intersection-paths="true"
   inkscape:snap-bbox-midpoints="true"
   inkscape:snap-bbox-edge-midpoints="true"
   inkscape:window-maximized="1">&#10;	<inkscape:grid
   originy="0"
   originx="0"
   id="grid7897"
   type="xygrid"
   empspacing="4"
   spacingy="1"
   spacingx="1"
   units="px"
   visible="true" />&#10;</sodipodi:namedview>&#10;<g
   id="layer1"
   transform="translate(0,-282.64999)"
   inkscape:groupmode="layer"
   inkscape:label="Capa 1">&#10;	<g
   id="g1383"
   transform="translate(-20,7.999995)">&#10;		<g
   id="g1288"
   transform="translate(16,17)">&#10;			<g
   id="layer1-0-6"
   transform="matrix(0.68630029,0,0,0.68630029,31.969442,85.00288)"
   inkscape:label="Capa 1">&#10;				<g
   id="g6719-0"
   transform="translate(-40.753942,-34.63084)">&#10;					<path
   id="path1151"
   sodipodi:nodetypes="ssssssssscccss"
   inkscape:connector-curvature="0"
   d="M2,287.65c-1.091,0-2,0.909-2,2       v26.001c0,1.09,0.909,1.999,2,1.999h28c1.091,0,1.999-0.909,1.999-1.999V293.65c0-1.091-0.908-2-1.999-2H16       c-0.167,0-0.22-0.025-0.42-0.265c-0.2-0.241-0.435-0.682-0.685-1.182c-0.25-0.5-0.515-1.059-0.94-1.568       c-0.424-0.509-1.121-0.985-1.954-0.985H2z" />&#10;				</g>&#10;			</g>&#10;			<g
   id="layer1-0"
   transform="matrix(0.68630029,0,0,0.68630029,31.969442,85.00288)"
   inkscape:label="Capa 1">&#10;				<g
   id="g6719"
   transform="translate(-40.753942,-34.63084)">&#10;					&#10;						<linearGradient
   id="path13-6-3-1-3-0-7-7_1_"
   gradientUnits="userSpaceOnUse"
   x1="231.8777"
   y1="-334.203"
   x2="231.8777"
   y2="-327.2032"
   gradientTransform="matrix(0.6863 0 0 -0.6863 -143.1367 66.287)">&#10;						<stop
   offset="0"
   style="stop-color:#6C7B99"
   id="stop1" />&#10;						<stop
   offset="1"
   style="stop-color:#7283A2"
   id="stop2" />&#10;					</linearGradient>&#10;					&#10;						<path
   id="path13-6-3-1-3-0-7-7"
   sodipodi:nodetypes="ssssssssccs"
   inkscape:connector-curvature="0"
   fill="url(#path13-6-3-1-3-0-7-7_1_)"
   d="       M2,288.651c-0.554,0-1,0.445-1,1v26.001c0,0.554,0.445,0.999,1,0.999h28c0.554,0,1-0.445,1-0.999V293.65c0-0.554-0.447-1-1-1       H16c-2,0-2-4-4-4H2z" />&#10;				</g>&#10;			</g>&#10;			<g
   id="g999"
   transform="matrix(-0.68630029,0,0,0.68630029,-9.7260057,85.256231)">&#10;				<g
   id="layer1-0-6-2"
   transform="translate(-11.246058,-0.36915507)"
   inkscape:label="Capa 1">&#10;					<g
   id="g6719-0-6"
   transform="translate(-40.753942,-34.63084)">&#10;					</g>&#10;				</g>&#10;				<g
   id="layer1-0-8"
   transform="translate(-11.246058,-0.36915507)"
   inkscape:label="Capa 1">&#10;					<g
   id="g6719-7"
   transform="translate(-40.753942,-34.63084)">&#10;						<path
   id="path1105"
   sodipodi:nodetypes="scccssssssssss"
   inkscape:connector-curvature="0"
   fill="#130955"
   d="M16,291.65        c0.834,0,1.555,0.549,1.895,1.094s0.492,1.089,0.666,1.555c0.175,0.466,0.361,0.835,0.553,1.036        c0.193,0.201,0.359,0.316,0.886,0.316h10c1.091,0,2,0.909,2,2v18.001c0,1.09-0.909,1.999-2,1.999H2        c-1.091,0-1.999-0.909-1.999-1.999V293.65c0-1.091,0.908-2,1.999-2H16z" />&#10;					</g>&#10;				</g>&#10;			</g>&#10;			<path
   id="path13-6-3-1-3-0-7-7-9-2"
   sodipodi:nodetypes="ssssssssccs"
   inkscape:connector-curvature="0"
   fill="#32B2D0"
   d="     M5.373,264.827c-0.38,0-0.686,0.306-0.686,0.686v12.354c0,0.38,0.306,0.686,0.686,0.686h19.216c0.38,0,0.687-0.306,0.687-0.686     v-15.099c0-0.38-0.307-0.686-0.687-0.686h-9.608c-1.373,0-0.687,2.745-2.745,2.745H5.373z"
   style="fill:#404d77" />&#10;		</g>&#10;	</g>&#10;</g>&#10;<metadata
   id="metadata1"><rdf:RDF><cc:Work
       rdf:about=""><dc:title>Antu icon Theme</dc:title></cc:Work></rdf:RDF></metadata></svg>
