<?xml version="1.0" encoding="UTF-8" standalone="no"?>
<svg
   version="1.1"
   width="28"
   height="28"
   color-interpolation="linearRGB"
   id="svg53"
   sodipodi:docname="duplicados.svg"
   inkscape:version="1.2.2 (b0a8486541, 2022-12-01)"
   xmlns:inkscape="http://www.inkscape.org/namespaces/inkscape"
   xmlns:sodipodi="http://sodipodi.sourceforge.net/DTD/sodipodi-0.dtd"
   xmlns="http://www.w3.org/2000/svg"
   xmlns:svg="http://www.w3.org/2000/svg">
  <defs
     id="defs57" />
  <sodipodi:namedview
     id="namedview55"
     pagecolor="#ffffff"
     bordercolor="#000000"
     borderopacity="0.25"
     inkscape:showpageshadow="2"
     inkscape:pageopacity="0.0"
     inkscape:pagecheckerboard="0"
     inkscape:deskcolor="#d1d1d1"
     showgrid="false"
     inkscape:zoom="12.9375"
     inkscape:cx="32.038647"
     inkscape:cy="25.816425"
     inkscape:window-width="1920"
     inkscape:window-height="1008"
     inkscape:window-x="0"
     inkscape:window-y="0"
     inkscape:window-maximized="1"
     inkscape:current-layer="svg53" />
  <g
     id="g51"
     transform="matrix(0.4302282,0,0,0.4302282,-0.80148563,0.30819247)">
    <path
       style="fill:#010101;fill-opacity:0.4666"
       d="m 55,64 8,-8 -8,-4 -15,2 -4,4 4,4 z M 28,52 c -6.63,0 -12,2.68 -12,6 0,3.31 5.37,6 12,6 6.62,0 12,-2.69 12,-6 0,-3.32 -5.38,-6 -12,-6 z"
       id="path2" />
    <path
       style="fill:none;stroke:#000000;stroke-width:4"
       d="m 24,40 c -5.53,0 -10,4.47 -10,10 0,5.52 4.47,10 10,10 5.52,0 10,-4.48 10,-10 0,-5.53 -4.48,-10 -10,-10 z"
       id="path4" />
    <radialGradient
       id="gradient0"
       gradientUnits="userSpaceOnUse"
       cx="0"
       cy="0"
       r="64"
       gradientTransform="matrix(0.2281,0,0,0.2281,20.7999,47)">
      <stop
         offset="0"
         stop-color="#ffffff"
         id="stop6" />
      <stop
         offset="0.25"
         stop-color="#ff3930"
         id="stop8" />
      <stop
         offset="1"
         stop-color="#bf0000"
         id="stop10" />
      <stop
         offset="0.8152"
         stop-color="#800000"
         id="stop12" />
    </radialGradient>
    <path
       style="fill:url(#gradient0)"
       d="m 24,40 c -5.53,0 -10,4.47 -10,10 0.01,5.52 4.47,10 10,10 5.52,0 10,-4.48 10,-10 -2,2 -8,-1 -12,-3 0,0 0,-3 2,-7 z"
       id="path15" />
    <radialGradient
       id="gradient1"
       gradientUnits="userSpaceOnUse"
       cx="0"
       cy="0"
       r="64"
       gradientTransform="matrix(0.2281,0,0,0.2281,20.7999,47)">
      <stop
         offset="0"
         stop-color="#ff756e"
         id="stop17" />
      <stop
         offset="0.3007"
         stop-color="#d50f05"
         id="stop19" />
      <stop
         offset="1"
         stop-color="#bf0000"
         id="stop21" />
      <stop
         offset="0.8152"
         stop-color="#800000"
         id="stop23" />
    </radialGradient>
    <path
       style="fill:url(#gradient1)"
       d="m 24,40 c -2,4 -2,7 -2,7 4,2 10,5 12,3 0,-5.53 -4.48,-10 -10,-10 z"
       id="path26" />
    <path
       style="fill:none;stroke:#000000;stroke-width:4"
       d="M 21,2 10,8 21,43 29,35 38,6 Z"
       id="path28" />
    <linearGradient
       id="gradient2"
       gradientUnits="userSpaceOnUse"
       x1="60.240002"
       y1="-28.459999"
       x2="76.040001"
       y2="-10.2">
      <stop
         offset="0"
         stop-color="#ff6159"
         id="stop30" />
      <stop
         offset="1"
         stop-color="#e40000"
         id="stop32" />
    </linearGradient>
    <path
       style="fill:url(#gradient2)"
       d="M 10,8 21,43 28,13 Z"
       id="path35" />
    <linearGradient
       id="gradient3"
       gradientUnits="userSpaceOnUse"
       x1="50.369999"
       y1="-23.389999"
       x2="56.59"
       y2="-20.34">
      <stop
         offset="0"
         stop-color="#800000"
         id="stop37" />
      <stop
         offset="1"
         stop-color="#a00404"
         id="stop39" />
    </linearGradient>
    <path
       style="fill:url(#gradient3)"
       d="M 28,13 21,43 29,35 38,6 Z"
       id="path42" />
    <linearGradient
       id="gradient4"
       gradientUnits="userSpaceOnUse"
       x1="12"
       y1="-20"
       x2="36"
       y2="-20">
      <stop
         offset="0"
         stop-color="#ffc6c0"
         id="stop44" />
      <stop
         offset="1"
         stop-color="#ff7575"
         id="stop46" />
    </linearGradient>
    <path
       style="fill:url(#gradient4)"
       d="M 21,2 10,8 28,13 38,6 Z"
       id="path49" />
  </g>
</svg>
