<?xml version="1.0" encoding="UTF-8" standalone="no"?>
<!-- Generator: Adobe Illustrator 16.0.3, SVG Export Plug-In . SVG Version: 6.00 Build 0)  -->

<svg
   version="1.1"
   id="svg8"
   inkscape:version="1.3.2 (091e20ef0f, 2023-11-25)"
   sodipodi:docname="duplicar.svg"
   x="0px"
   y="0px"
   width="22px"
   height="22px"
   viewBox="5 5 22 22"
   enable-background="new 5 5 22 22"
   xml:space="preserve"
   xmlns:inkscape="http://www.inkscape.org/namespaces/inkscape"
   xmlns:sodipodi="http://sodipodi.sourceforge.net/DTD/sodipodi-0.dtd"
   xmlns="http://www.w3.org/2000/svg"
   xmlns:svg="http://www.w3.org/2000/svg"><defs
   id="defs8" />
<title
   id="title7895">Antu icon Theme</title>
<sodipodi:namedview
   id="base"
   units="px"
   inkscape:window-maximized="1"
   inkscape:pagecheckerboard="0"
   inkscape:pageopacity="0.0"
   inkscape:pageshadow="2"
   inkscape:current-layer="layer1"
   inkscape:window-width="1920"
   inkscape:window-height="1000"
   inkscape:window-x="0"
   inkscape:window-y="0"
   inkscape:showpageshadow="2"
   inkscape:deskcolor="#d1d1d1"
   inkscape:cx="12.34949"
   inkscape:cy="12.739158"
   pagecolor="#ffffff"
   showgrid="true"
   bordercolor="#666666"
   borderopacity="1.0"
   inkscape:zoom="16.680851"
   inkscape:document-units="px"
   gridtolerance="10"
   guidetolerance="10"
   objecttolerance="10">
	<inkscape:grid
   id="grid7897"
   type="xygrid"
   empspacing="4"
   originx="0"
   originy="0"
   spacingy="1"
   spacingx="1"
   units="px"
   visible="true" />
</sodipodi:namedview>
<g
   id="layer1"
   transform="translate(0,-282.64999)"
   inkscape:groupmode="layer"
   inkscape:label="Capa 1">
	<path
   id="path3599"
   d="m 24.761709,287.492 c 2.063,0.002 3.097,2.873 1.317,4.277 l -5.25,4.133 c 0.114,0.092 0.221,0.199 0.319,0.317 l 5.274,6.329 c 1.16,1.394 0.422,3.58 -1.314,3.899 l -17.3300001,3.164 c -2.341,0.429 -3.645,-2.741 -1.742,-4.236 l 5.2470001,-4.134 c -0.112,-0.092 -0.22,-0.196 -0.318,-0.315 l -5.2740001,-6.328 c -1.162,-1.393 -0.424,-3.586 1.313,-3.903 l 17.3300001,-3.162 c 0.147,-0.028 0.29,-0.041 0.428,-0.041 z" />
	<g
   id="path3462-3-7-5"
   transform="matrix(1.071451,0,0,1.071451,-1.143216,-21.33884)">
		
			<linearGradient
   id="path3597-0_1_"
   gradientUnits="userSpaceOnUse"
   x1="-1.9704"
   y1="53.2687"
   x2="-1.9704"
   y2="59.9131"
   gradientTransform="matrix(-1.0715,0,0,-1.0715,13.941859,362.2954)">
			<stop
   offset="0"
   style="stop-color:#1F9A6B"
   id="stop1" />
			<stop
   offset="1"
   style="stop-color:#24B07A"
   id="stop2" />
		</linearGradient>
		
			<linearGradient
   id="path3597-0_2_"
   gradientUnits="userSpaceOnUse"
   x1="-1.985"
   y1="52.2392"
   x2="-1.9515"
   y2="68.4348"
   gradientTransform="matrix(-1.0715,0,0,-1.0715,13.941859,362.2972)">
			<stop
   offset="0"
   style="stop-color:#4B6781"
   id="stop3" />
			<stop
   offset="1"
   style="stop-color:#30455B"
   id="stop4" />
		</linearGradient>
		
			<path
   id="path3597-0"
   sodipodi:nodetypes="cccccccccc"
   fill="url(#path3597-0_1_)"
   stroke="url(#path3597-0_2_)"
   stroke-width="3.7333"
   stroke-linecap="round"
   stroke-linejoin="round"
   d="m 24.140259,290.456 -6.084,4.79 -0.203,0.16 -4.964,3.91 -4.9229996,-5.907 z m -4.923,7.382 4.922,5.905 -16.1739996,2.955 z"
   style="fill:url(#path3597-0_1_);stroke:url(#path3597-0_2_)" />
		
			<linearGradient
   id="path3603_1_"
   gradientUnits="userSpaceOnUse"
   x1="-1.9704"
   y1="58.7816"
   x2="-1.9704"
   y2="66.1645"
   gradientTransform="matrix(-1.0715,0,0,-1.0715,13.941859,362.2972)">
			<stop
   offset="0"
   style="stop-color:#1682F2"
   id="stop5" />
			<stop
   offset="1"
   style="stop-color:#04AFFD"
   id="stop6" />
		</linearGradient>
		
			<path
   id="path3603"
   fill="url(#path3603_1_)"
   stroke="#1463bf"
   stroke-width="1.8666"
   stroke-linecap="round"
   stroke-linejoin="round"
   d="M 12.888259,299.315 7.9652594,293.408 24.139259,290.455 Z"
   style="fill:url(#path3603_1_)" />
		<path
   id="path3603-6"
   fill="#00ccff"
   d="M 12.888259,299.315 7.9652594,293.408 24.139259,290.455 Z" />
	</g>
	
		<linearGradient
   id="path3597-5_1_"
   gradientUnits="userSpaceOnUse"
   x1="-3.2544"
   y1="35.7365"
   x2="-3.2544"
   y2="42.3813"
   gradientTransform="matrix(-1.0715,0,0,-1.0715,12.570009,343.9813)">
		<stop
   offset="0"
   style="stop-color:#1F9A6B"
   id="stop7" />
		<stop
   offset="1"
   style="stop-color:#24B07A"
   id="stop8" />
	</linearGradient>
	
		<path
   id="path3597-5"
   fill="url(#path3597-5_1_)"
   stroke="#175c6a"
   stroke-width="2"
   stroke-linecap="round"
   stroke-linejoin="round"
   d="m 19.447709,297.78 5.274,6.327 -17.3300001,3.166 z"
   style="fill:#ff8080;stroke:#636a17;stroke-opacity:1" />
	<path
   id="path3597"
   fill="#91d29d"
   d="m 19.447709,297.78 5.274,6.327 -17.3300001,3.166 z"
   style="fill:#ffe680" />
	<g
   id="path3597-3"
   transform="matrix(1.071451,0,0,1.071451,-1.143216,-21.33884)">
	</g>
</g>
</svg>
