<?xml version="1.0" encoding="UTF-8" standalone="no"?>
<svg
   version="1.1"
   width="28"
   height="28"
   color-interpolation="linearRGB"
   id="svg47"
   sodipodi:docname="duplicar.svg"
   inkscape:version="1.2.2 (b0a8486541, 2022-12-01)"
   xmlns:inkscape="http://www.inkscape.org/namespaces/inkscape"
   xmlns:sodipodi="http://sodipodi.sourceforge.net/DTD/sodipodi-0.dtd"
   xmlns="http://www.w3.org/2000/svg"
   xmlns:svg="http://www.w3.org/2000/svg">
  <defs
     id="defs51" />
  <sodipodi:namedview
     id="namedview49"
     pagecolor="#ffffff"
     bordercolor="#000000"
     borderopacity="0.25"
     inkscape:showpageshadow="2"
     inkscape:pageopacity="0.0"
     inkscape:pagecheckerboard="0"
     inkscape:deskcolor="#d1d1d1"
     showgrid="false"
     inkscape:zoom="13.5625"
     inkscape:cx="26.986175"
     inkscape:cy="26.101382"
     inkscape:window-width="1920"
     inkscape:window-height="1052"
     inkscape:window-x="0"
     inkscape:window-y="0"
     inkscape:window-maximized="1"
     inkscape:current-layer="svg47" />
  <g
     id="g45"
     transform="matrix(0.43913746,0,0,0.43913746,0.22664351,0.25432992)">
    <path
       style="fill:#010101;fill-opacity:0.549"
       d="m 30,62 c 0,0 8,-3 9,-4 1,-1 1,-2 0,-3 -1,-1 -9,-3 -9,-3 z"
       transform="translate(-1)"
       id="path2" />
    <path
       style="fill:#010101;fill-opacity:0.549"
       d="m 30,62 c 0,0 8,-3 9,-4 1,-1 1,-2 0,-3 -1,-1 -9,-3 -9,-3 z"
       transform="translate(23,-20)"
       id="path4" />
    <radialGradient
       id="gradient0"
       gradientUnits="userSpaceOnUse"
       cx="0"
       cy="0"
       r="64"
       gradientTransform="matrix(0.5551,0.0905,-0.0804,0.4934,4.8105,28.3109)">
      <stop
         offset="0"
         stop-color="#fbf5aa"
         id="stop6" />
      <stop
         offset="1"
         stop-color="#ffc000"
         id="stop8" />
    </radialGradient>
    <path
       style="fill:url(#gradient0)"
       d="M 1,21 V 47 L 29,61 V 35 Z"
       transform="translate(24,-19)"
       id="path11" />
    <path
       style="fill:none;stroke:#000000;stroke-width:2;stroke-linecap:round;stroke-linejoin:round"
       d="M 1,21 V 47 L 29,61 V 35 Z"
       transform="translate(24,-19)"
       id="path13" />
    <radialGradient
       id="gradient1"
       gradientUnits="userSpaceOnUse"
       cx="0"
       cy="0"
       r="64"
       gradientTransform="matrix(0.5551,0.0905,-0.0804,0.4934,4.8105,28.3109)">
      <stop
         offset="0"
         stop-color="#fbf5aa"
         id="stop15" />
      <stop
         offset="1"
         stop-color="#ffc000"
         id="stop17" />
    </radialGradient>
    <path
       style="fill:url(#gradient1)"
       d="M 1,21 V 47 L 29,61 V 35 Z"
       id="path20" />
    <path
       style="fill:none;stroke:#000000;stroke-width:2;stroke-linecap:round;stroke-linejoin:round"
       d="M 1,21 V 47 L 29,61 V 35 Z"
       id="path22" />
    <linearGradient
       id="gradient2"
       gradientUnits="userSpaceOnUse"
       x1="94.519997"
       y1="49.68"
       x2="52.09"
       y2="84.269997">
      <stop
         offset="0"
         stop-color="#010101"
         id="stop24" />
      <stop
         offset="1"
         stop-color="#010101"
         stop-opacity="0.1843"
         id="stop26" />
    </linearGradient>
    <path
       style="fill:url(#gradient2)"
       d="M 31,33 50,17 51,19 32,35 Z"
       id="path29" />
    <linearGradient
       id="gradient3"
       gradientUnits="userSpaceOnUse"
       x1="94.519997"
       y1="49.68"
       x2="52.09"
       y2="84.269997">
      <stop
         offset="0"
         stop-color="#010101"
         id="stop31" />
      <stop
         offset="1"
         stop-color="#010101"
         stop-opacity="0.1843"
         id="stop33" />
    </linearGradient>
    <path
       style="fill:url(#gradient3)"
       d="M 31,33 50,17 51,19 32,35 Z"
       transform="matrix(0.6891,0,0,0.6503,16.8978,31.2385)"
       id="path36" />
    <linearGradient
       id="gradient4"
       gradientUnits="userSpaceOnUse"
       x1="94.519997"
       y1="49.68"
       x2="52.09"
       y2="84.269997">
      <stop
         offset="0"
         stop-color="#010101"
         id="stop38" />
      <stop
         offset="1"
         stop-color="#010101"
         stop-opacity="0.1843"
         id="stop40" />
    </linearGradient>
    <path
       style="fill:url(#gradient4)"
       d="M 31,33 50,17 51,19 32,35 Z"
       transform="translate(-27,-14)"
       id="path43" />
  </g>
</svg>
