<?xml version="1.0" encoding="utf-8"?>
<!-- Generator: Adobe Illustrator 16.0.3, SVG Export Plug-In . SVG Version: 6.00 Build 0)  -->
<!DOCTYPE svg PUBLIC "-//W3C//DTD SVG 1.1//EN" "http://www.w3.org/Graphics/SVG/1.1/DTD/svg11.dtd">
<svg version="1.1" id="Capa_1" xmlns="http://www.w3.org/2000/svg" xmlns:xlink="http://www.w3.org/1999/xlink" x="0px" y="0px"
	 width="24px" height="24px" viewBox="20 20 24 24" enable-background="new 20 20 24 24" xml:space="preserve">
<g transform="scale(.26458)">
	<path fill="#00A0C6" d="M85.04,75.243h71.812c5.219,0,9.449,3.626,9.449,8.104v74.565c0,4.477-4.23,8.105-9.449,8.105H85.04
		c-5.215,0-9.449-3.628-9.449-8.105V83.346C75.592,78.869,79.825,75.243,85.04,75.243z"/>
</g>
<path fill="#FFFFFF" d="M32.159,38.117l-6.039-6.039l6.039-6.042l2.017,2.014l-4.027,4.027l2.011,2.011l6.042-6.038l-5.262-5.262
	c-0.432-0.431-1.128-0.431-1.558,0l-8.509,8.51c-0.43,0.43-0.43,1.128,0,1.558l8.509,8.51c0.43,0.43,1.126,0.43,1.558,0l8.511-8.51
	c0.428-0.43,0.428-1.128,0-1.558l-1.234-1.234L32.159,38.117z"/>
</svg>
