<?xml version="1.0" encoding="UTF-8" standalone="no"?>
<svg
   version="1.1"
   width="28"
   height="28"
   color-interpolation="linearRGB"
   id="svg60"
   sodipodi:docname="epub.svg"
   inkscape:version="1.2.2 (b0a8486541, 2022-12-01)"
   xmlns:inkscape="http://www.inkscape.org/namespaces/inkscape"
   xmlns:sodipodi="http://sodipodi.sourceforge.net/DTD/sodipodi-0.dtd"
   xmlns="http://www.w3.org/2000/svg"
   xmlns:svg="http://www.w3.org/2000/svg">
  <defs
     id="defs64">
    <radialGradient
       id="gradient0"
       gradientUnits="userSpaceOnUse"
       cx="0"
       cy="0"
       r="64"
       gradientTransform="matrix(0.24309402,0,0,0.14179776,11.396304,17.330164)">
      <stop
         offset="1"
         stop-color="#f4f4f4"
         id="stop6" />
      <stop
         offset="0.4886"
         stop-color="#ffc0c0"
         id="stop8" />
    </radialGradient>
    <linearGradient
       id="gradient1"
       gradientUnits="userSpaceOnUse"
       x1="107.04"
       y1="-17.09"
       x2="118.33"
       y2="27.99"
       gradientTransform="matrix(0.42543581,0,0,0.42543581,0.33497334,2.4399108)">
      <stop
         offset="0"
         stop-color="#e7e7e7"
         id="stop15" />
      <stop
         offset="0.7424"
         stop-color="#ffffff"
         id="stop17" />
      <stop
         offset="1"
         stop-color="#ebebeb"
         id="stop19" />
    </linearGradient>
    <linearGradient
       id="gradient2"
       gradientUnits="userSpaceOnUse"
       x1="-47.139999"
       y1="-15.78"
       x2="-28.459999"
       y2="-37.849998"
       gradientTransform="matrix(0.42543581,0,0,0.42543581,0.33497334,2.4399108)">
      <stop
         offset="0"
         stop-color="#010101"
         id="stop24" />
      <stop
         offset="1"
         stop-color="#9e9e9e"
         id="stop26" />
    </linearGradient>
    <linearGradient
       id="gradient3"
       gradientUnits="userSpaceOnUse"
       x1="-47.139999"
       y1="-15.78"
       x2="-28.459999"
       y2="-37.849998"
       gradientTransform="matrix(0.42543581,0,0,0.42543581,0.33497334,2.4399108)">
      <stop
         offset="0"
         stop-color="#010101"
         id="stop31" />
      <stop
         offset="1"
         stop-color="#9e9e9e"
         id="stop33" />
    </linearGradient>
    <linearGradient
       id="gradient4"
       gradientUnits="userSpaceOnUse"
       x1="57.5"
       y1="-34.419998"
       x2="71.089996"
       y2="46.709999"
       gradientTransform="matrix(0.20203947,0,0,0.21271791,3.8235045,8.821448)">
      <stop
         offset="1"
         stop-color="#1467ff"
         id="stop38" />
      <stop
         offset="0.4212"
         stop-color="#06f8b7"
         id="stop40" />
    </linearGradient>
    <linearGradient
       id="gradient5"
       gradientUnits="userSpaceOnUse"
       x1="38.950001"
       y1="-23.75"
       x2="66"
       y2="-12.14"
       gradientTransform="matrix(0.6097853,0,0,0.6097853,-9.0198239,0.66010127)">
      <stop
         offset="0"
         stop-color="#ff6d6d"
         id="stop49" />
      <stop
         offset="1"
         stop-color="#da1c1c"
         id="stop51" />
    </linearGradient>
  </defs>
  <sodipodi:namedview
     id="namedview62"
     pagecolor="#ffffff"
     bordercolor="#000000"
     borderopacity="0.25"
     inkscape:showpageshadow="2"
     inkscape:pageopacity="0.0"
     inkscape:pagecheckerboard="0"
     inkscape:deskcolor="#d1d1d1"
     showgrid="false"
     showguides="false"
     inkscape:zoom="12.9375"
     inkscape:cx="7.3429952"
     inkscape:cy="19.63285"
     inkscape:window-width="1920"
     inkscape:window-height="1008"
     inkscape:window-x="0"
     inkscape:window-y="0"
     inkscape:window-maximized="1"
     inkscape:current-layer="svg60">
    <sodipodi:guide
       position="-37.101449,20.888889"
       orientation="1,0"
       id="guide170"
       inkscape:locked="false" />
  </sodipodi:namedview>
  <path
     style="fill:#010101;fill-opacity:0.5725;stroke-width:0.425436"
     d="m 11.82174,26.689752 0.850871,0.850871 1.331615,-1.348631 2.071872,1.348631 3.569406,-4.875494 7.917361,-4.058658 -2.127179,-1.276307 0.850871,0.850871 -10.635895,5.10523 z m 13.18851,-9.785024 1.701743,-1.276307 -1.701743,-0.850872 -1.276307,1.276307 z"
     id="path2" />
  <path
     style="fill:none;stroke:#010101;stroke-width:1.70174"
     d="m 2.9939472,15.202985 c 0,0 2.3909492,2.552615 4.5181283,5.317947 2.127179,2.765333 3.9905875,5.637025 3.9905875,5.637025 L 25.486738,18.125729 13.948919,8.821448 Z"
     id="path4" />
  <path
     style="fill:url(#gradient0);stroke-width:0.425436"
     d="m 2.9939472,15.202985 c 0,0 2.3909492,2.552615 4.5181283,5.317947 2.127179,2.765333 3.9905875,5.637025 3.9905875,5.637025 L 25.486738,18.125729 13.948919,8.821448 Z"
     id="path11" />
  <path
     style="fill:none;stroke:#010101;stroke-width:1.70174"
     d="m 1.4496152,15.573114 c 0,0 3.5438803,2.293099 6.9686386,4.679794 3.5906782,2.501562 7.1260492,4.628741 7.1260492,4.628741 l 9.516999,-11.222996 c 0,0 -5.394526,-2.412221 -9.678664,-4.6797938 C 13.174626,7.8089107 11.396304,6.4262443 11.396304,6.4262443 Z"
     id="path13" />
  <path
     style="fill:url(#gradient1);stroke-width:0.425436"
     d="m 1.4496152,15.573114 c 0,0 3.5438803,2.293099 6.9686386,4.679794 3.5906782,2.501562 7.1260492,4.628741 7.1260492,4.628741 l 9.516999,-11.222996 c 0,0 -5.394526,-2.412221 -9.678664,-4.6797938 C 13.174626,7.8089107 11.396304,6.4262443 11.396304,6.4262443 Z"
     id="path22" />
  <path
     style="fill:none;stroke:url(#gradient2);stroke-width:0.425436"
     d="m 14.374355,13.075806 2.127179,-2.127179 m -5.956102,-0.425436 2.127179,-2.1271789 m -1.276307,11.0613309 6.806973,-7.232409 m -3.403486,9.785024 5.530665,-6.381537"
     id="path29" />
  <path
     style="fill:none;stroke:url(#gradient3);stroke-width:0.425436"
     d="m 13.098047,20.73365 6.806973,-7.657844 m -7.232409,-1.276308 1.701744,-1.701743"
     id="path36" />
  <path
     style="fill:#00ff00;stroke-width:0.20731"
     d="m 5.4398203,15.202985 4.4448681,2.978051 3.6367106,-4.254358 -4.4448683,-2.12718 z"
     id="path43" />
  <path
     style="fill:none;stroke:#010101;stroke-width:0.20731"
     d="m 5.4398203,15.202985 4.4448681,2.978051 3.6367106,-4.254358 -4.4448683,-2.12718 z"
     id="path45" />
  <path
     style="fill:#000000;stroke:#010101;stroke-width:2.85799;stroke-linejoin:round"
     d="M 6.1322903,12.092103 V 2.0891008 c 0,0 4.2870007,1.4290003 7.8595027,1.4290003 2.858,0 8.574002,-1.4290003 12.146503,-1.4290003 V 12.092103 c -3.572501,0 -9.288503,1.429 -12.146503,1.429 -3.572502,0 -7.8595027,-1.429 -7.8595027,-1.429 z"
     id="path47" />
  <path
     style="fill:#00ff00;stroke-width:0.7145"
     d="M 6.1322903,12.092103 V 2.0891008 c 0,0 4.2870007,1.4290003 7.8595027,1.4290003 2.858,0 8.574002,-1.4290003 12.146503,-1.4290003 V 12.092103 c -3.572501,0 -9.288503,1.429 -12.146503,1.429 -3.572502,0 -7.8595027,-1.429 -7.8595027,-1.429 z"
     id="path54" />
  <g
     aria-label="EPUB"
     transform="matrix(1.0062629,0,0,1.3643924,-4.7339692,-0.1133563)"
     id="text417"
     style="font-weight:600;font-size:6.69833px;font-family:'IBM Plex Sans';-inkscape-font-specification:'IBM Plex Sans, Semi-Bold';fill:#00ff00;stroke-width:0.558194">
    <path
       d="M 15.733894,8.1472311 V 7.3635265 H 13.536842 V 6.1712238 h 1.942516 V 5.3875192 H 13.536842 V 4.2555014 h 2.197052 V 3.4717968 h -3.081232 v 4.6754343 z"
       style="fill:#280b0b"
       id="path670" />
    <path
       d="M 17.555842,8.1472311 V 6.3654753 h 1.219096 c 0.864085,0 1.386555,-0.5760563 1.386555,-1.4468392 0,-0.8640846 -0.52247,-1.4468393 -1.386555,-1.4468393 h -2.103275 v 4.6754343 z m 0,-3.9051263 h 1.138716 c 0.341615,0 0.549264,0.1808549 0.549264,0.5224697 v 0.3081232 c 0,0.3416148 -0.207649,0.529168 -0.549264,0.529168 h -1.138716 z"
       style="fill:#280b0b"
       id="path672" />
    <path
       d="m 20.931806,3.4717968 v 2.7597119 c 0,1.3731577 0.475582,1.9961024 1.788454,1.9961024 1.312873,0 1.801851,-0.6229447 1.801851,-1.9961024 V 3.4717968 h -0.870783 v 2.8735836 c 0,0.7301179 -0.254536,1.0985261 -0.924369,1.0985261 -0.669833,0 -0.92437,-0.3684082 -0.92437,-1.0985261 V 3.4717968 Z"
       style="fill:#280b0b"
       id="path674" />
    <path
       d="m 25.587149,8.1472311 h 2.371209 c 0.689927,0 1.205699,-0.589453 1.205699,-1.339666 0,-0.7971012 -0.60285,-1.0851294 -1.011448,-1.0918278 v -0.04019 C 28.581302,5.648754 28.9899,5.3808208 28.9899,4.6707979 c 0,-0.7234197 -0.468883,-1.1990011 -1.239191,-1.1990011 h -2.16356 z m 0.884179,-2.0028006 h 1.232493 c 0.334916,0 0.535866,0.1875532 0.535866,0.5157714 v 0.2277432 c 0,0.3282181 -0.20095,0.5090731 -0.535866,0.5090731 h -1.232493 z m 0,-1.9224207 h 1.091828 c 0.32152,0 0.509073,0.1808549 0.509073,0.4956764 v 0.2076482 c 0,0.3081232 -0.187553,0.4956764 -0.509073,0.4956764 h -1.091828 z"
       style="fill:#280b0b"
       id="path676" />
  </g>
</svg>
