<?xml version="1.0" encoding="UTF-8" standalone="no"?>
<svg
   version="1.1"
   width="28"
   height="28"
   color-interpolation="linearRGB"
   id="svg66"
   sodipodi:docname="exportar.svg"
   inkscape:version="1.2.2 (b0a8486541, 2022-12-01)"
   xmlns:inkscape="http://www.inkscape.org/namespaces/inkscape"
   xmlns:sodipodi="http://sodipodi.sourceforge.net/DTD/sodipodi-0.dtd"
   xmlns="http://www.w3.org/2000/svg"
   xmlns:svg="http://www.w3.org/2000/svg">
  <defs
     id="defs70" />
  <sodipodi:namedview
     id="namedview68"
     pagecolor="#ffffff"
     bordercolor="#000000"
     borderopacity="0.25"
     inkscape:showpageshadow="2"
     inkscape:pageopacity="0.0"
     inkscape:pagecheckerboard="0"
     inkscape:deskcolor="#d1d1d1"
     showgrid="false"
     inkscape:zoom="12.9375"
     inkscape:cx="32.038647"
     inkscape:cy="19.63285"
     inkscape:window-width="1920"
     inkscape:window-height="1008"
     inkscape:window-x="0"
     inkscape:window-y="0"
     inkscape:window-maximized="1"
     inkscape:current-layer="svg66" />
  <g
     id="g64"
     transform="matrix(0.43046523,0,0,0.43046523,0.43744074,0.18678756)">
    <radialGradient
       id="gradient0"
       gradientUnits="userSpaceOnUse"
       cx="0"
       cy="0"
       r="64"
       gradientTransform="matrix(0.2651,0.2651,-0.3093,0.3093,40,24)">
      <stop
         offset="1"
         stop-color="#ff00a9"
         stop-opacity="0"
         id="stop2" />
      <stop
         offset="0"
         stop-color="#ff00a9"
         id="stop4" />
    </radialGradient>
    <path
       style="fill:url(#gradient0)"
       d="M 40,0 C 26.74,0 16,10.74 16,24 16,37.25 26.74,48 40,48 53.25,48 64,37.25 64,24 64,10.74 53.25,0 40,0 Z"
       id="path7" />
    <path
       style="fill:none;stroke:#010101;stroke-width:4"
       d="m 26,58 c 0,1 3,2 6,2 3,0 6,-1 6,-2 V 6 C 38,5 35,4 32,4 29,4 26,5 26,6 Z"
       transform="matrix(0.7071,0.7071,-0.7071,0.7071,25.0894,-6.4707)"
       id="path9" />
    <linearGradient
       id="gradient1"
       gradientUnits="userSpaceOnUse"
       x1="22"
       y1="-64"
       x2="38"
       y2="-64">
      <stop
         offset="0"
         stop-color="#010101"
         id="stop11" />
      <stop
         offset="0.4841"
         stop-color="#999999"
         id="stop13" />
      <stop
         offset="1"
         stop-color="#010101"
         id="stop15" />
    </linearGradient>
    <path
       style="fill:url(#gradient1)"
       d="m 26,58 c 0,1 3,2 6,2 3,0 6,-1 6,-2 V 22 c 0,1 -3,2 -6,2 -3,0 -6,-1 -6,-2 z"
       transform="matrix(0.7071,0.7071,-0.7071,0.7071,25.0894,-6.4707)"
       id="path18" />
    <linearGradient
       id="gradient2"
       gradientUnits="userSpaceOnUse"
       x1="22"
       y1="-64"
       x2="38"
       y2="-64">
      <stop
         offset="0"
         stop-color="#ffaa00"
         id="stop20" />
      <stop
         offset="0.4894"
         stop-color="#ffffcc"
         id="stop22" />
      <stop
         offset="1"
         stop-color="#ffaa00"
         id="stop24" />
    </linearGradient>
    <path
       style="fill:url(#gradient2)"
       d="m 26,22 c 0,1 3,2 6,2 3,0 6,-1 6,-2 V 6 C 38,7 35,8 32,8 29,8 26,7 26,6 Z"
       transform="matrix(0.7071,0.7071,-0.7071,0.7071,25.0894,-6.4707)"
       id="path27" />
    <radialGradient
       id="gradient3"
       gradientUnits="userSpaceOnUse"
       cx="0"
       cy="0"
       r="64"
       gradientTransform="matrix(0.1093,0,0,0.0781,33,4)">
      <stop
         offset="1"
         stop-color="#ffffff"
         id="stop29" />
      <stop
         offset="0"
         stop-color="#ffaa00"
         id="stop31" />
    </radialGradient>
    <path
       style="fill:url(#gradient3)"
       d="m 32,8 c 3,0 6,-1 6,-2 0,-1 -3,-2 -6,-2 -3,0 -6,1 -6,2 0,1 3,2 6,2 z"
       transform="matrix(0.7071,0.7071,-0.7071,0.7071,25.0894,-6.4707)"
       id="path34" />
    <linearGradient
       id="gradient4"
       gradientUnits="userSpaceOnUse"
       x1="14.99"
       y1="0.31999999"
       x2="41.560001"
       y2="2.54">
      <stop
         offset="0"
         stop-color="#ccffff"
         id="stop36" />
      <stop
         offset="1"
         stop-color="#05ccff"
         id="stop38" />
    </linearGradient>
    <path
       style="fill:url(#gradient4)"
       d="m 32,4 -4,8 h -8 l 6,6 -2,8 8,-5 8,5 -2,-8 6,-6 h -8 z"
       transform="matrix(0.3996,0.3004,-0.3004,0.3996,32.7187,29.89)"
       id="path41" />
    <linearGradient
       id="gradient5"
       gradientUnits="userSpaceOnUse"
       x1="14.99"
       y1="0.31999999"
       x2="41.560001"
       y2="2.54">
      <stop
         offset="0"
         stop-color="#ccffff"
         id="stop43" />
      <stop
         offset="1"
         stop-color="#05ccff"
         id="stop45" />
    </linearGradient>
    <path
       style="fill:url(#gradient5)"
       d="m 32,4 -4,8 h -8 l 6,6 -2,8 8,-5 8,5 -2,-8 6,-6 h -8 z"
       transform="matrix(0.4758,-0.4283,0.4283,0.4758,31.5826,41.6174)"
       id="path48" />
    <linearGradient
       id="gradient6"
       gradientUnits="userSpaceOnUse"
       x1="14.99"
       y1="0.31999999"
       x2="41.560001"
       y2="2.54">
      <stop
         offset="0"
         stop-color="#ccffff"
         id="stop50" />
      <stop
         offset="1"
         stop-color="#05ccff"
         id="stop52" />
    </linearGradient>
    <path
       style="fill:url(#gradient6)"
       d="m 32,4 -4,8 h -8 l 6,6 -2,8 8,-5 8,5 -2,-8 6,-6 h -8 z"
       transform="matrix(-0.4959,0.4422,-0.4422,-0.4959,39.5166,15.4571)"
       id="path55" />
    <linearGradient
       id="gradient7"
       gradientUnits="userSpaceOnUse"
       x1="14.99"
       y1="0.31999999"
       x2="41.560001"
       y2="2.54">
      <stop
         offset="0"
         stop-color="#ccffff"
         id="stop57" />
      <stop
         offset="1"
         stop-color="#05ccff"
         id="stop59" />
    </linearGradient>
    <path
       style="fill:url(#gradient7)"
       d="m 32,4 -4,8 h -8 l 6,6 -2,8 8,-5 8,5 -2,-8 6,-6 h -8 z"
       transform="matrix(-0.5213,-0.2235,0.2235,-0.5213,42.706,23.8823)"
       id="path62" />
  </g>
</svg>
