<?xml version="1.0" encoding="utf-8"?>
<!-- Generator: Adobe Illustrator 16.0.3, SVG Export Plug-In . SVG Version: 6.00 Build 0)  -->
<!DOCTYPE svg PUBLIC "-//W3C//DTD SVG 1.1//EN" "http://www.w3.org/Graphics/SVG/1.1/DTD/svg11.dtd">
<svg version="1.1"
	 id="svg8" sodipodi:docname="preferences-desktop-filter.svg" inkscape:version="1.2 (dc2aedaf03, 2022-05-15)" xmlns:svg="http://www.w3.org/2000/svg" xmlns:sodipodi="http://sodipodi.sourceforge.net/DTD/sodipodi-0.dtd" xmlns:inkscape="http://www.inkscape.org/namespaces/inkscape"
	 xmlns="http://www.w3.org/2000/svg" xmlns:xlink="http://www.w3.org/1999/xlink" x="0px" y="0px" width="24px" height="24px"
	 viewBox="0 0 24 24" enable-background="new 0 0 24 24" xml:space="preserve">
<sodipodi:namedview  id="namedview10" inkscape:showpageshadow="2" inkscape:deskcolor="#d1d1d1" inkscape:pageopacity="0.0" inkscape:window-width="2160" inkscape:window-height="1335" inkscape:window-x="0" inkscape:window-y="0" inkscape:current-layer="svg8" inkscape:zoom="20.85965" inkscape:cx="28.883514" inkscape:cy="10.33095" showgrid="true" bordercolor="#000000" pagecolor="#ffffff" borderopacity="0.25" inkscape:pagecheckerboard="0" inkscape:window-maximized="1">
	<inkscape:grid  id="grid241" type="xygrid"></inkscape:grid>
</sodipodi:namedview>
<g id="path10207">
</g>
<g id="path10209">
</g>
<g id="g3459" transform="translate(0.26536747,0.26549478)">
	<g id="rect2647">
		<path id="path3302" fill="#364A86" d="M11.734,10.012c-1.635,0-2.98,1.165-2.98,2.582v8.611c0,1.416,1.346,2.586,2.98,2.586
			s2.979-1.17,2.979-2.586v-8.611C14.714,11.176,13.368,10.012,11.734,10.012z M11.734,11.734c0.568,0,0.99,0.367,0.99,0.858v8.611
			c0,0.494-0.422,0.865-0.99,0.865s-0.991-0.371-0.991-0.865v-8.611C10.742,12.101,11.165,11.734,11.734,11.734z"/>
		
			<linearGradient id="path3300_1_" gradientUnits="userSpaceOnUse" x1="-517.5442" y1="278.6495" x2="-517.5442" y2="276.8275" gradientTransform="matrix(3.7795 0 0 3.7795 1967.7908 -1031.9471)">
			<stop  offset="0" style="stop-color:#CFD8DC"/>
			<stop  offset="1" style="stop-color:#ECEFF1"/>
		</linearGradient>
		<path id="path3300" fill="url(#path3300_1_)" d="M11.734,10.874L11.734,10.874c1.102,0,1.988,0.768,1.988,1.722v8.609
			c0,0.953-0.888,1.723-1.988,1.723l0,0c-1.102,0-1.989-0.77-1.989-1.723v-8.609C9.744,11.641,10.632,10.874,11.734,10.874z"/>
	</g>
	<g id="rect2644">
		<path id="path3296" sodipodi:nodetypes="cccccccccccccccccccc" fill="#364A86" d="M22.625,2.264L0.755,2.261
			c-0.535,0.019-0.957,0.4-0.954,0.864v6.887c0,0.342,0.233,0.65,0.595,0.787l8.948,3.445c0.125,0.047,0.264,0.072,0.402,0.07h3.979
			c0.139,0.002,0.275-0.023,0.404-0.07l8.944-3.445c0.362-0.137,0.596-0.445,0.596-0.787v-6.89
			C23.665,2.631,23.192,2.24,22.625,2.264z M21.679,4.024v5.428l-8.17,3.14H9.958l-8.169-3.14V3.945L21.679,4.024z"/>
		
			<linearGradient id="path3294_1_" gradientUnits="userSpaceOnUse" x1="-517.5442" y1="276.1447" x2="-517.5442" y2="274.7778" gradientTransform="matrix(3.7795 0 0 3.7795 1967.7908 -1031.9471)">
			<stop  offset="0" style="stop-color:#CFD8DC"/>
			<stop  offset="1" style="stop-color:#ECEFF1"/>
		</linearGradient>
		<path id="path3294" sodipodi:nodetypes="ccccccc" fill="url(#path3294_1_)" d="M0.798,3.124h21.872v6.888l-8.947,3.445H9.744
			l-8.947-3.444V3.124z"/>
	</g>
	<g id="path851">
		<path id="path3290" fill="#364A86" d="M11.734-0.323c-3.122,0-5.945,0.305-8.059,0.82C2.618,0.754,1.743,1.058,1.062,1.45
			C0.382,1.842-0.199,2.39-0.199,3.121c0,0.732,0.581,1.286,1.262,1.678c0.681,0.392,1.556,0.697,2.613,0.954
			c2.113,0.515,4.937,0.814,8.059,0.814c3.12,0,5.944-0.299,8.059-0.814c1.058-0.257,1.931-0.561,2.613-0.953
			c0.681-0.392,1.262-0.946,1.262-1.678c0-0.731-0.581-1.279-1.262-1.671c-0.683-0.392-1.558-0.696-2.613-0.954
			C17.679-0.018,14.855-0.323,11.734-0.323z M11.734,1.177c2.988,0,5.695,0.302,7.589,0.763c0.946,0.23,1.688,0.504,2.128,0.756
			s0.482,0.414,0.482,0.426S21.89,3.295,21.45,3.548c-0.438,0.253-1.182,0.533-2.128,0.763c-1.894,0.461-4.601,0.756-7.589,0.756
			c-2.99,0-5.697-0.295-7.589-0.756C3.198,4.08,2.455,3.8,2.016,3.547C1.577,3.295,1.532,3.134,1.532,3.122s0.046-0.173,0.485-0.426
			C2.456,2.443,3.199,2.17,4.145,1.94C6.036,1.479,8.743,1.177,11.734,1.177z"/>
		
			<linearGradient id="path3288_1_" gradientUnits="userSpaceOnUse" x1="-517.5442" y1="274.7765" x2="-517.5442" y2="273.4099" gradientTransform="matrix(3.7795 0 0 3.7795 1967.7908 -1031.9471)">
			<stop  offset="0" style="stop-color:#ECEFF1"/>
			<stop  offset="1" style="stop-color:#A5B7C0"/>
		</linearGradient>
		<path id="path3288" fill="url(#path3288_1_)" d="M22.8,3.124c0,1.488-4.955,2.695-11.065,2.695
			c-6.111,0-11.066-1.207-11.066-2.695c0-1.489,4.954-2.695,11.065-2.695S22.8,1.635,22.8,3.124z"/>
	</g>
</g>
</svg>
