<?xml version="1.0" encoding="UTF-8" standalone="no"?>
<svg
   version="1.1"
   width="32"
   height="32"
   color-interpolation="linearRGB"
   id="svg57"
   sodipodi:docname="face.svg"
   inkscape:version="1.2.2 (b0a8486541, 2022-12-01)"
   xmlns:inkscape="http://www.inkscape.org/namespaces/inkscape"
   xmlns:sodipodi="http://sodipodi.sourceforge.net/DTD/sodipodi-0.dtd"
   xmlns="http://www.w3.org/2000/svg"
   xmlns:svg="http://www.w3.org/2000/svg">
  <defs
     id="defs61" />
  <sodipodi:namedview
     id="namedview59"
     pagecolor="#ffffff"
     bordercolor="#000000"
     borderopacity="0.25"
     inkscape:showpageshadow="2"
     inkscape:pageopacity="0.0"
     inkscape:pagecheckerboard="0"
     inkscape:deskcolor="#d1d1d1"
     showgrid="false"
     inkscape:zoom="12.9375"
     inkscape:cx="32.038647"
     inkscape:cy="19.63285"
     inkscape:window-width="1920"
     inkscape:window-height="1008"
     inkscape:window-x="0"
     inkscape:window-y="0"
     inkscape:window-maximized="1"
     inkscape:current-layer="svg57" />
  <g
     id="g55"
     transform="matrix(0.48588721,0,0,0.48588721,0.64156945,-0.57156322)">
    <path
       style="fill:#010101;fill-opacity:0.5725"
       d="m 27,57 2,2 3.13,-3.17 L 37,59 45.39,47.54 64,38 59,35 61,37 36,49 Z m 31,-23 4,-3 -4,-2 -3,3 z"
       id="path2" />
    <path
       style="fill:none;stroke:#010101;stroke-width:4"
       d="m 6.25,30 c 0,0 5.62,6 10.62,12.5 5,6.5 9.38,13.25 9.38,13.25 L 59.12,36.87 32,15 Z"
       id="path4" />
    <radialGradient
       id="gradient0"
       gradientUnits="userSpaceOnUse"
       cx="0"
       cy="0"
       r="64"
       gradientTransform="matrix(0.5714,0,0,0.3333,26,35)">
      <stop
         offset="1"
         stop-color="#cee5ff"
         id="stop6" />
      <stop
         offset="0.4886"
         stop-color="#7588ad"
         id="stop8" />
    </radialGradient>
    <path
       style="fill:url(#gradient0)"
       d="m 6.25,30 c 0,0 5.62,6 10.62,12.5 5,6.5 9.38,13.25 9.38,13.25 L 59.12,36.87 32,15 Z"
       id="path11" />
    <path
       style="fill:none;stroke:#010101;stroke-width:4"
       d="m 2.62,30.87 c 0,0 8.33,5.39 16.38,11 8.44,5.88 16.75,10.88 16.75,10.88 L 58.12,26.37 c 0,0 -12.68,-5.67 -22.75,-11 -5.19,-2.75 -9.37,-6 -9.37,-6 z"
       id="path13" />
    <linearGradient
       id="gradient1"
       gradientUnits="userSpaceOnUse"
       x1="107.04"
       y1="-17.09"
       x2="118.33"
       y2="27.99">
      <stop
         offset="0.0076"
         stop-color="#bfdef4"
         id="stop15" />
      <stop
         offset="0.7424"
         stop-color="#ffffff"
         id="stop17" />
      <stop
         offset="1"
         stop-color="#e7eefb"
         id="stop19" />
    </linearGradient>
    <path
       style="fill:url(#gradient1)"
       d="m 2.62,30.87 c 0,0 8.33,5.39 16.38,11 8.44,5.88 16.75,10.88 16.75,10.88 L 58.12,26.37 c 0,0 -12.68,-5.67 -22.75,-11 -5.19,-2.75 -9.37,-6 -9.37,-6 z"
       id="path22" />
    <linearGradient
       id="gradient2"
       gradientUnits="userSpaceOnUse"
       x1="-47.139999"
       y1="-10.78"
       x2="-28.459999"
       y2="-32.849998">
      <stop
         offset="0"
         stop-color="#010101"
         id="stop24" />
      <stop
         offset="1"
         stop-color="#5296cb"
         id="stop26" />
    </linearGradient>
    <path
       style="fill:none;stroke:url(#gradient2);stroke-width:1"
       d="m 14,37 9,-9 M 22,43 38,27 M 26,46 42,30"
       transform="translate(0,-5)"
       id="path29" />
    <linearGradient
       id="gradient3"
       gradientUnits="userSpaceOnUse"
       x1="-47.139999"
       y1="-10.78"
       x2="-28.459999"
       y2="-32.849998">
      <stop
         offset="0"
         stop-color="#010101"
         id="stop31" />
      <stop
         offset="1"
         stop-color="#5296cb"
         id="stop33" />
    </linearGradient>
    <path
       style="fill:none;stroke:url(#gradient3);stroke-width:1"
       d="M 22,36 33,25"
       transform="translate(0,-5)"
       id="path36" />
    <path
       style="fill:none;stroke:#010101;stroke-width:1"
       d="m 13,34 1,2 2,1"
       transform="translate(11,-15)"
       id="path38" />
    <path
       style="fill:none;stroke:#010101;stroke-width:1"
       d="m 23,24 2,1 1,2"
       transform="translate(3,-7)"
       id="path40" />
    <path
       style="fill:none;stroke:#010101;stroke-width:1"
       d="m 13,34 1,2 2,1"
       transform="translate(5,-2)"
       id="path42" />
    <path
       style="fill:none;stroke:#010101;stroke-width:1"
       d="m 23,24 2,1 1,2"
       transform="translate(8,17)"
       id="path44" />
    <path
       style="fill:none;stroke:#010101;stroke-width:4"
       d="m 16.3,28.01 c -2.33,0.11 -4.5,0.86 -6.35,2.04 0,0 -0.05,1.24 0.49,2.08 l 1.09,1.71 c -1.4,1.06 -2.47,2.5 -3.05,4.2 l -1.92,-0.5 c -0.96,-0.25 -2.13,0.15 -2.13,0.15 -0.28,1.03 -0.41,2.14 -0.41,3.26 0,1.2 0.15,2.34 0.44,3.43 0,0 1.16,0.41 2.14,0.14 l 1.92,-0.53 c 0.59,1.64 1.66,3.09 3.03,4.12 l -1.08,1.68 c -0.53,0.84 -0.49,2.09 -0.49,2.09 1.84,1.18 4,1.91 6.33,2.02 0,0 0.73,-0.95 0.78,-1.95 l 0.09,-2.02 c 1.82,-0.03 3.5,-0.62 4.91,-1.57 l 1.25,1.55 c 0.63,0.77 1.81,1.13 1.81,1.13 1.73,-1.41 3.1,-3.25 3.94,-5.39 0,0 -0.69,-0.97 -1.62,-1.34 l -1.88,-0.75 c 0.25,-0.81 0.38,-1.7 0.38,-2.59 0,-0.88 -0.11,-1.71 -0.34,-2.52 l 1.86,-0.69 c 0.94,-0.36 1.64,-1.39 1.64,-1.39 -0.8,-2.15 -2.18,-4.03 -3.93,-5.45 0,0 -1.16,0.36 -1.8,1.13 l -1.25,1.57 C 20.75,32.63 19.04,32.04 17.18,32 l -0.09,-2.03 c -0.03,-1 -0.78,-1.96 -0.78,-1.96 z M 20,41 c 0,1.65 -1.35,3 -3,3 -1.65,0 -3,-1.35 -3,-3 0,-1.66 1.34,-3 3,-3 1.65,0 3,1.34 3,3 z"
       id="path46" />
    <linearGradient
       id="gradient4"
       gradientUnits="userSpaceOnUse"
       x1="21.959999"
       y1="-0.0099999998"
       x2="57.169998"
       y2="22.58">
      <stop
         offset="0"
         stop-color="#fdfdfd"
         id="stop48" />
      <stop
         offset="1"
         stop-color="#8d8d8d"
         id="stop50" />
    </linearGradient>
    <path
       style="fill:url(#gradient4)"
       d="m 16.3,28.01 c -2.33,0.11 -4.5,0.86 -6.35,2.04 0,0 -0.05,1.24 0.49,2.08 l 1.09,1.71 c -1.4,1.06 -2.47,2.5 -3.05,4.2 l -1.92,-0.5 c -0.96,-0.25 -2.13,0.15 -2.13,0.15 -0.28,1.03 -0.41,2.14 -0.41,3.26 0,1.2 0.15,2.34 0.44,3.43 0,0 1.16,0.41 2.14,0.14 l 1.92,-0.53 c 0.59,1.64 1.66,3.09 3.03,4.12 l -1.08,1.68 c -0.53,0.84 -0.49,2.09 -0.49,2.09 1.84,1.18 4,1.91 6.33,2.02 0,0 0.73,-0.95 0.78,-1.95 l 0.09,-2.02 c 1.82,-0.03 3.5,-0.62 4.91,-1.57 l 1.25,1.55 c 0.63,0.77 1.81,1.13 1.81,1.13 1.73,-1.41 3.1,-3.25 3.94,-5.39 0,0 -0.69,-0.97 -1.62,-1.34 l -1.88,-0.75 c 0.25,-0.81 0.38,-1.7 0.38,-2.59 0,-0.88 -0.11,-1.71 -0.34,-2.52 l 1.86,-0.69 c 0.94,-0.36 1.64,-1.39 1.64,-1.39 -0.8,-2.15 -2.18,-4.03 -3.93,-5.45 0,0 -1.16,0.36 -1.8,1.13 l -1.25,1.57 C 20.75,32.63 19.04,32.04 17.18,32 l -0.09,-2.03 c -0.03,-1 -0.78,-1.96 -0.78,-1.96 z M 20,41 c 0,1.65 -1.35,3 -3,3 -1.65,0 -3,-1.35 -3,-3 0,-1.66 1.34,-3 3,-3 1.65,0 3,1.34 3,3 z"
       id="path53" />
  </g>
</svg>
