<?xml version="1.0" encoding="UTF-8" standalone="no"?>
<svg
   version="1.1"
   width="28"
   height="28"
   color-interpolation="linearRGB"
   id="svg54"
   sodipodi:docname="face.svg"
   inkscape:version="1.2.2 (b0a8486541, 2022-12-01)"
   xmlns:inkscape="http://www.inkscape.org/namespaces/inkscape"
   xmlns:sodipodi="http://sodipodi.sourceforge.net/DTD/sodipodi-0.dtd"
   xmlns="http://www.w3.org/2000/svg"
   xmlns:svg="http://www.w3.org/2000/svg">
  <defs
     id="defs58" />
  <sodipodi:namedview
     id="namedview56"
     pagecolor="#ffffff"
     bordercolor="#000000"
     borderopacity="0.25"
     inkscape:showpageshadow="2"
     inkscape:pageopacity="0.0"
     inkscape:pagecheckerboard="0"
     inkscape:deskcolor="#d1d1d1"
     showgrid="false"
     inkscape:zoom="12.9375"
     inkscape:cx="32.038647"
     inkscape:cy="19.63285"
     inkscape:window-width="1920"
     inkscape:window-height="1008"
     inkscape:window-x="0"
     inkscape:window-y="0"
     inkscape:window-maximized="1"
     inkscape:current-layer="svg54" />
  <g
     id="g52"
     transform="matrix(0.43111459,0,0,0.43111459,0.7572892,0.2570042)">
    <path
       style="fill:#000000;fill-opacity:0.3294"
       d="m 2,47 c 0,13.99 18,17 29,17 v 0 0 c 17.12,0 22,-6 22,-10 0,0 4,-2 5,-2 5,0 5,-10 0,-10 -1,0 -5,-2 -5,-2 C 53,27 2,39.73 2,47 Z"
       id="path2" />
    <path
       style="fill:none;stroke:#000000;stroke-width:4"
       d="m 24,2 c -2.24,0 -11,2 -7,5 0,0 0,12.11 0,15 0,2.25 -15,20.43 -15,25 v 0 C 2,56.38 9.09,62 24.01,62 38.92,62 46,56.38 46,47 v 0 C 46,42.34 31,24.3 31,22 31,19.24 31,7 31,7 35,4 26.29,2 24,2 Z"
       id="path4" />
    <linearGradient
       id="gradient0"
       gradientUnits="userSpaceOnUse"
       x1="-10.5"
       y1="-64"
       x2="64"
       y2="-64">
      <stop
         offset="0"
         stop-color="#6464ba"
         stop-opacity="0.2117"
         id="stop6" />
      <stop
         offset="1"
         stop-color="#c7c7e0"
         stop-opacity="0.4627"
         id="stop8" />
    </linearGradient>
    <path
       style="fill:url(#gradient0)"
       d="M 24,32 C 10.19,32 2,42 2,47 2,55.28 9,62 24.01,62 39,62 46,55.28 46.01,47 46,42 37.8,32 24,32 Z"
       id="path11" />
    <linearGradient
       id="gradient1"
       gradientUnits="userSpaceOnUse"
       x1="-10.5"
       y1="-64"
       x2="64"
       y2="-64">
      <stop
         offset="0"
         stop-color="#6464ba"
         stop-opacity="0.2117"
         id="stop13" />
      <stop
         offset="1"
         stop-color="#c7c7e0"
         stop-opacity="0.4627"
         id="stop15" />
    </linearGradient>
    <path
       style="fill:url(#gradient1)"
       d="m 24,2 c -2.24,0 -11,2 -7,5 0,0 0,12.11 0,15 0,2.25 -15,20.43 -15,25 v 0 C 2,56.38 9.09,62 24.01,62 38.92,62 46,56.38 46,47 v 0 C 46,42.34 31,24.3 31,22 31,19.24 31,7 31,7 35,4 26.29,2 24,2 Z"
       id="path18" />
    <linearGradient
       id="gradient2"
       gradientUnits="userSpaceOnUse"
       x1="-10.5"
       y1="-64"
       x2="64"
       y2="-64">
      <stop
         offset="1"
         stop-color="#00ff00"
         stop-opacity="0.247"
         id="stop20" />
      <stop
         offset="0"
         stop-color="#a7ff00"
         stop-opacity="0.6117"
         id="stop22" />
    </linearGradient>
    <path
       style="fill:url(#gradient2)"
       d="m 24,16 c -2.24,0 -1,-6 -7,0 0,0 0,3.11 0,6 0,2.25 -15,20 -15,25 v 0 C 2,56.38 9.09,62 24.01,62 38.92,62 46,56.38 46,47 v 0 C 46,42 31,24.3 31,22 c 0,-2.76 0,-6 0,-6 -3,-2 -4.71,0 -7,0 z"
       id="path25" />
    <linearGradient
       id="gradient3"
       gradientUnits="userSpaceOnUse"
       x1="-10.5"
       y1="-64"
       x2="64"
       y2="-64">
      <stop
         offset="1"
         stop-color="#00ff00"
         stop-opacity="0.247"
         id="stop27" />
      <stop
         offset="0"
         stop-color="#a7ff00"
         stop-opacity="0.6117"
         id="stop29" />
    </linearGradient>
    <path
       style="fill:url(#gradient3)"
       d="m 24,13 c -8,0 -7,2 -7,4 0,2 -1,4 7,4 8,0 7,-2 7,-4 0,-2 1,-4 -7,-4 z"
       id="path32" />
    <linearGradient
       id="gradient4"
       gradientUnits="userSpaceOnUse"
       x1="53.360001"
       y1="-15.71"
       x2="58.560001"
       y2="-7.9400001">
      <stop
         offset="0.3484"
         stop-color="#e7e7e7"
         stop-opacity="0.5215"
         id="stop34" />
      <stop
         offset="0"
         stop-color="#fdfdfd"
         stop-opacity="0.8156"
         id="stop36" />
      <stop
         offset="1"
         stop-color="#ffffff"
         stop-opacity="0.7058"
         id="stop38" />
    </linearGradient>
    <path
       style="fill:url(#gradient4)"
       d="m 24,2 c -4.97,0 -8,2.01 -8,4.5 0,2.48 3.03,4.5 8.01,4.5 4.97,0 8,-2.02 8,-4.5 C 32,4.01 28.97,2 24,2 Z m 0,1.2 c 4.18,0 6.56,1.47 6.57,3.3 0,1.82 -2.39,3.3 -6.56,3.3 -4.18,0 -6.57,-1.48 -6.57,-3.3 0,-1.83 2.38,-3.3 6.56,-3.3 z"
       id="path41" />
    <linearGradient
       id="gradient5"
       gradientUnits="userSpaceOnUse"
       x1="-10.5"
       y1="-64"
       x2="64"
       y2="-64">
      <stop
         offset="0"
         stop-color="#6464ba"
         stop-opacity="0.0627"
         id="stop43" />
      <stop
         offset="1"
         stop-color="#c7c7e0"
         stop-opacity="0.1333"
         id="stop45" />
    </linearGradient>
    <path
       style="fill:url(#gradient5)"
       d="m 24,2 c -2.24,0 -11,2 -7,5 0,0 0,12.11 0,15 0,2.25 -15,20.43 -15,25 v 0 C 2,56.38 9.09,62 24.01,62 38.92,62 46,56.38 46,47 v 0 C 46,42.34 31,24.3 31,22 31,19.24 31,7 31,7 35,4 26.29,2 24,2 Z"
       id="path48" />
    <path
       style="fill:#ffffff"
       d="m 14,34 c 3,1 7,-3 4,-4 -3,-1 -7,3 -4,4 z m 22,3 c -1.88,2.12 -6,7 -11.13,9.94 0,0 8.46,-3.89 10.13,-5.94 2.12,-2.63 1,-4 1,-4 z"
       id="path50" />
  </g>
</svg>
