<?xml version="1.0" encoding="UTF-8" standalone="no"?>
<svg
   version="1.1"
   width="28"
   height="28"
   color-interpolation="linearRGB"
   id="svg57"
   sodipodi:docname="fonts.svg"
   inkscape:version="1.2.2 (b0a8486541, 2022-12-01)"
   xmlns:inkscape="http://www.inkscape.org/namespaces/inkscape"
   xmlns:sodipodi="http://sodipodi.sourceforge.net/DTD/sodipodi-0.dtd"
   xmlns="http://www.w3.org/2000/svg"
   xmlns:svg="http://www.w3.org/2000/svg">
  <defs
     id="defs61" />
  <sodipodi:namedview
     id="namedview59"
     pagecolor="#ffffff"
     bordercolor="#000000"
     borderopacity="0.25"
     inkscape:showpageshadow="2"
     inkscape:pageopacity="0.0"
     inkscape:pagecheckerboard="0"
     inkscape:deskcolor="#d1d1d1"
     showgrid="false"
     inkscape:zoom="12.9375"
     inkscape:cx="32.038647"
     inkscape:cy="25.816425"
     inkscape:window-width="1920"
     inkscape:window-height="1008"
     inkscape:window-x="0"
     inkscape:window-y="0"
     inkscape:window-maximized="1"
     inkscape:current-layer="svg57" />
  <g
     id="g55"
     transform="matrix(0.44206488,0,0,0.44206488,-0.38695727,-0.00548073)">
    <path
       style="fill:#000000;fill-opacity:0.3725"
       d="m 18,40 -6,8 18,4 -2,-9 z m 30,0 4,10 -12,12 14,-4 10,-10 z"
       id="path2" />
    <path
       style="fill:none;stroke:#000000;stroke-width:4"
       d="M 39,7 29,4 18,9 4,42 l 8,4 8,-6.63 8.5,3.38 3.49,13.24 L 40,60 50,50 Z"
       id="path4" />
    <linearGradient
       id="gradient0"
       gradientUnits="userSpaceOnUse"
       x1="23.77"
       y1="-66.989998"
       x2="77.720001"
       y2="-61.869999">
      <stop
         offset="0"
         stop-color="#032288"
         id="stop6" />
      <stop
         offset="1"
         stop-color="#1944e7"
         id="stop8" />
    </linearGradient>
    <path
       style="fill:url(#gradient0)"
       d="M 39,7 28,13 40,60 50,50 Z"
       id="path11" />
    <linearGradient
       id="gradient1"
       gradientUnits="userSpaceOnUse"
       x1="94.669998"
       y1="-30.26"
       x2="116.16"
       y2="1.5599999">
      <stop
         offset="0"
         stop-color="#020258"
         id="stop13" />
      <stop
         offset="1"
         stop-color="#1919e7"
         id="stop15" />
    </linearGradient>
    <path
       style="fill:url(#gradient1)"
       d="m 12,46 8,-6.63 -4.38,-1.62 z"
       id="path18" />
    <linearGradient
       id="gradient2"
       gradientUnits="userSpaceOnUse"
       x1="94.669998"
       y1="-30.26"
       x2="116.16"
       y2="1.5599999">
      <stop
         offset="0"
         stop-color="#020258"
         id="stop20" />
      <stop
         offset="1"
         stop-color="#1919e7"
         id="stop22" />
    </linearGradient>
    <path
       style="fill:url(#gradient2)"
       d="m 22.76,21.38 1.73,6.48 -7.13,5.86 z"
       id="path25" />
    <linearGradient
       id="gradient3"
       gradientUnits="userSpaceOnUse"
       x1="-67.120003"
       y1="1.77"
       x2="-60.869999"
       y2="-12.38">
      <stop
         offset="0"
         stop-color="#cedeff"
         id="stop27" />
      <stop
         offset="1"
         stop-color="#3778ff"
         id="stop29" />
    </linearGradient>
    <path
       style="fill:url(#gradient3)"
       d="M 26.24,34.36 27,37.21 17.36,33.72 Z"
       id="path32" />
    <linearGradient
       id="gradient4"
       gradientUnits="userSpaceOnUse"
       x1="-72.800003"
       y1="45.34"
       x2="-73.419998"
       y2="29.870001">
      <stop
         offset="0"
         stop-color="#badaff"
         id="stop34" />
      <stop
         offset="1"
         stop-color="#032e85"
         id="stop36" />
    </linearGradient>
    <path
       style="fill:url(#gradient4)"
       d="m 24.49,27.86 1.75,6.5 -8.88,-0.64 z"
       id="path39" />
    <linearGradient
       id="gradient5"
       gradientUnits="userSpaceOnUse"
       x1="88.050003"
       y1="-43.139999"
       x2="117.3"
       y2="2.28">
      <stop
         offset="0"
         stop-color="#97c3ff"
         id="stop41" />
      <stop
         offset="1"
         stop-color="#376aff"
         id="stop43" />
    </linearGradient>
    <path
       style="fill:url(#gradient5)"
       d="M 28.49,42.81 32,56 40,60 28.21,13 18,9 4,42 l 8,4 3.58,-8.2 z M 22.76,21.38 27,37.21 17.36,33.72 Z"
       id="path46" />
    <linearGradient
       id="gradient6"
       gradientUnits="userSpaceOnUse"
       x1="93.830002"
       y1="-59.290001"
       x2="102.04"
       y2="-50.240002">
      <stop
         offset="0"
         stop-color="#e3ecff"
         id="stop48" />
      <stop
         offset="1"
         stop-color="#acc7ff"
         id="stop50" />
    </linearGradient>
    <path
       style="fill:url(#gradient6)"
       d="M 29,4 18,9 28,13 39,7 Z"
       id="path53" />
  </g>
</svg>
