<?xml version="1.0" encoding="UTF-8" standalone="no"?>
<svg
   version="1.1"
   width="28"
   height="28"
   color-interpolation="linearRGB"
   id="svg49"
   sodipodi:docname="forzar.svg"
   inkscape:version="1.2.2 (b0a8486541, 2022-12-01)"
   xmlns:inkscape="http://www.inkscape.org/namespaces/inkscape"
   xmlns:sodipodi="http://sodipodi.sourceforge.net/DTD/sodipodi-0.dtd"
   xmlns="http://www.w3.org/2000/svg"
   xmlns:svg="http://www.w3.org/2000/svg">
  <defs
     id="defs53" />
  <sodipodi:namedview
     id="namedview51"
     pagecolor="#ffffff"
     bordercolor="#000000"
     borderopacity="0.25"
     inkscape:showpageshadow="2"
     inkscape:pageopacity="0.0"
     inkscape:pagecheckerboard="0"
     inkscape:deskcolor="#d1d1d1"
     showgrid="false"
     inkscape:zoom="12.9375"
     inkscape:cx="32.038647"
     inkscape:cy="19.63285"
     inkscape:window-width="1920"
     inkscape:window-height="1008"
     inkscape:window-x="0"
     inkscape:window-y="0"
     inkscape:window-maximized="1"
     inkscape:current-layer="svg49" />
  <g
     id="g47"
     transform="matrix(0.418131,0,0,0.418131,0.71900744,1.2746359)">
    <path
       style="fill:none;stroke:#000000;stroke-width:4"
       d="M 32,19 C 48.23,19 61,28.23 61,40 61,51.75 48.23,61 32,61 15.76,61 3,51.75 3,40 3,28.23 15.76,19 32,19 Z"
       id="path2" />
    <linearGradient
       id="gradient0"
       gradientUnits="userSpaceOnUse"
       x1="104.99"
       y1="-32.68"
       x2="130.32001"
       y2="8.8500004">
      <stop
         offset="0"
         stop-color="#f67777"
         id="stop4" />
      <stop
         offset="1"
         stop-color="#d30505"
         id="stop6" />
    </linearGradient>
    <path
       style="fill:url(#gradient0)"
       d="M 32,19 C 48.23,19 61,28.23 61,40 61,51.75 48.23,61 32,61 15.76,61 3,51.75 3,40 3,28.23 15.76,19 32,19 Z"
       id="path9" />
    <linearGradient
       id="gradient1"
       gradientUnits="userSpaceOnUse"
       x1="104.99"
       y1="-32.68"
       x2="130.32001"
       y2="8.8500004">
      <stop
         offset="0"
         stop-color="#ffffff"
         id="stop11" />
      <stop
         offset="1"
         stop-color="#dedede"
         id="stop13" />
    </linearGradient>
    <path
       style="fill:url(#gradient1)"
       d="M 32,19 C 48.23,19 61,28.23 61,40 61,51.75 48.23,61 32,61 15.76,61 3,51.75 3,40 3,28.23 15.76,19 32,19 Z"
       transform="matrix(0.7586,0,0,0.738,7.7241,8.9761)"
       id="path16" />
    <linearGradient
       id="gradient2"
       gradientUnits="userSpaceOnUse"
       x1="104.99"
       y1="-32.68"
       x2="130.32001"
       y2="8.8500004">
      <stop
         offset="0"
         stop-color="#f67777"
         id="stop18" />
      <stop
         offset="1"
         stop-color="#d30505"
         id="stop20" />
    </linearGradient>
    <path
       style="fill:url(#gradient2)"
       d="M 32,19 C 48.23,19 61,28.23 61,40 61,51.75 48.23,61 32,61 15.76,61 3,51.75 3,40 3,28.23 15.76,19 32,19 Z"
       transform="matrix(0.5172,0,0,0.5,15.4482,17.5)"
       id="path23" />
    <linearGradient
       id="gradient3"
       gradientUnits="userSpaceOnUse"
       x1="104.99"
       y1="-32.68"
       x2="130.32001"
       y2="8.8500004">
      <stop
         offset="0"
         stop-color="#ffffff"
         id="stop25" />
      <stop
         offset="1"
         stop-color="#dedede"
         id="stop27" />
    </linearGradient>
    <path
       style="fill:url(#gradient3)"
       d="M 32,19 C 48.23,19 61,28.23 61,40 61,51.75 48.23,61 32,61 15.76,61 3,51.75 3,40 3,28.23 15.76,19 32,19 Z"
       transform="matrix(0.2758,0,0,0.2619,23.1724,27.0238)"
       id="path30" />
    <path
       style="fill:none;stroke:#000000;stroke-width:4"
       d="M 32,11 26,4 v 8 l 6,7 7,-7 V 4 Z"
       transform="matrix(0.9667,0.2557,-0.2557,0.9667,10.5265,-6.9532)"
       id="path32" />
    <radialGradient
       id="gradient4"
       gradientUnits="userSpaceOnUse"
       cx="0"
       cy="0"
       r="64"
       gradientTransform="matrix(0.2499,0,0,0.2499,32,19)">
      <stop
         offset="1"
         stop-color="#ffffff"
         id="stop34" />
      <stop
         offset="0"
         stop-color="#fff3a5"
         id="stop36" />
    </radialGradient>
    <path
       style="fill:url(#gradient4)"
       d="M 32,11 26,4 v 8 l 6,7 7,-7 V 4 Z"
       transform="matrix(0.9667,0.2557,-0.2557,0.9667,10.5265,-6.9532)"
       id="path39" />
    <path
       style="fill:none;stroke:#000000;stroke-width:2;stroke-linecap:round;stroke-linejoin:round"
       d="M 32,11 V 37"
       transform="matrix(0.9667,0.2557,-0.2557,0.9667,10.5265,-6.9532)"
       id="path41" />
    <path
       style="fill:#000000;fill-opacity:0.4"
       d="m 46,45 v 5 l 6,3 v -5 h 8 l -5,-3 z"
       id="path43" />
    <path
       style="fill:none;stroke:#000000;stroke-width:2;stroke-opacity:0.4"
       d="M 44,44 32,38"
       id="path45" />
  </g>
</svg>
