<?xml version="1.0" encoding="UTF-8" standalone="no"?>
<svg
   version="1.1"
   width="28"
   height="28"
   color-interpolation="linearRGB"
   id="svg74"
   sodipodi:docname="git-local.svg"
   inkscape:version="1.2.2 (b0a8486541, 2022-12-01)"
   xmlns:inkscape="http://www.inkscape.org/namespaces/inkscape"
   xmlns:sodipodi="http://sodipodi.sourceforge.net/DTD/sodipodi-0.dtd"
   xmlns="http://www.w3.org/2000/svg"
   xmlns:svg="http://www.w3.org/2000/svg">
  <defs
     id="defs78" />
  <sodipodi:namedview
     id="namedview76"
     pagecolor="#ffffff"
     bordercolor="#000000"
     borderopacity="0.25"
     inkscape:showpageshadow="2"
     inkscape:pageopacity="0.0"
     inkscape:pagecheckerboard="0"
     inkscape:deskcolor="#d1d1d1"
     showgrid="false"
     inkscape:zoom="12.9375"
     inkscape:cx="21.024155"
     inkscape:cy="18.47343"
     inkscape:window-width="1920"
     inkscape:window-height="1008"
     inkscape:window-x="0"
     inkscape:window-y="0"
     inkscape:window-maximized="1"
     inkscape:current-layer="svg74" />
  <g
     id="g72"
     transform="matrix(0.43060272,0,0,0.43060272,0.20166536,-0.57640687)">
    <path
       style="fill:#000000;fill-opacity:0.396"
       d="m 32,62 h 8 L 44,64 61,43 55.8,40.4 60,38 52,37 Z"
       id="path2" />
    <path
       style="fill:none;stroke:#000000;stroke-width:4;stroke-linejoin:round"
       d="M 10,39 V 49 L 32,60 50,42 v -6"
       id="path4" />
    <linearGradient
       id="gradient0"
       gradientUnits="userSpaceOnUse"
       x1="46.07"
       y1="78.239998"
       x2="23.93"
       y2="73.150002">
      <stop
         offset="0"
         stop-color="#82aac8"
         id="stop6" />
      <stop
         offset="1"
         stop-color="#40407c"
         id="stop8" />
    </linearGradient>
    <path
       style="fill:url(#gradient0)"
       d="M 32,38 50,20 V 42 L 32,60 Z"
       id="path11" />
    <path
       style="fill:#3d3d5d"
       d="M 32,38 H 42 L 32,48 Z"
       id="path13" />
    <linearGradient
       id="gradient1"
       gradientUnits="userSpaceOnUse"
       x1="44.470001"
       y1="70.75"
       x2="29.889999"
       y2="79.360001">
      <stop
         offset="0"
         stop-color="#5a6e82"
         id="stop15" />
      <stop
         offset="1"
         stop-color="#9be2ff"
         id="stop17" />
    </linearGradient>
    <path
       style="fill:url(#gradient1)"
       d="M 11.89,36.01 14,46 32,55 v 5 L 10,49 V 35.99 Z"
       id="path20" />
    <linearGradient
       id="gradient2"
       gradientUnits="userSpaceOnUse"
       x1="54.080002"
       y1="49.540001"
       x2="50.66"
       y2="59.950001">
      <stop
         offset="0"
         stop-color="#5a6e82"
         id="stop22" />
      <stop
         offset="1"
         stop-color="#3a7d99"
         id="stop24" />
    </linearGradient>
    <path
       style="fill:url(#gradient2)"
       d="M 32,38 V 55 L 14,46 11.89,36.01 Z"
       id="path27" />
    <path
       style="fill:none;stroke:#000000;stroke-width:4;stroke-linejoin:round"
       d="M 24,46 2,35 10,27 H 2 L 24,14 h 6 l 7,-8 17,6 -4,11 12,3 -18,18 -12,-6 z"
       id="path29" />
    <linearGradient
       id="gradient3"
       gradientUnits="userSpaceOnUse"
       x1="44.25"
       y1="2.48"
       x2="55.009998"
       y2="17.280001">
      <stop
         offset="0"
         stop-color="#40407c"
         id="stop31" />
      <stop
         offset="0.9962"
         stop-color="#417297"
         id="stop33" />
    </linearGradient>
    <path
       style="fill:url(#gradient3)"
       d="M 10,27 30,14 V 33 L 23.89,37.88 10,30.99 Z"
       id="path36" />
    <linearGradient
       id="gradient4"
       gradientUnits="userSpaceOnUse"
       x1="42.68"
       y1="-29.809999"
       x2="61.509998"
       y2="-25.25">
      <stop
         offset="0"
         stop-color="#6dc8ed"
         id="stop38" />
      <stop
         offset="1"
         stop-color="#a4c6e1"
         id="stop40" />
    </linearGradient>
    <path
       style="fill:url(#gradient4)"
       d="m 30,14 4,16 16,7 V 22 Z"
       id="path43" />
    <path
       style="fill:#3d3d5d"
       d="m 30,14 4,16 16,7 -8.15,1.33 L 30,33 Z"
       id="path45" />
    <path
       style="fill:#376181"
       d="M 30,33 23.89,37.88 32,38 36.1,35.74 Z"
       id="path47" />
    <linearGradient
       id="gradient5"
       gradientUnits="userSpaceOnUse"
       x1="32.240002"
       y1="-14.37"
       x2="49.830002"
       y2="-16.209999">
      <stop
         offset="0"
         stop-color="#9be2ff"
         id="stop49" />
      <stop
         offset="1"
         stop-color="#5789bd"
         id="stop51" />
    </linearGradient>
    <path
       style="fill:url(#gradient5)"
       d="M 37,6 54,12 50,23 30,14 Z"
       id="path54" />
    <linearGradient
       id="gradient6"
       gradientUnits="userSpaceOnUse"
       x1="1.22"
       y1="-19.6"
       x2="44.889999"
       y2="-14.22">
      <stop
         offset="0"
         stop-color="#9be2ff"
         id="stop56" />
      <stop
         offset="1"
         stop-color="#5d81a5"
         id="stop58" />
    </linearGradient>
    <path
       style="fill:url(#gradient6)"
       d="M 2,35 24,46 32,38 10,27 Z"
       id="path61" />
    <path
       style="fill:#9be2ff"
       d="M 2,27 24,14 h 6 L 10,27 Z"
       id="path63" />
    <linearGradient
       id="gradient7"
       gradientUnits="userSpaceOnUse"
       x1="43.439999"
       y1="10.75"
       x2="62.48"
       y2="20.219999">
      <stop
         offset="0"
         stop-color="#9be2ff"
         id="stop65" />
      <stop
         offset="1"
         stop-color="#5a6e82"
         id="stop67" />
    </linearGradient>
    <path
       style="fill:url(#gradient7)"
       d="M 32,38 50,23 62,26 44,44 Z"
       id="path70" />
  </g>
</svg>
