<?xml version="1.0" encoding="UTF-8" standalone="no"?>
<svg
   width="24"
   height="24"
   version="1.1"
   id="svg1"
   sodipodi:docname="github-mark.svg"
   inkscape:version="1.3.2 (091e20ef0f, 2023-11-25, custom)"
   xmlns:inkscape="http://www.inkscape.org/namespaces/inkscape"
   xmlns:sodipodi="http://sodipodi.sourceforge.net/DTD/sodipodi-0.dtd"
   xmlns="http://www.w3.org/2000/svg"
   xmlns:svg="http://www.w3.org/2000/svg">
  <defs
     id="defs1" />
  <sodipodi:namedview
     id="namedview1"
     pagecolor="#ffffff"
     bordercolor="#000000"
     borderopacity="0.25"
     inkscape:showpageshadow="2"
     inkscape:pageopacity="0.0"
     inkscape:pagecheckerboard="0"
     inkscape:deskcolor="#d1d1d1"
     inkscape:zoom="5.8541667"
     inkscape:cx="48"
     inkscape:cy="28.52669"
     inkscape:window-width="1536"
     inkscape:window-height="788"
     inkscape:window-x="0"
     inkscape:window-y="0"
     inkscape:window-maximized="1"
     inkscape:current-layer="svg1" />
  <path
     fill-rule="evenodd"
     clip-rule="evenodd"
     d="M 11.952049,0 C 5.3428748,0 0,5.3822632 0,12.040857 c 0,5.322569 3.4233641,9.828012 8.1724774,11.42263 0.5937615,0.119878 0.8112539,-0.259082 0.8112539,-0.577859 0,-0.279144 -0.019572,-1.235964 -0.019572,-2.232905 C 5.6393886,21.370521 4.9470338,19.217371 4.9470338,19.217371 4.4127219,17.821897 3.6210399,17.463242 3.6210399,17.463242 2.5328441,16.725628 3.700306,16.725628 3.700306,16.725628 c 1.2070948,0.07975 1.8404893,1.235963 1.8404893,1.235963 1.0683793,1.833884 2.7899696,1.315719 3.482569,0.996697 C 9.1222022,18.180796 9.4390218,17.64257 9.7754132,17.343609 7.12367,17.064466 4.3337005,16.027891 4.3337005,11.402814 c 0,-1.315719 0.4746177,-2.3921714 1.2266667,-3.229358 C 5.4417128,7.8744957 5.0260553,6.6382877 5.6792663,4.9837311 c 0,0 1.0091743,-0.3190214 3.2846484,1.2359633 A 11.491132,11.491132 0 0 1 11.952049,5.8209177 c 1.009175,0 2.037921,0.1396942 2.98789,0.3987767 2.275719,-1.5549847 3.284894,-1.2359633 3.284894,-1.2359633 0.653211,1.6545566 0.237308,2.8907646 0.118654,3.1897249 0.771865,0.8371866 1.226911,1.913639 1.226911,3.229358 0,4.625077 -2.789969,5.64159 -5.461529,5.940795 0.435474,0.378716 0.811254,1.096269 0.811254,2.232661 0,1.614679 -0.01957,2.910581 -0.01957,3.309113 0,0.319022 0.217737,0.697982 0.811254,0.578349 4.749113,-1.595107 8.172477,-6.100306 8.172477,-11.422875 C 23.903854,5.3822632 18.541407,0 11.952049,0 Z"
     fill="#24292f"
     id="path1"
     style="stroke-width:0.244648" />
</svg>
