<?xml version="1.0" encoding="UTF-8" standalone="no"?>
<svg
   version="1.1"
   width="28"
   height="28"
   color-interpolation="linearRGB"
   id="svg69"
   sodipodi:docname="gitRemoto.svg"
   inkscape:version="1.2.2 (b0a8486541, 2022-12-01)"
   xmlns:inkscape="http://www.inkscape.org/namespaces/inkscape"
   xmlns:sodipodi="http://sodipodi.sourceforge.net/DTD/sodipodi-0.dtd"
   xmlns="http://www.w3.org/2000/svg"
   xmlns:svg="http://www.w3.org/2000/svg">
  <defs
     id="defs73" />
  <sodipodi:namedview
     id="namedview71"
     pagecolor="#ffffff"
     bordercolor="#000000"
     borderopacity="0.25"
     inkscape:showpageshadow="2"
     inkscape:pageopacity="0.0"
     inkscape:pagecheckerboard="0"
     inkscape:deskcolor="#d1d1d1"
     showgrid="false"
     inkscape:zoom="12.9375"
     inkscape:cx="32.038647"
     inkscape:cy="25.816425"
     inkscape:window-width="1920"
     inkscape:window-height="1008"
     inkscape:window-x="0"
     inkscape:window-y="0"
     inkscape:window-maximized="1"
     inkscape:current-layer="svg69" />
  <g
     id="g67"
     transform="matrix(0.45419199,0,0,0.45419199,0.36027652,-1.9576898)">
    <path
       style="fill:#000000;fill-opacity:0.298"
       d="m 59.84,27.56 -1.3,2.29 -0.46,1.39 c 0.23,1.11 -0.12,1.76 -0.12,2.37 0,0.77 -0.24,1.39 -0.82,2.39 -1.03,1.81 -8.24,9.19 -10.93,11.89 L 32.57,61.19 C 30.51,63.4 28.13,63.76 26.71,63.4 25.9,63.2 25.32,62.76 25.17,62.21 25,61.58 23.66,60.49 24.5,59.67 22.93,61.59 20.44,61.9 18.76,61.59 17.38,61.34 14.73,59.8 14.47,59 14.42,58.86 14.38,58.5 14.38,58.5 11.64,60.87 8.38,60.36 7.19,59.07 6.86,58.72 5.44,57.91 5.44,57.5 5.44,56.98 7.55,54.38 7.55,54.38 6.52,55.41 24.2,31.19 24.2,31.19 l 1.07,-2.97 c 0,-2.05 -2.18,-2.22 -3.23,-2.29 l -9.31,2.18 c -0.82,0 -1.44,-0.21 -1.84,-0.64 -0.44,-0.47 -0.53,-1.09 -0.53,-1.52 0,-1.57 1.14,-3.32 2.69,-3.32 l 32.07,-2.95 0.07,-0.06 c 0.06,-0.06 1.38,-1.22 3.7,-0.73 6.11,1.28 9.8,2.99 10.98,5.05 0.3,0.54 0.41,1.06 0.41,1.56 0,0.75 -0.24,1.45 -0.44,2.06 z"
       id="path2" />
    <path
       style="fill:#ffcb9a"
       d="m 47.35,15.29 c -2.72,-0.58 -4.29,0.89 -4.29,0.89 l -3.25,1.63 c 0,0 -1.58,-1.03 -2.92,-0.97 H 11.88 c -3.58,0 -5.2,6.81 -0.33,6.81 h 8.77 c 1.34,0.11 2.6,0.33 2.6,1.63 l -0.97,2.6 -20.14,19.49 c -3.57,3.58 2.11,6.98 4.54,4.55 l 0.06,0.01 -1.03,0.96 c -3.57,3.58 2.93,7.36 7.8,3.13 l 0.84,-0.87 c -2.26,3.94 5.88,6.23 9.27,2.06 l 0.7,-0.68 0.06,0.02 c -4.13,4.04 2.77,7.06 7.32,2.19 L 45,45.42 c 0,0 9.75,-9.75 11.05,-12.02 1.3,-2.28 0.97,-2.92 0.33,-6.17 l 2.27,-1.95 c 0.69,-2.23 3.32,-6.91 -11.3,-9.99 z"
       id="path4" />
    <path
       style="fill:#cd9866;fill-opacity:0.698"
       d="m 39.69,18.48 c 0.56,0.1 3.67,1.53 3.67,2.9 v 0.75 l 0.74,-0.08 c 3.84,-0.4 9.9,0.9 9.9,4.29 L 53.58,23.59 54.5,23.57 C 52.88,21.06 48.08,21 44.21,21.18 43.52,19.02 40.29,17.21 39.93,17.14 Z"
       id="path6" />
    <path
       style="fill:#cd9966;fill-opacity:0.698"
       d="m 10.56,22.28 13.08,-0.71 c 2.36,3.7 3.71,4.71 8.75,3.03 4.16,-1.39 7.07,-1.68 7.07,-1.68 0,0 -3.37,3.03 -6.4,4.37 -3.03,1.34 -6.72,1.69 -11.77,2.02 0.28,-2.34 2.99,-5.12 1.01,-5.38 -6.16,-0.84 -10.75,-0.28 -10.75,-0.28 z"
       id="path8" />
    <path
       style="fill:#cd9966;fill-opacity:0.698"
       d="m 32.05,42.09 c 0,0 2.02,1.35 1.35,2.36 -0.67,1.01 -5.39,3.69 -5.72,5.04 -2.02,1.35 -4.04,4.03 -4.7,5.38 -0.68,1.35 -4.38,2.02 -5.72,2.02 -1.35,0 -1.69,2.35 -0.34,2.35 1.34,0 4.67,-0.36 6.37,-2.03 L 35.08,45.46 c 0,0 1.68,-1.69 2.69,-1.01 -1.68,-0.68 -5.72,-2.36 -5.72,-2.36 z"
       id="path10" />
    <path
       style="fill:#cd9966;fill-opacity:0.698"
       d="m 21.97,40.07 c 0,0 2.02,1.35 1.34,2.36 -0.67,1.01 -5.38,3.69 -5.72,5.05 -2.02,1.34 -4.04,4.02 -4.7,5.37 -0.68,1.35 -4.38,2.02 -5.73,2.02 -1.34,0 -1.57,1.82 -0.33,2.35 2.01,0.88 4.67,-0.36 6.37,-2.03 L 25,43.44 c 0,0 1.67,-1.69 2.68,-1.01 C 26,41.75 21.97,40.07 21.97,40.07 Z"
       id="path12" />
    <path
       style="fill:#cd9966;fill-opacity:0.698"
       d="m 17.59,35.02 c 0,0 2.02,1.35 1.35,2.36 -0.67,1.01 -5.39,3.7 -5.72,5.05 -2.02,1.34 -4.04,4.04 -4.71,5.38 -0.67,1.34 -3.26,3.2 -5.72,2.02 -1.21,-0.59 -1.68,2.35 -0.33,2.35 1.34,0 4.66,-0.36 6.37,-2.03 L 20.62,38.39 c 0,0 1.68,-1.68 2.69,-1.01 -1.68,-0.67 -5.72,-2.36 -5.72,-2.36 z"
       id="path14" />
    <path
       style="fill:#cd9966;fill-opacity:0.698"
       d="m 24.32,30.32 c 2.35,0.33 7.4,2.35 8.74,3.36 1.35,1.01 6.73,1.01 7.41,3.03 C 38.45,35.37 36.13,36.26 33.74,35.37 31.04,34.36 28.69,33.68 27.35,33 26,32.34 24.32,30.32 24.32,30.32 Z"
       id="path16" />
    <path
       style="fill:#cd9966;fill-opacity:0.698"
       d="m 26.34,28.98 c 3.03,0 12.11,-0.68 14.13,-2.37 -3.03,3.03 -10.44,4.72 -14.13,2.37 z"
       id="path18" />
    <path
       style="fill:#cd9866;fill-opacity:0.698"
       d="m 33.06,37.04 c 3.03,0.68 5.39,0.34 6.4,1.01 1.01,0.68 1.34,2.36 1.34,2.36 -2.02,-1.01 -6.73,-3.03 -7.74,-3.37 z"
       id="path20" />
    <path
       style="fill:#ffffff;fill-opacity:0.949"
       d="m 2.48,49.34 c 1.09,-0.55 3.27,-2.41 3.82,-3.5 0.55,-1.1 1.1,-1.92 2.47,-2.75 1.36,-0.81 4.93,-3.56 5.47,-4.65 0.55,-1.09 2.47,-3.01 2.47,-3.01 l 1.62,-0.81 1.88,-4.26 -17.47,16.58 c 0,0 -0.8,1.57 -0.26,2.4 z"
       id="path22" />
    <path
       style="fill:#ffffff;fill-opacity:0.949"
       d="m 6.77,54.28 c 1.09,-0.55 3.26,-2.41 3.81,-3.51 0.55,-1.09 1.1,-1.91 2.47,-2.74 1.38,-0.82 4.94,-3.55 5.48,-4.65 0.55,-1.1 2.47,-3.02 2.47,-3.02 l 2.48,-0.46 -1.94,-2 -14.52,13.97 c 0,0 -0.8,1.59 -0.25,2.41 z"
       id="path24" />
    <path
       style="fill:#ffffff;fill-opacity:0.949"
       d="m 15.31,56.66 c 1.1,-0.55 3.27,-2.41 3.82,-3.5 0.54,-1.1 1.09,-1.92 2.46,-2.74 1.03,-0.62 3.29,-2.31 4.59,-3.58 0.43,-0.42 -0.68,0 -0.68,0 l -3.98,3 -1.39,-0.04 -4.57,4.46 c 0,-0.01 -1.47,1.29 -0.25,2.4 z"
       id="path26" />
    <path
       style="fill:#ffffff;fill-opacity:0.949"
       d="m 24.6,58.93 c 1.1,-0.55 3.28,-2.42 3.83,-3.51 0.55,-1.09 1.09,-1.92 2.46,-2.74 0.91,-0.55 2.78,-1.93 4.1,-3.13 0.66,-0.6 -2.67,-0.3 -2.67,-0.3 l -7.46,7.26 c 0.01,0 -2.64,1.92 -0.26,2.42 z"
       id="path28" />
    <path
       style="fill:#000000"
       d="m 59.96,22.56 c 0,-0.7 -0.16,-1.45 -0.6,-2.23 -1.39,-2.44 -5.28,-4.31 -11.87,-5.7 -2.78,-0.59 -4.47,0.71 -4.79,0.98 -0.09,0.05 -2.34,1.18 -2.86,1.43 -0.59,-0.32 -1.83,-0.93 -2.98,-0.88 H 11.88 c -2.38,0 -4.05,2.45 -4.05,4.66 0,0.97 0.31,1.81 0.9,2.44 0.45,0.49 1.31,1.07 2.82,1.07 h 8.77 c 1.53,0.12 1.87,0.39 1.91,0.87 -0.1,0.27 -0.77,2.06 -0.86,2.3 C 21.15,27.71 1.34,46.89 1.34,46.89 0.36,47.86 0,48.84 0,49.71 c 0,0.95 0.43,1.79 1.01,2.36 0.8,0.8 1.99,1.29 3.15,1.32 -0.72,1.25 -0.62,2.61 0.36,3.66 1.72,1.85 5.42,2.16 8.48,-0.06 0.03,0.12 0.06,0.25 0.09,0.36 0.44,1.29 1.84,2.27 3.75,2.63 1.5,0.27 3.55,0.12 5.28,-0.9 0,0.21 0.04,0.4 0.08,0.54 0.28,1.04 1.2,1.82 2.5,2.15 1.79,0.44 4.73,0.03 7.16,-2.57 -0.02,0.02 13.62,-13.3 13.62,-13.3 0.4,-0.4 9.83,-9.84 11.15,-12.17 0.73,-1.25 0.98,-2.11 0.98,-3.06 0,-0.75 -0.16,-1.58 -0.4,-2.7 l 2.02,-2.3 c 0,0 0.73,-2.15 0.73,-3.11 z m -1.8,2.06 -2.52,2.36 0.26,1.26 c 0.22,1.11 0.38,1.82 0.38,2.44 0,0.77 -0.24,1.37 -0.81,2.38 -1.03,1.81 -8.25,9.19 -10.94,11.89 L 30.9,58.26 c -2.06,2.2 -4.44,2.56 -5.87,2.21 -0.82,-0.21 -1.39,-0.65 -1.53,-1.2 -0.18,-0.63 0.19,-1.42 1.02,-2.24 L 24.48,56.99 C 27.11,54.43 36.77,45.01 36.77,45.01 l -2.49,-0.46 0.52,0.51 -11.98,11.67 c -1.57,1.92 -4.06,2.23 -5.74,1.92 -1.38,-0.25 -2.44,-0.93 -2.7,-1.73 -0.05,-0.14 -0.08,-0.29 -0.08,-0.43 0,-0.33 0.12,-0.64 0.27,-0.94 0.72,-0.76 1.59,-1.67 1.59,-1.67 l -0.05,-0.06 c 2.36,-2.3 8.47,-8.23 10.03,-9.75 0.24,-0.22 1.48,-0.78 1.48,-0.78 l -2.63,-1.13 0.2,0.96 -10.99,10.69 c -0.29,0.31 -0.51,0.61 -0.69,0.9 L 12.7,55.56 C 9.97,57.94 6.7,57.42 5.51,56.14 5.18,55.79 5.02,55.4 5.02,55 5.02,54.48 5.3,53.92 5.86,53.37 L 21.43,38.76 20.08,36.89 19.71,38.77 5.92,51.49 5.88,51.45 C 4.85,52.47 2.97,52.12 1.97,51.13 1.02,50.18 1.14,48.99 2.28,47.85 l 20.24,-19.59 1.07,-2.98 c 0,-2.05 -2.17,-2.22 -3.22,-2.29 h -8.82 c -0.82,0 -1.44,-0.22 -1.84,-0.65 -0.44,-0.47 -0.53,-1.09 -0.53,-1.52 0,-1.57 1.15,-3.32 2.7,-3.32 h 25.01 c 0.95,-0.03 2.16,0.62 2.56,0.88 l 0.32,0.2 3.68,-1.84 0.06,-0.06 c 0.06,-0.05 1.39,-1.22 3.7,-0.73 6.11,1.28 9.8,2.99 10.98,5.05 0.31,0.53 0.41,1.06 0.41,1.56 0,0.76 -0.23,1.45 -0.44,2.06 z"
       id="path30" />
    <path
       style="fill:#ffffff;fill-opacity:0.698"
       d="m 40.35,25.6 c 1.17,-1.04 1.63,-2.8 3.39,-3.1 1.77,-0.3 6.65,-0.74 8.72,1.33 -1.63,0 -4.73,2.07 -4.88,3.39 -0.14,1.33 -0.89,1.04 -1.48,0.6 -0.59,-0.44 -1.03,-1.78 -1.03,-2.51 0,-0.75 1.03,-1.78 2.07,-1.92 -2.66,0.29 -5.17,0 -6.79,2.21 z"
       id="path32" />
    <path
       style="fill:#cd9866;fill-opacity:0.698"
       d="m 56.38,27.23 c 2.27,-1.95 4.94,-6.67 -0.44,-8.69 1.01,2.02 -1.01,5.05 -2.36,5.05 0,1.35 1.35,4.71 -2.35,9.08 -0.78,0.93 -10.66,10.48 -10.66,10.48 l -3.61,6.34 c -2.15,2.29 -4.56,4.71 -4.56,4.71 0,0 -4.38,5.04 -5.73,5.04 -1.34,0 -3.02,1.69 -1.34,1.69 1.68,0 4.7,-1.01 10.43,-6.73 5.72,-5.72 20.85,-19.51 21.19,-23.55 0.33,-4.04 -0.57,-3.42 -0.57,-3.42 z"
       id="path34" />
    <path
       style="fill:none;stroke:#000000;stroke-width:4"
       d="m 32.02,5.91 c 10.01,0 18.12,8.11 18.12,18.12 0,10.01 -8.11,18.12 -18.12,18.12 C 22.01,42.15 13.9,34.04 13.9,24.03 13.9,14.02 22.01,5.91 32.02,5.91 Z"
       transform="translate(-2,3)"
       id="path36" />
    <radialGradient
       id="gradient0"
       gradientUnits="userSpaceOnUse"
       cx="0"
       cy="0"
       r="64"
       gradientTransform="matrix(0.3803,0,0,-0.3803,23.5321,21.0147)">
      <stop
         offset="0.1931"
         stop-color="#33ffff"
         id="stop38" />
      <stop
         offset="0.7878"
         stop-color="#0066ff"
         id="stop40" />
      <stop
         offset="1"
         stop-color="#0034cc"
         id="stop42" />
    </radialGradient>
    <path
       style="fill:url(#gradient0)"
       d="m 32.02,5.91 c 10.01,0 18.12,8.11 18.12,18.12 0,10.01 -8.11,18.12 -18.12,18.12 C 22.01,42.15 13.9,34.04 13.9,24.03 13.9,14.02 22.01,5.91 32.02,5.91 Z"
       transform="translate(-2,3)"
       id="path45" />
    <radialGradient
       id="gradient1"
       gradientUnits="userSpaceOnUse"
       cx="0"
       cy="0"
       r="64"
       gradientTransform="matrix(0.3803,0,0,-0.3803,23.5321,21.0147)">
      <stop
         offset="0.33"
         stop-color="#09b4b6"
         id="stop47" />
      <stop
         offset="0.85"
         stop-color="#033784"
         id="stop49" />
      <stop
         offset="1"
         stop-color="#051d61"
         id="stop51" />
    </radialGradient>
    <path
       style="fill:url(#gradient1)"
       d="M 47.33,14.33 C 44.65,10.1 40.23,7.11 35.3,6.2 34.22,6.01 33.12,5.91 32.02,5.91 c -5.08,0 -10.01,2.18 -13.42,5.95 -3.61,3.98 -5.28,9.45 -4.51,14.77 0.41,2.49 0.66,3.24 1.32,4.65 1.82,4.16 5.22,7.55 9.38,9.37 4.75,2.07 10.3,1.98 14.98,-0.24 -0.19,-0.87 -0.93,-0.9 -1.66,-0.97 h -0.08 l 0.26,0.06 c -0.58,-0.13 -1.11,0.13 -1.65,0.29 -0.63,0.19 -1.29,0.1 -1.93,0.03 -1.29,-0.15 -2.87,-0.4 -3.94,0.52 -0.06,0 -0.12,0 -0.12,0 h -0.22 c 0,0 -2.48,0 -3,0 -0.52,-0.37 -1.01,-0.47 -1.48,-0.51 -0.03,-0.03 -0.24,-0.27 -0.24,-0.27 -0.13,-0.15 -0.24,-0.24 -0.42,-0.3 L 24.2,38.89 23.07,38.47 c -0.1,-0.03 -0.2,-0.04 -0.3,-0.05 -0.02,-0.04 -0.01,-0.09 -0.04,-0.13 L 22.48,37.9 c -0.33,-0.58 -0.7,-1.16 -1.39,-1.3 0.09,-0.38 -0.04,-0.7 -0.15,-1.06 -0.12,-0.39 -0.15,-0.81 -0.13,-1.22 l 0.03,-0.36 c 0.04,-0.51 0.07,-1.01 -0.01,-1.51 0.8,-0.89 0.98,-1.8 0.91,-2.97 l -0.02,-0.43 c 0,-0.63 0,-0.71 0.2,-0.98 l 0.11,-0.14 c 0.56,-0.74 1.45,-2.23 0.27,-2.88 l -2.94,-1.6 c 0,0 -0.38,-0.17 -0.43,-0.2 0,0 0,-0.02 0,-0.02 -0.02,-0.86 -0.32,-1.46 -1.01,-1.97 0,0 -0.18,-0.13 -0.18,-0.13 0,-0.01 -0.25,-0.34 -0.25,-0.34 l -0.73,-0.87 c -0.47,-0.44 -0.91,-0.58 -1.31,-0.61 -0.03,-0.08 -0.08,-0.16 -0.13,-0.23 1.03,-0.43 1.51,-1.58 1.91,-2.54 0.24,-0.57 0.44,-1.18 0.87,-1.64 0.39,-0.43 0.75,-0.8 0.65,-1.43 0.82,-0.32 1.57,-0.74 2.28,-1.16 l 0.1,-0.06 1.44,-0.89 c 1.01,-0.6 1.47,-1.42 1.8,-2.53 0.62,0.06 1.17,-0.09 1.59,-0.31 0.78,0.47 2.05,0.49 2.71,-0.2 0.03,0 0.15,-0.01 0.27,-0.02 -0.38,0.79 0,1.88 0.87,2.2 0.03,0.04 0.04,0.11 0.08,0.14 -0.17,0.06 -0.34,0.12 -0.34,0.12 l -0.8,0.9 c -0.18,0.55 0,1.12 0.27,1.61 0.01,0.02 0.02,0.08 0.02,0.08 0.02,0.1 0.05,0.24 0.1,0.4 -0.08,0.1 -0.16,0.18 -0.16,0.18 -0.8,0.97 -2.09,1.19 -2.45,2.53 l -0.05,0.18 c -0.41,0.53 -0.51,1.17 -0.14,1.76 -0.04,0.07 -0.07,0.14 -0.07,0.14 -0.33,0.6 -0.61,1.29 -0.42,1.97 0.19,0.67 0.74,1.16 1.25,1.59 0.5,0.43 1.01,0.87 1.64,1.11 0.73,0.28 1.55,0.22 2.3,0.03 L 31.81,23 c 0.35,-0.12 0.71,-0.3 1.09,-0.26 0.41,0.04 0.72,0.36 1.02,0.62 -0.54,1.36 0.49,2.71 1.1,3.88 0,0 0.14,0.23 0.18,0.3 -0.75,1.36 -0.83,2.86 0.32,4 l 0.11,0.12 c -0.01,1.11 0.02,3.07 1.44,3.41 1.45,0.34 2.91,-0.47 3.79,-1.57 l 0.35,-0.41 0.28,-0.22 c 0.31,-0.22 0.64,-0.48 0.82,-0.82 0.18,-0.36 0.2,-0.8 0.45,-1.13 v 0.01 c 0.03,0.7 0.69,1.2 1.37,1.08 0.84,-0.14 1.35,-1.04 1.69,-1.73 l 0.15,-0.3 0.04,-0.07 c 0.41,-0.71 0.71,-1.6 0.19,-2.34 -0.45,-0.64 -1.33,-0.81 -1.94,-0.28 0,-0.21 0,-0.41 0,-0.41 l 0.03,-1.3 c 0.02,-0.19 0.43,-0.59 0.65,-0.81 l 0.22,-0.21 0.23,-0.21 c 0.46,-0.4 0.9,-0.84 1.06,-1.45 0.1,-0.26 0.04,-0.7 0.06,-0.98 l -0.01,-0.2 0.01,-0.1 c 0.05,-0.59 -0.04,-1.19 -0.51,-1.6 0.53,-0.32 0.9,-0.86 1.07,-1.54 0.03,0.05 0.09,0.18 0.09,0.18 0.15,0.3 0.34,0.66 0.68,0.98 -0.05,0.75 0.22,1.45 0.55,2.1 0.33,0.64 0.4,1.35 0.39,2.06 l 0.02,0.71 c 0.02,0.37 0.06,0.76 -0.04,1.13 -0.09,0.34 -0.27,0.65 -0.36,0.99 -0.22,0.78 -0.28,1.6 -0.28,2.41 -0.11,0.66 0.27,1.3 0.81,1.51 2.05,-5.31 1.45,-11.41 -1.6,-16.22 z"
       transform="translate(-2,3)"
       id="path54" />
    <radialGradient
       id="gradient2"
       gradientUnits="userSpaceOnUse"
       cx="0"
       cy="0"
       r="64"
       gradientTransform="matrix(0.4477,0,0,0.4477,26.4917,14.4363)">
      <stop
         offset="0"
         stop-color="#ffffff"
         id="stop56" />
      <stop
         offset="0.2992"
         stop-color="#00ff00"
         id="stop58" />
      <stop
         offset="0.5643"
         stop-color="#00b200"
         id="stop60" />
      <stop
         offset="1"
         stop-color="#008000"
         id="stop62" />
    </radialGradient>
    <path
       style="fill:url(#gradient2)"
       d="m 19.58,32.17 c 0.29,-0.39 0.68,-0.71 0.9,-1.15 0.26,-0.55 0.11,-1.38 0.11,-1.97 0,-0.69 0,-1.08 0.43,-1.66 0.31,-0.43 0.64,-0.8 0.73,-1.35 -0.97,-0.53 -1.94,-1.07 -2.92,-1.59 -0.25,-0.13 -0.82,-0.29 -0.95,-0.58 -0.16,-0.39 0,-0.89 -0.19,-1.26 -0.14,-0.29 -0.59,-0.49 -0.81,-0.75 -0.3,-0.36 -0.54,-0.78 -0.89,-1.11 -0.34,-0.31 -0.66,-0.46 -1.09,-0.23 -0.47,0.26 -0.44,-0.45 -0.49,-0.76 -0.12,0.51 -0.23,1.03 -0.31,1.55 0.42,0 0.37,0.12 0.38,0.52 0.01,0.4 0.02,0.8 0.04,1.21 0.07,0.17 0.02,0.26 -0.15,0.26 -0.05,0.02 -0.1,0.04 -0.16,0.06 -0.1,0.08 -0.17,0.07 -0.22,-0.03 -0.16,-0.01 -0.05,1.77 -0.04,1.92 0.04,0.57 -0.02,2.39 0.81,2.11 0.43,0.29 0.36,0.99 0.65,1.4 0.34,0.49 0.78,0.74 0.96,1.35 0.17,0.62 0.18,1.27 0.28,1.9 0.13,0.79 0.56,1.07 1.14,1.55 0.14,0.82 0.38,1.33 0.93,1.96 0.25,0.28 0.5,0.56 0.73,0.86 0.24,0.31 0.35,0.3 0.59,-0.03 -0.31,-0.64 -0.4,-1.38 -0.36,-2.09 0.04,-0.68 0.19,-1.45 -0.1,-2.09 M 26.02,7.13 c 0.34,0.23 0.37,0.45 0.81,0.53 0.31,0.06 0.79,0.13 1.03,-0.13 0.58,-0.6 1.48,-0.17 2.16,-0.59 0.54,-0.33 0.99,-1 1.69,-1 0.43,-0.01 0.69,0.26 1.04,0.45 0.47,0.26 0.85,-0.23 1.28,-0.37 -3.34,-0.37 -6.76,0.2 -9.81,1.65 0.68,0.2 1.28,-0.13 1.8,-0.54 m 4.62,2.69 c 0.31,0.02 0.68,0.24 0.99,0.11 0.5,-0.2 0.02,-0.96 -0.19,-1.18 C 31.29,8.59 30.57,7.87 30.71,8.51 30.8,8.94 31.17,9.53 30.64,9.82 M 17.63,13.8 c 0.06,-0.23 -0.08,-0.32 -0.23,-0.47 -1.06,1.45 -1.91,3.06 -2.5,4.76 1.4,-1.09 1.29,-3.19 2.73,-4.29 m 32.48,9.14 C 49.85,20.17 49.05,17.44 47.68,15 46.99,13.76 46.15,12.6 45.17,11.57 44.69,11.06 44.18,10.58 43.64,10.13 43.47,9.99 43.29,9.74 43.06,9.87 42.85,9.98 42.68,9.58 42.74,9.42 40.37,7.68 37.58,6.53 34.67,6.1 c 0.42,0.29 0.95,0.26 1.4,0.45 0.16,0.06 0.63,0.32 0.25,0.44 -0.74,0.25 -1.58,-0.05 -2.34,0 -0.47,0.04 -0.69,0.2 -0.73,0.68 -0.02,0.26 -0.09,0.77 0.01,1.02 0.11,0.29 1.01,-0.07 1.15,-0.23 0.23,-0.27 -0.05,-0.85 0.58,-0.67 0.23,0.47 0.72,1.83 -0.33,1.47 -0.26,-0.09 -0.75,-0.52 -1.03,-0.39 -0.02,0.01 -0.07,0.34 -0.09,0.38 -0.09,0.16 -0.25,0.27 -0.43,0.32 -0.74,0.2 -1.27,0.31 -1.54,1.11 -0.13,0.39 -0.12,0.63 -0.55,0.78 -0.32,0.11 -0.68,0.18 -0.99,0.33 -0.42,0.2 -0.13,0.75 0.03,1.03 0.11,0.2 0.09,0.67 0.3,0.79 0.63,0.36 1.36,-1.04 1.62,-1.37 0.34,-0.45 0.73,-0.34 1.2,-0.5 0.22,-0.07 0.51,-0.63 0.74,-0.54 0.78,0.3 1.01,1.23 1.13,1.96 0.25,0 0.09,-0.59 0.61,-0.46 -0.39,-0.42 -0.66,-0.98 -0.72,-1.56 0.56,0.36 0.95,0.75 1.13,1.38 0.17,0.62 0.46,0.97 0.97,0.34 0.13,-0.13 0.31,-0.97 0.58,-0.73 0.23,0.2 0.23,0.88 -0.12,0.97 0.2,0.18 0.48,0.1 0.71,0.04 0.32,-0.08 0.5,-0.06 0.8,0.06 0.35,0.13 0.72,0.18 1.09,0.2 0.37,0.02 0.58,0.36 0.75,0.64 0.47,0.77 -2.33,0.45 -2.47,0.44 -0.34,-0.02 -0.72,-0.02 -1.03,0.1 -0.24,0.1 -0.42,0.42 -0.71,0.32 -0.32,-0.1 -0.61,-0.39 -0.89,-0.57 -0.38,-0.25 -0.78,-0.48 -1.19,-0.66 -0.69,-0.31 -1.47,-0.5 -2.22,-0.35 -0.35,0.08 -0.69,0.23 -0.98,0.45 -0.35,0.26 -0.73,0.03 -1.07,0.39 -0.53,0.54 -0.9,1.2 -1.6,1.54 -0.29,0.14 -0.63,0.26 -0.83,0.51 -0.21,0.26 -0.21,0.61 -0.35,0.9 -0.13,0.28 -0.43,0.42 -0.19,0.75 0.21,0.29 0.27,0.52 0.12,0.86 -0.21,0.51 -0.79,1.19 -0.37,1.74 0.4,0.54 1.11,1.07 1.64,1.46 0.61,0.45 1.36,0.4 2.05,0.22 0.64,-0.17 1.29,-0.48 1.96,-0.53 0.84,-0.06 1.48,0.47 2.07,1 0.39,0.35 0.54,0.49 0.24,0.98 -0.33,0.56 -0.13,0.96 0.14,1.5 0.27,0.54 0.56,1.08 0.84,1.6 0.13,0.23 0.3,0.44 0.4,0.68 0.12,0.28 -0.07,0.44 -0.2,0.68 -0.27,0.48 -0.46,1.03 -0.46,1.59 0.01,0.62 0.3,0.83 0.69,1.23 0.36,0.36 0.34,1 0.31,1.47 -0.05,0.65 0.15,1.1 0.53,1.61 0.58,0.03 1.18,-0.01 1.71,-0.26 0.65,-0.31 0.93,-0.91 1.42,-1.4 0.45,-0.45 0.92,-0.49 1.06,-1.18 0.16,-0.81 0.59,-1.13 1.18,-1.63 0.54,-0.46 0.47,-1.12 0.49,-1.76 0.01,-0.74 -0.07,-1.55 0.02,-2.29 0.09,-0.67 0.74,-1.21 1.19,-1.66 0.33,-0.34 0.88,-0.67 1,-1.16 0.07,-0.26 0.01,-0.61 0.01,-0.89 0,-0.2 0.07,-0.53 -0.02,-0.72 -0.24,-0.52 -1.32,-0.01 -1.44,-0.49 -0.08,-0.29 -0.06,-0.24 0.13,-0.42 0.22,-0.2 0,-0.4 -0.19,-0.51 -0.52,-0.31 -0.94,-0.51 -1.32,-1.02 -0.36,-0.47 -0.66,-0.99 -0.95,-1.51 -0.07,-0.13 -0.77,-1.54 -0.36,-1.41 0.45,0.15 0.86,0.68 1.17,1.02 0.53,0.58 1.02,1.23 1.35,1.94 0.01,0.09 0.34,0.27 0.41,0.32 0.24,0.18 0.51,0.32 0.82,0.3 0.71,-0.06 1.05,-0.7 1.1,-1.34 0.07,-0.87 -0.6,-0.69 -1.12,-1.1 -0.29,-0.24 -0.49,-0.57 -0.72,-0.86 -0.15,-0.17 -0.55,-0.45 -0.41,-0.73 0.3,-0.2 0.42,-0.02 0.71,0.15 0.34,0.21 0.71,0.39 1.09,0.51 0.4,0.13 0.99,0.01 1.33,0.27 0.21,0.15 0.36,0.52 0.5,0.74 0.23,0.35 0.44,0.71 0.63,1.08 0.29,0.58 0.37,0.97 1.07,1.18 -0.44,0.73 -0.01,1.58 0.33,2.24 0.41,0.8 0.45,1.57 0.44,2.45 -0.01,0.8 0.18,1.72 -0.19,2.47 -0.39,0.82 -0.47,1.93 -0.47,2.84 0.01,-0.05 0.03,-0.13 0.06,-0.18 -0.04,0.07 -0.16,0.53 -0.05,0.55 0.17,0.04 0.48,-1.67 0.52,-1.87 0.32,-1.53 0.42,-3.11 0.33,-4.68 M 40.17,12.15 c -0.27,0.04 -0.25,-0.4 -0.44,-0.5 -0.35,-0.18 -0.75,0.03 -1.05,0.19 -0.99,0.54 -0.71,-0.59 -0.5,-1.14 0.03,-0.09 0.67,0.02 0.77,0.01 0.33,-0.05 0.82,-0.19 1.08,0.1 0.24,0.28 0.43,0.55 0.71,0.81 0.36,0.32 -0.31,0.5 -0.57,0.53 m 4.89,15.91 c -0.33,0.4 -0.77,0.7 -1.02,1.16 -0.3,0.52 -0.15,1.14 -0.15,1.71 0.56,-0.26 0.81,-1.01 1.1,-1.51 0.21,-0.37 0.67,-1.1 0.07,-1.36 m -7.23,12.48 c -1.45,1.03 -3.66,0.11 -5.3,0.29 -0.37,0.04 -0.73,0.11 -1.02,0.37 -0.38,0.33 -0.55,0.27 -1.08,0.27 -1.11,0 -2.22,0 -3.33,0 2.4,0.67 4.94,0.85 7.41,0.51 1.17,-0.16 2.34,-0.43 3.46,-0.81 0.09,-0.03 0.94,-0.48 0.63,-0.59 -0.24,-0.09 -0.54,0.06 -0.77,-0.04 M 22.76,9.77 c 0.32,-0.52 0.52,-1.1 0.66,-1.69 -2.08,1.12 -3.93,2.66 -5.43,4.49 0.91,-0.3 1.74,-0.81 2.56,-1.3 0.4,-0.24 0.8,-0.48 1.19,-0.73 0.33,-0.21 0.81,-0.44 1.02,-0.77 m -1.86,27.9 c -0.14,0.11 -0.27,0.26 -0.45,0.3 0.46,0.39 0.95,0.75 1.45,1.09 -0.39,-0.42 -0.53,-1.03 -1,-1.39"
       transform="translate(-2,3)"
       id="path65" />
  </g>
</svg>
