<?xml version="1.0" encoding="utf-8"?>
<!-- Generator: Adobe Illustrator 16.0.3, SVG Export Plug-In . SVG Version: 6.00 Build 0)  -->
<!DOCTYPE svg PUBLIC "-//W3C//DTD SVG 1.1//EN" "http://www.w3.org/Graphics/SVG/1.1/DTD/svg11.dtd">
<svg version="1.1"
	 id="Capa_1" xmlns:dc="http://purl.org/dc/elements/1.1/" xmlns:cc="http://creativecommons.org/ns#" xmlns:rdf="http://www.w3.org/1999/02/22-rdf-syntax-ns#"
	 xmlns="http://www.w3.org/2000/svg" xmlns:xlink="http://www.w3.org/1999/xlink" x="0px" y="0px" width="24px" height="24px"
	 viewBox="0 0 24 24" enable-background="new 0 0 24 24" xml:space="preserve">
<g>
	<path fill="#006B04" d="M12.43-0.032c-0.401-0.014-0.803-0.008-1.205,0.017C4.59,0.414-0.441,6.138-0.014,12.772
		c0.429,6.635,6.153,11.668,12.788,11.24c6.635-0.428,11.666-6.152,11.24-12.788C23.615,5.055,18.609,0.189,12.43-0.032z"/>
</g>
<g>
	<path fill="#FFFFFF" d="M20.384,13.563c-0.212,0.021-0.399,0.045-0.564,0.071c-0.164,0.028-0.369,0.082-0.615,0.165
		c-0.281,0.089-0.466,0.235-0.555,0.44c-0.089,0.206-0.133,0.421-0.133,0.647v1.693c0,0.342,0.003,0.617,0.01,0.826
		s0.018,0.467,0.031,0.774c-0.685,0.411-1.695,0.798-3.033,1.16s-2.567,0.544-3.689,0.544c-1.054,0-2.042-0.161-2.966-0.482
		c-0.923-0.322-1.734-0.805-2.432-1.448c-0.698-0.637-1.247-1.428-1.647-2.373c-0.4-0.944-0.601-2.026-0.601-3.245
		c0-1.137,0.188-2.188,0.564-3.153c0.376-0.966,0.92-1.797,1.632-2.496c0.698-0.692,1.548-1.226,2.55-1.602
		c1.002-0.377,2.112-0.565,3.331-0.565c0.828,0,1.594,0.103,2.298,0.308c0.705,0.205,1.287,0.424,1.745,0.657l0.637-0.564h0.893
		l0.093,5.316h-0.903c-0.521-1.597-1.144-2.784-1.868-3.559c-0.726-0.775-1.643-1.163-2.75-1.163c-1.313,0-2.328,0.575-3.043,1.726
		c-0.715,1.15-1.073,2.735-1.073,4.755c0,2.144,0.351,3.821,1.052,5.033c0.701,1.212,1.695,1.817,2.981,1.817
		c0.602,0,1.137-0.09,1.606-0.271s0.833-0.392,1.093-0.631V14.99c0-0.247-0.044-0.453-0.133-0.621s-0.268-0.313-0.534-0.437
		c-0.205-0.096-0.462-0.174-0.77-0.236c-0.308-0.062-0.564-0.105-0.77-0.133v-0.801h7.563V13.563z"/>
</g>
</svg>
