<?xml version="1.0" encoding="UTF-8" standalone="no"?>
<svg
   version="1.1"
   width="28"
   height="28"
   color-interpolation="linearRGB"
   id="svg71"
   sodipodi:docname="glosarios.svg"
   inkscape:version="1.2.2 (b0a8486541, 2022-12-01)"
   xmlns:inkscape="http://www.inkscape.org/namespaces/inkscape"
   xmlns:sodipodi="http://sodipodi.sourceforge.net/DTD/sodipodi-0.dtd"
   xmlns="http://www.w3.org/2000/svg"
   xmlns:svg="http://www.w3.org/2000/svg">
  <defs
     id="defs75" />
  <sodipodi:namedview
     id="namedview73"
     pagecolor="#ffffff"
     bordercolor="#000000"
     borderopacity="0.25"
     inkscape:showpageshadow="2"
     inkscape:pageopacity="0.0"
     inkscape:pagecheckerboard="0"
     inkscape:deskcolor="#d1d1d1"
     showgrid="false"
     inkscape:zoom="13.5625"
     inkscape:cx="26.986175"
     inkscape:cy="26.101382"
     inkscape:window-width="1920"
     inkscape:window-height="1052"
     inkscape:window-x="0"
     inkscape:window-y="0"
     inkscape:window-maximized="1"
     inkscape:current-layer="svg71" />
  <g
     id="g69"
     transform="matrix(0.43624692,0,0,0.43624692,0,-0.17536742)">
    <path
       style="fill:#010101;fill-opacity:0.4549"
       d="m 18,62 h 6 l 8,-8 14,8 h 6 L 64,48 56,44 30,49 Z"
       id="path2" />
    <path
       style="fill:none;stroke:#000000;stroke-width:4"
       d="M 2,34 V 52 L 18,60 30,49 V 32 L 14,26 Z"
       id="path4" />
    <linearGradient
       id="gradient0"
       gradientUnits="userSpaceOnUse"
       x1="-25.790001"
       y1="20.620001"
       x2="10.43"
       y2="5.0300002">
      <stop
         offset="0"
         stop-color="#c6d7f5"
         id="stop6" />
      <stop
         offset="1"
         stop-color="#6b94dd"
         id="stop8" />
    </linearGradient>
    <path
       style="fill:url(#gradient0)"
       d="m 2,34 v 18 l 16,8 V 41 Z"
       id="path11" />
    <path
       style="fill:#003cb0"
       d="M 18,41 V 60 L 30,49 V 32 Z"
       id="path13" />
    <path
       style="fill:#0d2964"
       d="m 24,34 4,11 v -9 z"
       transform="translate(0,1)"
       id="path15" />
    <linearGradient
       id="gradient1"
       gradientUnits="userSpaceOnUse"
       x1="12.94"
       y1="-1.9299999"
       x2="52.060001"
       y2="14.45">
      <stop
         offset="0"
         stop-color="#e3edff"
         id="stop17" />
      <stop
         offset="1"
         stop-color="#9ec2ff"
         id="stop19" />
    </linearGradient>
    <path
       style="fill:url(#gradient1)"
       d="M 2,34 18,41 30,32 14,26 Z"
       id="path22" />
    <path
       style="fill:none;stroke:#000000;stroke-width:4"
       d="M 30,34 V 52 L 46,60 58,48 V 31 L 42,25 Z"
       id="path24" />
    <path
       style="fill:#ec6666"
       d="M 33,49 33.99,53.99 46,60 V 41 l -7.93,-3.16 z"
       id="path26" />
    <path
       style="fill:#c93b3b"
       d="M 30,34 V 52 L 33.99,53.99 33,49 38.07,37.84 Z"
       id="path28" />
    <linearGradient
       id="gradient2"
       gradientUnits="userSpaceOnUse"
       x1="71.360001"
       y1="-3.3499999"
       x2="104.04"
       y2="22.42">
      <stop
         offset="0"
         stop-color="#a3043c"
         id="stop30" />
      <stop
         offset="1"
         stop-color="#ff90af"
         id="stop32" />
    </linearGradient>
    <path
       style="fill:url(#gradient2)"
       d="M 30,18 V 37 L 42,28 V 10 Z M 46,41 V 60 L 58,48 V 31 Z"
       id="path35" />
    <path
       style="fill:#ffacac"
       d="M 37.98,37.8 46,41 58,31 50,28 Z"
       id="path37" />
    <linearGradient
       id="gradient3"
       gradientUnits="userSpaceOnUse"
       x1="143.84"
       y1="41.93"
       x2="91.239998"
       y2="108.1">
      <stop
         offset="0"
         stop-color="#bd0f0f"
         id="stop39" />
      <stop
         offset="1"
         stop-color="#e98484"
         id="stop41" />
    </linearGradient>
    <path
       style="fill:url(#gradient3)"
       d="M 30,34 37.98,37.8 50,28 42,25 Z"
       id="path44" />
    <path
       style="fill:none;stroke:#000000;stroke-width:4"
       d="m 14,12 v 18 l 16,7 12,-9 V 10 L 26,5 Z"
       id="path46" />
    <linearGradient
       id="gradient4"
       gradientUnits="userSpaceOnUse"
       x1="-30.91"
       y1="12.63"
       x2="-19.809999"
       y2="-11.87">
      <stop
         offset="0"
         stop-color="#ffffff"
         id="stop48" />
      <stop
         offset="1"
         stop-color="#c1ccff"
         id="stop50" />
    </linearGradient>
    <path
       style="fill:url(#gradient4)"
       d="m 14,12 v 18 l 16,7 V 18 Z"
       id="path53" />
    <linearGradient
       id="gradient5"
       gradientUnits="userSpaceOnUse"
       x1="30.5"
       y1="-22.809999"
       x2="56.009998"
       y2="-9.1300001">
      <stop
         offset="0"
         stop-color="#ffffff"
         id="stop55" />
      <stop
         offset="1"
         stop-color="#ebefff"
         id="stop57" />
    </linearGradient>
    <path
       style="fill:url(#gradient5)"
       d="M 14,12 30,18 42,10 26,5 Z"
       id="path60" />
    <linearGradient
       id="gradient6"
       gradientUnits="userSpaceOnUse"
       x1="53.119999"
       y1="-13.75"
       x2="68.449997"
       y2="-1.75">
      <stop
         offset="0"
         stop-color="#c1ccff"
         id="stop62" />
      <stop
         offset="1"
         stop-color="#ffffff"
         id="stop64" />
    </linearGradient>
    <path
       style="fill:url(#gradient6)"
       d="M 30,18 V 37 L 42,28 V 10 Z"
       id="path67" />
  </g>
</svg>
