<?xml version="1.0" encoding="utf-8"?>
<!-- Generator: Adobe Illustrator 16.0.3, SVG Export Plug-In . SVG Version: 6.00 Build 0)  -->
<!DOCTYPE svg PUBLIC "-//W3C//DTD SVG 1.1//EN" "http://www.w3.org/Graphics/SVG/1.1/DTD/svg11.dtd">
<svg version="1.1"
	 id="svg8" sodipodi:docname="go-home.svg" inkscape:version="0.92.2 2405546, 2018-03-11" xmlns:inkscape="http://www.inkscape.org/namespaces/inkscape" xmlns:sodipodi="http://sodipodi.sourceforge.net/DTD/sodipodi-0.dtd" xmlns:svg="http://www.w3.org/2000/svg" xmlns:dc="http://purl.org/dc/elements/1.1/" xmlns:cc="http://creativecommons.org/ns#" xmlns:rdf="http://www.w3.org/1999/02/22-rdf-syntax-ns#"
	 xmlns="http://www.w3.org/2000/svg" xmlns:xlink="http://www.w3.org/1999/xlink" x="0px" y="0px" width="24px" height="24px"
	 viewBox="4 4 24 24" enable-background="new 4 4 24 24" xml:space="preserve">
<title  id="title7895">Antu icon Theme</title>
<sodipodi:namedview  id="base" units="px" inkscape:object-paths="true" inkscape:bbox-nodes="true" inkscape:bbox-paths="true" inkscape:snap-bbox="true" inkscape:window-y="28" inkscape:window-x="0" inkscape:window-height="711" inkscape:window-width="1360" inkscape:current-layer="layer1" inkscape:document-units="px" inkscape:pageshadow="2" inkscape:pageopacity="0.0" guidetolerance="10" gridtolerance="10" inkscape:cy="14.855442" objecttolerance="10" inkscape:cx="13.391636" pagecolor="#ffffff" inkscape:zoom="11.2" bordercolor="#666666" showgrid="true" borderopacity="1.0" inkscape:snap-intersection-paths="true" inkscape:snap-bbox-midpoints="true" inkscape:snap-bbox-edge-midpoints="true" inkscape:window-maximized="1">
	<inkscape:grid  id="grid7897" type="xygrid" empspacing="4"></inkscape:grid>
</sodipodi:namedview>
<g id="layer1" transform="translate(0,-282.64999)" inkscape:label="Capa 1" inkscape:groupmode="layer">
	<g id="g1464" transform="translate(14,-8.00002)">
		<path id="rect1437" sodipodi:nodetypes="sssssssss" inkscape:connector-curvature="0" fill="#363C4D" d="M7.616,296.279h2.402
			c0.443,0,0.798,0.356,0.798,0.799v6.401c0,0.443-0.354,0.8-0.798,0.8H7.616c-0.441,0-0.799-0.357-0.799-0.8v-6.401
			C6.817,296.635,7.175,296.279,7.616,296.279z"/>
		
			<linearGradient id="rect1439_1_" gradientUnits="userSpaceOnUse" x1="18.1777" y1="51.025" x2="18.1777" y2="55.826" gradientTransform="matrix(1 0 0 -1 -9.3599 353.7043)">
			<stop  offset="0" style="stop-color:#5B637B"/>
			<stop  offset="1" style="stop-color:#727B97"/>
		</linearGradient>
		<path id="rect1439" sodipodi:nodetypes="ccccc" inkscape:connector-curvature="0" fill="url(#rect1439_1_)" d="M7.616,297.078
			h2.402v6.401H7.616V297.078z"/>
		<path id="rect1076" sodipodi:nodetypes="scssssssss" inkscape:connector-curvature="0" fill="#C8C3B7" d="M-5.985,303.48
			l8.002-8.801l8.001,8.801c0.595,0.656,1.599,0.714,1.599,1.6v12.002c0,0.887-0.714,1.601-1.599,1.601H-5.985
			c-0.887,0-1.601-0.714-1.601-1.601V305.08C-7.586,304.193-6.872,303.48-5.985,303.48z"/>
		<path id="rect1078" sodipodi:nodetypes="scssssssss" inkscape:connector-curvature="0" fill="#F2EFE6" d="M-5.985,304.28
			l8.002-8.801l8.001,8.801c0.298,0.329,0.798,0.357,0.798,0.8v12.002c0,0.443-0.354,0.8-0.798,0.8H-5.985
			c-0.443,0-0.8-0.356-0.8-0.8V305.08C-6.785,304.637-6.428,304.28-5.985,304.28z"/>
		<path id="rect963-2" sodipodi:nodetypes="sssssssss" inkscape:connector-curvature="0" fill="#80684B" d="M-3.585,308.28h4.801
			c0.443,0,0.801,0.356,0.801,0.801v7.2c0,0.445-0.358,0.801-0.801,0.801h-4.801c-0.443,0-0.8-0.355-0.8-0.801v-7.2
			C-4.385,308.636-4.028,308.28-3.585,308.28z"/>
		<path id="rect938-2" sodipodi:nodetypes="ssccccccsss" inkscape:connector-curvature="0" fill="#8E8C87" d="M-4.385,316.281
			c-0.443,0-0.8,0.356-0.8,0.801v0.8v0.801h0.8h6.402h0.799v-0.801v-0.8c0-0.444-0.356-0.801-0.799-0.801H-4.385z"/>
		
			<linearGradient id="rect965-8_1_" gradientUnits="userSpaceOnUse" x1="-75.8247" y1="31.2233" x2="-75.8247" y2="36.8234" gradientTransform="matrix(1 0 0 -1 74.6401 346.7043)">
			<stop  offset="0" style="stop-color:#C19E72"/>
			<stop  offset="1" style="stop-color:#D6AF7F"/>
		</linearGradient>
		<path id="rect965-8" sodipodi:nodetypes="ccccc" inkscape:connector-curvature="0" fill="url(#rect965-8_1_)" d="M-3.585,309.081
			h4.801v7.2h-4.801V309.081z"/>
		
			<linearGradient id="rect945-0_1_" gradientUnits="userSpaceOnUse" x1="-76.8242" y1="28.8229" x2="-76.8242" y2="29.6227" gradientTransform="matrix(1 0 0 -1 75.6401 346.7043)">
			<stop  offset="0" style="stop-color:#B3B1AB"/>
			<stop  offset="1" style="stop-color:#D9D6CF"/>
		</linearGradient>
		<path id="rect945-0" sodipodi:nodetypes="ccccc" inkscape:connector-curvature="0" fill="url(#rect945-0_1_)" d="M-4.385,317.082
			h6.402v0.8h-6.402V317.082z"/>
		<path id="rect985-5-9" inkscape:connector-curvature="0" fill="#80684B" d="M-0.384,313.082c0.444,0,0.8,0.356,0.8,0.8
			s-0.356,0.801-0.8,0.801c-0.443,0-0.801-0.357-0.801-0.801S-0.828,313.082-0.384,313.082z"/>
		<path id="rect985-7" inkscape:connector-curvature="0" fill="#FFFEFF" d="M-0.384,312.281c0.444,0,0.8,0.357,0.8,0.801
			s-0.356,0.8-0.8,0.8c-0.443,0-0.801-0.356-0.801-0.8S-0.828,312.281-0.384,312.281z"/>
		<path id="rect1372" inkscape:connector-curvature="0" fill="#1670D9" fill-opacity="0.9804" d="M3.616,308.28h4.802
			c0.444,0,0.799,0.356,0.799,0.801v4.001c0,0.443-0.354,0.8-0.799,0.8H3.616c-0.444,0-0.8-0.356-0.8-0.8v-4.001
			C2.816,308.636,3.172,308.28,3.616,308.28z"/>
		
			<linearGradient id="rect1389_1_" gradientUnits="userSpaceOnUse" x1="14.377" y1="40.6227" x2="14.377" y2="44.6237" gradientTransform="matrix(1 0 0 -1 -8.3599 353.7043)">
			<stop  offset="0" style="stop-color:#1899FF"/>
			<stop  offset="1" style="stop-color:#02B3FE"/>
		</linearGradient>
		<path id="rect1389" inkscape:connector-curvature="0" fill="url(#rect1389_1_)" d="M3.616,309.081h4.802v4.001H3.616V309.081z"/>
		
			<path id="path1415" sodipodi:nodetypes="ccccccc" inkscape:connector-curvature="0" fill="none" stroke="#363C4D" stroke-width="2" stroke-linecap="round" stroke-linejoin="round" d="
			M-9.986,306.681h2.4l9.603-8.802l9.6,8.802h2.4l-12-11.202L-9.986,306.681z"/>
		
			<linearGradient id="path1435_1_" gradientUnits="userSpaceOnUse" x1="10.376" y1="47.0236" x2="10.376" y2="57.4256" gradientTransform="matrix(1 0 0 -1 -8.3599 353.7043)">
			<stop  offset="0" style="stop-color:#5B637B"/>
			<stop  offset="1" style="stop-color:#727B97"/>
		</linearGradient>
		<path id="path1435" sodipodi:nodetypes="ccccccc" inkscape:connector-curvature="0" fill="url(#path1435_1_)" d="M-9.986,306.681
			h2.4l9.603-8.802l9.6,8.802h2.4l-12-11.202L-9.986,306.681z"/>
	</g>
</g>
</svg>
