<?xml version="1.0" encoding="utf-8"?>
<!-- Generator: Adobe Illustrator 16.0.3, SVG Export Plug-In . SVG Version: 6.00 Build 0)  -->
<!DOCTYPE svg PUBLIC "-//W3C//DTD SVG 1.1//EN" "http://www.w3.org/Graphics/SVG/1.1/DTD/svg11.dtd">
<svg version="1.1" id="Capa_1" xmlns="http://www.w3.org/2000/svg" xmlns:xlink="http://www.w3.org/1999/xlink" x="0px" y="0px"
	 width="24px" height="24px" viewBox="0 0 24 24" enable-background="new 0 0 24 24" xml:space="preserve">
<path fill="#0F2C90" d="M12.432-0.031c-0.401-0.014-0.804-0.008-1.205,0.017C4.591,0.414-0.439,6.139-0.014,12.773
	c0.429,6.635,6.153,11.666,12.788,11.24c6.635-0.43,11.666-6.154,11.24-12.79C23.616,5.056,18.608,0.188,12.432-0.031z"/>
<g>
	<path fill="#FFFFFF" d="M17.594,8.114c0,1.599-0.549,2.897-1.647,3.892c-1.098,0.994-2.562,1.563-4.394,1.707l-0.071,1.624h-1.063
		v-4.644c1.154-0.096,2.058-0.459,2.71-1.092s0.979-1.495,0.979-2.585c0-0.868-0.229-1.562-0.687-2.083
		c-0.458-0.521-1.073-0.782-1.845-0.782c-0.326,0-0.617,0.033-0.871,0.101c-0.255,0.068-0.502,0.173-0.741,0.316
		c0.08,0.255,0.174,0.583,0.281,0.985c0.107,0.401,0.161,0.773,0.161,1.116c0,0.557-0.181,0.988-0.543,1.295
		C9.502,8.271,8.998,8.424,8.354,8.424c-0.604,0-1.08-0.191-1.427-0.573C6.581,7.469,6.407,7,6.407,6.443
		c0-0.916,0.521-1.691,1.564-2.328s2.3-0.955,3.772-0.955c1.743,0,3.154,0.454,4.232,1.361C17.056,5.428,17.594,6.626,17.594,8.114z
		 M13.297,18.631c0,0.605-0.229,1.125-0.688,1.559c-0.457,0.434-0.992,0.65-1.605,0.65c-0.621,0-1.16-0.217-1.617-0.65
		C8.929,19.756,8.7,19.236,8.7,18.631c0-0.604,0.229-1.128,0.687-1.57c0.457-0.441,0.996-0.662,1.617-0.662
		c0.613,0,1.148,0.221,1.605,0.662C13.067,17.503,13.297,18.026,13.297,18.631z"/>
</g>
</svg>
