<?xml version="1.0" encoding="utf-8"?>
<!-- Generator: Adobe Illustrator 16.0.3, SVG Export Plug-In . SVG Version: 6.00 Build 0)  -->
<!DOCTYPE svg PUBLIC "-//W3C//DTD SVG 1.1//EN" "http://www.w3.org/Graphics/SVG/1.1/DTD/svg11.dtd">
<svg version="1.1" id="Capa_1" xmlns="http://www.w3.org/2000/svg" xmlns:xlink="http://www.w3.org/1999/xlink" x="0px" y="0px"
	 width="24px" height="24px" viewBox="285.64 408.945 24 24" enable-background="new 285.64 408.945 24 24" xml:space="preserve">
<path fill="#37474F" d="M285.64,430.66v-19.429c0-1.257,1.35-2.286,3-2.286h18c1.649,0,3,1.028,3,2.286v19.429
	c0,1.257-1.351,2.285-3,2.285h-18C286.99,432.945,285.64,431.917,285.64,430.66z"/>
<path fill="#FFFFFF" d="M305.89,410.66h-16.5c-0.45,0-0.75,0.229-0.75,0.571v16.572c0,0.344,0.3,0.572,0.75,0.572h16.5
	c0.449,0,0.75-0.229,0.75-0.572v-16.572C306.64,410.888,306.339,410.66,305.89,410.66z"/>
<rect x="294.64" y="430.089" fill="#546E7A" width="6" height="1.142"/>
<g>
	<rect x="291.64" y="413.517" fill="#A1A1A1" width="12" height="1.715"/>
	<rect x="291.64" y="417.517" fill="#A1A1A1" width="12" height="1.143"/>
	<rect x="291.64" y="419.803" fill="#A1A1A1" width="9" height="1.143"/>
	<rect x="291.64" y="422.088" fill="#A1A1A1" width="12" height="1.144"/>
	<rect x="291.64" y="424.374" fill="#A1A1A1" width="9" height="1.144"/>
</g>
</svg>
