<?xml version="1.0" encoding="UTF-8" standalone="no"?>
<svg
   version="1.1"
   width="28"
   height="28"
   color-interpolation="linearRGB"
   id="svg95"
   sodipodi:docname="image.svg"
   inkscape:version="1.2.2 (b0a8486541, 2022-12-01)"
   xmlns:inkscape="http://www.inkscape.org/namespaces/inkscape"
   xmlns:sodipodi="http://sodipodi.sourceforge.net/DTD/sodipodi-0.dtd"
   xmlns="http://www.w3.org/2000/svg"
   xmlns:svg="http://www.w3.org/2000/svg">
  <defs
     id="defs99" />
  <sodipodi:namedview
     id="namedview97"
     pagecolor="#ffffff"
     bordercolor="#000000"
     borderopacity="0.25"
     inkscape:showpageshadow="2"
     inkscape:pageopacity="0.0"
     inkscape:pagecheckerboard="0"
     inkscape:deskcolor="#d1d1d1"
     showgrid="false"
     inkscape:zoom="12.9375"
     inkscape:cx="26.512077"
     inkscape:cy="25.816425"
     inkscape:window-width="1920"
     inkscape:window-height="1012"
     inkscape:window-x="0"
     inkscape:window-y="0"
     inkscape:window-maximized="1"
     inkscape:current-layer="svg95" />
  <g
     id="g93"
     transform="matrix(0.43475482,0,0,0.43475482,0.14686651,-0.03101022)">
    <path
       style="fill:#010101;fill-opacity:0.4549"
       d="m 18,22 v 34 c 16,0 16,-8 20,-12 0,0 2,2 6,2 4,0 10,0 11,-1 1,-1 9,0 9,-3 0,-2 -4.03,-2.09 -3,-3 0,0 1,-2 1,-5 0,-6 -4,-8 -12,-12 z"
       id="path2" />
    <path
       style="fill:none;stroke:#010101;stroke-width:4"
       d="m 2,38 v 2 c 0,10 10,14 16,14 12,0 11,-7 15,-11 4,-4 6,1 11,1 10,0 14,-6 14,-14 V 28 C 58,20 48,14 38,14 20,14 2,24 2,38 Z M 48,34 C 42,40 29.96,35.65 35.98,29.82 42,24 54,28 48,34 Z M 35.98,31.82 C 29.96,37.65 42,42 48,36 54,30 42,26 35.98,31.82 Z"
       id="path4" />
    <linearGradient
       id="gradient0"
       gradientUnits="userSpaceOnUse"
       x1="-31.799999"
       y1="-31.4"
       x2="29.58"
       y2="-53.07">
      <stop
         offset="0"
         stop-color="#f6c54f"
         id="stop6" />
      <stop
         offset="1"
         stop-color="#a87804"
         id="stop8" />
    </linearGradient>
    <path
       style="fill:url(#gradient0)"
       d="M 48,34 C 42,40 29.96,35.65 35.98,29.82 42,24 54,28 48,34 Z M 2,40 v -2 c 0,10 10,14 16,14 12,0 11,-7 15,-11 4,-4 6,1 11,1 10,0 14,-6 14,-14 v 3 C 58,38 54,44 44,44 39,44 37,39 33,43 29,47 30,54 18,54 12,54 2,50 2,40 Z M 35.98,31.82 C 29.96,37.65 42,42 48,36 54,30 42,26 35.98,31.82 Z"
       id="path11" />
    <linearGradient
       id="gradient1"
       gradientUnits="userSpaceOnUse"
       x1="-31.799999"
       y1="-31.4"
       x2="29.58"
       y2="-53.07">
      <stop
         offset="0"
         stop-color="#ffeec7"
         id="stop13" />
      <stop
         offset="1"
         stop-color="#f6c54f"
         id="stop15" />
    </linearGradient>
    <path
       style="fill:url(#gradient1)"
       d="m 2,38 c 0,10 10,14 16,14 12,0 11,-7 15,-11 4,-4 6,1 11,1 C 54,42 58,36 58,28 58,20 48,14 38,14 20,14 2,24 2,38 Z M 48,34 C 42,40 29.96,35.65 35.98,29.82 42,24 54,28 48,34 Z"
       id="path18" />
    <radialGradient
       id="gradient2"
       gradientUnits="userSpaceOnUse"
       cx="0"
       cy="0"
       r="64"
       gradientTransform="matrix(0.1562,0,0,0.1093,39,30)">
      <stop
         offset="0"
         stop-color="#eb89ff"
         id="stop20" />
      <stop
         offset="0.729"
         stop-color="#c304e9"
         id="stop22" />
      <stop
         offset="1"
         stop-color="#9708b3"
         id="stop24" />
    </radialGradient>
    <path
       style="fill:url(#gradient2)"
       d="M 48,34 C 42,40 29.96,35.65 35.98,29.82 42,24 54,28 48,34 Z"
       transform="matrix(0.87,0,0,0.8196,-1.5446,-6.1354)"
       id="path27" />
    <radialGradient
       id="gradient3"
       gradientUnits="userSpaceOnUse"
       cx="0"
       cy="0"
       r="64"
       gradientTransform="matrix(0.1562,0,0,0.1093,39,30)">
      <stop
         offset="0"
         stop-color="#bdf4b2"
         id="stop29" />
      <stop
         offset="0.729"
         stop-color="#25c605"
         id="stop31" />
      <stop
         offset="1"
         stop-color="#146b02"
         id="stop33" />
    </radialGradient>
    <path
       style="fill:url(#gradient3)"
       d="M 48,34 C 42,40 29.96,35.65 35.98,29.82 42,24 54,28 48,34 Z"
       transform="matrix(0.935,0,0,0.8991,-18.7723,-4.2803)"
       id="path36" />
    <radialGradient
       id="gradient4"
       gradientUnits="userSpaceOnUse"
       cx="0"
       cy="0"
       r="64"
       gradientTransform="matrix(0.1562,0,0,0.1093,39,30)">
      <stop
         offset="0"
         stop-color="#89b0ff"
         id="stop38" />
      <stop
         offset="0.729"
         stop-color="#044fe9"
         id="stop40" />
      <stop
         offset="1"
         stop-color="#0840b3"
         id="stop42" />
    </radialGradient>
    <path
       style="fill:url(#gradient4)"
       d="M 48,34 C 42,40 29.96,35.65 35.98,29.82 42,24 54,28 48,34 Z"
       transform="translate(-30,2)"
       id="path45" />
    <linearGradient
       id="gradient5"
       gradientUnits="userSpaceOnUse"
       x1="-7.4200001"
       y1="-40"
       x2="29.58"
       y2="-53.07">
      <stop
         offset="0"
         stop-color="#a87804"
         id="stop47" />
      <stop
         offset="0.9967"
         stop-color="#ca9a25"
         id="stop49" />
    </linearGradient>
    <path
       style="fill:url(#gradient5)"
       d="m 26,43 c 2,0 6,-1 6,-1 l 1,-1 c 4,-1 6,2 11,2 5.06,0 9,-2 11,-5 0,0 -3,-1 -7,-1 -4,0 -10.94,1 -12,1 -2.02,0 -5,-2 -7,-2 z"
       id="path52" />
    <path
       style="fill:none;stroke:#010101;stroke-width:4"
       d="m 32,16 v -6 h 4 v 6 c -2,2 0,14 0,22 0,6 -1,10 -2,10 -1,0 -2,-4 -2,-10 0,-8 2,-20 0,-22 z m 0,-6 h 4 C 37,9 37,7 36,5.01 35.07,3.16 37,0 36,0 c -3,0 -5,3 -5,6 0,3 1,4 1,4 z"
       transform="matrix(-0.7177,-0.6963,0.6963,-0.7177,47.1596,66.1125)"
       id="path54" />
    <radialGradient
       id="gradient6"
       gradientUnits="userSpaceOnUse"
       cx="0"
       cy="0"
       r="64"
       gradientTransform="matrix(0.1562,0,0,0.1093,39,30)">
      <stop
         offset="0"
         stop-color="#ff8989"
         id="stop56" />
      <stop
         offset="0.729"
         stop-color="#e90606"
         id="stop58" />
      <stop
         offset="1"
         stop-color="#b30909"
         id="stop60" />
    </radialGradient>
    <path
       style="fill:url(#gradient6)"
       d="M 48,34 C 42,40 29.96,35.65 35.98,29.82 42,24 54,28 48,34 Z"
       transform="translate(-24,12)"
       id="path63" />
    <radialGradient
       id="gradient7"
       gradientUnits="userSpaceOnUse"
       cx="0"
       cy="0"
       r="64"
       gradientTransform="matrix(0.0312,0,0,0.25,35,30)">
      <stop
         offset="0"
         stop-color="#ededed"
         id="stop65" />
      <stop
         offset="1"
         stop-color="#353535"
         id="stop67" />
    </radialGradient>
    <path
       style="fill:url(#gradient7)"
       d="m 32,16 v -6 h 4 v 6 c -2,2 0,14 0,22 0,6 -1,10 -2,10 -1,0 -2,-4 -2,-10 0,-8 2,-20 0,-22 z"
       transform="matrix(-0.7177,-0.6963,0.6963,-0.7177,47.1596,66.1125)"
       id="path70" />
    <linearGradient
       id="gradient8"
       gradientUnits="userSpaceOnUse"
       x1="36"
       y1="-64"
       x2="32"
       y2="-64">
      <stop
         offset="0"
         stop-color="#ffffff"
         id="stop72" />
      <stop
         offset="1"
         stop-color="#7c93b1"
         id="stop74" />
    </linearGradient>
    <path
       style="fill:url(#gradient8)"
       d="m 32,14 h 4 v -4 h -4 z"
       transform="matrix(-0.7177,-0.6963,0.6963,-0.7177,47.1596,66.1125)"
       id="path77" />
    <radialGradient
       id="gradient9"
       gradientUnits="userSpaceOnUse"
       cx="0"
       cy="0"
       r="64"
       gradientTransform="matrix(0.0913,-0.0645,0.0733,0.1036,37.8841,5.3198)">
      <stop
         offset="0"
         stop-color="#ffffff"
         id="stop79" />
      <stop
         offset="1"
         stop-color="#a06d1e"
         id="stop81" />
    </radialGradient>
    <path
       style="fill:url(#gradient9)"
       d="m 32,10 h 4 C 37,9 37,7 36,5.01 35.07,3.16 37,0 36,0 c -3,0 -5,3 -5,6 0,3 1,4 1,4 z"
       transform="matrix(-0.7177,-0.6963,0.6963,-0.7177,47.1596,66.1125)"
       id="path84" />
    <radialGradient
       id="gradient10"
       gradientUnits="userSpaceOnUse"
       cx="0"
       cy="0"
       r="64"
       gradientTransform="matrix(0.4687,0,0,0.1562,34,0)">
      <stop
         offset="0"
         stop-color="#dd0505"
         id="stop86" />
      <stop
         offset="1"
         stop-color="#ff0505"
         stop-opacity="0"
         id="stop88" />
    </radialGradient>
    <path
       style="fill:url(#gradient10)"
       d="m 32,10 h 4 C 37,9 37,7 36,5.01 35.07,3.16 37,0 36,0 c -3,0 -5,3 -5,6 0,3 1,4 1,4 z"
       transform="matrix(-0.7177,-0.6963,0.6963,-0.7177,47.1596,66.1125)"
       id="path91" />
  </g>
</svg>
