<?xml version="1.0" encoding="UTF-8" standalone="no"?>
<svg
   version="1.1"
   width="28"
   height="28"
   color-interpolation="linearRGB"
   id="svg66"
   sodipodi:docname="imprenta.svg"
   inkscape:version="1.2.2 (b0a8486541, 2022-12-01)"
   xmlns:inkscape="http://www.inkscape.org/namespaces/inkscape"
   xmlns:sodipodi="http://sodipodi.sourceforge.net/DTD/sodipodi-0.dtd"
   xmlns="http://www.w3.org/2000/svg"
   xmlns:svg="http://www.w3.org/2000/svg">
  <defs
     id="defs70" />
  <sodipodi:namedview
     id="namedview68"
     pagecolor="#ffffff"
     bordercolor="#000000"
     borderopacity="0.25"
     inkscape:showpageshadow="2"
     inkscape:pageopacity="0.0"
     inkscape:pagecheckerboard="0"
     inkscape:deskcolor="#d1d1d1"
     showgrid="false"
     inkscape:zoom="12.9375"
     inkscape:cx="32.038647"
     inkscape:cy="25.816425"
     inkscape:window-width="1920"
     inkscape:window-height="1008"
     inkscape:window-x="0"
     inkscape:window-y="0"
     inkscape:window-maximized="1"
     inkscape:current-layer="svg66" />
  <g
     id="g64"
     transform="matrix(0.42902855,0,0,0.42902855,0.2898894,0.24664778)">
    <path
       style="fill:#010101;fill-opacity:0.4549"
       d="m 18,62 h 7 l 8,-8 13,8 h 7 L 64,50 56,46 30,49 Z"
       id="path2" />
    <path
       style="fill:none;stroke:#000000;stroke-width:4"
       d="M 2,34 V 52 L 18,60 30,49 V 32 L 14,26 Z"
       id="path4" />
    <linearGradient
       id="gradient0"
       gradientUnits="userSpaceOnUse"
       x1="-25.790001"
       y1="20.620001"
       x2="10.43"
       y2="5.0300002">
      <stop
         offset="0"
         stop-color="#bde2b7"
         id="stop6" />
      <stop
         offset="1"
         stop-color="#40a635"
         id="stop8" />
    </linearGradient>
    <path
       style="fill:url(#gradient0)"
       d="m 2,34 v 18 l 16,8 V 41 Z"
       id="path11" />
    <path
       style="fill:#587c46"
       d="M 18,41 V 60 L 30,49 V 32 Z"
       id="path13" />
    <path
       style="fill:#076102"
       d="m 24,34 4,11 v -9 z"
       transform="translate(0,1)"
       id="path15" />
    <linearGradient
       id="gradient1"
       gradientUnits="userSpaceOnUse"
       x1="12.94"
       y1="-1.9299999"
       x2="52.060001"
       y2="14.45">
      <stop
         offset="0"
         stop-color="#d1facb"
         id="stop17" />
      <stop
         offset="1"
         stop-color="#76cb68"
         id="stop19" />
    </linearGradient>
    <path
       style="fill:url(#gradient1)"
       d="M 2,34 18,41 30,32 14,26 Z"
       id="path22" />
    <path
       style="fill:none;stroke:#000000;stroke-width:4"
       d="M 30,34 V 52 L 46,60 58,48 V 31 L 42,25 Z"
       id="path24" />
    <path
       style="fill:#e86b06"
       d="M 33,49 33.99,53.99 46,60 V 41 l -4.93,-2.16 z"
       id="path26" />
    <path
       style="fill:#be5305"
       d="M 30,34 V 52 L 33.99,53.99 33,49 41.07,38.84 Z"
       id="path28" />
    <linearGradient
       id="gradient2"
       gradientUnits="userSpaceOnUse"
       x1="71.360001"
       y1="-3.3499999"
       x2="104.04"
       y2="22.42">
      <stop
         offset="0"
         stop-color="#b03c03"
         id="stop30" />
      <stop
         offset="1"
         stop-color="#bb5605"
         id="stop32" />
    </linearGradient>
    <path
       style="fill:url(#gradient2)"
       d="M 32,18 V 37 L 44,28 V 10 Z M 46,41 V 60 L 58,48 V 30 Z"
       id="path35" />
    <path
       style="fill:#ff9803"
       d="M 51.5,30.75 40.98,38.8 46,41 58,31 42,25 41.58,26.18 Z"
       id="path37" />
    <path
       style="fill:#de6706"
       d="M 30,34 40.98,38.8 51.5,30.75 41.58,26.18 Z"
       id="path39" />
    <path
       style="fill:none;stroke:#000000;stroke-width:4"
       d="m 16,12 v 18 l 16,7 12,-9 V 10 L 28,5 Z"
       id="path41" />
    <linearGradient
       id="gradient3"
       gradientUnits="userSpaceOnUse"
       x1="-19.870001"
       y1="-1.53"
       x2="5.48"
       y2="-26.290001">
      <stop
         offset="0"
         stop-color="#ffec4b"
         id="stop43" />
      <stop
         offset="1"
         stop-color="#f0a506"
         id="stop45" />
    </linearGradient>
    <path
       style="fill:url(#gradient3)"
       d="m 16,12 v 18 l 16,7 V 18 Z"
       id="path48" />
    <linearGradient
       id="gradient4"
       gradientUnits="userSpaceOnUse"
       x1="30.5"
       y1="-22.809999"
       x2="56.009998"
       y2="-9.1300001">
      <stop
         offset="0"
         stop-color="#ffffff"
         id="stop50" />
      <stop
         offset="1"
         stop-color="#fff289"
         id="stop52" />
    </linearGradient>
    <path
       style="fill:url(#gradient4)"
       d="M 16,12 32,18 44,10 28,5 Z"
       id="path55" />
    <linearGradient
       id="gradient5"
       gradientUnits="userSpaceOnUse"
       x1="53.009998"
       y1="-9.5500002"
       x2="69.940002"
       y2="3.4300001">
      <stop
         offset="0"
         stop-color="#f99b05"
         id="stop57" />
      <stop
         offset="1"
         stop-color="#fcb23d"
         id="stop59" />
    </linearGradient>
    <path
       style="fill:url(#gradient5)"
       d="M 32,18 V 37 L 44,28 V 10 Z"
       id="path62" />
  </g>
</svg>
