<?xml version="1.0" encoding="utf-8"?>
<!-- Generator: Adobe Illustrator 16.0.3, SVG Export Plug-In . SVG Version: 6.00 Build 0)  -->
<!DOCTYPE svg PUBLIC "-//W3C//DTD SVG 1.1//EN" "http://www.w3.org/Graphics/SVG/1.1/DTD/svg11.dtd">
<svg version="1.1"
	 id="svg6" inkscape:version="0.92.4 5da689c313, 2019-01-14" sodipodi:docname="preferences-devices-drive-optical-check.svg" xmlns:dc="http://purl.org/dc/elements/1.1/" xmlns:cc="http://creativecommons.org/ns#" xmlns:rdf="http://www.w3.org/1999/02/22-rdf-syntax-ns#" xmlns:svg="http://www.w3.org/2000/svg" xmlns:sodipodi="http://sodipodi.sourceforge.net/DTD/sodipodi-0.dtd" xmlns:inkscape="http://www.inkscape.org/namespaces/inkscape"
	 xmlns="http://www.w3.org/2000/svg" xmlns:xlink="http://www.w3.org/1999/xlink" x="0px" y="0px" width="24px" height="24px"
	 viewBox="4 4 24 24" enable-background="new 4 4 24 24" xml:space="preserve">
<sodipodi:namedview  id="namedview8" inkscape:current-layer="svg6" inkscape:window-y="0" inkscape:window-x="0" inkscape:window-height="1003" inkscape:window-width="1920" inkscape:pageshadow="2" inkscape:pageopacity="0" borderopacity="1" pagecolor="#ffffff" bordercolor="#666666" showgrid="false" guidetolerance="10" inkscape:cy="10.769866" gridtolerance="10" inkscape:cx="12.932105" objecttolerance="10" inkscape:zoom="14.75" inkscape:window-maximized="1">
	</sodipodi:namedview>
<g id="layer1" transform="matrix(0.26458333,0,0,0.26458333,-2.1145837e-8,-74.784476)" inkscape:label="Capa 1">
	<path id="rect4496-7" inkscape:connector-curvature="0" fill="#00804B" d="M60.498,297.508c25.283,0,45.639,20.354,45.639,45.64
		c0,25.283-20.356,45.639-45.639,45.639c-25.287,0-45.64-20.356-45.64-45.639C14.858,317.862,35.212,297.508,60.498,297.508z"/>
	<path id="rect4570-9-6-5" inkscape:connector-curvature="0" fill="#FFFFFF" d="M60.498,300.552c23.6,0,42.597,18.997,42.597,42.597
		c0,23.6-18.997,42.597-42.597,42.597s-42.597-18.997-42.597-42.597C17.901,319.549,36.898,300.552,60.498,300.552z"/>
</g>
</svg>
