<?xml version="1.0" encoding="UTF-8" standalone="no"?>
<svg
   version="1.1"
   width="28"
   height="28"
   color-interpolation="linearRGB"
   id="svg77"
   sodipodi:docname="info.svg"
   inkscape:version="1.2.2 (b0a8486541, 2022-12-01)"
   xmlns:inkscape="http://www.inkscape.org/namespaces/inkscape"
   xmlns:sodipodi="http://sodipodi.sourceforge.net/DTD/sodipodi-0.dtd"
   xmlns="http://www.w3.org/2000/svg"
   xmlns:svg="http://www.w3.org/2000/svg">
  <defs
     id="defs81" />
  <sodipodi:namedview
     id="namedview79"
     pagecolor="#ffffff"
     bordercolor="#000000"
     borderopacity="0.25"
     inkscape:showpageshadow="2"
     inkscape:pageopacity="0.0"
     inkscape:pagecheckerboard="0"
     inkscape:deskcolor="#d1d1d1"
     showgrid="false"
     inkscape:zoom="12.9375"
     inkscape:cx="30.415459"
     inkscape:cy="25.816425"
     inkscape:window-width="1920"
     inkscape:window-height="1008"
     inkscape:window-x="0"
     inkscape:window-y="0"
     inkscape:window-maximized="1"
     inkscape:current-layer="svg77" />
  <g
     id="g75"
     transform="matrix(0.427083,0,0,0.427083,-0.44080577,0.27535984)">
    <path
       style="fill:#000000;fill-opacity:0.3294"
       d="m 36,42 -4,22 h 4 L 46,54 h 3 l 7,-7 -10,-5 z m 18,0 c -5.53,0 -10,2.46 -10,5.5 0,3.03 4.47,5.5 10,5.5 5.52,0 10,-2.47 10,-5.5 C 64,44.46 59.52,42 54,42 Z"
       id="path2" />
    <path
       style="fill:none;stroke:#000000;stroke-width:4"
       d="M 34,45 V 21 L 21,16 10,22 v 3 l 4,3 v 11 l -8,5 v 4 L 32,62 42,52 v -4 z"
       id="path4" />
    <linearGradient
       id="gradient0"
       gradientUnits="userSpaceOnUse"
       x1="25.16"
       y1="-43.139999"
       x2="56.75"
       y2="-34.419998">
      <stop
         offset="0"
         stop-color="#227aff"
         id="stop6" />
      <stop
         offset="1"
         stop-color="#0025e5"
         id="stop8" />
    </linearGradient>
    <path
       style="fill:url(#gradient0)"
       d="M 24,53 V 28 L 10,22 v 3 L 14.03,28.26 14,48 6,44 v 4 l 26,14 v -5 z"
       id="path11" />
    <linearGradient
       id="gradient1"
       gradientUnits="userSpaceOnUse"
       x1="46.77"
       y1="-64.5"
       x2="65.470001"
       y2="-60.169998">
      <stop
         offset="0"
         stop-color="#000081"
         id="stop13" />
      <stop
         offset="1"
         stop-color="#0909b7"
         id="stop15" />
    </linearGradient>
    <path
       style="fill:url(#gradient1)"
       d="m 32,57 v 5 L 42,52 v -4 z"
       id="path18" />
    <linearGradient
       id="gradient2"
       gradientUnits="userSpaceOnUse"
       x1="46.77"
       y1="-64.5"
       x2="65.470001"
       y2="-60.169998">
      <stop
         offset="0"
         stop-color="#000081"
         id="stop20" />
      <stop
         offset="1"
         stop-color="#0909b7"
         id="stop22" />
    </linearGradient>
    <path
       style="fill:url(#gradient2)"
       d="M 24,53 34,45 V 21 l -10,7 z"
       id="path25" />
    <linearGradient
       id="gradient3"
       gradientUnits="userSpaceOnUse"
       x1="17.32"
       y1="37.580002"
       x2="29.9"
       y2="31.35">
      <stop
         offset="0"
         stop-color="#050ec5"
         id="stop27" />
      <stop
         offset="1"
         stop-color="#062fe3"
         id="stop29" />
    </linearGradient>
    <path
       style="fill:url(#gradient3)"
       d="m 42,48 -8,-3 -10,8 12.4,0.03 z"
       id="path32" />
    <linearGradient
       id="gradient4"
       gradientUnits="userSpaceOnUse"
       x1="-8.6300001"
       y1="21.52"
       x2="12.76"
       y2="10.9">
      <stop
         offset="0"
         stop-color="#67b5ff"
         id="stop34" />
      <stop
         offset="1"
         stop-color="#3b79f6"
         id="stop36" />
    </linearGradient>
    <path
       style="fill:url(#gradient4)"
       d="m 24,53 8,4 4.4,-3.97 z"
       id="path39" />
    <linearGradient
       id="gradient5"
       gradientUnits="userSpaceOnUse"
       x1="-8.6300001"
       y1="21.52"
       x2="12.76"
       y2="10.9">
      <stop
         offset="0"
         stop-color="#67b5ff"
         id="stop41" />
      <stop
         offset="1"
         stop-color="#3b79f6"
         id="stop43" />
    </linearGradient>
    <path
       style="fill:url(#gradient5)"
       d="m 6,44 8,4 v -9 z"
       id="path46" />
    <radialGradient
       id="gradient6"
       gradientUnits="userSpaceOnUse"
       cx="0"
       cy="0"
       r="64"
       gradientTransform="matrix(0.3125,0,0,0.1406,30,22)">
      <stop
         offset="0"
         stop-color="#0530d1"
         id="stop48" />
      <stop
         offset="1"
         stop-color="#67b5ff"
         id="stop50" />
    </radialGradient>
    <path
       style="fill:url(#gradient6)"
       d="m 21,16 -11,6 14,6 10,-7 z"
       id="path53" />
    <path
       style="fill:none;stroke:#000000;stroke-width:4"
       d="M 22,2 C 16.47,2 11.99,6.47 12,12 12,17.52 16.47,22 22,22 27.52,22 32,17.52 32,12 32,6.47 27.52,2 22,2 Z"
       id="path55" />
    <radialGradient
       id="gradient7"
       gradientUnits="userSpaceOnUse"
       cx="0"
       cy="0"
       r="64"
       gradientTransform="matrix(0.2031,0,0,0.2031,19,9.43)">
      <stop
         offset="0"
         stop-color="#3787ff"
         id="stop57" />
      <stop
         offset="0.3369"
         stop-color="#1b76ff"
         id="stop59" />
      <stop
         offset="1"
         stop-color="#031d8c"
         id="stop61" />
      <stop
         offset="0.8586"
         stop-color="#000081"
         id="stop63" />
    </radialGradient>
    <path
       style="fill:url(#gradient7)"
       d="M 22,2 C 16.47,2 11.99,6.47 12,12 12,17.52 16.47,22 22,22 27.52,22 32,17.52 32,12 32,6.47 27.52,2 22,2 Z"
       id="path66" />
    <radialGradient
       id="gradient8"
       gradientUnits="userSpaceOnUse"
       cx="0"
       cy="0"
       r="64"
       gradientTransform="matrix(0.0527,0,0,-0.0527,19,9)">
      <stop
         offset="0"
         stop-color="#ffffff"
         id="stop68" />
      <stop
         offset="1"
         stop-color="#3787ff"
         id="stop70" />
    </radialGradient>
    <path
       style="fill:url(#gradient8)"
       d="m 19,5.62 c -1.87,0 -3.38,1.51 -3.37,3.38 0,1.86 1.5,3.37 3.37,3.37 1.87,0 3.37,-1.51 3.37,-3.37 0,-1.87 -1.51,-3.38 -3.37,-3.38 z"
       id="path73" />
  </g>
</svg>
