<?xml version="1.0" encoding="UTF-8" standalone="no"?>
<svg
   version="1.1"
   width="28"
   height="28"
   color-interpolation="linearRGB"
   id="svg44"
   sodipodi:docname="integridad.svg"
   inkscape:version="1.2.2 (b0a8486541, 2022-12-01)"
   xmlns:inkscape="http://www.inkscape.org/namespaces/inkscape"
   xmlns:sodipodi="http://sodipodi.sourceforge.net/DTD/sodipodi-0.dtd"
   xmlns="http://www.w3.org/2000/svg"
   xmlns:svg="http://www.w3.org/2000/svg">
  <defs
     id="defs48" />
  <sodipodi:namedview
     id="namedview46"
     pagecolor="#ffffff"
     bordercolor="#000000"
     borderopacity="0.25"
     inkscape:showpageshadow="2"
     inkscape:pageopacity="0.0"
     inkscape:pagecheckerboard="0"
     inkscape:deskcolor="#d1d1d1"
     showgrid="false"
     inkscape:zoom="13.5625"
     inkscape:cx="26.764977"
     inkscape:cy="20.202765"
     inkscape:window-width="1920"
     inkscape:window-height="1052"
     inkscape:window-x="0"
     inkscape:window-y="0"
     inkscape:window-maximized="1"
     inkscape:current-layer="svg44" />
  <g
     id="g42"
     transform="matrix(0.48235442,0,0,0.48235442,-1.5633258,-0.20458557)">
    <path
       style="fill:#010101;fill-opacity:0.5529"
       d="M 29,4 C 16.84,4 6,14 4,26 2,37.98 11,53 23,52 32.96,51.16 39.54,44.46 45,32 52,16 41.15,4 29,4 Z"
       transform="matrix(1.0909,0,0,0.4615,9.6363,32.1538)"
       id="path2" />
    <path
       style="fill:none;stroke:#010101;stroke-width:4"
       d="M 29,4 C 16.84,4 6,14 4,26 2,37.98 11,53 23,52 32.96,51.16 39.54,44.46 45,32 52,16 41.15,4 29,4 Z"
       transform="translate(2,2)"
       id="path4" />
    <radialGradient
       id="gradient0"
       gradientUnits="userSpaceOnUse"
       cx="0"
       cy="0"
       r="64"
       gradientTransform="matrix(0.5625,0,0,0.5625,16,16)">
      <stop
         offset="0.004"
         stop-color="#ffc7c7"
         id="stop6" />
      <stop
         offset="0.4412"
         stop-color="#fb2a2a"
         id="stop8" />
      <stop
         offset="0.5951"
         stop-color="#fd1818"
         id="stop10" />
      <stop
         offset="0.7489"
         stop-color="#fe0808"
         id="stop12" />
      <stop
         offset="0.9757"
         stop-color="#db0b0b"
         id="stop14" />
      <stop
         offset="0.8582"
         stop-color="#ff0000"
         id="stop16" />
    </radialGradient>
    <path
       style="fill:url(#gradient0)"
       d="M 29,4 C 16.84,4 6,14 4,26 2,37.98 11,53 23,52 32.96,51.16 39.54,44.46 45,32 52,16 41.15,4 29,4 Z"
       transform="translate(2,2)"
       id="path19" />
    <path
       style="fill:none;stroke:#010101;stroke-width:3"
       d="M 39,7 C 32,11 14,45 15,52"
       id="path21" />
    <path
       style="fill:#010101"
       d="m 23,12 c -5,0 -5,7 0,7 5,0 5,-7 0,-7 z"
       transform="translate(-4,5)"
       id="path23" />
    <path
       style="fill:#010101"
       d="m 23,12 c -5,0 -5,7 0,7 5,0 5,-7 0,-7 z"
       transform="translate(-10,18)"
       id="path25" />
    <path
       style="fill:#010101"
       d="m 23,12 c -5,0 -5,7 0,7 5,0 5,-7 0,-7 z"
       transform="translate(12,14)"
       id="path27" />
    <path
       style="fill:#010101"
       d="m 23,12 c -5,0 -5,7 0,7 5,0 5,-7 0,-7 z"
       transform="translate(4,25)"
       id="path29" />
    <linearGradient
       id="gradient1"
       gradientUnits="userSpaceOnUse"
       x1="-64"
       y1="-64"
       x2="64"
       y2="-64">
      <stop
         offset="0.3157"
         stop-color="#010000"
         stop-opacity="0.5019"
         id="stop31" />
      <stop
         offset="0.8178"
         stop-color="#010000"
         id="stop33" />
    </linearGradient>
    <path
       style="fill:url(#gradient1)"
       d="M 18,8 50,28 C 50,28 54,17 42,8 32.23,0.67 18,8 18,8 Z"
       id="path36" />
    <path
       style="fill:#ffffff"
       d="m 23,12 c -5,0 -5,7 0,7 5,0 5,-7 0,-7 z"
       transform="matrix(0.5406,0.2503,-0.2401,0.5185,25.7881,-6.7959)"
       id="path38" />
    <path
       style="fill:#ffffff"
       d="m 23,12 c -5,0 -5,7 0,7 5,0 5,-7 0,-7 z"
       transform="matrix(0.3526,0.4802,-0.4605,0.3382,43.5278,-2.2874)"
       id="path40" />
  </g>
</svg>
