<?xml version="1.0" encoding="utf-8"?>
<!-- Generator: Adobe Illustrator 16.0.3, SVG Export Plug-In . SVG Version: 6.00 Build 0)  -->
<!DOCTYPE svg PUBLIC "-//W3C//DTD SVG 1.1//EN" "http://www.w3.org/Graphics/SVG/1.1/DTD/svg11.dtd">
<svg version="1.1"
	 id="svg8" sodipodi:docname="spectacle.svg" inkscape:version="0.92.2 (5c3e80d, 2017-08-06)" xmlns:dc="http://purl.org/dc/elements/1.1/" xmlns:cc="http://creativecommons.org/ns#" xmlns:rdf="http://www.w3.org/1999/02/22-rdf-syntax-ns#" xmlns:svg="http://www.w3.org/2000/svg" xmlns:sodipodi="http://sodipodi.sourceforge.net/DTD/sodipodi-0.dtd" xmlns:inkscape="http://www.inkscape.org/namespaces/inkscape"
	 xmlns="http://www.w3.org/2000/svg" xmlns:xlink="http://www.w3.org/1999/xlink" x="0px" y="0px" width="24px" height="24px"
	 viewBox="4 4 24 24" enable-background="new 4 4 24 24" xml:space="preserve">
<title  id="title7895">Antu icon Theme</title>
<sodipodi:namedview  id="base" units="px" inkscape:window-y="0" inkscape:window-x="0" inkscape:window-height="729" inkscape:window-width="1280" inkscape:current-layer="g4150" inkscape:document-units="px" inkscape:pageshadow="2" inkscape:pageopacity="0.0" inkscape:zoom="5.6" borderopacity="1.0" bordercolor="#666666" showgrid="true" pagecolor="#ffffff" guidetolerance="10" gridtolerance="10" objecttolerance="10" inkscape:cy="22.865034" inkscape:cx="6.1402541" inkscape:window-maximized="1">
	<inkscape:grid  id="grid7897" type="xygrid" empspacing="4"></inkscape:grid>
</sodipodi:namedview>
<g id="layer1" transform="translate(0,-282.64999)" inkscape:groupmode="layer" inkscape:label="Capa 1">
	<g id="g4150" transform="translate(1,-5)">
		<g id="g858" transform="translate(-44,-32)">
			<path id="path12329" inkscape:connector-curvature="0" fill="#4A5599" d="M47.76,323.57c-0.416,0-0.75,0.382-0.75,0.857v22.274
				c0,0.474,0.334,0.856,0.75,0.856h22.505c0.416,0,0.75-0.383,0.75-0.856v-22.274c0-0.475-0.334-0.857-0.75-0.857H59.763h-2.251
				H47.76z"/>
			
				<linearGradient id="path13-5-2-9-4-2-6-6_1_" gradientUnits="userSpaceOnUse" x1="-157.5713" y1="648.5592" x2="-157.5713" y2="653.9996" gradientTransform="matrix(3.7795 0 0 -3.7795 654.5576 2797.0933)">
				<stop  offset="0" style="stop-color:#5563B2"/>
				<stop  offset="1" style="stop-color:#7986CB"/>
			</linearGradient>
			
				<path id="path13-5-2-9-4-2-6-6" sodipodi:nodetypes="ccccccc" inkscape:connector-curvature="0" fill="url(#path13-5-2-9-4-2-6-6_1_)" d="
				M47.76,324.427v22.274h22.505v-22.274H59.012h-1.5H47.76z"/>
			<path id="rect3441-6" inkscape:connector-curvature="0" fill="#4A5599" d="M48.51,326.141v1.713v1.713h1.5v-1.713h1.5v-1.713
				h-1.5H48.51z M66.514,326.141v1.713h1.5v1.713h1.501v-1.713v-1.713h-1.501H66.514z M55.678,329.618
				c-1.039,0-1.874,0.955-1.874,2.142s0.83,2.142,1.868,2.142s1.88-0.955,1.88-2.142S56.716,329.618,55.678,329.618z
				 M60.506,334.758c-0.229,0.016-0.438,0.146-0.569,0.36l-2.425,3.873l-0.866-1.319c-0.138-0.209-0.351-0.337-0.58-0.344
				c-0.244-0.007-0.474,0.121-0.62,0.344l-2.25,3.427c-0.37,0.563-0.017,1.37,0.6,1.37h4.5c0.003,0,0.006-0.002,0.01-0.002h5.987
				c0.61,0.003,0.969-0.784,0.615-1.354l-3.754-5.995C61.006,334.879,60.763,334.744,60.506,334.758L60.506,334.758z M48.51,343.275
				v1.713v1.714h1.5h1.5v-1.714h-1.5v-1.713H48.51z M68.014,343.275v1.713h-1.5v1.714h1.5h1.501v-1.714v-1.713H68.014z"/>
			<path id="rect3441" inkscape:connector-curvature="0" fill="#EBECF4" d="M48.51,325.284v1.713v1.713h1.5v-1.713h1.5v-1.713h-1.5
				H48.51z M66.514,325.284v1.713h1.5v1.713h1.501v-1.713v-1.713h-1.501H66.514z M55.684,328.711c-1.039,0-1.874,0.956-1.874,2.142
				c0,1.187,0.83,2.142,1.868,2.142s1.88-0.955,1.88-2.142C57.558,329.666,56.722,328.711,55.684,328.711z M60.512,333.851
				c-0.229,0.017-0.438,0.146-0.569,0.36l-2.425,3.874l-0.866-1.32c-0.138-0.209-0.351-0.337-0.58-0.343
				c-0.244-0.007-0.474,0.12-0.62,0.343l-2.25,3.427c-0.37,0.564-0.017,1.37,0.601,1.37h4.5c0.003,0,0.006-0.001,0.01-0.001h5.987
				c0.61,0.003,0.969-0.785,0.615-1.354l-3.754-5.996C61.012,333.972,60.769,333.837,60.512,333.851z M48.51,342.418v1.714v1.713
				h1.5h1.5v-1.713h-1.5v-1.714H48.51z M68.014,342.418v1.714h-1.5v1.713h1.5h1.501v-1.713v-1.714H68.014z"/>
		</g>
	</g>
</g>
</svg>
