<?xml version="1.0" encoding="utf-8"?>
<!-- Generator: Adobe Illustrator 16.0.3, SVG Export Plug-In . SVG Version: 6.00 Build 0)  -->
<!DOCTYPE svg PUBLIC "-//W3C//DTD SVG 1.1//EN" "http://www.w3.org/Graphics/SVG/1.1/DTD/svg11.dtd">
<svg version="1.1"
	 id="svg8" sodipodi:docname="kdenlive.svg" inkscape:version="0.92.2 2405546, 2018-03-11" xmlns:inkscape="http://www.inkscape.org/namespaces/inkscape" xmlns:sodipodi="http://sodipodi.sourceforge.net/DTD/sodipodi-0.dtd" xmlns:svg="http://www.w3.org/2000/svg" xmlns:dc="http://purl.org/dc/elements/1.1/" xmlns:cc="http://creativecommons.org/ns#" xmlns:rdf="http://www.w3.org/1999/02/22-rdf-syntax-ns#"
	 xmlns="http://www.w3.org/2000/svg" xmlns:xlink="http://www.w3.org/1999/xlink" x="0px" y="0px" width="24px" height="24px"
	 viewBox="4 4 24 24" enable-background="new 4 4 24 24" xml:space="preserve">
<title  id="title7895">Antu icon Theme</title>
<sodipodi:namedview  id="base" units="px" inkscape:object-paths="true" inkscape:bbox-nodes="true" inkscape:bbox-paths="true" inkscape:snap-bbox="true" inkscape:window-y="28" inkscape:window-x="0" inkscape:window-height="711" inkscape:window-width="1360" inkscape:current-layer="layer1" inkscape:document-units="px" inkscape:pageshadow="2" inkscape:pageopacity="0.0" guidetolerance="10" gridtolerance="10" inkscape:cy="11.590192" objecttolerance="10" inkscape:cx="118.40708" pagecolor="#ffffff" inkscape:zoom="0.98994949" bordercolor="#666666" showgrid="true" borderopacity="1.0" inkscape:snap-intersection-paths="true" inkscape:snap-bbox-midpoints="true" inkscape:snap-bbox-edge-midpoints="true" inkscape:window-maximized="1">
	<inkscape:grid  id="grid7897" type="xygrid" empspacing="4"></inkscape:grid>
</sodipodi:namedview>
<g id="layer1" transform="translate(0,-282.64999)" inkscape:label="Capa 1" inkscape:groupmode="layer">
	<g id="g2211" transform="translate(52)">
		<g id="g1445" transform="translate(-51.999641,-4e-6)">
			<path id="rect843" inkscape:connector-curvature="0" d="M5.654,286.7h20.861c0.889,0,1.604,0.716,1.604,1.605v20.861
				c0,0.889-0.716,1.604-1.604,1.604H5.654c-0.889,0-1.604-0.716-1.604-1.604v-20.861C4.05,287.416,4.766,286.7,5.654,286.7z"/>
			
				<linearGradient id="rect843-3_1_" gradientUnits="userSpaceOnUse" x1="-401.1473" y1="496.2096" x2="-401.1473" y2="490.9027" gradientTransform="matrix(3.7795 0 0 3.7795 1532.2194 -1565.4562)">
				<stop  offset="0" style="stop-color:#E4EFEF"/>
				<stop  offset="1" style="stop-color:#FCFCFC"/>
			</linearGradient>
			<path id="rect843-3" inkscape:connector-curvature="0" fill="url(#rect843-3_1_)" d="M5.654,287.502h20.861
				c0.444,0,0.802,0.358,0.802,0.803v20.861c0,0.444-0.357,0.802-0.802,0.802H5.654c-0.444,0-0.802-0.357-0.802-0.802v-20.861
				C4.852,287.86,5.209,287.502,5.654,287.502z"/>
			<path id="rect4183" inkscape:connector-curvature="0" fill="#145CD8" d="M10.87,291.514h1.605c0.667,0,1.203,0.537,1.203,1.204
				c0,0.667-0.537,1.204-1.203,1.204H10.87c-0.667,0-1.203-0.537-1.203-1.204C9.667,292.051,10.203,291.514,10.87,291.514z"/>
			<path id="rect4187" inkscape:connector-curvature="0" fill="#145CD8" d="M8.445,294.723h4.047c0.657,0,1.186,0.529,1.186,1.186
				v0.036c0,0.657-0.529,1.186-1.186,1.186H8.445c-0.656,0-1.186-0.528-1.186-1.186v-0.036
				C7.259,295.252,7.788,294.723,8.445,294.723z"/>
			<path id="rect4189" inkscape:connector-curvature="0" fill="#145CD8" d="M6.858,297.933h5.617c0.667,0,1.203,0.537,1.203,1.203
				c0,0.667-0.537,1.204-1.203,1.204H6.858c-0.667,0-1.204-0.536-1.204-1.204C5.654,298.469,6.191,297.933,6.858,297.933z"/>
			<path id="rect4183-7" inkscape:connector-curvature="0" fill="#145CD8" d="M10.87,304.351h1.605c0.667,0,1.203,0.537,1.203,1.204
				c0,0.666-0.537,1.202-1.203,1.202H10.87c-0.667,0-1.203-0.536-1.203-1.202C9.667,304.888,10.203,304.351,10.87,304.351z"/>
			<path id="rect4187-9" inkscape:connector-curvature="0" fill="#145CD8" d="M8.463,301.131h4.012c0.667,0,1.203,0.537,1.203,1.202
				c0,0.669-0.537,1.204-1.203,1.204H8.463c-0.667,0-1.204-0.535-1.204-1.204C7.259,301.669,7.796,301.131,8.463,301.131z"/>
			
				<linearGradient id="rect4415_1_" gradientUnits="userSpaceOnUse" x1="16.3849" y1="1078.4283" x2="16.3849" y2="1077.6266" gradientTransform="matrix(1 0 0 1 -6.7188 -778.8906)">
				<stop  offset="0" style="stop-color:#306DEE"/>
				<stop  offset="1" style="stop-color:#5795FB"/>
			</linearGradient>
			<path id="rect4415" inkscape:connector-curvature="0" fill="url(#rect4415_1_)" d="M6.858,298.735h5.617
				c0.222,0,0.401,0.179,0.401,0.4c0,0.223-0.179,0.401-0.401,0.401H6.858c-0.223,0-0.401-0.178-0.401-0.401
				C6.457,298.914,6.635,298.735,6.858,298.735z"/>
			
				<linearGradient id="rect4417_1_" gradientUnits="userSpaceOnUse" x1="17.1871" y1="1075.2194" x2="17.1871" y2="1074.4166" gradientTransform="matrix(1 0 0 1 -6.7188 -778.8906)">
				<stop  offset="0" style="stop-color:#306DEE"/>
				<stop  offset="1" style="stop-color:#5795FB"/>
			</linearGradient>
			<path id="rect4417" inkscape:connector-curvature="0" fill="url(#rect4417_1_)" d="M8.463,295.526h4.012
				c0.222,0,0.401,0.179,0.401,0.401s-0.179,0.401-0.401,0.401H8.463c-0.223,0-0.401-0.179-0.401-0.401S8.24,295.526,8.463,295.526z
				"/>
			
				<linearGradient id="rect4419_1_" gradientUnits="userSpaceOnUse" x1="18.3903" y1="1072.0094" x2="18.3903" y2="1071.2076" gradientTransform="matrix(1 0 0 1 -6.7188 -778.8906)">
				<stop  offset="0" style="stop-color:#306DEE"/>
				<stop  offset="1" style="stop-color:#5795FB"/>
			</linearGradient>
			<path id="rect4419" inkscape:connector-curvature="0" fill="url(#rect4419_1_)" d="M10.87,292.317h1.605
				c0.222,0,0.401,0.179,0.401,0.401s-0.179,0.401-0.401,0.401H10.87c-0.223,0-0.401-0.179-0.401-0.401
				S10.647,292.317,10.87,292.317z"/>
			
				<linearGradient id="rect4421_1_" gradientUnits="userSpaceOnUse" x1="17.1871" y1="1081.6383" x2="17.1871" y2="1080.8356" gradientTransform="matrix(1 0 0 1 -6.7188 -778.8906)">
				<stop  offset="0" style="stop-color:#306DEE"/>
				<stop  offset="1" style="stop-color:#5795FB"/>
			</linearGradient>
			<path id="rect4421" inkscape:connector-curvature="0" fill="url(#rect4421_1_)" d="M8.463,301.944h4.012
				c0.222,0,0.401,0.179,0.401,0.401s-0.179,0.401-0.401,0.401H8.463c-0.223,0-0.401-0.179-0.401-0.401S8.24,301.944,8.463,301.944z
				"/>
			
				<linearGradient id="rect4423_1_" gradientUnits="userSpaceOnUse" x1="18.3903" y1="1084.8483" x2="18.3903" y2="1084.0455" gradientTransform="matrix(1 0 0 1 -6.7188 -778.8906)">
				<stop  offset="0" style="stop-color:#306DEE"/>
				<stop  offset="1" style="stop-color:#5795FB"/>
			</linearGradient>
			<path id="rect4423" inkscape:connector-curvature="0" fill="url(#rect4423_1_)" d="M10.87,305.154h1.605
				c0.222,0,0.401,0.179,0.401,0.401s-0.179,0.401-0.401,0.401H10.87c-0.223,0-0.401-0.179-0.401-0.401
				S10.647,305.154,10.87,305.154z"/>
			<path id="path1347" sodipodi:nodetypes="cccccccc" inkscape:connector-curvature="0" d="M19.329,293.119
				c-0.455-0.019-0.837,0.345-0.837,0.802v9.629c0.001,0.66,0.755,1.036,1.284,0.641l6.419-4.814c0.427-0.321,0.427-0.961,0-1.282
				l-6.419-4.814C19.646,293.182,19.49,293.126,19.329,293.119z"/>
			<path id="path1351" inkscape:connector-curvature="0" fill="#3D9E29" d="M19.294,303.549v-9.628l6.419,4.814L19.294,303.549z"/>
			<path id="rect1361" inkscape:connector-curvature="0" d="M16.085,289.909c0.889,0,1.604,0.715,1.604,1.604v15.244
				c0,0.89-0.715,1.605-1.604,1.605c-0.889,0-1.605-0.716-1.605-1.605v-15.244C14.48,290.625,15.196,289.909,16.085,289.909z"/>
			<path id="rect1361-0" inkscape:connector-curvature="0" fill="#3D9E29" d="M16.085,290.712c0.445,0,0.801,0.357,0.801,0.802
				v15.244c0,0.445-0.356,0.803-0.801,0.803c-0.446,0-0.802-0.357-0.802-0.803v-15.244C15.283,291.069,15.64,290.712,16.085,290.712
				z"/>
		</g>
	</g>
</g>
</svg>
