<?xml version="1.0" encoding="UTF-8" standalone="no"?>
<svg
   version="1.1"
   width="28"
   height="28"
   color-interpolation="linearRGB"
   id="svg55"
   sodipodi:docname="kanban.svg"
   inkscape:version="1.2.2 (b0a8486541, 2022-12-01)"
   xmlns:inkscape="http://www.inkscape.org/namespaces/inkscape"
   xmlns:sodipodi="http://sodipodi.sourceforge.net/DTD/sodipodi-0.dtd"
   xmlns="http://www.w3.org/2000/svg"
   xmlns:svg="http://www.w3.org/2000/svg">
  <defs
     id="defs59" />
  <sodipodi:namedview
     id="namedview57"
     pagecolor="#ffffff"
     bordercolor="#000000"
     borderopacity="0.25"
     inkscape:showpageshadow="2"
     inkscape:pageopacity="0.0"
     inkscape:pagecheckerboard="0"
     inkscape:deskcolor="#d1d1d1"
     showgrid="false"
     inkscape:zoom="12.9375"
     inkscape:cx="26.512077"
     inkscape:cy="19.63285"
     inkscape:window-width="1920"
     inkscape:window-height="1008"
     inkscape:window-x="0"
     inkscape:window-y="0"
     inkscape:window-maximized="1"
     inkscape:current-layer="svg55" />
  <g
     id="g53"
     transform="matrix(0.40748949,0,0,0.40748949,1.7198643,1.3232754)">
    <linearGradient
       id="gradient0"
       gradientUnits="userSpaceOnUse"
       x1="79"
       y1="7"
       x2="79"
       y2="59">
      <stop
         offset="0"
         stop-color="#010101"
         stop-opacity="0.4"
         id="stop2" />
      <stop
         offset="1"
         stop-color="#010101"
         stop-opacity="0.5215"
         id="stop4" />
    </linearGradient>
    <path
       style="fill:url(#gradient0)"
       d="m 4,58 h 5 c 6,-4 11,-9 11,-9 l 10,11 c 0,0 2,-1 3,-8 8,4 22,3 25,0 0,-8 -13,-9 -13,-9 8,-1 18,-8 19,-12 0,-5 -14,-5 -14,-5 6,-4 10,-11 8,-15 -1.75,-1.25 -6,0 -6,0 L 5,46 c 3,2 9,2 9,2 z"
       id="path7" />
    <path
       style="fill:none;stroke:#000000;stroke-width:4"
       d="M 46,26 C 46,26 56,14 50,6 41.5,7.5 35,21 35,21 L 31,34 Z M 6,22 c -1,9 6,18 6,18 -4,0 -7,3 -7,3 0,0 4,2 14,1 L 31,34 35,21 c 0,0 -2,-8 -11,-11 -7,8 -3,20 -3,20 0,0 -5,-9 -15,-8 z m 15,23 c 0,9 6,12 6,12 0,0 4,-5 3,-8 0,0 13,6 23,1 C 54,44 40,41 40,41 40,41 57,38 60,27 59,23 46,26 46,26 L 31,34 Z M 19,44 C 13,49 3,53 3,53 l 4,1 c 0,0 9,-5 14,-9 z"
       id="path9" />
    <radialGradient
       id="gradient1"
       gradientUnits="userSpaceOnUse"
       cx="0"
       cy="0"
       r="64"
       gradientTransform="matrix(0.082,0.3615,-1.0116,0.2297,35.3897,34.0001)">
      <stop
         offset="0"
         stop-color="#fdb33d"
         id="stop11" />
      <stop
         offset="1"
         stop-color="#da4c05"
         id="stop13" />
    </radialGradient>
    <path
       style="fill:url(#gradient1)"
       d="m 6,22 c -1,9 6,18 6,18 -4,0 -7,3 -7,3 0,0 4,2 14,1 L 31,34 35,21 c 0,0 -2,-8 -11,-11 -7,8 -3,20 -3,20 0,0 -5,-9 -15,-8 z"
       id="path16" />
    <radialGradient
       id="gradient2"
       gradientUnits="userSpaceOnUse"
       cx="0"
       cy="0"
       r="64"
       gradientTransform="matrix(-0.3947,0.4201,-0.322,-0.3026,34.7895,39.1253)">
      <stop
         offset="0"
         stop-color="#fdd15b"
         id="stop18" />
      <stop
         offset="1"
         stop-color="#da4c05"
         id="stop20" />
    </radialGradient>
    <path
       style="fill:url(#gradient2)"
       d="m 21,45 c 0,9 6,12 6,12 0,0 4,-5 3,-8 0,0 13,6 23,1 1,-6 -13,-9 -13,-9 0,0 17,-3 20,-14 -1,-4 -14,-1 -14,-1 l -15,8 z"
       id="path23" />
    <radialGradient
       id="gradient3"
       gradientUnits="userSpaceOnUse"
       cx="0"
       cy="0"
       r="64"
       gradientTransform="matrix(0.1608,0.3371,-0.6549,0.3123,45.3836,7.9101)">
      <stop
         offset="0"
         stop-color="#da4c05"
         id="stop25" />
      <stop
         offset="0.9963"
         stop-color="#ffb643"
         id="stop27" />
    </radialGradient>
    <path
       style="fill:url(#gradient3)"
       d="M 46,26 C 46,26 56,14 50,6 41.5,7.5 35,21 35,21 l -4,13 z"
       id="path30" />
    <linearGradient
       id="gradient4"
       gradientUnits="userSpaceOnUse"
       x1="-50.59"
       y1="-20.959999"
       x2="-21.6"
       y2="-47.939999">
      <stop
         offset="0"
         stop-color="#c58430"
         id="stop32" />
      <stop
         offset="1"
         stop-color="#dd7a29"
         id="stop34" />
    </linearGradient>
    <path
       style="fill:url(#gradient4)"
       d="m 19.37,44.5 c 0,0 2,-1.82 3.88,-3.5 C 19,38 14,32 14,32 c 0,0 7,6 10.57,7.82 C 26.4,38.16 26.8,37.93 29.71,35.1 29,27 26,19 26,19 c 0,0 5,9 5.37,14.5 6,-6 14,-16 14,-16 0,0 -6.37,10.5 -12.6,16.77 C 40.37,35.5 50,32 50,32 c 0,0 -10.63,4.5 -18.54,3.69 -2.73,2.93 -3.11,3.3 -4.97,5.07 C 32.37,44.5 42,47 42,47 c 0,0 -8.29,-0.91 -16,-5 -1.84,1.7 -5,5 -5,5 z"
       id="path37" />
    <linearGradient
       id="gradient5"
       gradientUnits="userSpaceOnUse"
       x1="39.75"
       y1="35.259998"
       x2="42.450001"
       y2="41.73">
      <stop
         offset="0"
         stop-color="#ffd75f"
         id="stop39" />
      <stop
         offset="1"
         stop-color="#a4370b"
         id="stop41" />
    </linearGradient>
    <path
       style="fill:url(#gradient5)"
       d="M 19,44 C 13,49 3,53 3,53 l 4,1 c 0,0 9,-5 14,-9 z"
       id="path44" />
    <linearGradient
       id="gradient6"
       gradientUnits="userSpaceOnUse"
       x1="-50.970001"
       y1="-21.459999"
       x2="-21.969999"
       y2="-48.439999">
      <stop
         offset="0"
         stop-color="#ffd760"
         id="stop46" />
      <stop
         offset="1"
         stop-color="#ed9d46"
         id="stop48" />
    </linearGradient>
    <path
       style="fill:url(#gradient6)"
       d="m 19,44 c 0,0 6,-4 11,-9 C 37.54,27.45 45,17 45,17 45,17 39,27 32.39,33.77 40,35 50,32 50,32 c 0,0 -11,4 -18.92,3.19 -2.72,2.93 -3.11,3.3 -4.96,5.07 C 32,44 42,47 42,47 42,47 33.12,45.12 25.03,41.52 23.19,43.23 21,45 21,45 Z"
       id="path51" />
  </g>
</svg>
