<?xml version="1.0" encoding="UTF-8" standalone="no"?>
<svg
   width="28"
   height="28"
   viewBox="0 0 26.25 26.25"
   version="1.1"
   id="svg28"
   sodipodi:docname="kitty.svg"
   inkscape:version="1.2.2 (b0a8486541, 2022-12-01)"
   xmlns:inkscape="http://www.inkscape.org/namespaces/inkscape"
   xmlns:sodipodi="http://sodipodi.sourceforge.net/DTD/sodipodi-0.dtd"
   xmlns="http://www.w3.org/2000/svg"
   xmlns:svg="http://www.w3.org/2000/svg">
  <defs
     id="defs32" />
  <sodipodi:namedview
     id="namedview30"
     pagecolor="#ffffff"
     bordercolor="#000000"
     borderopacity="0.25"
     inkscape:showpageshadow="2"
     inkscape:pageopacity="0.0"
     inkscape:pagecheckerboard="0"
     inkscape:deskcolor="#d1d1d1"
     showgrid="false"
     inkscape:zoom="19.398629"
     inkscape:cx="13.660759"
     inkscape:cy="15.928961"
     inkscape:window-width="1920"
     inkscape:window-height="1016"
     inkscape:window-x="0"
     inkscape:window-y="0"
     inkscape:window-maximized="1"
     inkscape:current-layer="svg28" />
  <g
     id="g408">
    <g
       transform="matrix(0.11124603,0,0,0.11124603,-0.09865028,-90.629378)"
       id="g26">
      <rect
         width="100.446"
         height="161.55099"
         x="72.823997"
         y="850.13"
         ry="0"
         style="fill:#ececec;fill-opacity:1;fill-rule:evenodd;stroke:none;stroke-width:5.86877;stroke-linecap:round;stroke-linejoin:round;stroke-miterlimit:4;stroke-dasharray:none;stroke-opacity:1"
         id="rect2" />
      <path
         d="m 67.896,1029.71 h 104.208 a 7.065,7.065 0 0 0 7.065,-7.066 V 918.436 a 7.065,7.065 0 0 0 -7.065,-7.065 H 67.896 a 7.065,7.065 0 0 0 -7.065,7.065 v 104.208 a 7.065,7.065 0 0 0 7.065,7.065 m 55.813,-38.35 h 37.444 a 4.2395,4.2395 0 0 1 0,8.479 H 123.71 a 4.239,4.239 0 0 1 0,-8.478 M 78.678,945.65 a 4.239,4.239 0 0 1 5.991,-5.99 l 26.48,26.464 a 4.24,4.24 0 0 1 0,5.992 l -26.48,26.48 a 4.239,4.239 0 0 1 -5.991,-5.992 l 23.484,-23.484 z"
         style="stroke-width:1.413"
         id="path4" />
      <path
         d="m 96.085,898.143 c 1.881,0 3.386,-3.574 3.386,-8.17 0,-4.595 -1.505,-8.169 -3.386,-8.169 -1.88,0 -3.385,3.574 -3.385,8.17 0,4.595 1.504,8.17 3.385,8.17"
         style="clip-rule:evenodd;fill:#c0c81f;fill-opacity:1;fill-rule:evenodd;stroke-width:3.09914"
         id="path6" />
      <path
         d="m 193.128,836.886 c -4.596,-4.85 -25.53,1.022 -38.295,8.936 -9.957,-5.106 -21.956,-8.17 -34.721,-8.17 -13.02,0 -25.02,3.064 -34.977,8.17 C 72.37,837.908 51.18,831.78 46.84,836.886 c -4.595,5.106 3.32,26.296 12.765,38.04 -0.766,3.064 -1.276,6.128 -1.276,9.446 0,10.212 4.34,19.659 11.744,27.318 h 42.124 c -1.276,-2.553 0.511,-4.085 8.17,-4.085 7.659,0.255 9.19,1.532 8.17,4.085 h 42.124 c 7.404,-7.66 11.744,-17.36 11.744,-27.318 0,-3.318 -0.51,-6.382 -1.276,-9.446 8.935,-11.744 16.594,-33.189 11.999,-38.04 m -97.015,67.4 c -8.935,0 -16.339,-7.404 -16.339,-16.34 0,-8.936 7.404,-16.339 16.34,-16.339 8.936,0 16.339,7.404 16.339,16.34 0,8.936 -7.404,16.339 -16.34,16.339 m 47.997,0 c -8.936,0 -16.34,-7.404 -16.34,-16.34 0,-8.936 7.404,-16.339 16.34,-16.339 8.936,0 16.34,7.404 16.34,16.34 0,8.936 -7.15,16.339 -16.34,16.339"
         style="clip-rule:evenodd;fill:#784421;fill-opacity:1;fill-rule:evenodd;stroke-width:2.55301"
         id="path8" />
      <g
         style="fill:#2b1100;fill-opacity:1"
         id="g14">
        <path
           d="m 168.507,903.265 c 15.318,-19.148 46.72,-28.339 67.655,-15.063 -24.509,-3.83 -46.72,2.553 -67.655,15.063"
           style="clip-rule:evenodd;fill:#2b1100;fill-opacity:1;fill-rule:evenodd;stroke-width:2.55301"
           id="path10" />
        <path
           d="m 167.486,898.67 c 8.68,-20.425 34.466,-33.7 55.145,-26.552 -21.7,2.808 -39.316,11.233 -55.145,26.551 m -0.256,9.957 c 15.83,-15.063 50.806,-20.169 61.528,-4.34 -21.7,-6.893 -40.593,-3.83 -61.527,4.34"
           style="clip-rule:evenodd;fill:#2b1100;fill-opacity:1;fill-rule:evenodd;stroke-width:2.55301"
           id="path12" />
      </g>
      <g
         style="fill:#2b1100;fill-opacity:1"
         id="g20">
        <path
           d="M 71.493,903.265 C 56.175,884.117 24.773,874.926 3.838,888.202 c 24.509,-3.83 46.72,2.553 67.655,15.063"
           style="clip-rule:evenodd;fill:#2b1100;fill-opacity:1;fill-rule:evenodd;stroke-width:2.55301"
           id="path16" />
        <path
           d="m 72.514,898.67 c -8.68,-20.425 -34.466,-33.7 -55.145,-26.552 21.7,2.808 39.316,11.233 55.145,26.551 m 0.256,9.957 c -15.83,-15.063 -50.806,-20.169 -61.528,-4.34 21.7,-6.893 40.593,-3.83 61.527,4.34"
           style="clip-rule:evenodd;fill:#2b1100;fill-opacity:1;fill-rule:evenodd;stroke-width:2.55301"
           id="path18" />
      </g>
      <path
         d="m 52.6,893.563 c -6.382,0 -11.743,3.32 -14.296,8.425 h -0.766 c -6.893,0 -12.765,5.106 -12.765,11.489 0,8.935 9.19,13.786 17.615,10.722 5.106,7.404 16.084,7.915 20.17,0 6.126,-0.255 16.083,-1.276 17.615,-10.722 1.021,-6.383 -5.617,-11.489 -12.765,-11.489 h -0.766 c -2.042,-5.106 -7.659,-8.425 -14.041,-8.425 m 134.8,0 c 6.382,0 11.743,3.32 14.296,8.425 h 0.766 c 3.574,0 12.765,5.106 12.765,11.489 0,8.935 -9.19,13.786 -17.615,10.722 -5.107,7.404 -16.084,7.915 -20.17,0 -6.126,-0.255 -16.083,-1.276 -17.615,-10.722 -1.021,-6.383 9.19,-11.489 12.765,-11.489 h 0.766 c 2.042,-5.106 7.659,-8.425 14.041,-8.425"
         style="clip-rule:evenodd;fill:#483737;fill-opacity:1;fill-rule:evenodd;stroke-width:2.55301"
         id="path22" />
      <path
         d="m 143.542,898.143 c 1.881,0 3.386,-3.574 3.386,-8.17 0,-4.595 -1.505,-8.169 -3.386,-8.169 -1.88,0 -3.386,3.574 -3.386,8.17 0,4.595 1.505,8.17 3.386,8.17"
         style="clip-rule:evenodd;fill:#c0c81f;fill-opacity:1;fill-rule:evenodd;stroke-width:3.09914"
         id="path24" />
    </g>
  </g>
</svg>
