<?xml version="1.0" encoding="utf-8"?>
<!-- Generator: Adobe Illustrator 16.0.3, SVG Export Plug-In . SVG Version: 6.00 Build 0)  -->
<!DOCTYPE svg PUBLIC "-//W3C//DTD SVG 1.1//EN" "http://www.w3.org/Graphics/SVG/1.1/DTD/svg11.dtd">
<svg version="1.1"
	 id="svg1399" sodipodi:docname="preferences-system-network-server-dns.svg" inkscape:version="0.92.4 5da689c313, 2019-01-14" xmlns:dc="http://purl.org/dc/elements/1.1/" xmlns:cc="http://creativecommons.org/ns#" xmlns:rdf="http://www.w3.org/1999/02/22-rdf-syntax-ns#" xmlns:svg="http://www.w3.org/2000/svg" xmlns:sodipodi="http://sodipodi.sourceforge.net/DTD/sodipodi-0.dtd" xmlns:inkscape="http://www.inkscape.org/namespaces/inkscape"
	 xmlns="http://www.w3.org/2000/svg" xmlns:xlink="http://www.w3.org/1999/xlink" x="0px" y="0px" width="24px" height="24px"
	 viewBox="4 4 24 24" enable-background="new 4 4 24 24" xml:space="preserve">
<sodipodi:namedview  id="base" units="px" inkscape:window-y="0" inkscape:window-x="0" inkscape:window-height="1003" inkscape:window-width="1920" inkscape:showpageshadow="false" inkscape:current-layer="layer1" inkscape:document-units="mm" inkscape:pageshadow="2" inkscape:pageopacity="0.0" inkscape:cy="25.440882" inkscape:cx="27.350986" inkscape:zoom="15.839192" borderopacity="1.0" bordercolor="#666666" showgrid="true" pagecolor="#ffffff" inkscape:window-maximized="1">
	<inkscape:grid  id="grid2185" type="xygrid"></inkscape:grid>
</sodipodi:namedview>
<g id="layer1" transform="translate(0,-288.53338)" inkscape:groupmode="layer" inkscape:label="Capa 1">
	<g id="g2183" transform="translate(14.687567,0.87685667)">
		<path id="rect842" inkscape:connector-curvature="0" fill="#363C4D" d="M-8.748,307.945H9.866c0.858,0,1.552,0.691,1.552,1.551
			v3.878c0,0.858-0.693,1.551-1.552,1.551H-8.748c-0.86,0-1.552-0.692-1.552-1.551v-3.878
			C-10.3,308.636-9.608,307.945-8.748,307.945z"/>
		
			<linearGradient id="path1024_1_" gradientUnits="userSpaceOnUse" x1="-232.6114" y1="591.4525" x2="-232.6114" y2="592.2736" gradientTransform="matrix(3.7795 0 0 -3.7795 879.7181 2549.5605)">
			<stop  offset="0" style="stop-color:#CEE3E3"/>
			<stop  offset="1" style="stop-color:#FCFCFC"/>
		</linearGradient>
		<path id="path1024" inkscape:connector-curvature="0" fill="url(#path1024_1_)" d="M-8.748,308.719
			c-0.43,0-0.776,0.348-0.776,0.776v3.878c0,0.43,0.346,0.775,0.776,0.775h0.775v-1.551H6.764v1.551h3.103
			c0.43,0,0.775-0.346,0.775-0.775v-3.878c0-0.429-0.346-0.776-0.775-0.776H-8.748z M-7.197,313.373v0.775h1.551v-0.775H-7.197z
			 M-4.87,313.373v0.775h1.551v-0.775H-4.87z M-2.544,313.373v0.775h1.551v-0.775H-2.544z M-0.217,313.373v0.775h1.551v-0.775
			H-0.217z M2.11,313.373v0.775h1.552v-0.775H2.11z M4.436,313.373v0.775h1.552v-0.775H4.436z"/>
		<path id="rect838" inkscape:connector-curvature="0" fill="#363C4D" d="M-8.748,291.657H9.866c0.858,0,1.552,0.692,1.552,1.551
			v17.063c0,0.859-0.693,1.551-1.552,1.551H-8.748c-0.86,0-1.552-0.691-1.552-1.551v-17.063
			C-10.3,292.348-9.608,291.657-8.748,291.657z"/>
		
			<linearGradient id="rect840_1_" gradientUnits="userSpaceOnUse" x1="-232.6114" y1="592.2728" x2="-232.6114" y2="597.1985" gradientTransform="matrix(3.7795 0 0 -3.7795 879.7181 2549.5605)">
			<stop  offset="0" style="stop-color:#5B637B"/>
			<stop  offset="1" style="stop-color:#727B97"/>
		</linearGradient>
		
			<path id="rect840" sodipodi:nodetypes="sssssssssssssssssssssssssssssssssssssss" inkscape:connector-curvature="0" fill="url(#rect840_1_)" d="
			M-8.748,292.432c-0.43,0-0.776,0.346-0.776,0.776v17.063c0,0.431,0.346,0.776,0.776,0.776H9.866c0.43,0,0.775-0.346,0.775-0.776
			v-17.063c0-0.43-0.346-0.776-0.775-0.776H-8.748z M-7.973,293.208c0.43,0,0.776,0.346,0.776,0.775c0,0.43-0.346,0.776-0.776,0.776
			s-0.775-0.346-0.775-0.776C-8.748,293.554-8.402,293.208-7.973,293.208z M9.091,293.208c0.43,0,0.775,0.346,0.775,0.775
			c0,0.43-0.346,0.776-0.775,0.776c-0.431,0-0.775-0.346-0.775-0.776C8.315,293.554,8.66,293.208,9.091,293.208z M-7.973,300.188
			c0.43,0,0.776,0.347,0.776,0.776c0,0.43-0.346,0.775-0.776,0.775s-0.775-0.345-0.775-0.775
			C-8.748,300.534-8.402,300.188-7.973,300.188z M9.091,300.188c0.43,0,0.775,0.347,0.775,0.776c0,0.43-0.346,0.775-0.775,0.775
			c-0.431,0-0.775-0.345-0.775-0.775C8.315,300.534,8.66,300.188,9.091,300.188z M-7.973,308.719c0.43,0,0.776,0.348,0.776,0.776
			c0,0.43-0.346,0.775-0.776,0.775s-0.775-0.346-0.775-0.775C-8.748,309.067-8.402,308.719-7.973,308.719z M9.091,308.719
			c0.43,0,0.775,0.348,0.775,0.776c0,0.43-0.346,0.775-0.775,0.775c-0.431,0-0.775-0.346-0.775-0.775
			C8.315,309.067,8.66,308.719,9.091,308.719z"/>
		<path id="rect883" inkscape:connector-curvature="0" fill="#90A4AE" d="M0.559,301.739h10.859c0.857,0,1.551,0.692,1.551,1.551
			v10.858c0,0.859-0.693,1.552-1.551,1.552H0.559c-0.859,0-1.551-0.692-1.551-1.552V303.29
			C-0.992,302.431-0.3,301.739,0.559,301.739z"/>
		
			<linearGradient id="rect885_1_" gradientUnits="userSpaceOnUse" x1="-231.1749" y1="591.2474" x2="-231.1749" y2="594.5306" gradientTransform="matrix(3.7795 0 0 -3.7795 879.7181 2549.5605)">
			<stop  offset="0" style="stop-color:#CEE3E3"/>
			<stop  offset="1" style="stop-color:#FCFCFC"/>
		</linearGradient>
		<path id="rect885" inkscape:connector-curvature="0" fill="url(#rect885_1_)" d="M0.559,302.515h10.859
			c0.43,0,0.774,0.346,0.774,0.775v10.858c0,0.43-0.345,0.775-0.774,0.775H0.559c-0.431,0-0.776-0.346-0.776-0.775V303.29
			C-0.217,302.861,0.128,302.515,0.559,302.515z"/>
		
			<linearGradient id="rect897_1_" gradientUnits="userSpaceOnUse" x1="-231.1749" y1="591.4525" x2="-231.1749" y2="594.1204" gradientTransform="matrix(3.7795 0 0 -3.7795 879.7181 2549.5605)">
			<stop  offset="0" style="stop-color:#222731"/>
			<stop  offset="0.5" style="stop-color:#15181E"/>
			<stop  offset="1" style="stop-color:#090A0C"/>
		</linearGradient>
		<path id="rect897" inkscape:connector-curvature="0" fill="url(#rect897_1_)" d="M1.334,304.066v1.551H0.559v2.327h0.775v0.774
			H0.559v2.328h0.775v1.551h2.328v0.775h1.551v0.775h1.551v-0.775h1.552v-0.775h2.326v-1.551h0.776v-2.328h-0.776v-0.774h0.776
			v-2.327h-0.776v-1.551H1.334z"/>
		
			<linearGradient id="rect941_1_" gradientUnits="userSpaceOnUse" x1="5.9882" y1="299.5941" x2="5.9882" y2="302.6956" gradientTransform="matrix(1 0 0 -1 0 608.3131)">
			<stop  offset="0" style="stop-color:#FFC900"/>
			<stop  offset="1" style="stop-color:#FFE200"/>
		</linearGradient>
		<path id="rect941" inkscape:connector-curvature="0" fill="url(#rect941_1_)" d="M2.11,305.617v3.102h1.552v-3.102H2.11z
			 M5.213,305.617v3.102h1.551v-3.102H5.213z M8.315,305.617v3.102h1.551v-3.102H8.315z"/>
	</g>
</g>
</svg>
