<?xml version="1.0" encoding="UTF-8" standalone="no"?>
<svg
   version="1.1"
   width="28"
   height="28"
   color-interpolation="linearRGB"
   id="svg49"
   sodipodi:docname="logfile.svg"
   inkscape:version="1.2.2 (b0a8486541, 2022-12-01)"
   xmlns:inkscape="http://www.inkscape.org/namespaces/inkscape"
   xmlns:sodipodi="http://sodipodi.sourceforge.net/DTD/sodipodi-0.dtd"
   xmlns="http://www.w3.org/2000/svg"
   xmlns:svg="http://www.w3.org/2000/svg">
  <defs
     id="defs53">
    <radialGradient
       id="gradient0"
       gradientUnits="userSpaceOnUse"
       cx="0"
       cy="0"
       r="64"
       gradientTransform="matrix(0.24133065,0,0,0.14076918,11.54895,12.342643)">
      <stop
         offset="1"
         stop-color="#fffcc0"
         id="stop6" />
      <stop
         offset="0.4886"
         stop-color="#f1b706"
         id="stop8" />
    </radialGradient>
    <linearGradient
       id="gradient1"
       gradientUnits="userSpaceOnUse"
       x1="107.04"
       y1="-17.09"
       x2="118.33"
       y2="27.99"
       gradientTransform="matrix(0.42234976,0,0,0.42234976,0.56785617,-2.4395986)">
      <stop
         offset="0"
         stop-color="#ffefa5"
         id="stop15" />
      <stop
         offset="0.7424"
         stop-color="#fffcc0"
         id="stop17" />
      <stop
         offset="1"
         stop-color="#fff890"
         id="stop19" />
    </linearGradient>
    <linearGradient
       id="gradient2"
       gradientUnits="userSpaceOnUse"
       x1="-47.139999"
       y1="-15.78"
       x2="-28.459999"
       y2="-37.849998"
       gradientTransform="matrix(0.42234976,0,0,0.42234976,0.56785617,-2.4395986)">
      <stop
         offset="0"
         stop-color="#010101"
         id="stop24" />
      <stop
         offset="1"
         stop-color="#9e9e9e"
         id="stop26" />
    </linearGradient>
    <linearGradient
       id="gradient3"
       gradientUnits="userSpaceOnUse"
       x1="-47.139999"
       y1="-15.78"
       x2="-28.459999"
       y2="-37.849998"
       gradientTransform="matrix(0.42234976,0,0,0.42234976,0.56785617,-2.4395986)">
      <stop
         offset="0"
         stop-color="#010101"
         id="stop31" />
      <stop
         offset="1"
         stop-color="#9e9e9e"
         id="stop33" />
    </linearGradient>
    <linearGradient
       id="gradient4"
       gradientUnits="userSpaceOnUse"
       x1="21.959999"
       y1="-0.0099999998"
       x2="57.169998"
       y2="22.58"
       gradientTransform="matrix(0.42234976,0,0,0.42234976,0.56785617,1.5604014)">
      <stop
         offset="0"
         stop-color="#fdfdfd"
         id="stop40" />
      <stop
         offset="1"
         stop-color="#8d8d8d"
         id="stop42" />
    </linearGradient>
  </defs>
  <sodipodi:namedview
     id="namedview51"
     pagecolor="#ffffff"
     bordercolor="#000000"
     borderopacity="0.25"
     inkscape:showpageshadow="2"
     inkscape:pageopacity="0.0"
     inkscape:pagecheckerboard="0"
     inkscape:deskcolor="#d1d1d1"
     showgrid="false"
     inkscape:zoom="12.9375"
     inkscape:cx="32.038647"
     inkscape:cy="19.63285"
     inkscape:window-width="1920"
     inkscape:window-height="1008"
     inkscape:window-x="0"
     inkscape:window-y="0"
     inkscape:window-maximized="1"
     inkscape:current-layer="svg49" />
  <g
     id="g417"
     transform="translate(0.13901155,1.2039813)">
    <path
       style="fill:#010101;fill-opacity:0.5725;stroke-width:0.42235"
       d="m 11.9713,21.634338 0.844699,0.844699 1.321955,-1.338848 2.056843,1.338848 3.543515,-4.840128 7.859929,-4.029217 -2.111749,-1.267049 0.8447,0.8447 -10.558744,5.068197 z m 13.092842,-9.714045 1.689399,-1.267049 -1.689399,-0.8446996 -1.267049,1.2670496 z"
       id="path2" />
    <path
       style="fill:none;stroke:#010101;stroke-width:1.6894"
       d="m 3.2075422,10.230894 c 0,0 2.3736056,2.534099 4.4853544,5.279372 2.1117488,2.745274 3.9616404,5.596135 3.9616404,5.596135 L 25.537174,13.132437 14.083048,3.8956478 Z"
       id="path4" />
    <path
       style="fill:url(#gradient0);stroke-width:0.42235"
       d="m 3.2075422,10.230894 c 0,0 2.3736056,2.534099 4.4853544,5.279372 2.1117488,2.745274 3.9616404,5.596135 3.9616404,5.596135 L 25.537174,13.132437 14.083048,3.8956478 Z"
       id="path11" />
    <path
       style="fill:none;stroke:#010101;stroke-width:1.6894"
       d="m 1.6744125,10.598338 c 0,0 3.5181735,2.276466 6.9180891,4.645848 3.5646324,2.483416 7.0743584,4.595165 7.0743584,4.595165 L 25.114824,8.6977646 c 0,0 -5.355395,-2.3947232 -9.608457,-4.6458474 C 13.314372,2.8904554 11.54895,1.5178187 11.54895,1.5178187 Z"
       id="path13" />
    <path
       style="fill:url(#gradient1);stroke-width:0.42235"
       d="m 1.6744125,10.598338 c 0,0 3.5181735,2.276466 6.9180891,4.645848 3.5646324,2.483416 7.0743584,4.595165 7.0743584,4.595165 L 25.114824,8.6977646 c 0,0 -5.355395,-2.3947232 -9.608457,-4.6458474 C 13.314372,2.8904554 11.54895,1.5178187 11.54895,1.5178187 Z"
       id="path22" />
    <path
       style="fill:none;stroke:url(#gradient2);stroke-width:0.42235"
       d="M 9.0148514,12.764993 15.295192,6.3748409 M 6.4807528,11.075594 11.916394,5.5850468 M 11.54895,14.454392 16.933909,8.9089395 m -2.850861,7.2348515 4.54026,-4.911928"
       id="path29" />
    <path
       style="fill:none;stroke:url(#gradient3);stroke-width:0.42235"
       d="M 12.815999,15.299091 19.151246,8.6977646 M 10.281901,13.609692 15.24451,8.6470826 M 7.7478021,11.920293 12.444331,7.113953"
       id="path36" />
    <path
       style="fill:none;stroke:#010101;stroke-width:1.6894"
       d="m 7.4521573,13.390418 c -0.984075,0.04646 -1.900574,0.363221 -2.681921,0.861594 0,0 -0.021117,0.523713 0.2069514,0.878487 l 0.4603612,0.722218 C 4.8462592,16.300408 4.394345,16.908592 4.1493821,17.626586 L 3.3384706,17.415411 c -0.4054558,-0.105587 -0.899605,0.06335 -0.899605,0.06335 -0.1182579,0.43502 -0.1731634,0.903828 -0.1731634,1.37686 0,0.50682 0.063352,0.988299 0.1858339,1.44866 0,0 0.4899257,0.173163 0.9038285,0.05913 l 0.8109115,-0.223846 c 0.2491864,0.692654 0.7011006,1.305061 1.2797198,1.740081 l -0.4561377,0.709548 c -0.2238454,0.354774 -0.2069514,0.882711 -0.2069514,0.882711 0.7771235,0.498373 1.689399,0.806688 2.673474,0.853146 0,0 0.3083153,-0.401232 0.3294328,-0.823582 l 0.038011,-0.853146 c 0.7686766,-0.01267 1.4782242,-0.261857 2.0737374,-0.663089 l 0.527938,0.654644 c 0.26608,0.325209 0.764453,0.477255 0.764453,0.477255 0.730665,-0.595513 1.309284,-1.372637 1.664058,-2.276465 0,0 -0.291422,-0.409679 -0.684207,-0.565949 l -0.794017,-0.316762 c 0.105587,-0.342103 0.160492,-0.717995 0.160492,-1.093886 0,-0.371668 -0.04646,-0.722218 -0.143598,-1.064321 l 0.78557,-0.291422 c 0.397009,-0.152046 0.692654,-0.587066 0.692654,-0.587066 -0.33788,-0.908052 -0.920723,-1.702069 -1.659835,-2.301806 0,0 -0.489926,0.152046 -0.760229,0.477255 L 9.9229034,15.7598 C 9.3316137,15.341674 8.6093956,15.092488 7.823825,15.075594 L 7.785814,14.218224 C 7.7731431,13.795874 7.4563808,13.390418 7.4563808,13.390418 Z m 1.5626941,5.486324 c 0,0.696877 -0.5701722,1.267049 -1.2670493,1.267049 -0.6968771,0 -1.2670493,-0.570172 -1.2670493,-1.267049 0,-0.701101 0.5659487,-1.26705 1.2670493,-1.26705 0.6968771,0 1.2670493,0.565949 1.2670493,1.26705 z"
       id="path38" />
    <path
       style="fill:url(#gradient4);stroke-width:0.42235"
       d="m 7.4521573,13.390418 c -0.984075,0.04646 -1.900574,0.363221 -2.681921,0.861594 0,0 -0.021117,0.523713 0.2069514,0.878487 l 0.4603612,0.722218 C 4.8462592,16.300408 4.394345,16.908592 4.1493821,17.626586 L 3.3384706,17.415411 c -0.4054558,-0.105587 -0.899605,0.06335 -0.899605,0.06335 -0.1182579,0.43502 -0.1731634,0.903828 -0.1731634,1.37686 0,0.50682 0.063352,0.988299 0.1858339,1.44866 0,0 0.4899257,0.173163 0.9038285,0.05913 l 0.8109115,-0.223846 c 0.2491864,0.692654 0.7011006,1.305061 1.2797198,1.740081 l -0.4561377,0.709548 c -0.2238454,0.354774 -0.2069514,0.882711 -0.2069514,0.882711 0.7771235,0.498373 1.689399,0.806688 2.673474,0.853146 0,0 0.3083153,-0.401232 0.3294328,-0.823582 l 0.038011,-0.853146 c 0.7686766,-0.01267 1.4782242,-0.261857 2.0737374,-0.663089 l 0.527938,0.654644 c 0.26608,0.325209 0.764453,0.477255 0.764453,0.477255 0.730665,-0.595513 1.309284,-1.372637 1.664058,-2.276465 0,0 -0.291422,-0.409679 -0.684207,-0.565949 l -0.794017,-0.316762 c 0.105587,-0.342103 0.160492,-0.717995 0.160492,-1.093886 0,-0.371668 -0.04646,-0.722218 -0.143598,-1.064321 l 0.78557,-0.291422 c 0.397009,-0.152046 0.692654,-0.587066 0.692654,-0.587066 -0.33788,-0.908052 -0.920723,-1.702069 -1.659835,-2.301806 0,0 -0.489926,0.152046 -0.760229,0.477255 L 9.9229034,15.7598 C 9.3316137,15.341674 8.6093956,15.092488 7.823825,15.075594 L 7.785814,14.218224 C 7.7731431,13.795874 7.4563808,13.390418 7.4563808,13.390418 Z m 1.5626941,5.486324 c 0,0.696877 -0.5701722,1.267049 -1.2670493,1.267049 -0.6968771,0 -1.2670493,-0.570172 -1.2670493,-1.267049 0,-0.701101 0.5659487,-1.26705 1.2670493,-1.26705 0.6968771,0 1.2670493,0.565949 1.2670493,1.26705 z"
       id="path45" />
  </g>
</svg>
