<?xml version="1.0" encoding="utf-8"?>
<!-- Generator: Adobe Illustrator 16.0.3, SVG Export Plug-In . SVG Version: 6.00 Build 0)  -->
<!DOCTYPE svg PUBLIC "-//W3C//DTD SVG 1.1//EN" "http://www.w3.org/Graphics/SVG/1.1/DTD/svg11.dtd">
<svg version="1.1" id="Capa_1" xmlns="http://www.w3.org/2000/svg" xmlns:xlink="http://www.w3.org/1999/xlink" x="0px" y="0px"
	 width="24px" height="24px" viewBox="0 0 24 24" enable-background="new 0 0 24 24" xml:space="preserve">
<g>
	<rect x="1" y="1" width="22" height="22"/>
	<path fill="#FFFFFF" d="M1.607,1.607v1.299h20.786V1.607H1.607z M9.402,5.07v1.332l5.571,7.331l-5.571,6.664v1.998h12.991v-5.197
		h-0.734c0,0.961,0.003,1.945-0.842,2.521c-0.923,0.63-2.147,0.749-3.22,0.749h-5.104l4.947-6.734l-4.947-7.7h2.905
		c2.065,0,4.998-0.187,5.819,2.224c0.139,0.413,0.23,2.011,0.267,2.445h0.908V5.07H9.402z M1.607,6.804v1.299h6.495V6.804H1.607z
		 M1.607,10.701V12h9.094v-1.299H1.607z M1.607,14.599v1.3h9.094v-1.3H1.607z M1.607,18.497v1.298h6.495v-1.298H1.607z"/>
</g>
</svg>
