<?xml version="1.0" encoding="utf-8"?>
<!-- Generator: Adobe Illustrator 16.0.3, SVG Export Plug-In . SVG Version: 6.00 Build 0)  -->
<!DOCTYPE svg PUBLIC "-//W3C//DTD SVG 1.1//EN" "http://www.w3.org/Graphics/SVG/1.1/DTD/svg11.dtd">
<svg version="1.1"
	 id="svg8" sodipodi:docname="libreoffice-writer.svg" inkscape:version="0.92.2 5c3e80d, 2017-08-06" xmlns:dc="http://purl.org/dc/elements/1.1/" xmlns:cc="http://creativecommons.org/ns#" xmlns:rdf="http://www.w3.org/1999/02/22-rdf-syntax-ns#" xmlns:svg="http://www.w3.org/2000/svg" xmlns:sodipodi="http://sodipodi.sourceforge.net/DTD/sodipodi-0.dtd" xmlns:inkscape="http://www.inkscape.org/namespaces/inkscape"
	 xmlns="http://www.w3.org/2000/svg" xmlns:xlink="http://www.w3.org/1999/xlink" x="0px" y="0px" width="24px" height="24px"
	 viewBox="4 4 24 24" enable-background="new 4 4 24 24" xml:space="preserve">
<title  id="title7895">Antu icon Theme</title>
<sodipodi:namedview  id="base" units="px" inkscape:window-y="0" inkscape:window-x="0" inkscape:window-height="697" inkscape:window-width="1366" inkscape:current-layer="layer1" inkscape:document-units="px" inkscape:pageshadow="2" inkscape:pageopacity="0.0" objecttolerance="10" guidetolerance="10" inkscape:cy="119.95596" inkscape:cx="138.60046" inkscape:zoom="1" gridtolerance="10" borderopacity="1.0" bordercolor="#666666" showgrid="false" pagecolor="#ffffff" inkscape:window-maximized="1">
	<inkscape:grid  id="grid7897" type="xygrid" empspacing="4"></inkscape:grid>
</sodipodi:namedview>
<g id="layer1" transform="translate(0,-282.64999)" inkscape:groupmode="layer" inkscape:label="Capa 1">
	<g id="g5608" transform="translate(12,-11)">
		<path id="rect843-5-4" sodipodi:nodetypes="sssssssss" inkscape:connector-curvature="0" fill="#1466B2" d="M-6.153,297.65
			l20.307,0c1.022,0,1.847,0.713,1.847,1.6v20.799c0,0.886-0.824,1.601-1.847,1.601H-6.153c-1.024,0-1.847-0.715-1.847-1.601v-20.8
			C-8,298.363-7.177,297.65-6.153,297.65z"/>
		
			<linearGradient id="rect843-3-9-3_1_" gradientUnits="userSpaceOnUse" x1="-208.3599" y1="334.6295" x2="-208.3599" y2="339.9214" gradientTransform="matrix(3.7795 0 0 -3.7795 791.5018 1585.5913)">
			<stop  offset="0" style="stop-color:#1980F1"/>
			<stop  offset="1" style="stop-color:#1FB5F9"/>
		</linearGradient>
		<path id="rect843-3-9-3" sodipodi:nodetypes="sssssssss" inkscape:connector-curvature="0" fill="url(#rect843-3-9-3_1_)" d="
			M-6.153,298.45h20.307c0.513,0,0.925,0.357,0.925,0.801v20.799c0,0.443-0.412,0.802-0.925,0.802H-6.153
			c-0.512,0-0.924-0.358-0.924-0.802v-20.8C-7.077,298.806-6.666,298.45-6.153,298.45z"/>
		
			<path id="rect926-8-3" sodipodi:nodetypes="ccccccccccccccc" inkscape:connector-curvature="0" opacity="0.98" fill="#1466B2" enable-background="new    " d="
			M-6.153,299.251v0.799v20h20.307v-13.93l-3.962-3.435l-3.963-3.434H-6.153z M-4.308,300.85l9.772,0l3.422,2.966l3.42,2.965v11.669
			H-4.308V300.85z"/>
		
			<linearGradient id="rect926-6-4-3_1_" gradientUnits="userSpaceOnUse" x1="-13.6406" y1="38.0548" x2="-13.6406" y2="54.855" gradientTransform="matrix(1 0 0 -1 17.6401 355.7043)">
			<stop  offset="0" style="stop-color:#E3E3E3"/>
			<stop  offset="1" style="stop-color:#FCFCFC"/>
		</linearGradient>
		
			<path id="rect926-6-4-3" sodipodi:nodetypes="ccccccc" inkscape:connector-curvature="0" opacity="0.98" fill="url(#rect926-6-4-3_1_)" enable-background="new    " d="
			M-5.231,300.049l11.078,0l3.69,3.2l3.693,3.2v12.8H-5.231V300.049z"/>
		
			<path id="rect1562-9-8-8" sodipodi:nodetypes="ccccccccccccccc" inkscape:connector-curvature="0" opacity="0.98" fill="#A5A5A5" enable-background="new    " d="
			M-3.385,306.45v1.601h9.231v-1.601H-3.385z M-3.385,309.65v1.6h14.77v-1.6H-3.385z M-3.385,312.849v1.602h14.77v-1.602H-3.385z"/>
	</g>
</g>
</svg>
