<?xml version="1.0" encoding="UTF-8" standalone="no"?>
<svg
   version="1.1"
   width="28"
   height="28"
   color-interpolation="linearRGB"
   id="svg15"
   sodipodi:docname="Nn.svg"
   inkscape:version="1.2.2 (b0a8486541, 2022-12-01)"
   xmlns:inkscape="http://www.inkscape.org/namespaces/inkscape"
   xmlns:sodipodi="http://sodipodi.sourceforge.net/DTD/sodipodi-0.dtd"
   xmlns="http://www.w3.org/2000/svg"
   xmlns:svg="http://www.w3.org/2000/svg">
  <defs
     id="defs19" />
  <sodipodi:namedview
     id="namedview17"
     pagecolor="#ffffff"
     bordercolor="#000000"
     borderopacity="0.25"
     inkscape:showpageshadow="2"
     inkscape:pageopacity="0.0"
     inkscape:pagecheckerboard="0"
     inkscape:deskcolor="#d1d1d1"
     showgrid="false"
     inkscape:zoom="13.5625"
     inkscape:cx="16.294931"
     inkscape:cy="20.202765"
     inkscape:window-width="1920"
     inkscape:window-height="1052"
     inkscape:window-x="0"
     inkscape:window-y="0"
     inkscape:window-maximized="1"
     inkscape:current-layer="svg15" />
  <g
     aria-label="Ñ"
     id="text347"
     style="font-weight:600;font-size:30.2296px;font-family:'IBM Plex Sans';-inkscape-font-specification:'IBM Plex Sans, Semi-Bold';fill:#000080;stroke-width:2.51913">
    <path
       d="m 16.880462,27.660295 h 5.018114 V 6.5600341 H 17.575743 V 20.767946 h -0.09069 L 15.459671,16.535802 9.685817,6.5600341 H 4.6677033 V 27.660295 H 8.9905362 V 13.452383 h 0.090689 l 2.025383,4.232144 z M 15.55036,4.6253396 c 1.602168,0 2.720664,-0.8464288 3.446174,-1.9346945 L 17.424595,0.63503228 C 16.789773,1.1489355 16.336329,1.3907723 15.641048,1.3907723 c -0.785969,0 -1.48125,-0.302296 -2.357908,-0.66505122 -0.755741,-0.33252561 -1.420792,-0.60459202 -2.32768,-0.60459202 -1.6021686,0 -2.7206638,0.84642883 -3.4461743,1.93469444 L 9.081225,4.1114364 c 0.6348216,-0.5139032 1.088266,-0.75574 1.783546,-0.75574 0.78597,0 1.481251,0.302296 2.357909,0.6650512 0.75574,0.3325256 1.420792,0.604592 2.32768,0.604592 z"
       style="font-weight:bold;-inkscape-font-specification:'IBM Plex Sans, Bold'"
       id="path501" />
  </g>
</svg>
