<?xml version="1.0" encoding="UTF-8" standalone="no"?>
<svg
   version="1.1"
   width="28"
   height="28"
   color-interpolation="linearRGB"
   id="svg30"
   sodipodi:docname="notas.svg"
   inkscape:version="1.2.2 (b0a8486541, 2022-12-01)"
   xmlns:inkscape="http://www.inkscape.org/namespaces/inkscape"
   xmlns:sodipodi="http://sodipodi.sourceforge.net/DTD/sodipodi-0.dtd"
   xmlns="http://www.w3.org/2000/svg"
   xmlns:svg="http://www.w3.org/2000/svg">
  <defs
     id="defs34" />
  <sodipodi:namedview
     id="namedview32"
     pagecolor="#ffffff"
     bordercolor="#000000"
     borderopacity="0.25"
     inkscape:showpageshadow="2"
     inkscape:pageopacity="0.0"
     inkscape:pagecheckerboard="0"
     inkscape:deskcolor="#d1d1d1"
     showgrid="false"
     inkscape:zoom="12.9375"
     inkscape:cx="32.038647"
     inkscape:cy="19.63285"
     inkscape:window-width="1920"
     inkscape:window-height="1008"
     inkscape:window-x="0"
     inkscape:window-y="0"
     inkscape:window-maximized="1"
     inkscape:current-layer="svg30" />
  <g
     id="g28"
     transform="matrix(0.44979905,0,0,0.44979905,-1.8022653,-0.20124238)">
    <path
       style="fill:none;stroke:#010000;stroke-width:4;stroke-opacity:0.4352"
       d="M 16,4 V 36 L 56,56 C 54,44 58,34 56,26 v -6 z"
       id="path2" />
    <path
       style="fill:none;stroke:#000000;stroke-width:4"
       d="m 16,10 c -1.99,2 0,26 -2,30 10.01,6 30,14 36.01,20 4,-2 1.99,-32 6,-34 L 56,20 16,4 Z"
       id="path4" />
    <linearGradient
       id="gradient0"
       gradientUnits="userSpaceOnUse"
       x1="72.769997"
       y1="39.700001"
       x2="50.5"
       y2="1.79">
      <stop
         offset="0"
         stop-color="#e8ca06"
         id="stop6" />
      <stop
         offset="0.5372"
         stop-color="#fff600"
         id="stop8" />
      <stop
         offset="1"
         stop-color="#fffcb3"
         id="stop10" />
    </linearGradient>
    <path
       style="fill:url(#gradient0)"
       d="m 16,10 c -1.99,2 0,26 -2,30 10.01,6 30,14 36.01,20 4,-2 1.99,-32 6,-34 L 56,20 16,4 Z"
       id="path13" />
    <radialGradient
       id="gradient1"
       gradientUnits="userSpaceOnUse"
       cx="0"
       cy="0"
       r="64"
       gradientTransform="matrix(0.6448,-0.0438,0.0222,0.3274,17.5067,10.5397)">
      <stop
         offset="0"
         stop-color="#fff675"
         id="stop15" />
      <stop
         offset="1"
         stop-color="#faea03"
         id="stop17" />
    </radialGradient>
    <path
       style="fill:url(#gradient1)"
       d="M 56,26 V 20 L 16,4 v 6 z"
       id="path20" />
    <path
       style="fill:none;stroke:#000000;stroke-width:2;stroke-linecap:round;stroke-linejoin:round"
       d="m 24,22 c 0,4 2,8 4,10 m -6,-6 h 6 m 0,14 2,4 c 0,0 4,-2 3,-5 -1,-3 -5,-1 -9,-1"
       id="path22" />
    <path
       style="fill:none;stroke:#000000;stroke-width:2;stroke-linecap:round;stroke-linejoin:round"
       d="m 32,26 c -1,1 -1,3 0,4 1,1 3,2 5,0 2,-2 -1,-6 -5,-6"
       id="path24" />
    <path
       style="fill:none;stroke:#000000;stroke-width:2;stroke-linecap:round;stroke-linejoin:round"
       d="m 32,26 c -1,1 -1,3 0,4 1,1 3,2 5,0 2,-2 -1,-6 -5,-6"
       transform="translate(5,11)"
       id="path26" />
  </g>
</svg>
