<?xml version="1.0" encoding="utf-8"?>
<!-- Generator: Adobe Illustrator 16.0.3, SVG Export Plug-In . SVG Version: 6.00 Build 0)  -->
<!DOCTYPE svg PUBLIC "-//W3C//DTD SVG 1.1//EN" "http://www.w3.org/Graphics/SVG/1.1/DTD/svg11.dtd">
<svg version="1.1"
	 id="svg6" inkscape:version="0.92.4 5da689c313, 2019-01-14" sodipodi:docname="yast-release-notes.svg" xmlns:dc="http://purl.org/dc/elements/1.1/" xmlns:cc="http://creativecommons.org/ns#" xmlns:rdf="http://www.w3.org/1999/02/22-rdf-syntax-ns#" xmlns:svg="http://www.w3.org/2000/svg" xmlns:sodipodi="http://sodipodi.sourceforge.net/DTD/sodipodi-0.dtd" xmlns:inkscape="http://www.inkscape.org/namespaces/inkscape"
	 xmlns="http://www.w3.org/2000/svg" xmlns:xlink="http://www.w3.org/1999/xlink" x="0px" y="0px" width="24px" height="24px"
	 viewBox="4 4 24 24" enable-background="new 4 4 24 24" xml:space="preserve">
<sodipodi:namedview  id="namedview8" inkscape:current-layer="g1635" inkscape:window-y="0" inkscape:window-x="0" inkscape:window-height="1003" inkscape:window-width="1920" inkscape:pageshadow="2" inkscape:pageopacity="0" showguides="false" borderopacity="1" pagecolor="#ffffff" bordercolor="#666666" showgrid="true" guidetolerance="10" inkscape:cy="14.720361" gridtolerance="10" inkscape:cx="-1.1075384" objecttolerance="10" inkscape:zoom="20.85965" inkscape:window-maximized="1">
	<inkscape:grid  id="grid1637" type="xygrid"></inkscape:grid>
</sodipodi:namedview>
<g id="g1635" transform="translate(8.6998587,-1.5426554)">
	<path id="path13-1" sodipodi:nodetypes="sssssssss" inkscape:connector-curvature="0" fill="#90A4AE" d="M-3.95,6.416
		c-0.417,0-0.752,0.335-0.752,0.752V25.97c0,0.418,0.335,0.752,0.752,0.752h21.06c0.417,0,0.752-0.334,0.752-0.752V7.168
		c0-0.417-0.335-0.752-0.752-0.752H-3.95z"/>
	
		<linearGradient id="path7-9_1_" gradientUnits="userSpaceOnUse" x1="-218.1652" y1="329.3776" x2="-218.1652" y2="334.3522" gradientTransform="matrix(3.7795 0 0 -3.7795 831.1396 1270.8623)">
		<stop  offset="0" style="stop-color:#CEE3E3"/>
		<stop  offset="1" style="stop-color:#FCFCFC"/>
	</linearGradient>
	<path id="path7-9" sodipodi:nodetypes="ccccc" inkscape:connector-curvature="0" fill="url(#path7-9_1_)" d="M-3.95,7.168h21.06
		V25.97H-3.95V7.168z"/>
	<path id="rect4405" inkscape:connector-curvature="0" fill="#90A4AE" d="M-3.198,7.92v1.504h3.761V7.92H-3.198z M1.315,7.92v1.504
		h1.504V7.92H1.315z M3.572,7.92v1.504h3.76V7.92H3.572z M8.084,7.92v1.504h1.504V7.92H8.084z M10.34,7.92v1.504h2.257V7.92H10.34z
		 M13.349,7.92v1.504h3.009V7.92H13.349z M-3.198,10.176v1.504h6.017v-1.504H-3.198z M3.572,10.176v1.504h1.504v-1.504H3.572z
		 M5.828,10.176v1.504h3.76v-1.504H5.828z M10.34,10.176v1.504h1.504v-1.504H10.34z M12.597,10.176v1.504h2.256v-1.504H12.597z
		 M-3.198,12.433v1.504h1.505v-1.504H-3.198z M-0.941,12.433v1.504h1.504v-1.504H-0.941z M1.315,12.433v1.504h3.76v-1.504H1.315z
		 M5.828,12.433v1.504h1.504v-1.504H5.828z M8.084,12.433v1.504h1.504v-1.504H8.084z M11.092,12.433v1.504h1.505v-1.504H11.092z
		 M13.349,12.433v1.504h3.009v-1.504H13.349z M-3.198,14.689v1.504h3.761v-1.504H-3.198z M1.315,14.689v1.504h1.504v-1.504H1.315z
		 M3.572,14.689v1.504h3.76v-1.504H3.572z M-3.198,16.945v1.504h1.505v-1.504H-3.198z M-0.941,16.945v1.504h3.76v-1.504H-0.941z
		 M3.572,16.945v1.504h2.256v-1.504H3.572z M-3.198,19.202v1.504h3.009v-1.504H-3.198z M0.563,19.202v1.504h1.504v-1.504H0.563z
		 M2.819,19.202v1.504h3.009v-1.504H2.819z M-3.198,21.458v1.505h1.505v-1.505H-3.198z M-0.941,21.458v1.505h3.008v-1.505H-0.941z
		 M2.819,21.458v1.505h1.504v-1.505H2.819z M-3.198,23.715v1.504h7.521v-1.504H-3.198z"/>
	<path id="rect4496" inkscape:connector-curvature="0" fill="#00663C" d="M11.092,13.185c4.584,0,8.273,3.689,8.273,8.273
		c0,4.584-3.689,8.273-8.273,8.273c-4.583,0-8.273-3.689-8.273-8.273C2.819,16.874,6.509,13.185,11.092,13.185z"/>
	
		<linearGradient id="rect4570-9-6_1_" gradientUnits="userSpaceOnUse" x1="-216.9709" y1="328.5817" x2="-216.9709" y2="332.3627" gradientTransform="matrix(3.7795 0 0 -3.7795 831.1396 1270.8623)">
		<stop  offset="0" style="stop-color:#1F996A"/>
		<stop  offset="1" style="stop-color:#24B27B"/>
	</linearGradient>
	<path id="rect4570-9-6" inkscape:connector-curvature="0" fill="url(#rect4570-9-6_1_)" d="M11.092,13.937
		c4.167,0,7.521,3.354,7.521,7.521c0,4.167-3.354,7.521-7.521,7.521c-4.167,0-7.521-3.354-7.521-7.521
		C3.572,17.291,6.926,13.937,11.092,13.937z"/>
</g>
<g>
	<path fill="#FFFFFF" d="M18.676,22.576c-0.054-0.141-0.096-0.298-0.125-0.474c-0.029-0.175-0.045-0.341-0.045-0.497
		c0-0.248,0.024-0.475,0.073-0.68s0.121-0.397,0.219-0.578c0.097-0.181,0.218-0.354,0.363-0.518c0.146-0.165,0.315-0.328,0.51-0.49
		c0.205-0.172,0.385-0.332,0.538-0.48s0.284-0.297,0.393-0.445c0.107-0.148,0.188-0.302,0.242-0.461s0.081-0.336,0.081-0.53
		c0-0.167-0.029-0.322-0.089-0.465s-0.145-0.266-0.255-0.368s-0.245-0.183-0.404-0.243c-0.159-0.059-0.336-0.089-0.53-0.089
		c-0.42,0-0.857,0.088-1.31,0.263c-0.453,0.175-0.882,0.44-1.286,0.797v-2.435c0.415-0.248,0.868-0.434,1.358-0.558
		s0.998-0.186,1.521-0.186c0.502,0,0.968,0.055,1.399,0.166c0.432,0.11,0.808,0.284,1.129,0.521c0.32,0.237,0.571,0.541,0.752,0.91
		c0.181,0.369,0.271,0.813,0.271,1.331c0,0.329-0.037,0.627-0.112,0.894c-0.076,0.268-0.187,0.52-0.332,0.757
		s-0.326,0.465-0.542,0.684c-0.216,0.218-0.464,0.443-0.744,0.675c-0.188,0.156-0.354,0.302-0.497,0.437
		c-0.144,0.136-0.262,0.269-0.356,0.4c-0.095,0.133-0.166,0.272-0.214,0.421c-0.049,0.148-0.073,0.317-0.073,0.506
		c0,0.129,0.018,0.262,0.053,0.396s0.082,0.248,0.142,0.34H18.676z M19.857,26.119c-0.432,0-0.79-0.13-1.076-0.389
		c-0.286-0.27-0.429-0.588-0.429-0.954c0-0.378,0.143-0.693,0.429-0.947c0.286-0.253,0.645-0.38,1.076-0.38
		c0.426,0,0.779,0.127,1.06,0.38c0.28,0.248,0.42,0.564,0.42,0.947c0,0.388-0.137,0.709-0.412,0.962
		C20.645,25.992,20.288,26.119,19.857,26.119z"/>
</g>
</svg>
