<?xml version="1.0" encoding="utf-8"?>
<!-- Generator: Adobe Illustrator 16.0.3, SVG Export Plug-In . SVG Version: 6.00 Build 0)  -->
<!DOCTYPE svg PUBLIC "-//W3C//DTD SVG 1.1//EN" "http://www.w3.org/Graphics/SVG/1.1/DTD/svg11.dtd">
<svg version="1.1" id="Capa_1" xmlns="http://www.w3.org/2000/svg" xmlns:xlink="http://www.w3.org/1999/xlink" x="0px" y="0px"
	 width="24px" height="24px" viewBox="0 0 24 24" enable-background="new 0 0 24 24" xml:space="preserve">
<g>
	<path fill="#0F2C90" d="M12.433,0.028c-0.401-0.014-0.804-0.008-1.204,0.017C4.591,0.473-0.438,6.198-0.014,12.831
		c0.429,6.637,6.153,11.666,12.787,11.24c6.637-0.43,11.666-6.154,11.24-12.789C23.617,5.115,18.607,0.247,12.433,0.028z"/>
	<g>
		<path fill="#FFFFFF" d="M17.876,12.059c0,1.611-0.227,3.013-0.678,4.206c-0.451,1.191-1.049,2.196-1.793,3.013
			c-0.738,0.81-1.578,1.44-2.521,1.896c-0.941,0.455-1.903,0.747-2.885,0.876v-0.967c1.354-0.251,2.393-1.122,3.115-2.616
			c0.725-1.492,1.087-3.629,1.087-6.407s-0.362-4.915-1.087-6.408C12.393,4.158,11.354,3.286,10,3.035V2.068
			c0.981,0.129,1.943,0.421,2.885,0.875c0.942,0.455,1.782,1.087,2.521,1.896c0.744,0.816,1.342,1.821,1.793,3.013
			S17.876,10.447,17.876,12.059z"/>
	</g>
</g>
</svg>
