<?xml version="1.0" encoding="utf-8"?>
<!-- Generator: Adobe Illustrator 16.0.3, SVG Export Plug-In . SVG Version: 6.00 Build 0)  -->
<!DOCTYPE svg PUBLIC "-//W3C//DTD SVG 1.1//EN" "http://www.w3.org/Graphics/SVG/1.1/DTD/svg11.dtd">
<svg version="1.1"
	 id="svg8" sodipodi:docname="image-x-gif.svg" inkscape:version="0.92.2 (5c3e80d, 2017-08-06)" xmlns:dc="http://purl.org/dc/elements/1.1/" xmlns:cc="http://creativecommons.org/ns#" xmlns:rdf="http://www.w3.org/1999/02/22-rdf-syntax-ns#" xmlns:svg="http://www.w3.org/2000/svg" xmlns:sodipodi="http://sodipodi.sourceforge.net/DTD/sodipodi-0.dtd" xmlns:inkscape="http://www.inkscape.org/namespaces/inkscape"
	 xmlns="http://www.w3.org/2000/svg" xmlns:xlink="http://www.w3.org/1999/xlink" x="0px" y="0px" width="24px" height="24px"
	 viewBox="4 4 24 24" enable-background="new 4 4 24 24" xml:space="preserve">
<title  id="title7895">Antu icon Theme</title>
<sodipodi:namedview  id="base" units="px" inkscape:window-y="0" inkscape:window-x="0" inkscape:window-height="729" inkscape:window-width="1280" inkscape:current-layer="g927" inkscape:document-units="px" inkscape:pageshadow="2" inkscape:pageopacity="0.0" inkscape:zoom="11.313708" borderopacity="1.0" bordercolor="#666666" showgrid="true" pagecolor="#ffffff" guidetolerance="10" gridtolerance="10" objecttolerance="10" inkscape:cy="15.43704" inkscape:cx="32.72737" inkscape:window-maximized="1">
	<inkscape:grid  id="grid7897" type="xygrid" empspacing="4"></inkscape:grid>
</sodipodi:namedview>
<g id="layer1" transform="translate(0,-282.64999)" inkscape:groupmode="layer" inkscape:label="Capa 1">
	<g id="g9752" transform="translate(4.0000005,-2.625)">
		<g id="g927" transform="translate(-128,-96)">
			<path id="rect852" inkscape:connector-curvature="0" fill="#90A4AE" d="M129.749,385.29h20.76c0.885,0,1.597,0.829,1.597,1.858
				v20.438c0,1.029-0.712,1.858-1.597,1.858h-20.76c-0.885,0-1.597-0.829-1.597-1.858v-20.438
				C128.151,386.119,128.864,385.29,129.749,385.29z"/>
			
				<linearGradient id="rect852-3_1_" gradientUnits="userSpaceOnUse" x1="116.4888" y1="127.4391" x2="116.4888" y2="149.735" gradientTransform="matrix(1 0 0 -1 23.6401 535.9543)">
				<stop  offset="0" style="stop-color:#E4EFEF"/>
				<stop  offset="1" style="stop-color:#FCFCFC"/>
			</linearGradient>
			<path id="rect852-3" inkscape:connector-curvature="0" fill="url(#rect852-3_1_)" d="M129.749,386.219h20.76
				c0.442,0,0.799,0.414,0.799,0.929v20.438c0,0.515-0.356,0.93-0.799,0.93h-20.76c-0.443,0-0.799-0.415-0.799-0.93v-20.438
				C128.95,386.633,129.306,386.219,129.749,386.219z"/>
			<path id="rect877" inkscape:connector-curvature="0" fill="#063566" d="M129.749,387.148h20.76v20.438h-20.76V387.148z"/>
			
				<linearGradient id="rect1042_1_" gradientUnits="userSpaceOnUse" x1="116.4888" y1="130.2267" x2="116.4888" y2="146.9483" gradientTransform="matrix(1 0 0 -1 23.6401 535.9543)">
				<stop  offset="0" style="stop-color:#084B91"/>
				<stop  offset="1" style="stop-color:#0956A6"/>
			</linearGradient>
			<path id="rect1042" inkscape:connector-curvature="0" fill="url(#rect1042_1_)" d="M130.547,388.077h19.164v18.58h-19.164
				V388.077z"/>
			<path id="rect1052" inkscape:connector-curvature="0" fill="#FE0000" d="M134.539,394.58h2.396v0.929h-2.396V394.58z"/>
			<path id="rect1054" inkscape:connector-curvature="0" fill="#FE0000" d="M132.144,395.509h2.396v0.929h-2.396V395.509z"/>
			<path id="rect1056" sodipodi:nodetypes="ccccc" inkscape:connector-curvature="0" fill="#FE0000" d="M129.749,394.58h2.395v0.929
				h-2.395V394.58z"/>
			<path id="rect1058" sodipodi:nodetypes="ccccc" inkscape:connector-curvature="0" fill="#FD9C00" d="M129.749,395.509h2.395
				v0.929h-2.395V395.509z"/>
			<path id="rect1060" inkscape:connector-curvature="0" fill="#FD9C00" d="M132.144,396.438h2.396v0.929h-2.396V396.438z"/>
			<path id="rect1062" sodipodi:nodetypes="ccccc" inkscape:connector-curvature="0" fill="#FD9C00" d="M134.539,395.509h2.396
				v0.929h-2.396V395.509z"/>
			<path id="rect1058-6" sodipodi:nodetypes="ccccc" inkscape:connector-curvature="0" fill="#FFFF00" d="M129.749,396.438h2.395
				v0.929h-2.395V396.438z"/>
			<path id="rect1060-7" inkscape:connector-curvature="0" fill="#FFFF00" d="M132.144,397.367h2.396v0.929h-2.396V397.367z"/>
			<path id="rect1062-5" inkscape:connector-curvature="0" fill="#FFFF00" d="M133.741,396.438h2.396v0.929h-2.396V396.438z"/>
			<path id="rect1058-6-3" sodipodi:nodetypes="ccccc" inkscape:connector-curvature="0" fill="#10FF00" d="M129.749,397.367h2.395
				v0.929h-2.395V397.367z"/>
			<path id="rect1060-7-5" inkscape:connector-curvature="0" fill="#10FF00" d="M132.144,398.297h2.396v0.929h-2.396V398.297z"/>
			<path id="rect1062-5-6" sodipodi:nodetypes="ccccc" inkscape:connector-curvature="0" fill="#10FF00" d="M134.539,397.367h1.597
				v0.929h-1.597V397.367z"/>
			<path id="rect1058-6-3-2" sodipodi:nodetypes="ccccc" inkscape:connector-curvature="0" fill="#0097FE" d="M129.749,398.297
				h2.395v0.929h-2.395V398.297z"/>
			<path id="rect1060-7-5-9" inkscape:connector-curvature="0" fill="#0097FE" d="M132.144,399.225h2.396v0.929h-2.396V399.225z"/>
			<path id="rect1062-5-6-1" sodipodi:nodetypes="ccccc" inkscape:connector-curvature="0" fill="#0097FE" d="M134.539,398.297
				h1.597v0.929h-1.597V398.297z"/>
			<path id="rect1058-6-3-2-2" sodipodi:nodetypes="ccccc" inkscape:connector-curvature="0" fill="#671FFD" d="M129.749,399.225
				h2.395v0.929h-2.395V399.225z"/>
			<path id="rect1060-7-5-9-7" sodipodi:nodetypes="ccccc" inkscape:connector-curvature="0" fill="#671FFD" d="M132.144,400.154
				h2.396v0.93h-2.396V400.154z"/>
			<path id="rect1062-5-6-1-0" inkscape:connector-curvature="0" fill="#671FFD" d="M134.539,399.225h2.396v0.929h-2.396V399.225z"
				/>
			<g id="g1029" transform="translate(188,44.625)">
				<path id="path998" d="M-49.468,347.168v0.929h7.985v-0.929H-49.468z"/>
				<path id="path996" d="M-41.483,348.097v3.716h-0.798v0.929h1.596v-0.929h0.799v-0.929h-0.799v-2.787H-41.483z"/>
				<path id="path994" d="M-39.887,350.884h0.799v-0.929h-0.799V350.884z"/>
				<path id="path992" d="M-39.088,350.884v1.858h0.799v-1.858H-39.088z"/>
				<path id="path990" d="M-38.289,352.742v2.787h0.798v-2.787H-38.289z"/>
				<path id="path988" d="M-38.289,355.529h-0.799v0.93h0.799V355.529z"/>
				<path id="path986" d="M-39.088,356.459h-4.791v-0.93h-0.799v0.93h-4.791v0.929h0.798v0.929h1.597v-0.929h2.396v0.929h1.598
					v-0.929h1.597v0.929h1.597v-0.929h0.799V356.459z"/>
				<path id="path984" d="M-49.468,357.387h-1.597v-0.929h-0.799v0.929v0.929h2.396V357.387z"/>
				<path id="path982" d="M-51.065,356.459h1.597v-0.93h-0.799v-6.503h-0.798v2.787h-0.799v0.929h0.799v0.929h-1.597v0.929h1.597
					V356.459z"/>
				<path id="path980" d="M-52.662,353.672v-0.929h-0.799v0.929H-52.662z"/>
				<path id="path978" d="M-53.461,352.742v-1.858h0.799v-0.929h-1.597v0.929v1.858H-53.461z"/>
				<path id="path976" d="M-52.662,350.884v0.929h0.798v-0.929H-52.662z"/>
				<path id="path974" d="M-50.267,349.026h0.799v-0.929h-0.799V349.026z"/>
				<path id="path972" d="M-44.678,355.529v-2.787h-0.798v2.787H-44.678z"/>
				<path id="path970" d="M-44.678,352.742h0.799v-1.858h-0.799V352.742z"/>
				<path id="path968" d="M-43.879,350.884h0.799v-0.929h-0.799V350.884z"/>
				<path id="rect890" d="M-43.08,350.884v0.929h0.799v-0.929H-43.08z"/>
				<path id="rect949" inkscape:connector-curvature="0" fill="#999999" d="M-53.461,350.884v1.858h0.799v0.929h0.798h0.799v-0.929
					h-0.799v-0.929h-0.798v-0.929H-53.461z M-43.879,350.884v1.858h-0.799v2.787h0.799v0.93h4.791v-0.93h0.799v-2.787h-0.799v-0.929
					v-0.929h-0.799v0.929h-0.799v0.929h-1.596v-0.929h-0.799v-0.929H-43.879z M-51.065,356.459v0.929h1.597v-0.929H-51.065z"/>
				<path id="rect969" inkscape:connector-curvature="0" fill="#FFCC99" d="M-49.468,348.097v0.929h-0.799v6.503h0.799v0.93h4.791
					v-0.93h-0.798v-2.787h0.798v-1.858h0.799v-0.929h0.799v0.929h0.799v0.929h0.798v-0.929v-0.929v-1.858h-3.194H-49.468z"/>
				<path id="rect984" inkscape:connector-curvature="0" fill="#FF99FF" d="M-48.67,349.026v0.929h-0.798v4.646h0.798v0.929h3.194
					V354.6v-1.858h0.798v-1.858h0.799v-0.929h0.799v0.929h0.799v-0.929v-0.929H-48.67z"/>
				<path id="rect1004" inkscape:connector-curvature="0" fill="#FF3399" d="M-48.67,349.026v0.929h0.799v-0.929H-48.67z
					 M-43.879,349.026v0.929h0.799v-0.929H-43.879z M-46.274,349.955v0.929h0.799v-0.929H-46.274z M-47.871,350.884v0.929h0.798
					v-0.929H-47.871z M-45.476,351.813v0.929h0.798v-0.929H-45.476z M-48.67,352.742v0.929h0.799v-0.929H-48.67z M-47.073,353.672
					v0.929h0.799v-0.929H-47.073z M-48.67,354.6v0.929h0.799V354.6H-48.67z"/>
			</g>
		</g>
	</g>
</g>
</svg>
