<?xml version="1.0" encoding="UTF-8" standalone="no"?>
<svg
   version="1.1"
   width="28"
   height="28"
   color-interpolation="linearRGB"
   id="svg32"
   sodipodi:docname="publisher2.svg"
   inkscape:version="1.2.2 (b0a8486541, 2022-12-01)"
   xmlns:inkscape="http://www.inkscape.org/namespaces/inkscape"
   xmlns:sodipodi="http://sodipodi.sourceforge.net/DTD/sodipodi-0.dtd"
   xmlns="http://www.w3.org/2000/svg"
   xmlns:svg="http://www.w3.org/2000/svg">
  <defs
     id="defs36" />
  <sodipodi:namedview
     id="namedview34"
     pagecolor="#ffffff"
     bordercolor="#000000"
     borderopacity="0.25"
     inkscape:showpageshadow="2"
     inkscape:pageopacity="0.0"
     inkscape:pagecheckerboard="0"
     inkscape:deskcolor="#d1d1d1"
     showgrid="false"
     inkscape:zoom="13.5625"
     inkscape:cx="26.986175"
     inkscape:cy="20.202765"
     inkscape:window-width="1920"
     inkscape:window-height="1052"
     inkscape:window-x="0"
     inkscape:window-y="0"
     inkscape:window-maximized="1"
     inkscape:current-layer="svg32" />
  <g
     id="g30"
     transform="matrix(0.43534011,0,0,0.43534011,0,0.11198484)">
    <path
       style="fill:#010101;fill-opacity:0.4196"
       d="m 44,50 c 4,0 9.78,1.32 12,-2 4,-6 8,-12 8,-16 0,-4 -2,-6 -2,-6 l -2,2 c 0,0 2,2 1.02,3.94 C 59.27,35.44 56,42 56,42 h -8 c 0,0 4.95,2.08 4,4 -1.05,2.08 -8,4 -8,4 z M 18,26 c 10,0 12.99,-5 14,-6 2,-2 2,-4 2,-4 h 2 c 0,0 0,2 -2,6 -0.74,1.47 -4,8 -10,8 0,0 2,-2 -6,-4 z m -2,30 h 6 l 4,4 6,-2 h 4 c 4,0 2,-10 2,-10 L 26,40 Z"
       id="path2" />
    <path
       style="fill:none;stroke:#000000;stroke-width:4;stroke-linecap:round"
       d="m 3.25,15 c -2,2 -1,9 -1,11 0,2 12.25,10 14.25,8 2,-2 2,-11 0,-13 -2,-2 -11.25,-8 -13.25,-6 z m 26,13 c -2,2 -1.27,9.47 0,12 2,4 13.5,10 15.5,8 1.41,-1.42 2,-12 0,-14 -2,-2 -13.5,-8 -15.5,-6 z M 4,13.75 c 0,0 22,-10.88 26,-6.88 4,4 4,7.13 4,7.13 m 12,20 c 0,0 8,-14 12,-16 4,-2 4,8 4,8"
       id="path4" />
    <linearGradient
       id="gradient0"
       gradientUnits="userSpaceOnUse"
       x1="58.77"
       y1="-62.740002"
       x2="92.970001"
       y2="-39.23">
      <stop
         offset="0.0526"
         stop-color="#f1f6ff"
         stop-opacity="0.796"
         id="stop6" />
      <stop
         offset="0.4849"
         stop-color="#8288ac"
         stop-opacity="0.4039"
         id="stop8" />
      <stop
         offset="0.8345"
         stop-color="#f2f7f9"
         stop-opacity="0.6941"
         id="stop10" />
      <stop
         offset="1"
         stop-color="#b4bdd7"
         stop-opacity="0.5921"
         id="stop12" />
    </linearGradient>
    <path
       style="fill:url(#gradient0)"
       d="m 3.25,15 c -2,2 -1,9 -1,11 0,2 12.25,10 14.25,8 2,-2 2,-11 0,-13 -2,-2 -11.25,-8 -13.25,-6 z m 26,13 c -2,2 -1.27,9.47 0,12 2,4 13.5,10 15.5,8 1.41,-1.42 2,-12 0,-14 -2,-2 -13.5,-8 -15.5,-6 z"
       id="path15" />
    <path
       style="fill:#000000"
       d="m 16,38 c 0,0 -10,0 -10,4 0,2 2,4 2,4 0,0 -4,2 -2,4 2,2 6,0 6,0 0,0 -4,4 0,6 4,2 8,-2 8,-2 0,0 0,6 4,6 4,0 4,-4 4,-4 0,0 5.17,4.82 8,2 4,-4 -8,-16 -8,-16 z"
       id="path17" />
    <path
       style="fill:none;stroke:#000000;stroke-width:4"
       d="m 22,30 c -4,0 -14,10 -10,14 4,4 13.25,1.25 15.25,-0.75 0.79,-0.8 -1.46,-3.04 -1.21,-5.46 C 26.42,34.1 25.62,30 22,30 Z"
       id="path19" />
    <radialGradient
       id="gradient1"
       gradientUnits="userSpaceOnUse"
       cx="0"
       cy="0"
       r="64"
       gradientTransform="matrix(0.1681,0.0764,-0.1293,0.2844,18.5683,32.8679)">
      <stop
         offset="0"
         stop-color="#ffe7dc"
         id="stop21" />
      <stop
         offset="1"
         stop-color="#e29c7a"
         id="stop23" />
    </radialGradient>
    <path
       style="fill:url(#gradient1)"
       d="m 22,30 c -4,0 -14,10 -10,14 4,4 13.25,1.25 15.25,-0.75 0.79,-0.8 -1.46,-3.04 -1.21,-5.46 C 26.42,34.1 25.62,30 22,30 Z"
       id="path26" />
    <path
       style="fill:#ffffff"
       d="m 6,16 c -4,0 -2,6 0,6 4,0 2,-6 0,-6 z m 27,14 c -4,0 -3,8 -1,8 4,0 3,-8 1,-8 z m 10,11 c 0,2 0,5 -3,5 4,1 4,-2 3,-5 z"
       id="path28" />
  </g>
</svg>
