<?xml version="1.0" encoding="UTF-8" standalone="no"?>
<svg
   id="svg"
   version="1.1"
   width="24"
   height="24"
   viewBox="0 0 24 24"
   sodipodi:docname="quarto.svg"
   inkscape:version="1.2.2 (b0a8486541, 2022-12-01)"
   xmlns:inkscape="http://www.inkscape.org/namespaces/inkscape"
   xmlns:sodipodi="http://sodipodi.sourceforge.net/DTD/sodipodi-0.dtd"
   xmlns="http://www.w3.org/2000/svg"
   xmlns:svg="http://www.w3.org/2000/svg">
  <defs
     id="defs11" />
  <sodipodi:namedview
     id="namedview9"
     pagecolor="#ffffff"
     bordercolor="#000000"
     borderopacity="0.25"
     inkscape:showpageshadow="2"
     inkscape:pageopacity="0.0"
     inkscape:pagecheckerboard="0"
     inkscape:deskcolor="#d1d1d1"
     showgrid="false"
     inkscape:zoom="13.780187"
     inkscape:cx="17.271173"
     inkscape:cy="17.561445"
     inkscape:window-width="1920"
     inkscape:window-height="1008"
     inkscape:window-x="0"
     inkscape:window-y="0"
     inkscape:window-maximized="1"
     inkscape:current-layer="svg" />
  <g
     id="svgg"
     transform="matrix(0.05910132,0,0,0.05910132,0.16888502,0.17738083)">
    <path
       id="path0"
       d="M 0,200 V 400 H 200 400 V 200 0 H 200 0 V 200 M 187.586,15.574 c 0.638,1.192 0.573,171.307 -0.066,171.946 -0.754,0.754 -167.877,0.692 -168.909,-0.062 -0.986,-0.722 -0.649,-12.32 0.42,-14.407 0.4,-0.782 0.748,-2.925 0.927,-5.716 0.188,-2.932 0.484,-4.704 0.862,-5.16 0.335,-0.403 0.672,-2.002 0.806,-3.823 0.144,-1.965 0.46,-3.395 0.849,-3.841 0.34,-0.391 0.733,-1.867 0.873,-3.281 0.142,-1.439 0.529,-2.873 0.878,-3.259 0.343,-0.378 0.726,-1.742 0.851,-3.03 0.126,-1.287 0.482,-2.633 0.792,-2.99 0.31,-0.357 0.709,-1.574 0.888,-2.703 0.178,-1.13 0.597,-2.368 0.93,-2.751 0.332,-0.383 0.715,-1.416 0.85,-2.296 0.134,-0.879 0.492,-1.779 0.793,-2 0.302,-0.22 0.674,-1.235 0.827,-2.255 0.157,-1.043 0.62,-2.163 1.061,-2.562 0.43,-0.389 0.782,-1.219 0.782,-1.843 0,-0.701 0.305,-1.325 0.8,-1.634 0.523,-0.326 0.8,-0.933 0.8,-1.749 0,-0.688 0.333,-1.679 0.739,-2.204 0.406,-0.525 0.87,-1.494 1.031,-2.154 0.161,-0.66 0.526,-1.47 0.811,-1.8 0.285,-0.33 0.735,-1.275 0.999,-2.1 0.265,-0.825 0.634,-1.5 0.82,-1.5 0.186,0 0.541,-0.616 0.789,-1.368 0.249,-0.752 0.713,-1.584 1.031,-1.849 0.319,-0.265 0.58,-0.813 0.58,-1.218 0,-0.405 0.36,-0.93 0.8,-1.165 0.46,-0.246 0.8,-0.838 0.8,-1.391 0,-0.53 0.347,-1.207 0.772,-1.504 0.424,-0.298 0.9,-1.073 1.057,-1.723 0.288,-1.191 0.469,-1.461 2.343,-3.5 0.565,-0.615 1.028,-1.444 1.028,-1.842 0,-0.638 0.538,-1.404 2.557,-3.64 0.298,-0.33 0.653,-0.96 0.789,-1.4 0.136,-0.44 0.969,-1.588 1.851,-2.551 C 53.279,88.287 54,87.325 54,87.113 c 0,-0.508 1.391,-2.319 3.5,-4.556 0.935,-0.992 1.7,-1.967 1.7,-2.166 0,-0.2 0.36,-0.556 0.8,-0.791 0.44,-0.235 0.8,-0.685 0.8,-1 0,-0.315 0.36,-0.765 0.8,-1 0.44,-0.235 0.8,-0.652 0.8,-0.925 0,-0.274 1.26,-1.837 2.8,-3.475 1.54,-1.638 2.8,-3.097 2.8,-3.242 0,-0.146 0.36,-0.359 0.8,-0.474 0.44,-0.115 0.8,-0.484 0.8,-0.82 0,-0.335 0.36,-0.724 0.8,-0.864 0.44,-0.14 0.8,-0.512 0.8,-0.827 0,-0.315 0.16,-0.573 0.356,-0.573 0.197,0 1.502,-1.128 2.9,-2.506 2.983,-2.938 6.897,-6.294 7.341,-6.294 0.171,0 0.724,-0.405 1.228,-0.9 3.751,-3.681 6.507,-5.9 7.329,-5.9 0.175,0 1.176,-0.81 2.224,-1.8 1.167,-1.102 2.277,-1.8 2.864,-1.8 0.592,0 0.958,-0.233 0.958,-0.61 0,-0.335 0.412,-0.767 0.916,-0.958 0.504,-0.192 1.142,-0.62 1.417,-0.951 0.275,-0.331 0.979,-0.723 1.566,-0.87 0.586,-0.147 1.308,-0.615 1.606,-1.039 0.297,-0.425 0.71,-0.772 0.918,-0.772 0.207,0 0.737,-0.36 1.177,-0.8 0.44,-0.44 1.207,-0.8 1.704,-0.8 0.497,0 1.128,-0.36 1.403,-0.8 0.275,-0.44 0.86,-0.8 1.3,-0.8 0.441,0 1.109,-0.36 1.486,-0.8 0.377,-0.44 0.88,-0.8 1.118,-0.8 0.239,0 1.044,-0.45 1.789,-1 0.745,-0.55 1.607,-1 1.915,-1 0.307,0 1.016,-0.36 1.576,-0.8 0.559,-0.44 1.279,-0.8 1.6,-0.8 0.32,0 1.04,-0.36 1.6,-0.8 0.559,-0.44 1.328,-0.8 1.709,-0.8 0.381,0 1.131,-0.345 1.667,-0.767 0.537,-0.422 1.666,-0.897 2.509,-1.055 0.844,-0.158 1.869,-0.623 2.279,-1.033 0.41,-0.41 1.122,-0.745 1.582,-0.745 0.46,0 1.268,-0.339 1.795,-0.754 0.527,-0.415 1.755,-0.873 2.728,-1.019 0.973,-0.146 1.863,-0.509 1.977,-0.806 0.114,-0.298 0.981,-0.672 1.926,-0.832 0.946,-0.159 2.083,-0.528 2.528,-0.819 0.445,-0.291 1.619,-0.653 2.609,-0.803 0.99,-0.15 2.118,-0.55 2.506,-0.888 0.389,-0.338 1.739,-0.695 3,-0.793 1.405,-0.109 2.604,-0.451 3.094,-0.882 0.503,-0.442 1.74,-0.783 3.33,-0.918 1.479,-0.126 2.82,-0.479 3.23,-0.85 0.447,-0.404 1.852,-0.73 3.871,-0.898 1.781,-0.148 3.594,-0.539 4.14,-0.893 0.674,-0.437 2.237,-0.677 5.105,-0.783 3.026,-0.112 4.53,-0.355 5.613,-0.908 2.217,-1.129 10.29,-1.115 10.897,0.02 m 35.788,-0.007 c 1.199,0.566 2.747,0.805 5.894,0.909 3.341,0.111 4.433,0.292 5.031,0.833 0.473,0.427 1.439,0.698 2.532,0.708 2.441,0.024 5.209,0.6 5.552,1.156 0.157,0.254 1.595,0.602 3.195,0.773 2.078,0.222 3.017,0.503 3.286,0.982 0.261,0.467 0.901,0.672 2.096,0.672 1.841,0 4.24,0.675 4.24,1.193 0,0.173 0.99,0.439 2.2,0.59 1.21,0.151 2.43,0.504 2.71,0.784 0.281,0.281 1.226,0.643 2.1,0.805 0.875,0.163 1.891,0.566 2.259,0.896 0.368,0.33 1.396,0.697 2.284,0.816 0.888,0.119 1.92,0.554 2.293,0.966 0.373,0.413 1.183,0.75 1.8,0.75 0.618,0 1.445,0.336 1.838,0.747 0.394,0.411 1.368,0.865 2.165,1.008 0.796,0.144 1.859,0.618 2.361,1.053 0.502,0.436 1.337,0.792 1.855,0.792 0.519,0 1.251,0.36 1.628,0.8 0.377,0.44 1.055,0.8 1.507,0.8 0.452,0 1.267,0.313 1.811,0.697 1.205,0.848 2.951,1.849 4.689,2.687 0.715,0.345 1.3,0.796 1.3,1.003 0,0.207 0.635,0.496 1.411,0.641 0.776,0.146 1.592,0.604 1.814,1.019 0.222,0.414 0.757,0.753 1.189,0.753 0.432,0 1.128,0.342 1.547,0.761 0.418,0.418 1.138,0.88 1.6,1.026 0.461,0.147 0.839,0.505 0.839,0.795 0,0.291 0.628,0.647 1.395,0.791 0.778,0.146 1.581,0.608 1.814,1.044 0.231,0.431 0.676,0.783 0.991,0.783 0.315,0 0.765,0.36 1,0.8 0.235,0.44 0.767,0.8 1.18,0.8 0.759,0 2.201,1.043 3.732,2.7 0.458,0.495 0.972,0.9 1.142,0.9 0.357,0 3.019,1.766 3.932,2.607 0.338,0.312 1.464,1.383 2.503,2.38 1.04,0.997 2.001,1.813 2.137,1.813 1.657,0 20.974,19.335 20.974,20.993 0,0.153 0.822,1.117 1.827,2.143 3.105,3.168 3.373,3.479 3.373,3.916 0,0.233 0.36,0.75 0.8,1.148 0.44,0.398 0.8,0.96 0.8,1.248 0,0.288 0.36,0.717 0.8,0.952 0.44,0.235 0.8,0.626 0.8,0.868 0,0.242 0.45,0.857 1,1.367 0.55,0.51 1,1.289 1,1.732 0,0.443 0.36,0.998 0.8,1.233 0.44,0.235 0.8,0.685 0.8,1 0,0.315 0.36,0.765 0.8,1 0.44,0.235 0.8,0.782 0.8,1.214 0,0.432 0.342,1.128 0.761,1.547 0.418,0.418 0.875,1.121 1.015,1.563 0.14,0.441 0.508,0.899 0.817,1.018 0.31,0.119 0.683,0.855 0.829,1.637 0.147,0.782 0.498,1.421 0.78,1.421 0.569,0 0.998,0.868 0.998,2.019 0,0.414 0.36,0.946 0.8,1.181 0.44,0.235 0.8,0.668 0.8,0.96 0,0.293 0.349,0.976 0.775,1.518 0.427,0.542 0.893,1.453 1.036,2.025 0.144,0.571 0.505,1.133 0.803,1.247 0.298,0.114 0.665,0.862 0.814,1.661 0.15,0.799 0.509,1.544 0.798,1.654 0.289,0.111 0.649,0.765 0.8,1.453 0.151,0.688 0.595,1.708 0.987,2.266 0.392,0.559 0.829,1.7 0.972,2.537 0.142,0.837 0.502,1.614 0.798,1.728 0.296,0.113 0.661,0.859 0.811,1.657 0.149,0.798 0.617,1.89 1.039,2.427 0.422,0.536 0.767,1.466 0.767,2.067 0,0.601 0.36,1.55 0.8,2.109 0.44,0.56 0.8,1.55 0.8,2.2 0,0.651 0.354,1.633 0.787,2.183 0.432,0.55 0.91,1.79 1.062,2.754 0.152,0.965 0.512,2.118 0.799,2.562 0.288,0.444 0.649,1.884 0.803,3.2 0.154,1.321 0.536,2.581 0.852,2.814 0.343,0.253 0.702,1.597 0.894,3.352 0.177,1.61 0.543,3.065 0.814,3.233 0.282,0.174 0.625,1.756 0.803,3.705 0.183,2.005 0.58,3.812 0.968,4.404 0.458,0.7 0.732,2.323 0.9,5.345 0.162,2.905 0.448,4.657 0.866,5.301 0.837,1.288 1.217,13.316 0.451,14.239 -0.668,0.805 -169.915,0.923 -170.719,0.119 -0.509,-0.509 -0.744,-170.767 -0.237,-172.087 0.392,-1.022 10.507,-0.915 12.731,0.134 M 187.52,209.28 c 0.797,0.797 0.687,168.05 -0.111,168.712 -0.917,0.762 -10.104,0.393 -11.409,-0.457 -0.711,-0.464 -2.241,-0.703 -5.296,-0.828 -3.264,-0.133 -4.472,-0.335 -5.031,-0.841 -0.444,-0.402 -1.437,-0.673 -2.504,-0.683 -2.455,-0.025 -5.315,-0.621 -5.49,-1.145 -0.08,-0.241 -0.897,-0.438 -1.815,-0.438 -1.949,0 -4.296,-0.605 -4.666,-1.203 -0.142,-0.23 -1.235,-0.526 -2.428,-0.659 -1.194,-0.132 -2.71,-0.555 -3.37,-0.939 -0.66,-0.384 -1.979,-0.796 -2.931,-0.915 -0.952,-0.119 -2.032,-0.482 -2.4,-0.807 -0.368,-0.324 -1.447,-0.717 -2.397,-0.873 -0.95,-0.156 -1.823,-0.532 -1.939,-0.835 -0.118,-0.307 -1.074,-0.666 -2.155,-0.81 -1.125,-0.149 -2.229,-0.573 -2.623,-1.008 -0.373,-0.413 -1.193,-0.751 -1.821,-0.751 -0.647,0 -1.439,-0.347 -1.827,-0.8 -0.377,-0.44 -1.086,-0.8 -1.577,-0.8 -1.027,0 -2.93,-0.79 -2.93,-1.217 0,-0.158 -0.81,-0.492 -1.8,-0.741 -0.99,-0.25 -1.8,-0.624 -1.8,-0.832 0,-0.209 -0.729,-0.576 -1.621,-0.816 -0.891,-0.24 -1.72,-0.696 -1.842,-1.015 -0.123,-0.318 -0.539,-0.579 -0.926,-0.579 -0.387,0 -1.132,-0.322 -1.657,-0.716 -0.525,-0.394 -1.449,-0.93 -2.054,-1.191 -0.605,-0.262 -1.1,-0.637 -1.1,-0.834 0,-0.198 -0.569,-0.473 -1.264,-0.612 -0.696,-0.139 -1.516,-0.611 -1.823,-1.05 -0.307,-0.438 -0.997,-0.797 -1.532,-0.797 -0.541,0 -1.196,-0.356 -1.474,-0.8 -0.275,-0.44 -0.725,-0.8 -1,-0.8 -0.275,0 -0.725,-0.36 -1,-0.8 -0.275,-0.44 -0.915,-0.8 -1.422,-0.8 -0.508,0 -1.34,-0.45 -1.85,-1 -0.51,-0.55 -1.091,-1 -1.292,-1 -0.201,0 -0.673,-0.36 -1.05,-0.8 -0.377,-0.44 -1.041,-0.8 -1.475,-0.8 -0.434,0 -0.976,-0.348 -1.204,-0.773 -0.227,-0.425 -0.773,-0.887 -1.214,-1.027 -0.44,-0.14 -0.8,-0.512 -0.8,-0.827 0,-0.315 -0.206,-0.573 -0.459,-0.573 -0.661,0 -4.741,-2.772 -4.741,-3.221 0,-0.209 -0.201,-0.379 -0.447,-0.379 -0.246,0 -1.111,-0.675 -1.923,-1.5 -0.812,-0.825 -2.31,-2.088 -3.329,-2.807 C 75.996,331.572 60.8,316.101 60.8,314.632 c 0,-0.149 -0.909,-1.179 -2.019,-2.289 -1.11,-1.111 -2.453,-2.707 -2.984,-3.547 -0.53,-0.841 -1.152,-1.645 -1.381,-1.786 C 54.187,306.869 54,306.416 54,306.003 54,305.591 53.64,305.14 53.2,305 c -0.44,-0.14 -0.8,-0.505 -0.8,-0.813 0,-0.307 -0.339,-0.74 -0.754,-0.962 -0.415,-0.222 -0.869,-0.863 -1.01,-1.425 -0.141,-0.561 -0.526,-1.331 -0.856,-1.71 -2.183,-2.51 -2.58,-3.084 -2.58,-3.73 0,-0.398 -0.463,-1.227 -1.028,-1.842 -0.565,-0.615 -1.285,-1.403 -1.6,-1.752 C 44.257,292.418 44,291.842 44,291.487 c 0,-0.355 -0.45,-1.131 -1,-1.725 -0.55,-0.593 -1,-1.496 -1,-2.006 0,-0.518 -0.353,-1.117 -0.8,-1.356 -0.44,-0.235 -0.8,-0.754 -0.8,-1.152 0,-0.398 -0.36,-1.05 -0.8,-1.448 -0.44,-0.398 -0.8,-1.029 -0.8,-1.401 0,-0.372 -0.349,-1.079 -0.775,-1.571 -0.427,-0.491 -0.891,-1.419 -1.032,-2.061 -0.141,-0.642 -0.393,-1.167 -0.561,-1.167 -0.377,0 -1.232,-1.828 -1.232,-2.636 0,-0.328 -0.36,-0.984 -0.8,-1.456 -0.49,-0.526 -0.8,-1.412 -0.8,-2.287 0,-0.995 -0.243,-1.58 -0.8,-1.928 -0.495,-0.309 -0.8,-0.933 -0.8,-1.634 0,-0.624 -0.352,-1.454 -0.782,-1.843 -0.434,-0.393 -0.904,-1.513 -1.054,-2.515 -0.149,-0.995 -0.607,-2.144 -1.017,-2.554 -0.411,-0.411 -0.748,-1.242 -0.75,-1.847 -10e-4,-0.605 -0.36,-1.64 -0.797,-2.3 -0.437,-0.66 -0.797,-1.74 -0.799,-2.4 -0.002,-0.66 -0.334,-1.74 -0.736,-2.401 -0.403,-0.66 -0.842,-2.263 -0.976,-3.562 -0.134,-1.299 -0.447,-2.488 -0.695,-2.641 -0.541,-0.334 -1.171,-2.865 -1.184,-4.752 -0.006,-0.772 -0.286,-1.557 -0.65,-1.824 -0.458,-0.335 -0.717,-1.446 -0.907,-3.89 -0.155,-2.002 -0.501,-3.706 -0.833,-4.106 -0.365,-0.44 -0.671,-2.249 -0.857,-5.073 -0.162,-2.451 -0.554,-4.955 -0.889,-5.67 -0.803,-1.72 -1.318,-9.478 -0.704,-10.625 l 0.458,-0.856 h 84.106 c 64.882,0 84.216,0.11 84.586,0.48 m 194.086,0.128 c 0.718,0.865 0.323,9.428 -0.493,10.681 -0.386,0.593 -0.669,2.412 -0.81,5.216 -0.156,3.091 -0.409,4.598 -0.898,5.344 -0.411,0.627 -0.802,2.367 -0.986,4.386 -0.168,1.84 -0.549,3.639 -0.846,3.997 -0.297,0.358 -0.663,1.835 -0.812,3.283 -0.162,1.559 -0.509,2.805 -0.852,3.058 -0.323,0.239 -0.702,1.483 -0.858,2.819 -0.154,1.316 -0.515,2.756 -0.803,3.2 -0.287,0.444 -0.643,1.572 -0.79,2.505 -0.147,0.934 -0.624,2.284 -1.061,3 -0.437,0.717 -0.795,1.739 -0.796,2.272 0,0.532 -0.293,1.291 -0.65,1.685 -0.357,0.394 -0.809,1.573 -1.004,2.618 -0.195,1.045 -0.607,2.042 -0.916,2.215 -0.308,0.172 -0.685,1.046 -0.836,1.941 -0.151,0.895 -0.522,1.723 -0.824,1.838 -0.302,0.116 -0.661,0.869 -0.798,1.673 -0.136,0.803 -0.591,1.949 -1.01,2.545 -0.42,0.596 -0.763,1.427 -0.763,1.846 0,0.419 -0.335,1.191 -0.745,1.716 -0.41,0.525 -0.884,1.404 -1.055,1.954 -0.171,0.55 -0.645,1.429 -1.055,1.954 -0.41,0.525 -0.745,1.172 -0.745,1.439 0,0.266 -0.36,0.9 -0.8,1.407 -0.44,0.507 -0.8,1.159 -0.8,1.447 0,0.289 -0.36,0.718 -0.8,0.953 -0.521,0.279 -0.8,0.838 -0.8,1.6 0,0.762 -0.279,1.321 -0.8,1.6 -0.44,0.235 -0.8,0.768 -0.8,1.183 0,0.416 -0.45,1.29 -1,1.944 -0.55,0.654 -1,1.298 -1,1.431 0,0.133 -0.36,0.602 -0.8,1.042 -0.44,0.44 -0.8,1.154 -0.8,1.586 0,0.432 -0.36,0.979 -0.8,1.214 -0.44,0.235 -0.8,0.69 -0.8,1.011 0,0.32 -0.36,0.807 -0.8,1.082 -0.44,0.275 -0.8,0.801 -0.8,1.169 0,0.641 -0.861,1.857 -2.612,3.689 -0.446,0.467 -1.027,1.344 -1.291,1.949 -0.264,0.605 -0.664,1.1 -0.888,1.1 -0.225,0 -0.409,0.228 -0.409,0.507 0,0.279 -0.81,1.352 -1.8,2.385 -0.99,1.034 -1.8,2.065 -1.8,2.293 0,0.228 -0.276,0.415 -0.613,0.415 -0.336,0 -0.727,0.315 -0.868,0.7 -0.14,0.385 -0.674,1.24 -1.185,1.9 -0.512,0.66 -1.336,1.725 -1.832,2.368 -1.637,2.119 -13.985,14.276 -15.559,15.317 -0.849,0.562 -1.543,1.165 -1.543,1.341 0,0.176 -0.358,0.434 -0.796,0.573 -0.438,0.139 -1.892,1.321 -3.23,2.627 -1.339,1.306 -2.573,2.374 -2.742,2.374 -0.169,0 -0.831,0.45 -1.47,1 -0.639,0.549 -1.344,0.999 -1.566,1 -0.222,0 -0.628,0.36 -0.903,0.8 -0.275,0.44 -0.725,0.8 -1,0.8 -0.275,0 -0.725,0.36 -1,0.8 -0.275,0.44 -0.832,0.8 -1.238,0.8 -0.406,0 -1.2,0.405 -1.764,0.9 -2.586,2.271 -3.208,2.7 -3.911,2.7 -0.413,0 -0.945,0.36 -1.18,0.8 -0.235,0.44 -0.664,0.8 -0.952,0.8 -0.288,0 -0.85,0.36 -1.248,0.8 -0.398,0.44 -1.14,0.8 -1.648,0.8 -0.508,0 -1.109,0.345 -1.335,0.767 -0.226,0.423 -0.997,0.897 -1.714,1.054 -0.716,0.158 -1.538,0.622 -1.826,1.033 -0.287,0.41 -0.79,0.746 -1.116,0.746 -0.327,0 -0.981,0.36 -1.453,0.8 -0.472,0.44 -1.163,0.8 -1.534,0.8 -0.372,0 -0.899,0.269 -1.172,0.597 -0.272,0.329 -1.194,0.785 -2.049,1.016 -0.854,0.23 -1.553,0.577 -1.553,0.771 0,0.195 -0.671,0.575 -1.49,0.846 -0.82,0.27 -2.035,0.824 -2.7,1.229 -0.666,0.406 -1.665,0.739 -2.221,0.74 -0.556,0 -1.319,0.361 -1.696,0.801 -0.399,0.466 -1.18,0.8 -1.869,0.8 -0.67,0 -1.34,0.278 -1.542,0.64 -0.198,0.352 -1.228,0.803 -2.29,1.001 -1.062,0.198 -2.219,0.622 -2.572,0.941 -0.352,0.319 -1.401,0.701 -2.33,0.85 -0.93,0.149 -1.69,0.398 -1.69,0.555 0,0.485 -1.974,1.213 -3.287,1.213 -0.688,0 -1.56,0.281 -1.94,0.624 -0.379,0.344 -1.916,0.798 -3.414,1.01 -1.498,0.213 -2.835,0.565 -2.97,0.783 -0.35,0.567 -2.716,1.183 -4.542,1.183 -0.913,0 -1.743,0.246 -2.003,0.594 -0.302,0.405 -1.561,0.679 -3.944,0.859 -1.925,0.146 -3.5,0.41 -3.5,0.587 0,0.598 -2.98,1.156 -6.2,1.16 -2.258,0.004 -3.553,0.204 -4.4,0.681 -1.624,0.915 -12.914,1.298 -13.447,0.457 -0.571,-0.902 -0.446,-168.085 0.127,-168.658 0.812,-0.812 170.052,-0.685 170.726,0.128"
       stroke="none"
       fill="#3c7ca4"
       fill-rule="evenodd" />
    <path
       id="path1"
       d="m 183.842,16.662 c -1.297,0.258 -4.267,0.588 -6.6,0.733 -2.333,0.145 -5.052,0.514 -6.042,0.821 -0.99,0.306 -3.288,0.738 -5.107,0.96 -1.819,0.222 -3.638,0.58 -4.042,0.797 -0.404,0.216 -1.976,0.587 -3.493,0.824 -1.517,0.237 -3.298,0.679 -3.958,0.982 -0.66,0.304 -2.1,0.684 -3.2,0.845 -1.1,0.161 -2.36,0.52 -2.8,0.796 -0.44,0.277 -1.609,0.634 -2.598,0.793 -0.989,0.16 -2.426,0.627 -3.194,1.039 C 142.04,25.663 141.047,26 140.6,26 c -0.447,0 -1.484,0.36 -2.304,0.8 -0.821,0.44 -1.809,0.806 -2.195,0.813 -0.385,0.006 -1.601,0.455 -2.701,0.996 -1.1,0.541 -2.293,0.985 -2.651,0.987 -0.358,0.002 -0.866,0.262 -1.128,0.578 -0.262,0.316 -1.034,0.697 -1.715,0.847 -0.682,0.149 -1.794,0.61 -2.473,1.024 -0.678,0.414 -1.475,0.753 -1.77,0.754 -0.295,0 -0.994,0.361 -1.554,0.801 -0.559,0.44 -1.328,0.8 -1.709,0.8 -0.381,0 -1.136,0.349 -1.678,0.775 -0.542,0.427 -1.466,0.896 -2.054,1.044 -0.587,0.147 -1.068,0.409 -1.068,0.581 0,0.172 -0.675,0.613 -1.5,0.98 -0.825,0.367 -2.22,1.097 -3.1,1.622 -0.88,0.525 -2.23,1.274 -3,1.664 -0.77,0.389 -1.58,0.851 -1.8,1.027 -1.094,0.871 -9.551,6.307 -9.813,6.307 -0.166,0 -0.405,0.27 -0.532,0.6 -0.126,0.33 -0.419,0.6 -0.651,0.6 -0.505,0 -6.11,4.251 -10.759,8.159 -11.483,9.654 -24.498,23.596 -30.872,33.07 -0.951,1.414 -2.162,3.101 -2.69,3.748 -0.529,0.648 -1.12,1.593 -1.312,2.1 -0.193,0.508 -0.536,0.923 -0.761,0.923 -0.226,0 -0.41,0.256 -0.41,0.569 0,0.313 -0.425,1.078 -0.945,1.7 -0.52,0.622 -1.072,1.536 -1.227,2.031 -0.155,0.495 -0.45,0.9 -0.655,0.9 -0.205,0 -0.373,0.156 -0.373,0.347 0,0.191 -0.731,1.586 -1.624,3.1 -0.894,1.514 -1.766,3.023 -1.938,3.353 -0.173,0.33 -0.556,1.05 -0.851,1.6 -1.178,2.19 -4.362,8.736 -5.351,11 -0.577,1.32 -1.406,3.066 -1.842,3.879 -0.437,0.814 -0.794,1.716 -0.794,2.006 0,0.29 -0.347,1.175 -0.772,1.967 -0.424,0.792 -0.893,2.087 -1.042,2.879 -0.148,0.792 -0.507,1.637 -0.797,1.878 -0.289,0.24 -0.651,1.192 -0.803,2.114 -0.152,0.922 -0.52,2.127 -0.817,2.677 -0.297,0.55 -0.803,1.99 -1.125,3.2 -0.322,1.21 -0.8,3.01 -1.063,4 -0.263,0.99 -0.738,2.61 -1.056,3.6 -0.318,0.99 -0.823,3.206 -1.123,4.925 -0.3,1.719 -0.718,3.339 -0.929,3.6 -0.211,0.261 -0.514,1.825 -0.674,3.475 -0.159,1.65 -0.532,3.723 -0.828,4.607 -0.297,0.883 -0.735,4.123 -0.975,7.2 -0.24,3.076 -0.606,6.223 -0.814,6.993 -0.208,0.77 -0.379,2.345 -0.38,3.501 l -0.002,2.101 83.5,-0.101 83.5,-0.101 0.101,-84.463 c 0.055,-46.454 -0.035,-84.795 -0.2,-85.203 -0.277,-0.68 -0.492,-0.702 -2.659,-0.272 m 27.956,0.238 c -0.119,0.495 -0.167,38.88 -0.107,85.3 l 0.109,84.4 84.312,0.101 c 67.862,0.081 84.35,0.002 84.507,-0.407 0.108,-0.28 0.013,-1.675 -0.21,-3.101 -0.223,-1.426 -0.593,-4.573 -0.822,-6.993 -0.228,-2.42 -0.601,-5.39 -0.829,-6.6 -0.227,-1.21 -0.726,-4.09 -1.108,-6.4 -0.383,-2.31 -0.887,-4.65 -1.119,-5.2 -0.233,-0.55 -0.551,-2.033 -0.706,-3.295 -0.155,-1.262 -0.538,-2.81 -0.853,-3.44 -0.314,-0.63 -0.683,-2.027 -0.819,-3.105 -0.137,-1.078 -0.473,-2.322 -0.747,-2.764 -0.274,-0.442 -0.692,-1.706 -0.928,-2.808 -0.237,-1.102 -0.71,-2.541 -1.052,-3.196 -0.341,-0.656 -0.622,-1.555 -0.624,-1.998 -0.001,-0.443 -0.338,-1.433 -0.749,-2.2 -0.41,-0.767 -0.871,-1.961 -1.023,-2.655 -0.152,-0.693 -0.626,-1.947 -1.053,-2.785 -0.427,-0.838 -0.777,-1.823 -0.777,-2.19 0,-0.366 -0.258,-0.881 -0.574,-1.143 -0.316,-0.262 -0.697,-1.033 -0.847,-1.714 -0.149,-0.681 -0.701,-2.046 -1.225,-3.032 -0.525,-0.987 -0.954,-2.037 -0.954,-2.335 0,-0.297 -0.173,-0.54 -0.385,-0.54 -0.211,0 -0.572,-0.699 -0.802,-1.553 -0.231,-0.855 -0.67,-1.762 -0.977,-2.017 -0.306,-0.254 -0.673,-0.923 -0.814,-1.487 -0.142,-0.563 -0.572,-1.5 -0.956,-2.083 -1.172,-1.779 -1.652,-2.593 -2.51,-4.26 -1.632,-3.17 -5.381,-9.259 -6.236,-10.129 -0.286,-0.29 -0.52,-0.671 -0.52,-0.845 0,-0.271 -1.471,-2.329 -2.795,-3.909 -0.223,-0.266 -0.405,-0.576 -0.405,-0.688 0,-0.555 -8.157,-10.827 -12.4,-15.614 C 332.198,73.279 322.218,63.4 319.623,61.192 318.206,59.987 316.691,58.655 316.257,58.234 315.591,57.587 306.178,50.36 301.636,47.007 300.885,46.453 300.03,46 299.736,46 c -0.295,0 -0.536,-0.172 -0.536,-0.381 0,-0.21 -0.622,-0.676 -1.382,-1.037 -0.759,-0.361 -1.592,-0.909 -1.849,-1.219 -0.257,-0.31 -0.656,-0.563 -0.886,-0.563 -0.231,0 -0.704,-0.248 -1.052,-0.551 -0.347,-0.303 -1.891,-1.23 -3.431,-2.059 -1.54,-0.829 -3.52,-1.922 -4.4,-2.43 -0.88,-0.508 -2.05,-1.131 -2.6,-1.385 -0.55,-0.253 -1.27,-0.623 -1.6,-0.821 -0.33,-0.198 -1.05,-0.558 -1.6,-0.8 -0.55,-0.242 -1.36,-0.629 -1.8,-0.859 -0.913,-0.479 -1.307,-0.662 -3.8,-1.765 -0.99,-0.439 -2.808,-1.277 -4.04,-1.863 -1.232,-0.587 -2.448,-1.067 -2.701,-1.067 -0.254,0 -1.134,-0.36 -1.955,-0.8 -0.82,-0.44 -1.745,-0.8 -2.054,-0.8 -0.309,0 -1.302,-0.333 -2.206,-0.74 -2.294,-1.033 -5.208,-2.006 -8.144,-2.718 -1.375,-0.334 -2.5,-0.752 -2.5,-0.929 0,-0.176 -1.035,-0.45 -2.3,-0.608 -1.264,-0.158 -2.784,-0.538 -3.377,-0.845 -0.592,-0.306 -2.239,-0.721 -3.659,-0.922 -1.42,-0.202 -2.933,-0.554 -3.361,-0.783 -0.429,-0.23 -2.382,-0.615 -4.341,-0.857 -1.959,-0.242 -4.282,-0.678 -5.162,-0.968 -0.88,-0.291 -3.58,-0.655 -6,-0.809 -2.42,-0.155 -5.627,-0.538 -7.126,-0.851 -3.58,-0.748 -3.82,-0.729 -4.076,0.33 M 19.839,210.338 c -0.115,0.185 -0.044,0.95 0.157,1.7 0.201,0.749 0.566,3.962 0.812,7.14 0.246,3.177 0.621,6.103 0.834,6.501 0.213,0.398 0.57,2.298 0.794,4.222 0.223,1.924 0.658,4.156 0.966,4.96 0.308,0.803 0.683,2.423 0.833,3.6 0.151,1.176 0.505,2.597 0.787,3.156 0.282,0.559 0.723,2.179 0.98,3.6 0.258,1.421 0.627,2.775 0.822,3.01 0.194,0.235 0.563,1.404 0.818,2.596 0.256,1.193 0.691,2.531 0.967,2.973 0.276,0.442 0.613,1.444 0.75,2.226 0.136,0.783 0.607,2.126 1.045,2.985 0.438,0.859 0.796,1.795 0.796,2.079 0,0.284 0.36,1.189 0.8,2.01 0.44,0.82 0.8,1.744 0.8,2.051 0,0.307 0.341,1.12 0.757,1.806 0.416,0.686 0.878,1.82 1.026,2.519 0.147,0.7 0.522,1.483 0.832,1.741 0.31,0.257 0.679,1.079 0.819,1.827 0.14,0.748 0.401,1.36 0.579,1.36 0.179,0 0.542,0.675 0.808,1.5 0.266,0.825 0.681,1.749 0.924,2.052 0.242,0.304 1.073,1.778 1.848,3.275 0.774,1.498 2.307,4.283 3.407,6.19 2.616,4.535 2.65,4.59 3.7,6.053 0.495,0.689 0.9,1.451 0.9,1.692 0,0.241 0.168,0.438 0.373,0.438 0.205,0 0.482,0.344 0.616,0.765 0.133,0.421 0.731,1.39 1.327,2.155 0.596,0.764 1.354,1.793 1.684,2.287 2.455,3.672 8.11,10.792 13.022,16.393 2.342,2.671 12.042,12.245 15.198,15 1.512,1.32 3.386,2.956 4.164,3.636 1.614,1.409 10.249,7.967 12.067,9.164 0.334,0.22 2.215,1.476 4.178,2.791 4.145,2.776 4.354,2.911 6.417,4.122 5.234,3.073 16.536,8.887 17.276,8.887 0.209,0 0.604,0.27 0.878,0.6 0.274,0.33 0.791,0.602 1.149,0.604 0.358,0.002 1.551,0.446 2.651,0.987 1.1,0.541 2.27,0.991 2.6,0.999 0.33,0.008 1.14,0.373 1.8,0.81 0.66,0.437 1.563,0.796 2.006,0.797 0.443,0.002 1.433,0.339 2.2,0.75 0.767,0.41 2.024,0.878 2.794,1.039 0.77,0.161 1.764,0.522 2.209,0.803 0.445,0.28 1.615,0.64 2.6,0.799 0.985,0.159 2.166,0.526 2.624,0.816 0.459,0.29 1.719,0.656 2.8,0.815 1.082,0.158 2.777,0.599 3.767,0.979 0.99,0.38 2.776,0.816 3.969,0.969 1.193,0.154 2.515,0.464 2.937,0.69 0.422,0.226 2.66,0.659 4.972,0.962 2.313,0.304 4.412,0.715 4.664,0.914 0.252,0.199 3.213,0.574 6.581,0.833 3.368,0.259 6.593,0.65 7.167,0.868 0.771,0.293 1.129,0.262 1.371,-0.118 0.18,-0.284 0.33,-37.911 0.333,-83.616 L 186.8,210 h -83.376 c -45.857,0 -83.471,0.152 -83.585,0.338 M 211.606,293.1 c 0.004,50.438 0.152,83.331 0.378,83.687 0.317,0.501 0.713,0.515 2.694,0.094 1.277,-0.272 4.662,-0.678 7.522,-0.902 2.86,-0.224 6.1,-0.665 7.2,-0.98 1.1,-0.315 3.17,-0.691 4.6,-0.836 1.43,-0.145 3.167,-0.495 3.86,-0.777 0.694,-0.282 2.574,-0.716 4.178,-0.965 1.605,-0.249 3.108,-0.61 3.34,-0.802 0.232,-0.192 1.592,-0.56 3.022,-0.819 1.43,-0.259 2.792,-0.629 3.027,-0.824 0.235,-0.194 1.404,-0.563 2.596,-0.818 1.193,-0.256 2.531,-0.698 2.973,-0.982 0.442,-0.284 1.481,-0.641 2.308,-0.792 0.828,-0.151 2.171,-0.614 2.985,-1.029 0.814,-0.415 1.713,-0.755 1.997,-0.755 0.284,0 1.188,-0.36 2.008,-0.799 0.82,-0.44 2.08,-0.91 2.799,-1.045 0.719,-0.135 1.307,-0.391 1.307,-0.569 0,-0.179 0.675,-0.536 1.5,-0.794 1.396,-0.436 7.548,-3.23 8.9,-4.043 0.33,-0.198 1.32,-0.711 2.2,-1.14 1.541,-0.75 6.324,-3.404 9.552,-5.299 0.854,-0.501 2.016,-1.164 2.583,-1.472 0.567,-0.309 1.387,-0.894 1.823,-1.3 0.436,-0.407 0.933,-0.739 1.103,-0.739 0.171,0 1.082,-0.543 2.025,-1.207 0.943,-0.664 2.704,-1.875 3.914,-2.691 1.21,-0.816 2.403,-1.668 2.652,-1.893 0.249,-0.225 2.118,-1.669 4.154,-3.209 2.036,-1.54 4.086,-3.16 4.556,-3.6 0.47,-0.44 1.931,-1.69 3.246,-2.777 1.316,-1.087 5.454,-5.047 9.197,-8.8 6.336,-6.354 8.79,-9.021 12.119,-13.172 0.729,-0.908 1.767,-2.191 2.307,-2.851 2.099,-2.565 6.397,-8.469 7.977,-10.957 2.004,-3.156 2.747,-4.272 2.96,-4.443 0.137,-0.11 0.478,-0.65 0.759,-1.2 0.282,-0.55 0.952,-1.72 1.489,-2.6 0.538,-0.88 1.261,-2.14 1.605,-2.8 0.345,-0.66 1.143,-2.1 1.773,-3.2 0.63,-1.1 1.717,-3.17 2.417,-4.6 0.7,-1.43 1.435,-2.87 1.634,-3.2 0.198,-0.33 0.557,-1.05 0.797,-1.6 1.203,-2.759 1.915,-4.361 2.667,-6 0.453,-0.99 1.033,-2.472 1.287,-3.294 0.254,-0.822 0.609,-1.585 0.788,-1.696 0.179,-0.111 0.448,-0.858 0.599,-1.66 0.15,-0.802 0.621,-2.106 1.045,-2.898 0.425,-0.792 0.772,-1.805 0.772,-2.252 0,-0.447 0.36,-1.484 0.8,-2.304 0.44,-0.821 0.804,-1.899 0.809,-2.395 0.005,-0.495 0.338,-1.627 0.741,-2.514 0.403,-0.887 0.867,-2.505 1.03,-3.595 0.164,-1.09 0.523,-2.434 0.799,-2.987 0.275,-0.553 0.716,-2.346 0.978,-3.984 0.262,-1.639 0.632,-3.169 0.821,-3.4 0.189,-0.232 0.548,-2.11 0.798,-4.175 0.249,-2.064 0.629,-4.082 0.844,-4.483 0.214,-0.401 0.572,-3.122 0.793,-6.046 0.222,-2.924 0.596,-6.163 0.831,-7.198 0.235,-1.035 0.31,-2.07 0.168,-2.3 C 380.033,210.129 354.006,210 295.776,210 H 211.6 l 0.006,83.1"
       stroke="none"
       fill="#fcfcfc"
       fill-rule="evenodd" />
    <path
       id="path2"
       d="m 176.689,15.554 c -1.083,0.553 -2.587,0.796 -5.613,0.908 -2.868,0.106 -4.431,0.346 -5.105,0.783 -0.546,0.354 -2.359,0.745 -4.14,0.893 -2.019,0.168 -3.424,0.494 -3.871,0.898 -0.41,0.371 -1.751,0.724 -3.23,0.85 -1.59,0.135 -2.827,0.476 -3.33,0.918 -0.49,0.431 -1.689,0.773 -3.094,0.882 -1.261,0.098 -2.611,0.455 -3,0.793 -0.388,0.338 -1.516,0.738 -2.506,0.888 -0.99,0.15 -2.164,0.512 -2.609,0.803 -0.445,0.291 -1.582,0.66 -2.528,0.819 -0.945,0.16 -1.812,0.534 -1.926,0.832 -0.114,0.297 -1.004,0.66 -1.977,0.806 -0.973,0.146 -2.201,0.604 -2.728,1.019 -0.527,0.415 -1.335,0.754 -1.795,0.754 -0.46,0 -1.172,0.335 -1.582,0.745 -0.41,0.41 -1.435,0.875 -2.279,1.033 -0.843,0.158 -1.972,0.633 -2.509,1.055 -0.536,0.422 -1.286,0.767 -1.667,0.767 -0.381,0 -1.15,0.36 -1.709,0.8 -0.56,0.44 -1.28,0.8 -1.6,0.8 -0.321,0 -1.041,0.36 -1.6,0.8 -0.56,0.44 -1.269,0.8 -1.576,0.8 -0.308,0 -1.17,0.45 -1.915,1 -0.745,0.55 -1.55,1 -1.789,1 -0.238,0 -0.741,0.36 -1.118,0.8 -0.377,0.44 -1.045,0.8 -1.486,0.8 -0.44,0 -1.025,0.36 -1.3,0.8 -0.275,0.44 -0.906,0.8 -1.403,0.8 -0.497,0 -1.264,0.36 -1.704,0.8 -0.44,0.44 -0.97,0.8 -1.177,0.8 -0.208,0 -0.621,0.347 -0.918,0.772 -0.298,0.424 -1.02,0.892 -1.606,1.039 -0.587,0.147 -1.291,0.539 -1.566,0.87 -0.275,0.331 -0.913,0.759 -1.417,0.951 -0.504,0.191 -0.916,0.623 -0.916,0.958 0,0.377 -0.366,0.61 -0.958,0.61 -0.587,0 -1.697,0.698 -2.864,1.8 -1.048,0.99 -2.049,1.8 -2.224,1.8 -0.822,0 -3.578,2.219 -7.329,5.9 -0.504,0.495 -1.057,0.9 -1.228,0.9 -0.444,0 -4.358,3.356 -7.341,6.294 -1.398,1.378 -2.703,2.506 -2.9,2.506 -0.196,0 -0.356,0.258 -0.356,0.573 0,0.315 -0.36,0.687 -0.8,0.827 -0.44,0.14 -0.8,0.529 -0.8,0.864 0,0.336 -0.36,0.705 -0.8,0.82 -0.44,0.115 -0.8,0.328 -0.8,0.474 0,0.145 -1.26,1.604 -2.8,3.242 -1.54,1.638 -2.8,3.201 -2.8,3.475 0,0.273 -0.36,0.69 -0.8,0.925 -0.44,0.235 -0.8,0.685 -0.8,1 0,0.315 -0.36,0.765 -0.8,1 -0.44,0.235 -0.8,0.591 -0.8,0.791 0,0.199 -0.765,1.174 -1.7,2.166 -2.109,2.237 -3.5,4.048 -3.5,4.556 0,0.212 -0.721,1.174 -1.603,2.136 -0.882,0.963 -1.715,2.111 -1.851,2.551 -0.136,0.44 -0.491,1.07 -0.789,1.4 -2.019,2.236 -2.557,3.002 -2.557,3.64 0,0.398 -0.463,1.227 -1.028,1.842 -1.874,2.039 -2.055,2.309 -2.343,3.5 -0.157,0.65 -0.633,1.425 -1.057,1.723 -0.425,0.297 -0.772,0.974 -0.772,1.504 0,0.553 -0.34,1.145 -0.8,1.391 -0.44,0.235 -0.8,0.76 -0.8,1.165 0,0.405 -0.261,0.953 -0.58,1.218 -0.318,0.265 -0.782,1.097 -1.031,1.849 -0.248,0.752 -0.603,1.368 -0.789,1.368 -0.186,0 -0.555,0.675 -0.82,1.5 -0.264,0.825 -0.714,1.77 -0.999,2.1 -0.285,0.33 -0.65,1.14 -0.811,1.8 -0.161,0.66 -0.625,1.629 -1.031,2.154 -0.406,0.525 -0.739,1.516 -0.739,2.204 0,0.816 -0.277,1.423 -0.8,1.749 -0.495,0.309 -0.8,0.933 -0.8,1.634 0,0.624 -0.352,1.454 -0.782,1.843 -0.441,0.399 -0.904,1.519 -1.061,2.562 -0.153,1.02 -0.525,2.035 -0.827,2.255 -0.301,0.221 -0.659,1.121 -0.793,2 -0.135,0.88 -0.518,1.913 -0.85,2.296 -0.333,0.383 -0.752,1.621 -0.93,2.751 -0.179,1.129 -0.578,2.346 -0.888,2.703 -0.31,0.357 -0.666,1.703 -0.792,2.99 -0.125,1.288 -0.508,2.652 -0.851,3.03 -0.349,0.386 -0.736,1.82 -0.878,3.259 -0.14,1.414 -0.533,2.89 -0.873,3.281 -0.389,0.446 -0.705,1.876 -0.849,3.841 -0.134,1.821 -0.471,3.42 -0.806,3.823 -0.378,0.456 -0.674,2.228 -0.862,5.16 -0.179,2.791 -0.527,4.934 -0.927,5.716 -1.069,2.087 -1.406,13.685 -0.42,14.407 1.032,0.754 168.155,0.816 168.909,0.062 0.639,-0.639 0.704,-170.754 0.066,-171.946 -0.607,-1.135 -8.68,-1.149 -10.897,-0.02 m 33.954,-0.121 c -0.507,1.32 -0.272,171.578 0.237,172.087 0.804,0.804 170.051,0.686 170.719,-0.119 0.766,-0.923 0.386,-12.951 -0.451,-14.239 -0.418,-0.644 -0.704,-2.396 -0.866,-5.301 -0.168,-3.022 -0.442,-4.645 -0.9,-5.345 -0.388,-0.592 -0.785,-2.399 -0.968,-4.404 -0.178,-1.949 -0.521,-3.531 -0.803,-3.705 -0.271,-0.168 -0.637,-1.623 -0.814,-3.233 -0.192,-1.755 -0.551,-3.099 -0.894,-3.352 -0.316,-0.233 -0.698,-1.493 -0.852,-2.814 -0.154,-1.316 -0.515,-2.756 -0.803,-3.2 -0.287,-0.444 -0.647,-1.597 -0.799,-2.562 -0.152,-0.964 -0.63,-2.204 -1.062,-2.754 -0.433,-0.55 -0.787,-1.532 -0.787,-2.183 0,-0.65 -0.36,-1.64 -0.8,-2.2 -0.44,-0.559 -0.8,-1.508 -0.8,-2.109 0,-0.601 -0.345,-1.531 -0.767,-2.067 -0.422,-0.537 -0.89,-1.629 -1.039,-2.427 -0.15,-0.798 -0.515,-1.544 -0.811,-1.657 -0.296,-0.114 -0.656,-0.891 -0.798,-1.728 -0.143,-0.837 -0.58,-1.978 -0.972,-2.537 -0.392,-0.558 -0.836,-1.578 -0.987,-2.266 -0.151,-0.688 -0.511,-1.342 -0.8,-1.453 -0.289,-0.11 -0.648,-0.855 -0.798,-1.654 -0.149,-0.799 -0.516,-1.547 -0.814,-1.661 -0.298,-0.114 -0.659,-0.676 -0.803,-1.247 -0.143,-0.572 -0.609,-1.483 -1.036,-2.025 -0.426,-0.542 -0.775,-1.225 -0.775,-1.518 0,-0.292 -0.36,-0.725 -0.8,-0.96 -0.44,-0.235 -0.8,-0.767 -0.8,-1.181 0,-1.151 -0.429,-2.019 -0.998,-2.019 -0.282,0 -0.633,-0.639 -0.78,-1.421 -0.146,-0.782 -0.519,-1.518 -0.829,-1.637 -0.309,-0.119 -0.677,-0.577 -0.817,-1.018 -0.14,-0.442 -0.597,-1.145 -1.015,-1.563 -0.419,-0.419 -0.761,-1.115 -0.761,-1.547 0,-0.432 -0.36,-0.979 -0.8,-1.214 -0.44,-0.235 -0.8,-0.685 -0.8,-1 0,-0.315 -0.36,-0.765 -0.8,-1 -0.44,-0.235 -0.8,-0.79 -0.8,-1.233 0,-0.443 -0.45,-1.222 -1,-1.732 -0.55,-0.51 -1,-1.125 -1,-1.367 0,-0.242 -0.36,-0.633 -0.8,-0.868 -0.44,-0.235 -0.8,-0.664 -0.8,-0.952 0,-0.288 -0.36,-0.85 -0.8,-1.248 -0.44,-0.398 -0.8,-0.915 -0.8,-1.148 0,-0.437 -0.268,-0.748 -3.373,-3.916 -1.005,-1.026 -1.827,-1.99 -1.827,-2.143 0,-1.658 -19.317,-20.993 -20.974,-20.993 -0.136,0 -1.097,-0.816 -2.137,-1.813 -1.039,-0.997 -2.165,-2.068 -2.503,-2.38 -0.913,-0.841 -3.575,-2.607 -3.932,-2.607 -0.17,0 -0.684,-0.405 -1.142,-0.9 -1.531,-1.657 -2.973,-2.7 -3.732,-2.7 -0.413,0 -0.945,-0.36 -1.18,-0.8 -0.235,-0.44 -0.685,-0.8 -1,-0.8 -0.315,0 -0.76,-0.352 -0.991,-0.783 -0.233,-0.436 -1.036,-0.898 -1.814,-1.044 -0.767,-0.144 -1.395,-0.5 -1.395,-0.791 0,-0.29 -0.378,-0.648 -0.839,-0.795 -0.462,-0.146 -1.182,-0.608 -1.6,-1.026 -0.419,-0.419 -1.115,-0.761 -1.547,-0.761 -0.432,0 -0.967,-0.339 -1.189,-0.753 -0.222,-0.415 -1.038,-0.873 -1.814,-1.019 C 290.635,38.483 290,38.194 290,37.987 c 0,-0.207 -0.585,-0.658 -1.3,-1.003 -1.738,-0.838 -3.484,-1.839 -4.689,-2.687 -0.544,-0.384 -1.359,-0.697 -1.811,-0.697 -0.452,0 -1.13,-0.36 -1.507,-0.8 -0.377,-0.44 -1.109,-0.8 -1.628,-0.8 -0.518,0 -1.353,-0.356 -1.855,-0.792 -0.502,-0.435 -1.565,-0.909 -2.361,-1.053 -0.797,-0.143 -1.771,-0.597 -2.165,-1.008 -0.393,-0.411 -1.22,-0.747 -1.838,-0.747 -0.617,0 -1.427,-0.337 -1.8,-0.75 -0.373,-0.412 -1.405,-0.847 -2.293,-0.966 -0.888,-0.119 -1.916,-0.486 -2.284,-0.816 -0.368,-0.33 -1.384,-0.733 -2.259,-0.896 -0.874,-0.162 -1.819,-0.524 -2.1,-0.805 -0.28,-0.28 -1.5,-0.633 -2.71,-0.784 -1.21,-0.151 -2.2,-0.417 -2.2,-0.59 0,-0.518 -2.399,-1.193 -4.24,-1.193 -1.195,0 -1.835,-0.205 -2.096,-0.672 -0.269,-0.479 -1.208,-0.76 -3.286,-0.982 -1.6,-0.171 -3.038,-0.519 -3.195,-0.773 -0.343,-0.556 -3.111,-1.132 -5.552,-1.156 -1.093,-0.01 -2.059,-0.281 -2.532,-0.708 -0.598,-0.541 -1.69,-0.722 -5.031,-0.833 -3.147,-0.104 -4.695,-0.343 -5.894,-0.909 -2.224,-1.049 -12.339,-1.156 -12.731,-0.134 m -23.672,0.396 c 0.832,0.831 0.979,170.461 0.149,171.291 -0.509,0.509 -166.368,0.744 -167.687,0.237 -0.875,-0.335 -0.866,-8.065 0.013,-11.957 0.348,-1.54 0.778,-4.51 0.954,-6.6 0.177,-2.09 0.582,-4.52 0.9,-5.4 0.318,-0.88 0.694,-2.73 0.834,-4.11 0.141,-1.381 0.505,-3.001 0.81,-3.6 0.305,-0.6 0.682,-2.17 0.837,-3.49 0.156,-1.32 0.535,-2.792 0.842,-3.272 0.307,-0.479 0.668,-1.649 0.801,-2.6 0.133,-0.95 0.587,-2.571 1.009,-3.602 0.422,-1.031 0.773,-2.201 0.781,-2.6 0.007,-0.399 0.361,-1.446 0.786,-2.326 0.425,-0.88 0.779,-1.877 0.786,-2.215 0.008,-0.339 0.364,-1.301 0.791,-2.139 0.427,-0.838 0.896,-2.092 1.043,-2.785 0.146,-0.694 0.607,-1.822 1.023,-2.508 0.416,-0.686 0.757,-1.558 0.757,-1.937 0,-0.379 0.36,-1.147 0.8,-1.707 0.44,-0.559 0.8,-1.43 0.8,-1.934 0,-0.505 0.27,-1.188 0.6,-1.518 0.33,-0.33 0.6,-0.743 0.6,-0.917 0,-0.379 4.446,-9.452 4.773,-9.74 0.125,-0.11 0.546,-0.83 0.935,-1.6 0.39,-0.77 1.149,-2.12 1.686,-3 0.537,-0.88 1.208,-2.051 1.491,-2.602 1.079,-2.1 6.686,-10.56 9.808,-14.798 3.134,-4.254 2.629,-3.608 5.914,-7.563 7.21,-8.681 15.297,-16.914 21.798,-22.194 1.867,-1.516 3.575,-2.956 3.795,-3.2 0.22,-0.244 1.634,-1.343 3.142,-2.443 1.508,-1.1 3.039,-2.27 3.402,-2.6 0.363,-0.33 1.559,-1.18 2.658,-1.889 1.099,-0.71 2.262,-1.518 2.585,-1.797 1.081,-0.935 3.245,-2.314 3.631,-2.314 0.21,0 0.722,-0.34 1.138,-0.756 0.415,-0.415 1.963,-1.45 3.439,-2.3 1.476,-0.849 3.341,-1.941 4.144,-2.427 0.804,-0.486 2.181,-1.246 3.061,-1.689 0.88,-0.443 2.699,-1.413 4.041,-2.155 1.343,-0.742 2.783,-1.462 3.2,-1.599 0.418,-0.138 1.029,-0.429 1.359,-0.647 1.121,-0.741 5.074,-2.427 5.69,-2.427 0.336,0 0.827,-0.258 1.089,-0.574 0.262,-0.316 1.034,-0.697 1.715,-0.847 0.682,-0.149 1.794,-0.61 2.473,-1.024 0.678,-0.414 1.557,-0.753 1.954,-0.754 0.396,0 1.386,-0.339 2.2,-0.753 1.739,-0.884 4.645,-1.888 7.573,-2.618 1.152,-0.287 2.34,-0.726 2.64,-0.976 0.301,-0.249 1.429,-0.565 2.506,-0.701 1.078,-0.137 2.358,-0.497 2.845,-0.8 0.487,-0.304 2.017,-0.717 3.4,-0.919 1.383,-0.202 3.184,-0.652 4.002,-1 0.818,-0.349 2.194,-0.634 3.058,-0.634 0.864,0 2.715,-0.344 4.113,-0.764 1.398,-0.42 3.982,-0.884 5.742,-1.032 1.76,-0.148 4.01,-0.457 5,-0.687 1.732,-0.402 5.839,-0.942 8.071,-1.06 0.59,-0.031 1.355,0.226 1.7,0.572 m 35.229,0.369 c 1.32,0.292 3.84,0.65 5.6,0.796 1.76,0.146 4.344,0.612 5.742,1.036 1.398,0.423 3.249,0.77 4.113,0.77 0.864,0 2.217,0.27 3.007,0.6 0.79,0.33 2.6,0.786 4.021,1.013 1.422,0.227 2.975,0.656 3.451,0.952 0.476,0.297 1.728,0.648 2.782,0.782 1.054,0.133 2.314,0.467 2.8,0.741 0.486,0.275 1.694,0.711 2.684,0.971 2.361,0.618 5.399,1.68 7.444,2.601 0.904,0.407 1.894,0.746 2.2,0.753 0.306,0.006 1.456,0.455 2.556,0.996 1.1,0.541 2.293,0.985 2.651,0.987 0.358,0.002 0.871,0.269 1.14,0.593 0.269,0.325 1.095,0.703 1.835,0.842 0.74,0.139 1.554,0.504 1.809,0.811 0.255,0.307 0.653,0.558 0.886,0.558 0.49,0 8.517,3.992 10.879,5.411 0.88,0.528 2.211,1.251 2.958,1.605 0.747,0.354 1.615,0.9 1.928,1.213 0.314,0.313 1.007,0.68 1.542,0.814 0.535,0.134 0.972,0.382 0.972,0.552 0,0.169 0.54,0.532 1.2,0.805 0.66,0.273 1.2,0.653 1.2,0.843 0,0.191 0.626,0.608 1.391,0.927 0.765,0.32 1.62,0.77 1.9,1 2.067,1.698 3.064,2.43 3.309,2.43 0.157,0 1.661,1.039 3.343,2.309 1.681,1.27 3.507,2.601 4.057,2.958 0.55,0.357 1.72,1.311 2.6,2.119 0.88,0.809 2.95,2.575 4.6,3.925 5.82,4.759 14.185,13.072 18.403,18.289 0.979,1.21 2.908,3.453 4.288,4.984 1.38,1.532 2.509,2.946 2.509,3.143 0,0.33 1.252,2.039 2.545,3.473 0.298,0.33 1.056,1.41 1.685,2.4 1.031,1.622 2.24,3.297 3.4,4.709 0.23,0.279 0.605,1.044 0.833,1.7 0.228,0.655 0.569,1.191 0.757,1.191 0.187,0 1.014,1.215 1.837,2.7 0.823,1.485 1.621,2.79 1.775,2.9 0.153,0.11 0.57,0.83 0.926,1.6 0.356,0.77 1.072,2.12 1.591,3 0.519,0.88 1.883,3.49 3.03,5.8 1.148,2.31 2.409,4.83 2.804,5.6 0.394,0.77 0.844,1.985 0.999,2.7 0.155,0.715 0.44,1.3 0.634,1.3 0.194,0 0.536,0.675 0.759,1.5 0.223,0.825 0.77,2.213 1.215,3.085 0.446,0.871 0.81,1.833 0.81,2.138 0,0.304 0.266,1.031 0.591,1.615 0.665,1.194 2.048,5.072 2.64,7.404 0.216,0.848 0.633,2.018 0.929,2.6 0.295,0.582 0.664,1.958 0.819,3.058 0.156,1.1 0.529,2.383 0.829,2.85 0.3,0.468 0.719,1.998 0.932,3.4 0.213,1.403 0.665,3.27 1.006,4.15 0.34,0.88 0.629,2.32 0.642,3.2 0.012,0.88 0.38,2.741 0.817,4.136 0.437,1.394 0.798,3.554 0.801,4.8 0.004,1.245 0.272,3.344 0.597,4.664 0.841,3.419 1.512,12.838 0.985,13.823 -0.515,0.962 -168.948,1.257 -169.908,0.297 -0.716,-0.716 -0.697,-170.736 0.02,-171.476 0.6,-0.619 7.078,-0.29 10.9,0.554 M 18.37,209.656 c -0.614,1.147 -0.099,8.905 0.704,10.625 0.335,0.715 0.727,3.219 0.889,5.67 0.186,2.824 0.492,4.633 0.857,5.073 0.332,0.4 0.678,2.104 0.833,4.106 0.19,2.444 0.449,3.555 0.907,3.89 0.364,0.267 0.644,1.052 0.65,1.824 0.013,1.887 0.643,4.418 1.184,4.752 0.248,0.153 0.561,1.342 0.695,2.641 0.134,1.299 0.573,2.902 0.976,3.562 0.402,0.661 0.734,1.741 0.736,2.401 0.002,0.66 0.362,1.74 0.799,2.4 0.437,0.66 0.796,1.695 0.797,2.3 0.002,0.605 0.339,1.436 0.75,1.847 0.41,0.41 0.868,1.559 1.017,2.554 0.15,1.002 0.62,2.122 1.054,2.515 0.43,0.389 0.782,1.219 0.782,1.843 0,0.701 0.305,1.325 0.8,1.634 0.557,0.348 0.8,0.933 0.8,1.928 0,0.875 0.31,1.761 0.8,2.287 0.44,0.472 0.8,1.128 0.8,1.456 0,0.808 0.855,2.636 1.232,2.636 0.168,0 0.42,0.525 0.561,1.167 0.141,0.642 0.605,1.57 1.032,2.061 0.426,0.492 0.775,1.199 0.775,1.571 0,0.372 0.36,1.003 0.8,1.401 0.44,0.398 0.8,1.05 0.8,1.448 0,0.398 0.36,0.917 0.8,1.152 0.447,0.239 0.8,0.838 0.8,1.356 0,0.51 0.45,1.413 1,2.006 0.55,0.594 1,1.37 1,1.725 0,0.355 0.257,0.931 0.572,1.279 0.315,0.349 1.035,1.137 1.6,1.752 0.565,0.615 1.028,1.444 1.028,1.842 0,0.646 0.397,1.22 2.58,3.73 0.33,0.379 0.715,1.149 0.856,1.71 0.141,0.562 0.595,1.203 1.01,1.425 0.415,0.222 0.754,0.655 0.754,0.962 0,0.308 0.36,0.673 0.8,0.813 0.44,0.14 0.8,0.591 0.8,1.003 0,0.413 0.187,0.866 0.416,1.007 0.229,0.141 0.851,0.945 1.381,1.786 0.531,0.84 1.874,2.436 2.984,3.547 1.11,1.11 2.019,2.14 2.019,2.289 0,1.469 15.196,16.94 19.901,20.261 1.019,0.719 2.517,1.982 3.329,2.807 0.812,0.825 1.677,1.5 1.923,1.5 0.246,0 0.447,0.17 0.447,0.379 0,0.449 4.08,3.221 4.741,3.221 0.253,0 0.459,0.258 0.459,0.573 0,0.315 0.36,0.687 0.8,0.827 0.441,0.14 0.987,0.602 1.214,1.027 0.228,0.425 0.77,0.773 1.204,0.773 0.434,0 1.098,0.36 1.475,0.8 0.377,0.44 0.849,0.8 1.05,0.8 0.201,0 0.782,0.45 1.292,1 0.51,0.55 1.342,1 1.85,1 0.507,0 1.147,0.36 1.422,0.8 0.275,0.44 0.725,0.8 1,0.8 0.275,0 0.725,0.36 1,0.8 0.278,0.444 0.933,0.8 1.474,0.8 0.535,0 1.225,0.359 1.532,0.797 0.307,0.439 1.127,0.911 1.823,1.05 0.695,0.139 1.264,0.414 1.264,0.612 0,0.197 0.495,0.572 1.1,0.834 0.605,0.261 1.529,0.797 2.054,1.191 0.525,0.394 1.27,0.716 1.657,0.716 0.387,0 0.803,0.261 0.926,0.579 0.122,0.319 0.951,0.775 1.842,1.015 0.892,0.24 1.621,0.607 1.621,0.816 0,0.208 0.81,0.582 1.8,0.832 0.99,0.249 1.8,0.583 1.8,0.741 0,0.427 1.903,1.217 2.93,1.217 0.491,0 1.2,0.36 1.577,0.8 0.388,0.453 1.18,0.8 1.827,0.8 0.628,0 1.448,0.338 1.821,0.751 0.394,0.435 1.498,0.859 2.623,1.008 1.081,0.144 2.037,0.503 2.155,0.81 0.116,0.303 0.989,0.679 1.939,0.835 0.95,0.156 2.029,0.549 2.397,0.873 0.368,0.325 1.448,0.688 2.4,0.807 0.952,0.119 2.271,0.531 2.931,0.915 0.66,0.384 2.176,0.807 3.37,0.939 1.193,0.133 2.286,0.429 2.428,0.659 0.37,0.598 2.717,1.203 4.666,1.203 0.918,0 1.735,0.197 1.815,0.438 0.175,0.524 3.035,1.12 5.49,1.145 1.067,0.01 2.06,0.281 2.504,0.683 0.559,0.506 1.767,0.708 5.031,0.841 3.055,0.125 4.585,0.364 5.296,0.828 1.305,0.85 10.492,1.219 11.409,0.457 0.798,-0.662 0.908,-167.915 0.111,-168.712 -0.37,-0.37 -19.704,-0.48 -84.586,-0.48 H 18.828 l -0.458,0.856 m 192.51,-0.376 c -0.573,0.573 -0.698,167.756 -0.127,168.658 0.533,0.841 11.823,0.458 13.447,-0.457 0.847,-0.477 2.142,-0.677 4.4,-0.681 3.22,-0.004 6.2,-0.562 6.2,-1.16 0,-0.177 1.575,-0.441 3.5,-0.587 2.383,-0.18 3.642,-0.454 3.944,-0.859 0.26,-0.348 1.09,-0.594 2.003,-0.594 1.826,0 4.192,-0.616 4.542,-1.183 0.135,-0.218 1.472,-0.57 2.97,-0.783 1.498,-0.212 3.035,-0.666 3.414,-1.01 0.38,-0.343 1.252,-0.624 1.94,-0.624 1.313,0 3.287,-0.728 3.287,-1.213 0,-0.157 0.76,-0.406 1.69,-0.555 0.929,-0.149 1.978,-0.531 2.33,-0.85 0.353,-0.319 1.51,-0.743 2.572,-0.941 1.062,-0.198 2.092,-0.649 2.29,-1.001 0.202,-0.362 0.872,-0.64 1.542,-0.64 0.689,0 1.47,-0.334 1.869,-0.8 0.377,-0.44 1.14,-0.801 1.696,-0.801 0.556,-0.001 1.555,-0.334 2.221,-0.74 0.665,-0.405 1.88,-0.959 2.7,-1.229 0.819,-0.271 1.49,-0.651 1.49,-0.846 0,-0.194 0.699,-0.541 1.553,-0.771 0.855,-0.231 1.777,-0.687 2.049,-1.016 0.273,-0.328 0.8,-0.597 1.172,-0.597 0.371,0 1.062,-0.36 1.534,-0.8 0.472,-0.44 1.126,-0.8 1.453,-0.8 0.326,0 0.829,-0.336 1.116,-0.746 0.288,-0.411 1.11,-0.875 1.826,-1.033 0.717,-0.157 1.488,-0.631 1.714,-1.054 0.226,-0.422 0.827,-0.767 1.335,-0.767 0.508,0 1.25,-0.36 1.648,-0.8 0.398,-0.44 0.96,-0.8 1.248,-0.8 0.288,0 0.717,-0.36 0.952,-0.8 0.235,-0.44 0.767,-0.8 1.18,-0.8 0.703,0 1.325,-0.429 3.911,-2.7 0.564,-0.495 1.358,-0.9 1.764,-0.9 0.406,0 0.963,-0.36 1.238,-0.8 0.275,-0.44 0.725,-0.8 1,-0.8 0.275,0 0.725,-0.36 1,-0.8 0.275,-0.44 0.681,-0.8 0.903,-0.8 0.222,-0.001 0.927,-0.451 1.566,-1 0.639,-0.55 1.301,-1 1.47,-1 0.169,0 1.403,-1.068 2.742,-2.374 1.338,-1.306 2.792,-2.488 3.23,-2.627 0.438,-0.139 0.796,-0.397 0.796,-0.573 0,-0.176 0.694,-0.779 1.543,-1.341 1.574,-1.041 13.922,-13.198 15.559,-15.317 0.496,-0.643 1.32,-1.708 1.832,-2.368 0.511,-0.66 1.045,-1.515 1.185,-1.9 0.141,-0.385 0.532,-0.7 0.868,-0.7 0.337,0 0.613,-0.187 0.613,-0.415 0,-0.228 0.81,-1.259 1.8,-2.293 0.99,-1.033 1.8,-2.106 1.8,-2.385 0,-0.279 0.184,-0.507 0.409,-0.507 0.224,0 0.624,-0.495 0.888,-1.1 0.264,-0.605 0.845,-1.482 1.291,-1.949 1.751,-1.832 2.612,-3.048 2.612,-3.689 0,-0.368 0.36,-0.894 0.8,-1.169 0.44,-0.275 0.8,-0.762 0.8,-1.082 0,-0.321 0.36,-0.776 0.8,-1.011 0.44,-0.235 0.8,-0.782 0.8,-1.214 0,-0.432 0.36,-1.146 0.8,-1.586 0.44,-0.44 0.8,-0.909 0.8,-1.042 0,-0.133 0.45,-0.777 1,-1.431 0.55,-0.654 1,-1.528 1,-1.944 0,-0.415 0.36,-0.948 0.8,-1.183 0.521,-0.279 0.8,-0.838 0.8,-1.6 0,-0.762 0.279,-1.321 0.8,-1.6 0.44,-0.235 0.8,-0.664 0.8,-0.953 0,-0.288 0.36,-0.94 0.8,-1.447 0.44,-0.507 0.8,-1.141 0.8,-1.407 0,-0.267 0.335,-0.914 0.745,-1.439 0.41,-0.525 0.884,-1.404 1.055,-1.954 0.171,-0.55 0.645,-1.429 1.055,-1.954 0.41,-0.525 0.745,-1.297 0.745,-1.716 0,-0.419 0.343,-1.25 0.763,-1.846 0.419,-0.596 0.874,-1.742 1.01,-2.545 0.137,-0.804 0.496,-1.557 0.798,-1.673 0.302,-0.115 0.673,-0.943 0.824,-1.838 0.151,-0.895 0.528,-1.769 0.836,-1.941 0.309,-0.173 0.721,-1.17 0.916,-2.215 0.195,-1.045 0.647,-2.224 1.004,-2.618 0.357,-0.394 0.65,-1.153 0.65,-1.685 10e-4,-0.533 0.359,-1.555 0.796,-2.272 0.437,-0.716 0.914,-2.066 1.061,-3 0.147,-0.933 0.503,-2.061 0.79,-2.505 0.288,-0.444 0.649,-1.884 0.803,-3.2 0.156,-1.336 0.535,-2.58 0.858,-2.819 0.343,-0.253 0.69,-1.499 0.852,-3.058 0.149,-1.448 0.515,-2.925 0.812,-3.283 0.297,-0.358 0.678,-2.157 0.846,-3.997 0.184,-2.019 0.575,-3.759 0.986,-4.386 0.489,-0.746 0.742,-2.253 0.898,-5.344 0.141,-2.804 0.424,-4.623 0.81,-5.216 0.816,-1.253 1.211,-9.816 0.493,-10.681 -0.674,-0.813 -169.914,-0.94 -170.726,-0.128 m -23.76,0.4 c 0.752,0.752 0.692,166.677 -0.06,167.706 -0.62,0.848 -5.275,0.67 -9.46,-0.361 -1.21,-0.298 -3.751,-0.65 -5.647,-0.782 -1.896,-0.132 -4.056,-0.489 -4.8,-0.794 -0.744,-0.304 -2.571,-0.68 -4.059,-0.834 -1.489,-0.154 -3.689,-0.625 -4.89,-1.048 -1.201,-0.422 -2.684,-0.771 -3.294,-0.776 -0.611,-0.005 -1.895,-0.365 -2.854,-0.8 -0.959,-0.435 -2.219,-0.795 -2.8,-0.8 -0.581,-0.005 -1.778,-0.336 -2.66,-0.737 -0.882,-0.401 -2.304,-0.86 -3.159,-1.021 -0.854,-0.16 -1.933,-0.53 -2.395,-0.823 -0.463,-0.292 -1.472,-0.657 -2.242,-0.81 -0.77,-0.153 -1.763,-0.507 -2.206,-0.787 -0.443,-0.279 -1.433,-0.641 -2.2,-0.804 -0.767,-0.162 -1.934,-0.616 -2.594,-1.009 -0.66,-0.393 -1.773,-0.835 -2.472,-0.983 -0.7,-0.147 -1.472,-0.508 -1.715,-0.801 -0.243,-0.293 -1.047,-0.646 -1.787,-0.785 -0.74,-0.139 -1.566,-0.517 -1.835,-0.842 -0.269,-0.324 -0.692,-0.588 -0.94,-0.588 -0.631,0.002 -8.821,-4.078 -8.984,-4.476 -0.074,-0.179 -0.364,-0.325 -0.645,-0.325 -0.28,0 -1.17,-0.448 -1.977,-0.995 -0.806,-0.547 -1.898,-1.103 -2.426,-1.236 -0.528,-0.133 -1.271,-0.585 -1.652,-1.005 -0.38,-0.42 -0.835,-0.764 -1.011,-0.764 -0.176,0 -1.003,-0.453 -1.838,-1.007 -0.835,-0.554 -1.788,-1.182 -2.118,-1.395 -0.33,-0.214 -1.756,-1.155 -3.17,-2.093 -2.586,-1.716 -2.839,-1.881 -5.03,-3.282 -0.66,-0.422 -1.38,-0.974 -1.6,-1.227 -0.22,-0.254 -1.551,-1.245 -2.958,-2.203 -1.406,-0.958 -3.566,-2.653 -4.8,-3.768 -1.233,-1.114 -3.232,-2.827 -4.442,-3.807 -7.138,-5.781 -20.231,-19.824 -25.2,-27.027 -0.55,-0.798 -1.281,-1.752 -1.624,-2.12 -0.343,-0.369 -1.285,-1.661 -2.093,-2.871 -0.808,-1.21 -2.012,-2.971 -2.676,-3.914 -0.664,-0.943 -1.207,-1.881 -1.207,-2.085 0,-0.203 -0.336,-0.692 -0.747,-1.085 -0.411,-0.394 -1.345,-1.841 -2.077,-3.216 -0.731,-1.375 -1.455,-2.5 -1.609,-2.5 -0.154,0 -0.392,-0.445 -0.529,-0.99 -0.136,-0.544 -0.692,-1.644 -1.235,-2.444 -0.544,-0.801 -1.453,-2.38 -2.021,-3.511 -0.568,-1.13 -1.189,-2.325 -1.381,-2.655 C 36.817,277.156 34,270.959 34,270.396 c 0,-0.37 -0.36,-1.089 -0.8,-1.596 -0.44,-0.507 -0.8,-1.279 -0.8,-1.714 0,-0.435 -0.341,-1.353 -0.757,-2.039 -0.416,-0.686 -0.886,-1.877 -1.044,-2.647 -0.159,-0.77 -0.512,-1.67 -0.786,-2 -0.274,-0.33 -0.692,-1.32 -0.927,-2.2 -0.432,-1.609 -1.184,-3.896 -2.501,-7.6 -0.391,-1.1 -0.821,-2.778 -0.957,-3.728 -0.136,-0.951 -0.495,-2.121 -0.799,-2.6 -0.304,-0.48 -0.681,-1.862 -0.838,-3.072 -0.157,-1.21 -0.526,-2.672 -0.821,-3.248 -0.296,-0.577 -0.658,-2.287 -0.806,-3.8 -0.147,-1.514 -0.528,-3.382 -0.845,-4.152 -0.318,-0.77 -0.743,-3.29 -0.944,-5.6 -0.202,-2.31 -0.635,-5.37 -0.963,-6.8 -0.746,-3.256 -0.809,-7.854 -0.112,-8.135 1.189,-0.48 167.338,-0.267 167.82,0.215 m 193.998,2.649 c 0.074,1.838 -0.187,4.4 -0.7,6.877 -0.45,2.171 -0.818,4.842 -0.818,5.935 0,1.093 -0.358,3.129 -0.795,4.523 -0.437,1.395 -0.797,3.21 -0.8,4.034 -0.003,0.825 -0.35,2.535 -0.772,3.8 -0.421,1.266 -0.887,3.187 -1.034,4.269 -0.148,1.081 -0.503,2.341 -0.79,2.8 -0.287,0.458 -0.644,1.695 -0.793,2.75 -0.148,1.054 -0.614,2.674 -1.034,3.6 -0.421,0.925 -0.774,2.043 -0.787,2.483 -0.012,0.44 -0.37,1.52 -0.795,2.4 -0.425,0.88 -0.78,1.96 -0.789,2.4 -0.009,0.44 -0.374,1.34 -0.811,2 -0.437,0.66 -0.796,1.542 -0.797,1.96 -0.003,0.712 -1.097,3.295 -2.847,6.719 -0.416,0.814 -0.756,1.827 -0.756,2.251 0,0.425 -0.27,0.996 -0.6,1.27 -0.33,0.274 -0.6,0.696 -0.6,0.937 0,0.478 -3.888,8.268 -5.421,10.863 -0.52,0.88 -1.316,2.32 -1.769,3.2 -1.239,2.408 -3.719,6.416 -4.51,7.29 -0.385,0.425 -0.7,0.962 -0.7,1.193 0,0.232 -0.81,1.464 -1.8,2.739 -0.99,1.275 -1.8,2.474 -1.8,2.665 0,0.191 -0.184,0.564 -0.409,0.83 -0.584,0.689 -3.959,5.111 -5.472,7.169 -0.704,0.958 -1.886,2.366 -2.626,3.128 -0.74,0.762 -2.503,2.826 -3.918,4.586 -3.392,4.218 -12.008,12.799 -16.992,16.92 -8.255,6.827 -11.235,9.158 -14.167,11.08 -1.007,0.66 -2.508,1.72 -3.335,2.356 -0.827,0.636 -2.014,1.446 -2.638,1.8 -1.235,0.701 -4.183,2.542 -6.254,3.904 -0.718,0.473 -1.73,0.989 -2.248,1.147 -0.517,0.158 -1.211,0.518 -1.541,0.799 -0.33,0.282 -1.86,1.176 -3.4,1.988 -1.54,0.811 -2.981,1.625 -3.202,1.809 -0.221,0.183 -0.889,0.455 -1.484,0.604 -0.595,0.149 -1.287,0.519 -1.538,0.822 -0.251,0.302 -1.062,0.663 -1.802,0.802 -0.74,0.139 -1.55,0.499 -1.8,0.8 -0.25,0.301 -1.06,0.661 -1.8,0.8 -0.74,0.139 -1.544,0.492 -1.787,0.785 -0.243,0.293 -1.015,0.654 -1.715,0.801 -0.699,0.148 -1.812,0.59 -2.472,0.983 -0.66,0.393 -1.83,0.843 -2.6,1.001 -0.77,0.159 -1.67,0.515 -2,0.793 -0.33,0.278 -1.24,0.619 -2.022,0.759 -0.783,0.14 -2.126,0.613 -2.985,1.051 -0.859,0.438 -1.929,0.797 -2.378,0.798 -0.448,0.002 -1.334,0.274 -1.968,0.604 -0.634,0.331 -1.894,0.705 -2.8,0.831 -0.906,0.126 -2.49,0.574 -3.521,0.996 -1.031,0.422 -2.34,0.767 -2.91,0.767 -0.57,0 -2.019,0.345 -3.22,0.767 -1.201,0.423 -3.394,0.898 -4.874,1.056 -1.48,0.159 -3.283,0.536 -4.008,0.839 -0.724,0.302 -3.251,0.716 -5.615,0.919 -2.365,0.202 -4.929,0.562 -5.699,0.799 -2.345,0.722 -9.473,1.023 -10.187,0.431 -0.818,-0.679 -0.95,-167.114 -0.132,-167.932 0.372,-0.372 19.616,-0.458 85.1,-0.38 L 381,209.4 l 0.118,2.929"
       stroke="none"
       fill="#6c94b1"
       fill-rule="evenodd" />
    <path
       id="path3"
       d="m 183.2,15.878 c -0.77,0.082 -2.854,0.414 -4.631,0.736 -1.777,0.322 -3.937,0.59 -4.8,0.594 -0.863,0.005 -2.739,0.275 -4.169,0.599 -1.43,0.325 -4.13,0.85 -6,1.167 -1.87,0.317 -3.94,0.76 -4.6,0.984 -1.232,0.418 -4.433,1.232 -8.983,2.284 -1.421,0.329 -2.783,0.764 -3.027,0.966 -0.245,0.203 -1.421,0.579 -2.613,0.834 -1.193,0.256 -2.531,0.694 -2.973,0.972 -0.442,0.279 -1.434,0.636 -2.204,0.793 -0.77,0.157 -1.85,0.517 -2.4,0.8 -0.55,0.283 -2.758,1.184 -4.907,2.003 -2.149,0.819 -4.004,1.647 -4.124,1.839 -0.119,0.193 -0.506,0.351 -0.861,0.351 -0.75,0 -12.873,5.917 -14.921,7.283 -0.763,0.508 -1.91,1.157 -2.549,1.44 -1.178,0.524 -2.483,1.338 -9.638,6.014 -4.503,2.943 -14.34,10.164 -15.584,11.44 -0.449,0.46 -2.346,2.125 -4.216,3.699 -6.788,5.716 -18.669,18.485 -24.667,26.511 -4.24,5.675 -10.977,15.957 -12.848,19.608 -0.283,0.553 -0.941,1.725 -1.462,2.605 -1.044,1.763 -5.22,10.102 -6.008,12 -0.275,0.66 -0.886,2.01 -1.358,3 -0.473,0.99 -0.859,1.93 -0.858,2.088 10e-4,0.159 -0.449,1.272 -0.999,2.475 -0.55,1.202 -1,2.394 -1,2.65 0,0.255 -0.266,0.941 -0.591,1.525 -0.707,1.27 -2.045,5.091 -2.754,7.862 -0.281,1.1 -0.702,2.36 -0.936,2.8 -0.235,0.44 -0.558,1.61 -0.72,2.6 -0.161,0.99 -0.519,2.25 -0.795,2.8 -0.276,0.55 -0.716,2.247 -0.977,3.771 -0.262,1.525 -0.649,3.097 -0.861,3.493 -0.213,0.397 -0.571,2.194 -0.797,3.994 -0.226,1.799 -0.583,3.595 -0.795,3.99 -0.212,0.396 -0.574,2.662 -0.805,5.036 -0.232,2.374 -0.6,5.003 -0.818,5.844 -0.629,2.422 -1.107,10.795 -0.649,11.373 0.317,0.399 17.426,0.48 84.048,0.4 L 187,187 l 0.101,-85.376 c 0.08,-68.037 -0.001,-85.44 -0.4,-85.694 -0.505,-0.32 -0.938,-0.327 -3.501,-0.052 m 28.206,0.168 c -0.116,0.305 -0.165,38.894 -0.109,85.754 l 0.103,85.2 84.673,0.101 84.673,0.101 0.265,-0.837 c 0.329,-1.038 -0.074,-6.306 -0.809,-10.565 -0.304,-1.76 -0.675,-4.64 -0.825,-6.4 -0.15,-1.76 -0.509,-3.92 -0.798,-4.8 -0.289,-0.88 -0.716,-2.95 -0.949,-4.6 -0.233,-1.65 -0.687,-3.72 -1.009,-4.6 -0.322,-0.88 -0.594,-2.088 -0.603,-2.685 -0.01,-0.597 -0.378,-1.999 -0.818,-3.115 -0.44,-1.116 -0.808,-2.428 -0.818,-2.915 -0.009,-0.487 -0.291,-1.605 -0.626,-2.485 -0.335,-0.88 -0.884,-2.59 -1.219,-3.8 -0.336,-1.21 -0.753,-2.38 -0.928,-2.6 -0.174,-0.22 -0.451,-1.03 -0.616,-1.8 -0.165,-0.77 -0.636,-2.027 -1.046,-2.794 -0.411,-0.767 -0.747,-1.647 -0.747,-1.956 0,-0.521 -0.478,-1.676 -2.422,-5.85 -0.409,-0.88 -0.86,-2.088 -1.001,-2.684 -0.14,-0.596 -0.508,-1.293 -0.816,-1.549 -0.309,-0.256 -0.56,-0.668 -0.56,-0.916 0.002,-0.556 -3.937,-8.623 -4.615,-9.451 -0.27,-0.33 -0.627,-1.05 -0.793,-1.6 -0.165,-0.55 -0.422,-1.09 -0.57,-1.2 -0.149,-0.11 -0.965,-1.46 -1.813,-3 -0.849,-1.54 -1.693,-2.86 -1.877,-2.933 -0.183,-0.074 -0.333,-0.314 -0.333,-0.535 0,-0.221 -0.512,-1.151 -1.137,-2.067 -0.625,-0.916 -1.66,-2.456 -2.3,-3.423 -0.64,-0.967 -1.594,-2.407 -2.12,-3.2 -9.918,-14.94 -30.548,-35.652 -44.129,-44.304 -0.943,-0.601 -1.894,-1.283 -2.114,-1.515 -0.608,-0.644 -3.734,-2.623 -4.142,-2.623 -0.198,0 -0.574,-0.258 -0.835,-0.573 -0.262,-0.315 -2.309,-1.612 -4.549,-2.883 -2.241,-1.27 -4.164,-2.408 -4.274,-2.527 -0.11,-0.119 -1.55,-0.907 -3.2,-1.751 -1.65,-0.844 -3.27,-1.699 -3.6,-1.9 -0.33,-0.202 -1.05,-0.546 -1.6,-0.765 -0.55,-0.22 -1.27,-0.567 -1.6,-0.772 -0.33,-0.205 -1.41,-0.725 -2.4,-1.156 -0.99,-0.431 -2.824,-1.254 -4.075,-1.828 -1.252,-0.575 -2.402,-1.045 -2.556,-1.045 -0.155,0 -1.021,-0.34 -1.925,-0.756 -0.904,-0.416 -2.994,-1.247 -4.644,-1.845 -1.65,-0.599 -3.63,-1.321 -4.4,-1.604 -0.77,-0.283 -3.02,-0.992 -5,-1.577 -1.98,-0.584 -4.68,-1.403 -6,-1.82 -1.32,-0.416 -3.297,-0.883 -4.393,-1.037 -1.097,-0.154 -2.537,-0.503 -3.2,-0.776 -0.664,-0.273 -2.197,-0.618 -3.407,-0.767 -1.21,-0.15 -3.1,-0.52 -4.2,-0.823 -1.1,-0.304 -3.8,-0.736 -6,-0.962 -2.2,-0.225 -4.901,-0.582 -6.003,-0.793 -4.11,-0.785 -8.963,-0.994 -9.191,-0.394 m -24.705,86.091 -0.101,84.463 -83.5,0.101 -83.5,0.101 0.002,-2.101 c 0.001,-1.156 0.172,-2.731 0.38,-3.501 0.208,-0.77 0.574,-3.917 0.814,-6.993 0.24,-3.077 0.678,-6.317 0.975,-7.2 0.296,-0.884 0.669,-2.957 0.828,-4.607 0.16,-1.65 0.463,-3.214 0.674,-3.475 0.211,-0.261 0.629,-1.881 0.929,-3.6 0.3,-1.719 0.805,-3.935 1.123,-4.925 0.318,-0.99 0.793,-2.61 1.056,-3.6 0.263,-0.99 0.741,-2.79 1.063,-4 0.322,-1.21 0.828,-2.65 1.125,-3.2 0.297,-0.55 0.665,-1.755 0.817,-2.677 0.152,-0.922 0.514,-1.874 0.803,-2.114 0.29,-0.241 0.649,-1.086 0.797,-1.878 0.149,-0.792 0.618,-2.087 1.042,-2.879 0.425,-0.792 0.772,-1.677 0.772,-1.967 0,-0.29 0.357,-1.192 0.794,-2.006 0.436,-0.813 1.265,-2.559 1.842,-3.879 0.989,-2.264 4.173,-8.81 5.351,-11 0.295,-0.55 0.678,-1.27 0.851,-1.6 0.172,-0.33 1.044,-1.839 1.938,-3.353 0.893,-1.514 1.624,-2.909 1.624,-3.1 0,-0.191 0.168,-0.347 0.373,-0.347 0.205,0 0.5,-0.405 0.655,-0.9 0.155,-0.495 0.707,-1.409 1.227,-2.031 0.52,-0.622 0.945,-1.387 0.945,-1.7 0,-0.313 0.184,-0.569 0.41,-0.569 0.225,0 0.568,-0.415 0.761,-0.923 0.192,-0.507 0.783,-1.452 1.312,-2.1 0.528,-0.647 1.739,-2.334 2.69,-3.748 6.374,-9.474 19.389,-23.416 30.872,-33.07 4.649,-3.908 10.254,-8.159 10.759,-8.159 0.232,0 0.525,-0.27 0.651,-0.6 0.127,-0.33 0.366,-0.6 0.532,-0.6 0.262,0 8.719,-5.436 9.813,-6.307 0.22,-0.176 1.03,-0.638 1.8,-1.027 0.77,-0.39 2.12,-1.139 3,-1.664 0.88,-0.525 2.275,-1.255 3.1,-1.622 0.825,-0.367 1.5,-0.808 1.5,-0.98 0,-0.172 0.481,-0.434 1.068,-0.581 0.588,-0.148 1.512,-0.617 2.054,-1.044 0.542,-0.426 1.297,-0.775 1.678,-0.775 0.381,0 1.15,-0.36 1.709,-0.8 0.56,-0.44 1.259,-0.801 1.554,-0.801 0.295,-10e-4 1.092,-0.34 1.77,-0.754 0.679,-0.414 1.791,-0.875 2.473,-1.024 0.681,-0.15 1.453,-0.531 1.715,-0.847 0.262,-0.316 0.77,-0.576 1.128,-0.578 0.358,-0.002 1.551,-0.446 2.651,-0.987 1.1,-0.541 2.316,-0.99 2.701,-0.996 0.386,-0.007 1.374,-0.373 2.195,-0.813 0.82,-0.44 1.857,-0.8 2.304,-0.8 0.447,0 1.44,-0.337 2.208,-0.748 0.768,-0.412 2.205,-0.879 3.194,-1.039 0.989,-0.159 2.158,-0.516 2.598,-0.793 0.44,-0.276 1.7,-0.635 2.8,-0.796 1.1,-0.161 2.54,-0.541 3.2,-0.845 0.66,-0.303 2.441,-0.745 3.958,-0.982 1.517,-0.237 3.089,-0.608 3.493,-0.824 0.404,-0.217 2.223,-0.575 4.042,-0.797 1.819,-0.222 4.117,-0.654 5.107,-0.96 0.99,-0.307 3.709,-0.676 6.042,-0.821 2.333,-0.145 5.303,-0.475 6.6,-0.733 2.167,-0.43 2.382,-0.408 2.659,0.272 0.165,0.408 0.255,38.749 0.2,85.203 M 215.874,16.57 c 1.499,0.313 4.706,0.696 7.126,0.851 2.42,0.154 5.12,0.518 6,0.809 0.88,0.29 3.203,0.726 5.162,0.968 1.959,0.242 3.912,0.627 4.341,0.857 0.428,0.229 1.941,0.581 3.361,0.783 1.42,0.201 3.067,0.616 3.659,0.922 0.593,0.307 2.113,0.687 3.377,0.845 1.265,0.158 2.3,0.432 2.3,0.608 0,0.177 1.125,0.595 2.5,0.929 2.936,0.712 5.85,1.685 8.144,2.718 0.904,0.407 1.897,0.74 2.206,0.74 0.309,0 1.234,0.36 2.054,0.8 0.821,0.44 1.701,0.8 1.955,0.8 0.253,0 1.469,0.48 2.701,1.067 1.232,0.586 3.05,1.424 4.04,1.863 2.493,1.103 2.887,1.286 3.8,1.765 0.44,0.23 1.25,0.617 1.8,0.859 0.55,0.242 1.27,0.602 1.6,0.8 0.33,0.198 1.05,0.568 1.6,0.821 0.55,0.254 1.72,0.877 2.6,1.385 0.88,0.508 2.86,1.601 4.4,2.43 1.54,0.829 3.084,1.756 3.431,2.059 0.348,0.303 0.821,0.551 1.052,0.551 0.23,0 0.629,0.253 0.886,0.563 0.257,0.31 1.09,0.858 1.849,1.219 0.76,0.361 1.382,0.827 1.382,1.037 0,0.209 0.241,0.381 0.536,0.381 0.294,0 1.149,0.453 1.9,1.007 4.542,3.353 13.955,10.58 14.621,11.227 0.434,0.421 1.949,1.753 3.366,2.958 2.595,2.208 12.575,12.087 15.177,15.023 4.243,4.787 12.4,15.059 12.4,15.614 0,0.112 0.182,0.422 0.405,0.688 1.324,1.58 2.795,3.638 2.795,3.909 0,0.174 0.234,0.555 0.52,0.845 0.855,0.87 4.604,6.959 6.236,10.129 0.858,1.667 1.338,2.481 2.51,4.26 0.384,0.583 0.814,1.52 0.956,2.083 0.141,0.564 0.508,1.233 0.814,1.487 0.307,0.255 0.746,1.162 0.977,2.017 0.23,0.854 0.591,1.553 0.802,1.553 0.212,0 0.385,0.243 0.385,0.54 0,0.298 0.429,1.348 0.954,2.335 0.524,0.986 1.076,2.351 1.225,3.032 0.15,0.681 0.531,1.452 0.847,1.714 0.316,0.262 0.574,0.777 0.574,1.143 0,0.367 0.35,1.352 0.777,2.19 0.427,0.838 0.901,2.092 1.053,2.785 0.152,0.694 0.613,1.888 1.023,2.655 0.411,0.767 0.748,1.757 0.749,2.2 0.002,0.443 0.283,1.342 0.624,1.998 0.342,0.655 0.815,2.094 1.052,3.196 0.236,1.102 0.654,2.366 0.928,2.808 0.274,0.442 0.61,1.686 0.747,2.764 0.136,1.078 0.505,2.475 0.819,3.105 0.315,0.63 0.698,2.178 0.853,3.44 0.155,1.262 0.473,2.745 0.706,3.295 0.232,0.55 0.736,2.89 1.119,5.2 0.382,2.31 0.881,5.19 1.108,6.4 0.228,1.21 0.601,4.18 0.829,6.6 0.229,2.42 0.599,5.567 0.822,6.993 0.223,1.426 0.318,2.821 0.21,3.101 -0.157,0.409 -16.645,0.488 -84.507,0.407 L 211.8,186.6 211.691,102.2 c -0.06,-46.42 -0.012,-84.805 0.107,-85.3 0.256,-1.059 0.496,-1.078 4.076,-0.33 M 19.468,209.866 c -0.374,0.373 -0.293,3.544 0.151,5.934 0.204,1.1 0.634,4.16 0.956,6.8 0.322,2.64 0.849,5.97 1.171,7.4 0.323,1.43 0.781,3.545 1.02,4.7 1.08,5.226 1.359,6.412 1.904,8.1 0.32,0.99 0.748,2.61 0.952,3.6 0.204,0.99 0.64,2.43 0.969,3.2 0.328,0.77 0.771,2.12 0.984,3 0.549,2.276 1.939,6.214 2.634,7.462 0.325,0.584 0.591,1.327 0.591,1.651 0,0.543 0.757,2.397 2.895,7.087 0.452,0.99 1.045,2.34 1.32,3 0.79,1.901 4.965,10.238 6.009,12 0.521,0.88 1.224,2.14 1.562,2.8 0.337,0.66 1.059,1.92 1.603,2.8 0.545,0.88 1.284,2.124 1.644,2.763 0.904,1.611 7.044,10.636 8.868,13.035 0.824,1.085 2.209,2.908 3.078,4.05 8.809,11.592 27.441,29.131 38.021,35.791 0.66,0.416 2.1,1.431 3.2,2.257 1.1,0.825 2.203,1.501 2.451,1.502 0.248,10e-4 0.67,0.266 0.938,0.589 0.532,0.641 4.524,3.036 10.811,6.486 2.512,1.379 8.546,4.402 11,5.512 1.32,0.596 3.066,1.429 3.879,1.85 0.814,0.421 1.714,0.767 2,0.769 0.287,0.002 1.421,0.446 2.521,0.987 1.1,0.541 2.275,0.99 2.611,0.996 0.336,0.007 0.966,0.26 1.4,0.562 0.434,0.302 1.419,0.682 2.189,0.845 0.77,0.163 2.155,0.636 3.078,1.051 0.923,0.415 1.964,0.755 2.313,0.755 0.349,0 1.304,0.288 2.122,0.641 0.818,0.352 2.477,0.882 3.687,1.177 5.888,1.437 7.538,1.867 9.2,2.398 0.99,0.316 3.08,0.753 4.645,0.97 1.565,0.218 3.898,0.67 5.184,1.005 1.287,0.335 3.066,0.61 3.955,0.611 0.889,0 3.845,0.37 6.57,0.821 2.725,0.451 5.515,0.765 6.2,0.698 L 187,377.4 v -83.8 -83.8 l -83.632,-0.101 c -45.998,-0.055 -83.753,0.02 -83.9,0.167 m 191.917,0.234 c -0.105,0.275 -0.144,38.03 -0.088,83.9 l 0.103,83.4 3.8,-0.051 c 2.09,-0.028 4.52,-0.248 5.4,-0.488 0.88,-0.241 2.95,-0.543 4.6,-0.673 1.65,-0.129 4.62,-0.57 6.6,-0.979 1.98,-0.41 4.59,-0.917 5.8,-1.129 2.849,-0.497 7.472,-1.6 9,-2.146 0.66,-0.236 2.19,-0.656 3.4,-0.933 1.21,-0.277 2.65,-0.69 3.2,-0.918 0.55,-0.228 2.89,-1 5.2,-1.716 2.31,-0.717 4.555,-1.542 4.989,-1.835 0.434,-0.293 1.041,-0.532 1.35,-0.532 0.543,0 3.548,-1.196 7.261,-2.889 0.99,-0.451 2.52,-1.138 3.4,-1.527 2.319,-1.023 9.668,-4.684 12,-5.978 1.1,-0.61 2.724,-1.487 3.608,-1.949 2.984,-1.558 12.735,-8.012 17.008,-11.257 1.304,-0.99 3.317,-2.52 4.475,-3.4 10.455,-7.95 25.268,-23.065 32.109,-32.766 0.44,-0.624 1.174,-1.607 1.63,-2.184 0.457,-0.578 1.447,-1.932 2.2,-3.01 0.754,-1.077 1.865,-2.659 2.47,-3.514 0.605,-0.855 1.1,-1.713 1.1,-1.906 0,-0.194 0.372,-0.772 0.826,-1.286 2.17,-2.453 14.774,-26.468 14.774,-28.149 0,-0.145 0.262,-0.831 0.582,-1.525 0.641,-1.387 1.575,-3.89 2.486,-6.66 0.325,-0.99 0.783,-2.153 1.017,-2.583 0.234,-0.431 0.656,-1.691 0.938,-2.8 0.281,-1.11 0.788,-2.737 1.127,-3.617 0.338,-0.88 0.624,-2.05 0.635,-2.6 0.011,-0.55 0.289,-1.515 0.617,-2.145 0.328,-0.629 0.777,-2.272 0.997,-3.65 0.22,-1.379 0.648,-3.114 0.95,-3.856 0.302,-0.742 0.666,-2.429 0.809,-3.749 0.143,-1.32 0.507,-3.222 0.81,-4.228 0.303,-1.005 0.67,-3.255 0.817,-5 0.146,-1.744 0.518,-4.522 0.826,-6.172 0.482,-2.586 0.747,-5.772 0.625,-7.5 -0.029,-0.398 -17.244,-0.5 -84.649,-0.5 -67.322,0 -84.651,0.102 -84.802,0.5 m -24.591,83 c -0.003,45.705 -0.153,83.332 -0.333,83.616 -0.242,0.38 -0.6,0.411 -1.371,0.118 -0.574,-0.218 -3.799,-0.609 -7.167,-0.868 -3.368,-0.259 -6.329,-0.634 -6.581,-0.833 -0.252,-0.199 -2.351,-0.61 -4.664,-0.914 -2.312,-0.303 -4.55,-0.736 -4.972,-0.962 -0.422,-0.226 -1.744,-0.536 -2.937,-0.69 -1.193,-0.153 -2.979,-0.589 -3.969,-0.969 -0.99,-0.38 -2.685,-0.821 -3.767,-0.979 -1.081,-0.159 -2.341,-0.525 -2.8,-0.815 -0.458,-0.29 -1.639,-0.657 -2.624,-0.816 -0.985,-0.159 -2.155,-0.519 -2.6,-0.799 -0.445,-0.281 -1.439,-0.642 -2.209,-0.803 -0.77,-0.161 -2.027,-0.629 -2.794,-1.039 -0.767,-0.411 -1.757,-0.748 -2.2,-0.75 -0.443,-10e-4 -1.346,-0.36 -2.006,-0.797 -0.66,-0.437 -1.47,-0.802 -1.8,-0.81 -0.33,-0.008 -1.5,-0.458 -2.6,-0.999 -1.1,-0.541 -2.293,-0.985 -2.651,-0.987 -0.358,-0.002 -0.875,-0.274 -1.149,-0.604 -0.274,-0.33 -0.669,-0.6 -0.878,-0.6 -0.74,0 -12.042,-5.814 -17.276,-8.887 -2.063,-1.211 -2.272,-1.346 -6.417,-4.122 -1.963,-1.315 -3.844,-2.571 -4.178,-2.791 -1.818,-1.197 -10.453,-7.755 -12.067,-9.164 -0.778,-0.68 -2.652,-2.316 -4.164,-3.636 -3.156,-2.755 -12.856,-12.329 -15.198,-15 -4.912,-5.601 -10.567,-12.721 -13.022,-16.393 -0.33,-0.494 -1.088,-1.523 -1.684,-2.287 -0.596,-0.765 -1.194,-1.734 -1.327,-2.155 -0.134,-0.421 -0.411,-0.765 -0.616,-0.765 -0.205,0 -0.373,-0.197 -0.373,-0.438 0,-0.241 -0.405,-1.003 -0.9,-1.692 -1.05,-1.463 -1.084,-1.518 -3.7,-6.053 -1.1,-1.907 -2.633,-4.692 -3.407,-6.19 -0.775,-1.497 -1.606,-2.971 -1.848,-3.275 -0.243,-0.303 -0.658,-1.227 -0.924,-2.052 -0.266,-0.825 -0.629,-1.5 -0.808,-1.5 -0.178,0 -0.439,-0.612 -0.579,-1.36 -0.14,-0.748 -0.509,-1.57 -0.819,-1.827 -0.31,-0.258 -0.685,-1.041 -0.832,-1.741 -0.148,-0.699 -0.61,-1.833 -1.026,-2.519 -0.416,-0.686 -0.757,-1.499 -0.757,-1.806 0,-0.307 -0.36,-1.231 -0.8,-2.051 -0.44,-0.821 -0.8,-1.726 -0.8,-2.01 0,-0.284 -0.358,-1.22 -0.796,-2.079 -0.438,-0.859 -0.909,-2.202 -1.045,-2.985 -0.137,-0.782 -0.474,-1.784 -0.75,-2.226 -0.276,-0.442 -0.711,-1.78 -0.967,-2.973 -0.255,-1.192 -0.624,-2.361 -0.818,-2.596 -0.195,-0.235 -0.564,-1.589 -0.822,-3.01 -0.257,-1.421 -0.698,-3.041 -0.98,-3.6 -0.282,-0.559 -0.636,-1.98 -0.787,-3.156 -0.15,-1.177 -0.525,-2.797 -0.833,-3.6 -0.308,-0.804 -0.743,-3.036 -0.966,-4.96 -0.224,-1.924 -0.581,-3.824 -0.794,-4.222 -0.213,-0.398 -0.588,-3.324 -0.834,-6.501 -0.246,-3.178 -0.611,-6.391 -0.812,-7.14 -0.201,-0.75 -0.272,-1.515 -0.157,-1.7 C 19.953,210.152 57.567,210 103.424,210 H 186.8 l -0.006,83.1 m 193.418,-82.681 c 0.142,0.23 0.067,1.265 -0.168,2.3 -0.235,1.035 -0.609,4.274 -0.831,7.198 -0.221,2.924 -0.579,5.645 -0.793,6.046 -0.215,0.401 -0.595,2.419 -0.844,4.483 -0.25,2.065 -0.609,3.943 -0.798,4.175 -0.189,0.231 -0.559,1.761 -0.821,3.4 -0.262,1.638 -0.703,3.431 -0.978,3.984 -0.276,0.553 -0.635,1.897 -0.799,2.987 -0.163,1.09 -0.627,2.708 -1.03,3.595 -0.403,0.887 -0.736,2.019 -0.741,2.514 -0.005,0.496 -0.369,1.574 -0.809,2.395 -0.44,0.82 -0.8,1.857 -0.8,2.304 0,0.447 -0.347,1.46 -0.772,2.252 -0.424,0.792 -0.895,2.096 -1.045,2.898 -0.151,0.802 -0.42,1.549 -0.599,1.66 -0.179,0.111 -0.534,0.874 -0.788,1.696 -0.254,0.822 -0.834,2.304 -1.287,3.294 -0.752,1.639 -1.464,3.241 -2.667,6 -0.24,0.55 -0.599,1.27 -0.797,1.6 -0.199,0.33 -0.934,1.77 -1.634,3.2 -0.7,1.43 -1.787,3.5 -2.417,4.6 -0.63,1.1 -1.428,2.54 -1.773,3.2 -0.344,0.66 -1.067,1.92 -1.605,2.8 -0.537,0.88 -1.207,2.05 -1.489,2.6 -0.281,0.55 -0.622,1.09 -0.759,1.2 -0.213,0.171 -0.956,1.287 -2.96,4.443 -1.58,2.488 -5.878,8.392 -7.977,10.957 -0.54,0.66 -1.578,1.943 -2.307,2.851 -3.329,4.151 -5.783,6.818 -12.119,13.172 -3.743,3.753 -7.881,7.713 -9.197,8.8 -1.315,1.087 -2.776,2.337 -3.246,2.777 -0.47,0.44 -2.52,2.06 -4.556,3.6 -2.036,1.54 -3.905,2.984 -4.154,3.209 -0.249,0.225 -1.442,1.077 -2.652,1.893 -1.21,0.816 -2.971,2.027 -3.914,2.691 -0.943,0.664 -1.854,1.207 -2.025,1.207 -0.17,0 -0.667,0.332 -1.103,0.739 -0.436,0.406 -1.256,0.991 -1.823,1.3 -0.567,0.308 -1.729,0.971 -2.583,1.472 -3.228,1.895 -8.011,4.549 -9.552,5.299 -0.88,0.429 -1.87,0.942 -2.2,1.14 -1.352,0.813 -7.504,3.607 -8.9,4.043 -0.825,0.258 -1.5,0.615 -1.5,0.794 0,0.178 -0.588,0.434 -1.307,0.569 -0.719,0.135 -1.979,0.605 -2.799,1.045 -0.82,0.439 -1.724,0.799 -2.008,0.799 -0.284,0 -1.183,0.34 -1.997,0.755 -0.814,0.415 -2.157,0.878 -2.985,1.029 -0.827,0.151 -1.866,0.508 -2.308,0.792 -0.442,0.284 -1.78,0.726 -2.973,0.982 -1.192,0.255 -2.361,0.624 -2.596,0.818 -0.235,0.195 -1.597,0.565 -3.027,0.824 -1.43,0.259 -2.79,0.627 -3.022,0.819 -0.232,0.192 -1.735,0.553 -3.34,0.802 -1.604,0.249 -3.484,0.683 -4.178,0.965 -0.693,0.282 -2.43,0.632 -3.86,0.777 -1.43,0.145 -3.5,0.521 -4.6,0.836 -1.1,0.315 -4.34,0.756 -7.2,0.98 -2.86,0.224 -6.245,0.63 -7.522,0.902 -1.981,0.421 -2.377,0.407 -2.694,-0.094 -0.226,-0.356 -0.374,-33.249 -0.378,-83.687 L 211.6,210 h 84.176 c 58.23,0 84.257,0.129 84.436,0.419"
       stroke="none"
       fill="#b6c4d2"
       fill-rule="evenodd" />
    <path
       id="path4"
       d="m 182.6,15.468 c -0.88,0.073 -3.04,0.404 -4.8,0.735 -1.76,0.33 -3.74,0.663 -4.4,0.739 -0.946,0.109 -0.862,0.151 0.4,0.198 0.88,0.033 3.035,-0.215 4.788,-0.55 1.754,-0.336 4.39,-0.651 5.858,-0.7 1.468,-0.05 2.463,-0.222 2.211,-0.384 -0.453,-0.291 -0.964,-0.296 -4.057,-0.038 m 28.7,0.176 c -0.717,0.74 -0.736,170.76 -0.02,171.476 0.957,0.957 169.392,0.666 169.906,-0.294 0.228,-0.425 0.389,-1.37 0.36,-2.1 -0.043,-1.045 -0.088,-1.114 -0.212,-0.326 -0.087,0.55 -0.246,1.405 -0.354,1.901 l -0.196,0.901 -84.692,-0.101 L 211.4,187 V 101.4 15.8 l 3.185,0.078 c 1.752,0.044 4.928,0.371 7.057,0.729 2.129,0.358 4.476,0.576 5.215,0.486 1.156,-0.142 1.093,-0.175 -0.457,-0.235 -0.99,-0.038 -2.88,-0.322 -4.2,-0.63 -3.698,-0.864 -10.287,-1.217 -10.9,-0.584 M 187.2,101.6 187,187 l -83.558,0.101 c -61.431,0.074 -83.701,-0.018 -84.1,-0.349 -0.338,-0.281 -0.542,-0.297 -0.542,-0.044 0,0.224 0.285,0.516 0.633,0.649 1.463,0.562 167.25,0.266 167.719,-0.299 0.331,-0.399 0.423,-23.086 0.348,-85.7 L 187.399,16.2 187.2,101.6 M 166.4,18.052 c -2.451,0.857 -1.233,0.766 3,-0.224 2.215,-0.518 2.277,-0.56 0.8,-0.553 -0.88,0.004 -2.59,0.353 -3.8,0.777 m 63,-0.566 c 0.66,0.091 2.088,0.424 3.173,0.74 2.928,0.852 3.609,0.654 0.827,-0.242 -1.32,-0.425 -3.03,-0.748 -3.8,-0.718 -1.339,0.052 -1.347,0.061 -0.2,0.22 M 158.8,19.6 c -0.99,0.415 -1.473,0.765 -1.074,0.778 0.4,0.012 1.097,-0.176 1.549,-0.418 0.452,-0.242 1.655,-0.581 2.674,-0.753 l 1.851,-0.313 -1.6,-0.025 c -0.88,-0.013 -2.41,0.316 -3.4,0.731 m 79.481,-0.38 c 0.925,0.182 2.038,0.523 2.474,0.756 0.436,0.233 1.209,0.418 1.719,0.41 0.565,-0.009 0.075,-0.321 -1.259,-0.8 -1.201,-0.432 -2.731,-0.766 -3.4,-0.742 -1.048,0.038 -0.985,0.089 0.466,0.376 M 153.4,20.694 c -0.44,0.111 -1.16,0.471 -1.6,0.8 -0.897,0.67 -1.027,0.692 3,-0.505 1.832,-0.544 0.611,-0.801 -1.4,-0.295 m 91.681,0.092 c 0.925,0.201 2.038,0.557 2.474,0.79 1.18,0.631 1.549,0.513 0.561,-0.18 -0.475,-0.332 -1.73,-0.688 -2.789,-0.79 l -1.927,-0.186 1.681,0.366 M 147.8,22.289 c -0.44,0.109 -1.013,0.37 -1.274,0.582 -0.261,0.211 -0.981,0.537 -1.6,0.722 -0.82,0.246 -0.908,0.347 -0.326,0.37 0.44,0.018 1.34,-0.252 2,-0.599 0.66,-0.347 1.92,-0.776 2.8,-0.954 1.331,-0.268 1.398,-0.322 0.4,-0.32 -0.66,0.002 -1.56,0.091 -2,0.199 m 102.881,0.097 c 0.925,0.201 2.066,0.571 2.535,0.822 0.469,0.251 0.943,0.367 1.053,0.257 0.385,-0.386 -1.455,-1.078 -3.353,-1.26 L 249,22.02 l 1.681,0.366 m 5.721,1.752 c 0.992,0.291 2.195,0.739 2.674,0.996 0.479,0.256 1.108,0.462 1.398,0.457 0.951,-0.016 -2.85,-1.552 -4.38,-1.77 -1.382,-0.196 -1.359,-0.173 0.308,0.317 M 140.6,24.822 c -0.88,0.416 -1.96,0.763 -2.4,0.77 -1.011,0.017 -3.503,1.602 -2.524,1.605 0.372,0.002 0.785,-0.172 0.917,-0.386 0.133,-0.214 0.998,-0.58 1.924,-0.814 0.926,-0.233 2.133,-0.637 2.683,-0.897 0.55,-0.26 1.36,-0.596 1.8,-0.746 l 0.8,-0.274 -0.8,-0.008 c -0.44,-0.004 -1.52,0.333 -2.4,0.75 M 263.2,26.6 c 1.21,0.532 2.475,0.975 2.811,0.984 0.336,0.009 0.966,0.262 1.4,0.562 0.434,0.3 1.239,0.682 1.789,0.848 0.55,0.166 1.99,0.75 3.2,1.298 1.21,0.549 3.01,1.35 4,1.781 0.99,0.431 2.07,0.951 2.4,1.156 0.33,0.205 1.05,0.552 1.6,0.772 0.55,0.219 1.27,0.563 1.6,0.765 0.33,0.201 1.95,1.056 3.6,1.9 1.65,0.844 3.09,1.632 3.2,1.751 0.11,0.119 2.033,1.257 4.274,2.527 2.24,1.271 4.287,2.568 4.549,2.883 0.261,0.315 0.637,0.573 0.835,0.573 0.408,0 3.534,1.979 4.142,2.623 0.22,0.232 1.171,0.914 2.114,1.515 13.581,8.652 34.211,29.364 44.129,44.304 0.526,0.793 1.48,2.233 2.12,3.2 0.64,0.967 1.675,2.507 2.3,3.423 0.625,0.916 1.137,1.846 1.137,2.067 0,0.221 0.15,0.461 0.333,0.535 0.184,0.073 1.028,1.393 1.877,2.933 0.848,1.54 1.664,2.89 1.813,3 0.148,0.11 0.405,0.65 0.57,1.2 0.166,0.55 0.523,1.27 0.793,1.6 0.403,0.493 3.847,7.396 4.789,9.6 0.141,0.33 0.517,1.05 0.835,1.6 0.862,1.49 0.711,0.191 -0.177,-1.521 -0.422,-0.813 -1.706,-3.369 -2.854,-5.679 -1.147,-2.31 -2.511,-4.92 -3.03,-5.8 -0.519,-0.88 -1.235,-2.23 -1.591,-3 -0.356,-0.77 -0.773,-1.49 -0.926,-1.6 -0.154,-0.11 -0.952,-1.415 -1.775,-2.9 -0.823,-1.485 -1.65,-2.7 -1.837,-2.7 -0.188,0 -0.529,-0.536 -0.757,-1.191 -0.228,-0.656 -0.603,-1.421 -0.833,-1.7 -1.16,-1.412 -2.369,-3.087 -3.4,-4.709 -0.629,-0.99 -1.387,-2.07 -1.685,-2.4 C 345.252,87.366 344,85.657 344,85.327 c 0,-0.197 -1.129,-1.611 -2.509,-3.143 -1.38,-1.531 -3.309,-3.774 -4.288,-4.984 -4.218,-5.217 -12.583,-13.53 -18.403,-18.289 -1.65,-1.35 -3.72,-3.116 -4.6,-3.925 -0.88,-0.808 -2.05,-1.762 -2.6,-2.119 -0.55,-0.357 -2.376,-1.688 -4.057,-2.958 -1.682,-1.27 -3.186,-2.309 -3.343,-2.309 -0.245,0 -1.242,-0.732 -3.309,-2.43 -0.28,-0.23 -1.135,-0.68 -1.9,-1 -0.765,-0.319 -1.391,-0.736 -1.391,-0.927 0,-0.19 -0.54,-0.57 -1.2,-0.843 -0.66,-0.273 -1.2,-0.636 -1.2,-0.805 0,-0.17 -0.437,-0.418 -0.972,-0.552 -0.535,-0.134 -1.228,-0.501 -1.542,-0.814 -0.313,-0.313 -1.181,-0.859 -1.928,-1.213 C 290.011,38.662 288.68,37.939 287.8,37.411 285.438,35.992 277.411,32 276.921,32 c -0.233,0 -0.631,-0.251 -0.886,-0.558 -0.255,-0.307 -1.069,-0.672 -1.809,-0.811 -0.74,-0.139 -1.566,-0.517 -1.835,-0.842 -0.269,-0.324 -0.782,-0.591 -1.14,-0.593 -0.358,-0.002 -1.551,-0.446 -2.651,-0.987 -1.1,-0.541 -2.273,-0.99 -2.606,-0.996 -0.333,-0.007 -1.278,-0.373 -2.098,-0.813 -0.821,-0.44 -1.809,-0.793 -2.195,-0.784 -0.385,0.009 0.289,0.452 1.499,0.984 m -130.935,1.247 c -1.741,0.943 -1.01,1.07 0.975,0.169 1.034,-0.469 1.43,-0.795 0.96,-0.791 -0.44,0.004 -1.311,0.284 -1.935,0.622 m -3.324,1.35 c -0.473,0.191 -0.978,0.54 -1.124,0.775 -0.145,0.235 -0.551,0.428 -0.902,0.428 -0.635,0 -4.573,1.672 -5.715,2.427 -0.33,0.218 -0.941,0.509 -1.359,0.647 -0.417,0.137 -1.857,0.857 -3.2,1.599 -1.342,0.742 -3.161,1.712 -4.041,2.155 -0.88,0.443 -2.257,1.203 -3.061,1.689 -0.803,0.486 -2.668,1.578 -4.144,2.427 -1.476,0.85 -3.024,1.885 -3.439,2.3 -0.416,0.416 -0.928,0.756 -1.138,0.756 -0.386,0 -2.55,1.379 -3.631,2.314 -0.323,0.279 -1.486,1.087 -2.585,1.797 -1.099,0.709 -2.295,1.559 -2.658,1.889 -0.363,0.33 -1.894,1.5 -3.402,2.6 -1.508,1.1 -2.922,2.199 -3.142,2.443 -0.22,0.244 -1.928,1.684 -3.795,3.2 -6.501,5.28 -14.588,13.513 -21.798,22.194 -3.285,3.955 -2.78,3.309 -5.914,7.563 -3.122,4.238 -8.729,12.698 -9.808,14.798 -0.283,0.551 -0.954,1.722 -1.491,2.602 -0.537,0.88 -1.296,2.23 -1.686,3 -0.389,0.77 -0.81,1.49 -0.935,1.6 -0.327,0.288 -4.773,9.361 -4.773,9.74 0,0.174 -0.27,0.587 -0.6,0.917 -0.33,0.33 -0.6,1.013 -0.6,1.518 0,0.504 -0.36,1.375 -0.8,1.934 -0.44,0.56 -0.8,1.328 -0.8,1.707 0,0.379 -0.341,1.251 -0.757,1.937 -0.416,0.686 -0.877,1.814 -1.023,2.508 -0.147,0.693 -0.616,1.947 -1.043,2.785 -0.427,0.838 -0.783,1.8 -0.791,2.139 -0.007,0.338 -0.361,1.335 -0.786,2.215 -0.425,0.88 -0.783,1.96 -0.795,2.4 -0.013,0.44 -0.379,1.585 -0.814,2.544 -0.435,0.959 -0.77,2.219 -0.745,2.8 0.035,0.798 0.089,0.86 0.219,0.256 0.095,-0.44 0.432,-1.43 0.748,-2.2 0.317,-0.77 0.749,-2.12 0.962,-3 0.549,-2.276 1.939,-6.214 2.634,-7.462 0.325,-0.584 0.591,-1.27 0.591,-1.525 0,-0.256 0.45,-1.448 1,-2.65 0.55,-1.203 1,-2.316 0.999,-2.475 -10e-4,-0.158 0.385,-1.098 0.858,-2.088 0.472,-0.99 1.083,-2.34 1.358,-3 0.788,-1.898 4.964,-10.237 6.008,-12 0.521,-0.88 1.179,-2.052 1.462,-2.605 1.871,-3.651 8.608,-13.933 12.848,-19.608 C 61.331,79.161 73.212,66.392 80,60.676 c 1.87,-1.574 3.767,-3.239 4.216,-3.699 2.596,-2.662 21.733,-15.904 25.222,-17.454 0.639,-0.283 1.786,-0.932 2.549,-1.44 1.601,-1.068 14.094,-7.282 14.645,-7.285 0.202,-10e-4 1.254,-0.451 2.336,-1 1.856,-0.942 1.838,-1.353 -0.027,-0.601 m 237.091,94.293 c -0.018,0.27 0.327,1.08 0.767,1.8 0.495,0.813 0.799,1.055 0.8,0.639 0,-0.37 -0.24,-0.913 -0.535,-1.208 -0.294,-0.294 -0.64,-0.802 -0.768,-1.128 -0.139,-0.354 -0.246,-0.395 -0.264,-0.103 m 1.581,3.611 c -0.007,0.276 0.347,1.174 0.787,1.995 0.44,0.82 0.8,1.767 0.8,2.104 0,0.337 0.336,1.239 0.747,2.006 0.41,0.767 0.881,2.024 1.046,2.794 0.165,0.77 0.442,1.58 0.616,1.8 0.175,0.22 0.592,1.39 0.928,2.6 0.966,3.485 1.825,5.568 1.845,4.48 0.01,-0.506 -0.247,-1.432 -0.571,-2.058 -0.323,-0.626 -0.764,-1.832 -0.98,-2.68 -0.592,-2.332 -1.975,-6.21 -2.64,-7.404 -0.325,-0.584 -0.593,-1.304 -0.595,-1.6 -0.004,-0.701 -1.967,-4.695 -1.983,-4.037 m 6.828,19.612 c -0.023,0.502 0.245,1.582 0.594,2.4 0.35,0.818 0.794,2.297 0.986,3.287 0.325,1.667 0.337,1.625 0.153,-0.574 -0.109,-1.305 -0.396,-2.611 -0.637,-2.902 -0.242,-0.291 -0.578,-1.113 -0.747,-1.826 -0.231,-0.971 -0.318,-1.068 -0.349,-0.385 m -349.195,0.601 c -0.025,0.393 -0.301,1.113 -0.614,1.6 -0.312,0.487 -0.668,1.966 -0.79,3.286 l -0.222,2.4 0.512,-2.4 c 0.282,-1.32 0.739,-2.814 1.015,-3.321 0.277,-0.506 0.423,-1.226 0.325,-1.6 -0.161,-0.609 -0.184,-0.606 -0.226,0.035 m 351.17,7.412 c -0.009,0.29 0.171,0.875 0.398,1.301 0.228,0.426 0.581,1.809 0.784,3.074 l 0.369,2.299 -0.14,-2.442 c -0.119,-2.065 -1.363,-5.798 -1.411,-4.232 M 22.887,155.77 c -0.266,0.583 -0.593,2.088 -0.727,3.345 -0.134,1.257 -0.585,3.429 -1.002,4.827 -0.434,1.455 -0.735,3.594 -0.705,5 l 0.053,2.458 0.327,-3.089 c 0.18,-1.699 0.507,-3.425 0.727,-3.835 0.219,-0.411 0.583,-2.219 0.809,-4.018 0.226,-1.8 0.607,-3.639 0.847,-4.087 0.24,-0.449 0.372,-1.006 0.295,-1.239 -0.078,-0.232 -0.359,0.054 -0.624,0.638 m 355.154,6.556 c -0.023,0.51 0.151,1.286 0.386,1.724 0.235,0.439 0.572,1.912 0.749,3.274 l 0.323,2.476 0.026,-2 c 0.026,-2.006 -1.404,-7.282 -1.484,-5.474 m 1.593,9.554 c -0.019,0.484 0.167,1.817 0.412,2.961 0.246,1.145 0.596,3.359 0.779,4.92 0.325,2.779 0.328,2.764 0.153,-0.761 -0.164,-3.31 -1.266,-9.144 -1.344,-7.12 m -360,2.165 c -0.291,1.185 -0.584,4.225 -0.65,6.755 l -0.119,4.6 0.313,-4 c 0.173,-2.2 0.542,-5.011 0.82,-6.246 0.657,-2.922 0.328,-3.927 -0.364,-1.109 m -0.395,35.522 c -0.717,0.454 -0.361,6.855 0.547,9.833 0.713,2.338 0.656,1.196 -0.192,-3.867 -0.245,-1.467 -0.389,-3.357 -0.32,-4.2 L 19.4,209.8 h 83.8 83.8 l 0.201,83.6 0.202,83.6 0.098,-83.42 c 0.077,-64.459 -0.01,-83.529 -0.381,-83.9 -0.585,-0.585 -166.959,-0.697 -167.881,-0.113 m 192.042,0.112 c -0.818,0.818 -0.686,167.253 0.132,167.932 0.786,0.652 7.896,0.249 10.787,-0.611 2.34,-0.697 1.145,-0.634 -3.845,0.202 -1.455,0.244 -3.615,0.388 -4.8,0.321 L 211.4,377.4 v -83.8 -83.8 l 84.576,-0.101 c 67.381,-0.08 84.648,10e-4 84.93,0.4 0.263,0.372 0.313,0.346 0.191,-0.099 -0.22,-0.808 -169.01,-1.127 -169.816,-0.321 m 169.582,3.121 c -0.05,1.21 -0.348,3.37 -0.663,4.8 -0.315,1.43 -0.565,3.14 -0.556,3.8 0.009,0.66 0.367,-0.42 0.797,-2.4 0.453,-2.092 0.725,-4.606 0.647,-6 l -0.134,-2.4 -0.091,2.2 M 20.586,225.4 c 0.08,1.76 0.423,3.83 0.764,4.6 0.705,1.595 0.871,0.752 0.219,-1.116 -0.237,-0.68 -0.587,-2.462 -0.779,-3.96 l -0.349,-2.724 0.145,3.2 m 358.678,-0.173 c -0.035,0.785 -0.345,2.373 -0.688,3.529 -0.343,1.155 -0.554,2.309 -0.469,2.564 0.29,0.871 1.559,-4.719 1.39,-6.121 l -0.169,-1.399 -0.064,1.427 m -357.03,8.925 c 0.109,1.513 0.461,3.259 0.782,3.88 0.321,0.62 0.609,1.632 0.638,2.248 0.049,1.002 0.074,1.021 0.234,0.18 0.098,-0.517 -0.129,-1.867 -0.504,-3 -0.375,-1.133 -0.832,-2.96 -1.015,-4.06 -0.294,-1.759 -0.31,-1.668 -0.135,0.752 m 355.43,-0.439 c -0.035,0.832 -0.334,2.159 -0.664,2.949 -0.33,0.79 -0.781,2.564 -1.001,3.943 -0.22,1.378 -0.669,3.021 -0.997,3.65 -0.328,0.63 -0.606,1.595 -0.617,2.145 -0.011,0.55 -0.297,1.72 -0.635,2.6 -0.339,0.88 -0.846,2.507 -1.127,3.617 -0.282,1.109 -0.704,2.369 -0.938,2.8 -0.234,0.43 -0.692,1.593 -1.017,2.583 -0.926,2.817 -1.848,5.28 -2.52,6.732 -0.339,0.733 -0.542,1.407 -0.452,1.498 0.264,0.263 1.904,-3.241 1.907,-4.074 10e-4,-0.416 0.36,-1.296 0.797,-1.956 0.437,-0.66 0.802,-1.56 0.811,-2 0.009,-0.44 0.364,-1.52 0.789,-2.4 0.425,-0.88 0.783,-1.96 0.795,-2.4 0.013,-0.44 0.366,-1.558 0.787,-2.483 0.42,-0.926 0.886,-2.546 1.034,-3.6 0.149,-1.055 0.506,-2.292 0.793,-2.75 0.287,-0.459 0.644,-1.719 0.793,-2.8 0.148,-1.082 0.628,-3.061 1.065,-4.398 0.437,-1.336 0.719,-3.046 0.628,-3.8 l -0.167,-1.369 -0.064,1.513 m -353.646,8.698 c -0.01,0.556 0.23,1.366 0.534,1.8 0.303,0.434 0.657,1.149 0.786,1.589 0.154,0.529 0.181,0.461 0.08,-0.2 -0.283,-1.851 -1.38,-4.349 -1.4,-3.189 m 1.6,5.381 c -0.01,0.436 0.319,1.696 0.73,2.8 1.119,3.002 2.057,5.815 2.538,7.608 0.235,0.88 0.673,1.884 0.971,2.231 0.299,0.348 0.557,0.978 0.575,1.4 0.021,0.531 0.1,0.594 0.255,0.203 0.123,-0.311 -0.064,-1.121 -0.415,-1.8 -0.739,-1.427 -2.061,-5.147 -2.856,-8.034 -0.819,-2.975 -1.778,-5.326 -1.798,-4.408 m 5.201,15.408 c -0.007,0.33 0.344,1.14 0.781,1.8 1.01,1.525 1.01,0.845 0,-1 -0.422,-0.77 -0.773,-1.13 -0.781,-0.8 m 1.586,3.839 c -0.003,0.461 0.355,1.254 0.795,1.761 0.44,0.507 0.8,1.226 0.8,1.596 0,0.563 2.817,6.76 4.001,8.804 0.192,0.33 0.813,1.525 1.381,2.655 0.568,1.131 1.462,2.687 1.986,3.459 0.523,0.772 1.082,1.813 1.241,2.314 0.335,1.057 1.791,2.74 1.791,2.071 0,-0.248 -0.159,-0.55 -0.354,-0.67 -0.194,-0.12 -0.745,-0.986 -1.224,-1.924 -0.479,-0.938 -1.293,-2.425 -1.809,-3.305 -1.034,-1.764 -5.207,-10.103 -6.004,-12 -1.42,-3.375 -2.599,-5.531 -2.604,-4.761 m 334.464,0.874 c -0.938,1.921 -0.967,2.321 -0.071,0.993 0.48,-0.711 0.812,-1.471 0.737,-1.687 -0.074,-0.216 -0.374,0.096 -0.666,0.694 m -4.802,10.067 c -3.976,7.903 -7.885,14.821 -9.241,16.354 -0.454,0.514 -0.826,1.092 -0.826,1.286 0,0.193 -0.495,1.051 -1.1,1.906 -0.605,0.855 -1.716,2.437 -2.47,3.514 -0.753,1.078 -1.743,2.432 -2.2,3.01 -0.456,0.577 -1.19,1.56 -1.63,2.184 -6.841,9.701 -21.654,24.816 -32.109,32.766 -1.158,0.88 -3.171,2.41 -4.475,3.4 -4.273,3.245 -14.024,9.699 -17.008,11.257 -0.884,0.462 -2.508,1.339 -3.608,1.949 -2.292,1.271 -9.581,4.905 -12.1,6.033 -0.935,0.419 -2.465,1.106 -3.4,1.527 -3.575,1.611 -6.618,2.834 -7.051,2.834 -0.249,0 -1.124,0.36 -1.945,0.8 -1.137,0.61 -1.291,0.8 -0.647,0.8 0.465,0 1.053,-0.251 1.308,-0.558 0.255,-0.307 1.132,-0.682 1.949,-0.834 0.817,-0.151 2.026,-0.601 2.686,-0.998 0.66,-0.398 1.773,-0.845 2.472,-0.993 0.7,-0.147 1.472,-0.508 1.715,-0.801 0.243,-0.293 1.047,-0.646 1.787,-0.785 0.74,-0.139 1.55,-0.499 1.8,-0.8 0.25,-0.301 1.06,-0.661 1.8,-0.8 0.74,-0.139 1.551,-0.5 1.802,-0.802 0.251,-0.303 0.943,-0.673 1.538,-0.822 0.595,-0.149 1.263,-0.421 1.484,-0.604 0.221,-0.184 1.662,-0.998 3.202,-1.809 1.54,-0.812 3.07,-1.706 3.4,-1.988 0.33,-0.281 1.024,-0.641 1.541,-0.799 0.518,-0.158 1.53,-0.674 2.248,-1.147 2.071,-1.362 5.019,-3.203 6.254,-3.904 0.624,-0.354 1.811,-1.164 2.638,-1.8 0.827,-0.636 2.328,-1.696 3.335,-2.356 2.932,-1.922 5.912,-4.253 14.167,-11.08 4.984,-4.121 13.6,-12.702 16.992,-16.92 1.415,-1.76 3.178,-3.824 3.918,-4.586 0.74,-0.762 1.922,-2.17 2.626,-3.128 1.513,-2.058 4.888,-6.48 5.472,-7.169 0.225,-0.266 0.409,-0.639 0.409,-0.83 0,-0.191 0.81,-1.39 1.8,-2.665 0.99,-1.275 1.8,-2.507 1.8,-2.739 0,-0.231 0.315,-0.768 0.7,-1.193 0.791,-0.874 3.271,-4.882 4.51,-7.29 0.453,-0.88 1.249,-2.32 1.769,-3.2 1.397,-2.365 5.421,-10.367 5.421,-10.78 0,-0.196 0.286,-0.673 0.635,-1.059 0.349,-0.386 0.574,-0.949 0.5,-1.251 -0.074,-0.303 -1.815,2.789 -3.868,6.87 M 44.418,290.45 c -0.035,0.491 2.057,3.95 2.389,3.95 0.187,0 0.46,0.381 0.608,0.847 0.148,0.467 0.793,1.592 1.434,2.5 0.641,0.909 1.826,2.643 2.634,3.853 0.808,1.21 1.75,2.502 2.093,2.871 0.343,0.368 1.074,1.322 1.624,2.12 4.969,7.203 18.062,21.246 25.2,27.027 1.21,0.98 3.209,2.693 4.442,3.807 1.234,1.115 3.394,2.81 4.8,3.768 1.407,0.958 2.738,1.949 2.958,2.203 0.22,0.253 0.94,0.805 1.6,1.227 2.191,1.401 2.444,1.566 5.03,3.282 1.414,0.938 2.84,1.879 3.17,2.093 0.33,0.213 1.283,0.841 2.118,1.395 0.835,0.554 1.662,1.007 1.838,1.007 0.176,0 0.631,0.344 1.011,0.764 0.381,0.42 1.124,0.872 1.652,1.005 0.528,0.133 1.62,0.689 2.426,1.236 0.807,0.547 1.697,0.995 1.977,0.995 0.281,0 0.571,0.146 0.645,0.325 0.163,0.398 8.353,4.478 8.984,4.476 0.248,0 0.671,0.264 0.94,0.588 0.269,0.325 1.095,0.703 1.835,0.842 0.74,0.139 1.544,0.492 1.787,0.785 0.243,0.293 1.015,0.654 1.715,0.801 0.699,0.148 1.812,0.59 2.472,0.983 0.66,0.393 1.827,0.847 2.594,1.009 0.767,0.163 1.757,0.525 2.2,0.804 0.443,0.28 1.436,0.634 2.206,0.787 0.77,0.153 1.779,0.518 2.242,0.81 0.462,0.293 1.541,0.663 2.395,0.823 0.855,0.161 2.277,0.62 3.159,1.021 0.882,0.401 2.144,0.712 2.804,0.691 1.184,-0.036 1.181,-0.041 -0.2,-0.339 -0.77,-0.166 -2.069,-0.595 -2.887,-0.954 -0.818,-0.358 -1.773,-0.652 -2.122,-0.652 -0.349,0 -1.39,-0.34 -2.313,-0.755 -0.923,-0.415 -2.308,-0.888 -3.078,-1.051 -0.77,-0.163 -1.755,-0.543 -2.189,-0.845 -0.434,-0.302 -1.064,-0.555 -1.4,-0.562 -0.336,-0.006 -1.511,-0.455 -2.611,-0.996 -1.1,-0.541 -2.234,-0.985 -2.521,-0.987 -0.286,-0.002 -1.186,-0.348 -2,-0.769 -0.813,-0.421 -2.559,-1.254 -3.879,-1.85 -2.454,-1.11 -8.488,-4.133 -11,-5.512 -6.287,-3.45 -10.279,-5.845 -10.811,-6.486 -0.268,-0.323 -0.69,-0.588 -0.938,-0.589 -0.248,-10e-4 -1.351,-0.677 -2.451,-1.502 -1.1,-0.826 -2.54,-1.841 -3.2,-2.257 -10.58,-6.66 -29.212,-24.199 -38.021,-35.791 -0.869,-1.142 -2.291,-3.012 -3.16,-4.154 -0.87,-1.142 -3.252,-4.6 -5.294,-7.685 -4.2,-6.345 -4.882,-7.313 -4.907,-6.959 M 257.6,368.606 c -2.117,0.799 -5.232,1.812 -6.8,2.212 -1.243,0.317 -1.181,0.336 0.56,0.169 1.077,-0.103 2.17,-0.363 2.427,-0.576 0.257,-0.214 1.38,-0.584 2.496,-0.823 1.116,-0.24 2.364,-0.689 2.773,-0.999 0.91,-0.689 0.4,-0.683 -1.456,0.017 m -105.4,3.379 c 0.88,0.437 2.14,0.787 2.8,0.778 1.051,-0.015 0.977,-0.083 -0.6,-0.552 -3.306,-0.983 -3.832,-1.037 -2.2,-0.226 m 95.2,-0.295 c -0.44,0.256 -1.43,0.59 -2.2,0.742 -1.365,0.269 -1.37,0.277 -0.2,0.312 0.66,0.019 1.92,-0.306 2.8,-0.722 0.88,-0.417 1.33,-0.766 1,-0.777 -0.33,-0.012 -0.96,0.189 -1.4,0.445 m -89.015,1.893 c 1.201,0.449 2.641,0.805 3.2,0.79 0.694,-0.018 0.383,-0.216 -0.985,-0.625 -3.205,-0.958 -4.619,-1.064 -2.215,-0.165 m 83.56,-0.595 c -0.103,0.104 -1.168,0.452 -2.366,0.774 -1.323,0.355 -1.78,0.596 -1.164,0.612 0.559,0.014 1.999,-0.328 3.2,-0.76 1.202,-0.432 1.81,-0.792 1.352,-0.8 -0.459,-0.008 -0.918,0.071 -1.022,0.174 m -78.44,1.695 c 0.497,0.096 1.217,0.092 1.6,-0.008 0.382,-0.1 -0.025,-0.179 -0.905,-0.174 -0.88,0.004 -1.193,0.086 -0.695,0.182 m 71.6,0 c 0.497,0.096 1.217,0.092 1.6,-0.008 0.382,-0.1 -0.025,-0.179 -0.905,-0.174 -0.88,0.004 -1.193,0.086 -0.695,0.182 m -67.937,0.742 c 0.752,0.326 3.002,0.67 5,0.763 l 3.632,0.17 -3.2,-0.348 c -1.76,-0.191 -3.707,-0.541 -4.326,-0.779 -1.707,-0.654 -2.671,-0.485 -1.106,0.194 m 64.432,-0.17 c -0.55,0.222 -2.44,0.561 -4.2,0.753 l -3.2,0.349 3.628,-0.148 c 2.011,-0.082 4.239,-0.414 5,-0.746 1.581,-0.689 0.44,-0.882 -1.228,-0.208 m -53.8,1.77 c 2.575,0.712 8.814,1.199 9.115,0.712 0.129,-0.208 -0.339,-0.304 -1.065,-0.219 -0.712,0.083 -2.95,-0.134 -4.972,-0.483 -4.425,-0.764 -5.819,-0.768 -3.078,-0.01"
       stroke="none"
       fill="#a4b4c8"
       fill-rule="evenodd" />
  </g>
</svg>
