<?xml version="1.0" encoding="utf-8"?>
<!-- Generator: Adobe Illustrator 16.0.3, SVG Export Plug-In . SVG Version: 6.00 Build 0)  -->
<!DOCTYPE svg PUBLIC "-//W3C//DTD SVG 1.1//EN" "http://www.w3.org/Graphics/SVG/1.1/DTD/svg11.dtd">
<svg version="1.1"
	 id="svg8" inkscape:version="1.2 (dc2aedaf03, 2022-05-15)" sodipodi:docname="accessories-character-map.svg" xmlns:inkscape="http://www.inkscape.org/namespaces/inkscape" xmlns:sodipodi="http://sodipodi.sourceforge.net/DTD/sodipodi-0.dtd" xmlns:svg="http://www.w3.org/2000/svg" xmlns:cc="http://creativecommons.org/ns#" xmlns:dc="http://purl.org/dc/elements/1.1/" xmlns:rdf="http://www.w3.org/1999/02/22-rdf-syntax-ns#"
	 xmlns="http://www.w3.org/2000/svg" xmlns:xlink="http://www.w3.org/1999/xlink" x="0px" y="0px" width="22px" height="22px"
	 viewBox="5 5 22 22" enable-background="new 5 5 22 22" xml:space="preserve">
<title  id="title7895">Antu icon Theme</title>
<sodipodi:namedview  id="base" units="px" inkscape:window-maximized="1" inkscape:pagecheckerboard="0" inkscape:pageopacity="0.0" inkscape:pageshadow="2" inkscape:current-layer="path3462-3-7-5" inkscape:window-width="2160" inkscape:window-height="1337" inkscape:window-x="0" inkscape:window-y="0" inkscape:showpageshadow="2" inkscape:deskcolor="#d1d1d1" inkscape:cx="-28.25" inkscape:cy="71.125" pagecolor="#ffffff" showgrid="true" bordercolor="#666666" borderopacity="1.0" inkscape:zoom="4" inkscape:document-units="px" gridtolerance="10" guidetolerance="10" objecttolerance="10">
	<inkscape:grid  id="grid7897" type="xygrid" empspacing="4"></inkscape:grid>
</sodipodi:namedview>
<g id="layer1" transform="translate(0,-282.64999)" inkscape:groupmode="layer" inkscape:label="Capa 1">
	<path id="path3599" d="M7.35,287.492c-2.063,0.002-3.097,2.873-1.317,4.277l5.25,4.133c-0.114,0.092-0.221,0.199-0.319,0.317
		l-5.274,6.329c-1.16,1.394-0.422,3.58,1.314,3.899l17.33,3.164c2.341,0.429,3.645-2.741,1.742-4.236l-5.247-4.134
		c0.112-0.092,0.22-0.196,0.318-0.315l5.274-6.328c1.162-1.393,0.424-3.586-1.313-3.903l-17.33-3.162
		C7.631,287.505,7.488,287.492,7.35,287.492L7.35,287.492z"/>
	<g id="path3462-3-7-5" transform="matrix(1.071451,0,0,1.071451,-1.143216,-21.33884)">
		
			<linearGradient id="path3597-0_1_" gradientUnits="userSpaceOnUse" x1="-1.9704" y1="53.2687" x2="-1.9704" y2="59.9131" gradientTransform="matrix(1.0715 0 0 -1.0715 18.1624 362.2954)">
			<stop  offset="0" style="stop-color:#1F9A6B"/>
			<stop  offset="1" style="stop-color:#24B07A"/>
		</linearGradient>
		
			<linearGradient id="path3597-0_2_" gradientUnits="userSpaceOnUse" x1="-1.985" y1="52.2392" x2="-1.9515" y2="68.4348" gradientTransform="matrix(1.0715 0 0 -1.0715 18.1624 362.2972)">
			<stop  offset="0" style="stop-color:#4B6781"/>
			<stop  offset="1" style="stop-color:#30455B"/>
		</linearGradient>
		
			<path id="path3597-0" sodipodi:nodetypes="cccccccccc" fill="url(#path3597-0_1_)" stroke="url(#path3597-0_2_)" stroke-width="3.7333" stroke-linecap="round" stroke-linejoin="round" d="
			M7.964,290.456l6.084,4.79l0.203,0.16l4.964,3.91l4.923-5.907L7.964,290.456z M12.887,297.838l-4.922,5.905l16.174,2.955
			L12.887,297.838z"/>
		
			<linearGradient id="path3603_1_" gradientUnits="userSpaceOnUse" x1="-1.9704" y1="58.7816" x2="-1.9704" y2="66.1645" gradientTransform="matrix(1.0715 0 0 -1.0715 18.1624 362.2972)">
			<stop  offset="0" style="stop-color:#1682F2"/>
			<stop  offset="1" style="stop-color:#04AFFD"/>
		</linearGradient>
		
			<path id="path3603" fill="url(#path3603_1_)" stroke="#1463BF" stroke-width="1.8666" stroke-linecap="round" stroke-linejoin="round" d="
			M19.216,299.315l4.923-5.907l-16.174-2.953L19.216,299.315z"/>
		<path id="path3603-6" fill="#00CCFF" d="M19.216,299.315l4.923-5.907l-16.174-2.953L19.216,299.315z"/>
	</g>
	
		<linearGradient id="path3597-5_1_" gradientUnits="userSpaceOnUse" x1="-3.2544" y1="35.7365" x2="-3.2544" y2="42.3813" gradientTransform="matrix(1.0715 0 0 -1.0715 19.5417 343.9813)">
		<stop  offset="0" style="stop-color:#1F9A6B"/>
		<stop  offset="1" style="stop-color:#24B07A"/>
	</linearGradient>
	
		<path id="path3597-5" fill="url(#path3597-5_1_)" stroke="#175C6A" stroke-width="2" stroke-linecap="round" stroke-linejoin="round" d="
		M12.664,297.78l-5.274,6.327l17.33,3.166L12.664,297.78z"/>
	<path id="path3597" fill="#91D29D" d="M12.664,297.78l-5.274,6.327l17.33,3.166L12.664,297.78z"/>
	<g id="path3597-3" transform="matrix(1.071451,0,0,1.071451,-1.143216,-21.33884)">
	</g>
</g>
</svg>
