<?xml version="1.0" encoding="UTF-8" standalone="no"?>
<svg
   version="1.1"
   width="28"
   height="28"
   color-interpolation="linearRGB"
   id="svg20"
   sodipodi:docname="refrescar.svg"
   inkscape:version="1.2.2 (b0a8486541, 2022-12-01)"
   xmlns:inkscape="http://www.inkscape.org/namespaces/inkscape"
   xmlns:sodipodi="http://sodipodi.sourceforge.net/DTD/sodipodi-0.dtd"
   xmlns="http://www.w3.org/2000/svg"
   xmlns:svg="http://www.w3.org/2000/svg">
  <defs
     id="defs24" />
  <sodipodi:namedview
     id="namedview22"
     pagecolor="#ffffff"
     bordercolor="#000000"
     borderopacity="0.25"
     inkscape:showpageshadow="2"
     inkscape:pageopacity="0.0"
     inkscape:pagecheckerboard="0"
     inkscape:deskcolor="#d1d1d1"
     showgrid="false"
     inkscape:zoom="12.9375"
     inkscape:cx="32.038647"
     inkscape:cy="19.63285"
     inkscape:window-width="1920"
     inkscape:window-height="1008"
     inkscape:window-x="0"
     inkscape:window-y="0"
     inkscape:window-maximized="1"
     inkscape:current-layer="svg20" />
  <g
     id="g18"
     transform="matrix(0.45896768,0,0,0.45896768,3.1456125,-1.5329651)">
    <path
       style="fill:none;stroke:#010100;stroke-width:8;stroke-linecap:round;stroke-linejoin:round"
       d="m 36,46 c 0,4 4,8 4,8 v 2 H 8 v -2 c 0,0 4,-4 4,-8 v -4 c 0,-10 12,-10 12,-10 0,0 12,0 12,10 z M 24,8 c 8,0 4,15 0,19 C 20,23 16,8 24,8 Z m -4,44 c -2.21,0 -4,1.79 -4,4 0,2.2 1.79,4 4,4 2.2,0 4,-1.8 4,-4 0,-2.21 -1.8,-4 -4,-4 z"
       id="path2" />
    <radialGradient
       id="gradient0"
       gradientUnits="userSpaceOnUse"
       cx="0"
       cy="0"
       r="64"
       gradientTransform="matrix(0.25,0,0,0.3125,20,40)">
      <stop
         offset="0"
         stop-color="#fffee4"
         id="stop4" />
      <stop
         offset="1"
         stop-color="#daba05"
         id="stop6" />
    </radialGradient>
    <path
       style="fill:url(#gradient0)"
       d="m 36,46 c 0,4 4,8 4,8 v 2 H 8 v -2 c 0,0 4,-4 4,-8 v -4 c 0,-10 12,-10 12,-10 0,0 12,0 12,10 z"
       id="path9" />
    <radialGradient
       id="gradient1"
       gradientUnits="userSpaceOnUse"
       cx="0"
       cy="0"
       r="64"
       gradientTransform="matrix(0.125,0,0,0.25,20,8)">
      <stop
         offset="0"
         stop-color="#face79"
         id="stop11" />
      <stop
         offset="1"
         stop-color="#b17409"
         id="stop13" />
    </radialGradient>
    <path
       style="fill:url(#gradient1)"
       d="m 24,8 c 8,0 4,15 0,19 C 20,23 16,8 24,8 Z"
       id="path16" />
  </g>
</svg>
