<?xml version="1.0" encoding="UTF-8" standalone="no"?>
<svg
   version="1.1"
   width="28"
   height="28"
   color-interpolation="linearRGB"
   id="svg55"
   sodipodi:docname="reloj.svg"
   inkscape:version="1.2.2 (b0a8486541, 2022-12-01)"
   xmlns:inkscape="http://www.inkscape.org/namespaces/inkscape"
   xmlns:sodipodi="http://sodipodi.sourceforge.net/DTD/sodipodi-0.dtd"
   xmlns="http://www.w3.org/2000/svg"
   xmlns:svg="http://www.w3.org/2000/svg">
  <defs
     id="defs59" />
  <sodipodi:namedview
     id="namedview57"
     pagecolor="#ffffff"
     bordercolor="#000000"
     borderopacity="0.25"
     inkscape:showpageshadow="2"
     inkscape:pageopacity="0.0"
     inkscape:pagecheckerboard="0"
     inkscape:deskcolor="#d1d1d1"
     showgrid="false"
     inkscape:zoom="12.9375"
     inkscape:cx="30.415459"
     inkscape:cy="25.816425"
     inkscape:window-width="1920"
     inkscape:window-height="1008"
     inkscape:window-x="0"
     inkscape:window-y="0"
     inkscape:window-maximized="1"
     inkscape:current-layer="svg55" />
  <g
     id="g53"
     transform="matrix(0.44359605,0,0,0.44359605,-0.71780076,-0.64339797)">
    <path
       style="fill:#000000;fill-opacity:0.4431"
       d="M 62,50 50,44 40,64 h 8 c 6,0 20,-11 14,-14 z"
       id="path2" />
    <path
       style="fill:none;stroke:#000000;stroke-width:4"
       d="M 49.33,53.17 V 53.16 C 49.75,52.64 50,51.91 50,51 V 32 C 50,21.52 43.94,10.97 34.01,6 27.77,2.88 22,4 18.06,5.92 14,8 9.56,12.41 9.56,12.41 v 0.01 C 7.32,14.46 6,17.72 6.01,21.98 v 19 c 0,2.76 2.24,6.12 5.01,7.51 l 26,13.01 c 1.85,0.93 3.46,0.73 4.34,-0.34 v 0.01 z"
       id="path4" />
    <linearGradient
       id="gradient0"
       gradientUnits="userSpaceOnUse"
       x1="66"
       y1="-81.760002"
       x2="122.5"
       y2="-25.25">
      <stop
         offset="0.2575"
         stop-color="#04a3a5"
         id="stop6" />
      <stop
         offset="0.5227"
         stop-color="#b3feff"
         id="stop8" />
      <stop
         offset="0.8825"
         stop-color="#026667"
         id="stop10" />
      <stop
         offset="1"
         stop-color="#037072"
         id="stop12" />
    </linearGradient>
    <path
       style="fill:url(#gradient0)"
       d="M 49.33,53.17 V 53.16 C 49.75,52.64 50,51.91 50,51 V 32 C 50,21.52 43.94,10.97 34.01,6 27.77,2.88 22,4 18.06,5.92 14,8 9.56,12.41 9.56,12.41 v 0.01 l 31.8,48.74 v 0.01 z"
       id="path15" />
    <linearGradient
       id="gradient1"
       gradientUnits="userSpaceOnUse"
       x1="76.800003"
       y1="-54.650002"
       x2="115.02"
       y2="-11.7">
      <stop
         offset="0.4886"
         stop-color="#40c5c7"
         id="stop17" />
      <stop
         offset="0"
         stop-color="#30a3a5"
         id="stop19" />
      <stop
         offset="1"
         stop-color="#28a3a5"
         id="stop21" />
    </linearGradient>
    <path
       style="fill:url(#gradient1)"
       d="M 24,12 C 14.06,7.01 6,11.48 6.01,21.98 v 19 c 0,2.76 2.24,6.12 5.01,7.51 l 26,13.01 c 2.75,1.38 5,0.27 5,-2.5 V 40 C 42,29.52 33.94,16.97 24.01,12 Z"
       id="path24" />
    <linearGradient
       id="gradient2"
       gradientUnits="userSpaceOnUse"
       x1="15.05"
       y1="6.9299998"
       x2="44.02"
       y2="35.900002">
      <stop
         offset="0"
         stop-color="#9beff0"
         id="stop26" />
      <stop
         offset="0.25"
         stop-color="#ffffff"
         id="stop28" />
      <stop
         offset="1"
         stop-color="#04a8aa"
         id="stop30" />
    </linearGradient>
    <path
       style="fill:url(#gradient2)"
       d="m 24,12 v 0 C 33.31,16.66 40.97,27.97 41.92,38 41.9,27.52 35.93,14.97 26.01,10 H 26 C 19.28,6.63 13.43,7.59 10.34,11.78 13.64,9.38 18.53,9.26 24,12 Z"
       id="path33" />
    <path
       style="fill:#000000"
       d="m 24,16 c 7.72,3.87 14,13.72 14,22 0,8.29 -6.27,11.86 -13.98,8 C 16.29,42.13 10,32.27 10,23.98 10,15.7 16.26,12.12 24,16 Z"
       id="path35" />
    <radialGradient
       id="gradient3"
       gradientUnits="userSpaceOnUse"
       cx="0"
       cy="0"
       r="64"
       gradientTransform="matrix(0.2968,0,0,0.3593,26,33)">
      <stop
         offset="0"
         stop-color="#f8f8ff"
         id="stop37" />
      <stop
         offset="1"
         stop-color="#9898ff"
         id="stop39" />
    </radialGradient>
    <path
       style="fill:url(#gradient3)"
       d="m 24,18 c -6.64,-3.32 -12,-0.2 -11.99,6.98 0,7.18 5.37,15.7 12.01,19.02 6.62,3.31 12,0.18 12,-7 C 36,29.82 30.61,21.31 24,18 Z"
       id="path42" />
    <path
       style="fill:#ffffff"
       d="m 16,28.98 c 0,-6.07 4.47,-8.75 10.01,-5.98 2.1,1.04 4.04,2.74 5.67,4.77 -1.86,-3.32 -4.61,-6.23 -7.67,-7.77 -5.53,-2.77 -10,-0.09 -9.99,5.98 0,3.77 1.71,7.95 4.35,11.24 -1.48,-2.64 -2.36,-5.54 -2.35,-8.24 z m 13,-2.03 c -1.41,-0.71 -2.55,-0.14 -2.55,1.27 0,1.41 1.15,3.12 2.57,3.82 1.42,0.71 2.54,0.14 2.54,-1.26 -0.01,-1.41 -1.14,-3.13 -2.54,-3.83 z"
       id="path44" />
    <linearGradient
       id="gradient4"
       gradientUnits="userSpaceOnUse"
       x1="74.629997"
       y1="-48.18"
       x2="79.769997"
       y2="-44.529999">
      <stop
         offset="0"
         stop-color="#dadada"
         id="stop46" />
      <stop
         offset="1"
         stop-color="#000000"
         id="stop48" />
    </linearGradient>
    <path
       style="fill:none;stroke:url(#gradient4);stroke-width:3;stroke-linecap:round;stroke-linejoin:round"
       d="m 28,25 3,7 10,-6 m -21,6 h 2 m 20,0 h 2 M 32,42 v 2 m 0,-24 v 2"
       transform="matrix(0.7484,0.4784,0.0261,0.8247,-0.7028,-10.2605)"
       id="path51" />
  </g>
</svg>
