<?xml version="1.0" encoding="utf-8"?>
<!-- Generator: Adobe Illustrator 16.0.3, SVG Export Plug-In . SVG Version: 6.00 Build 0)  -->
<!DOCTYPE svg PUBLIC "-//W3C//DTD SVG 1.1//EN" "http://www.w3.org/Graphics/SVG/1.1/DTD/svg11.dtd">
<svg version="1.1"
	 id="svg1399" sodipodi:docname="preferences-system-network-server-dhcp.svg" inkscape:version="0.92.4 5da689c313, 2019-01-14" xmlns:dc="http://purl.org/dc/elements/1.1/" xmlns:cc="http://creativecommons.org/ns#" xmlns:rdf="http://www.w3.org/1999/02/22-rdf-syntax-ns#" xmlns:svg="http://www.w3.org/2000/svg" xmlns:sodipodi="http://sodipodi.sourceforge.net/DTD/sodipodi-0.dtd" xmlns:inkscape="http://www.inkscape.org/namespaces/inkscape"
	 xmlns="http://www.w3.org/2000/svg" xmlns:xlink="http://www.w3.org/1999/xlink" x="0px" y="0px" width="24px" height="24px"
	 viewBox="4 4 24 24" enable-background="new 4 4 24 24" xml:space="preserve">
<sodipodi:namedview  id="base" units="px" inkscape:window-y="0" inkscape:window-x="0" inkscape:window-height="1003" inkscape:window-width="1920" inkscape:showpageshadow="false" inkscape:current-layer="layer1" inkscape:document-units="mm" inkscape:pageshadow="2" inkscape:pageopacity="0.0" inkscape:cy="-0.67020984" inkscape:cx="-15.98796" inkscape:zoom="7.9195959" borderopacity="1.0" bordercolor="#666666" showgrid="false" pagecolor="#ffffff" inkscape:window-maximized="1">
	</sodipodi:namedview>
<g id="layer1" transform="translate(0,-288.53338)" inkscape:groupmode="layer" inkscape:label="Capa 1">
	<g id="g6618" transform="translate(2.155068,-2.4640133)">
		<path id="rect4496-6-6-9" inkscape:connector-curvature="0" fill="#1670D9" fill-opacity="0.9804" d="M13.442,294.952
			c6.424,0,11.595,5.171,11.595,11.595c0,6.424-5.171,11.596-11.595,11.596c-6.423,0-11.595-5.172-11.595-11.596
			C1.847,300.124,7.019,294.952,13.442,294.952z"/>
		
			<linearGradient id="rect4570-9-6-0-5-1_1_" gradientUnits="userSpaceOnUse" x1="-1.5369" y1="4.9749" x2="-1.5369" y2="26.619" gradientTransform="matrix(1 0 0 -1 14.979 322.3444)">
			<stop  offset="0" style="stop-color:#1780F2"/>
			<stop  offset="1" style="stop-color:#02B3FE"/>
		</linearGradient>
		<path id="rect4570-9-6-0-5-1" inkscape:connector-curvature="0" fill="url(#rect4570-9-6-0-5-1_1_)" d="M13.442,295.725
			c5.996,0,10.822,4.827,10.822,10.822s-4.826,10.822-10.822,10.822c-5.995,0-10.822-4.827-10.822-10.822
			S7.447,295.725,13.442,295.725z"/>
		<path id="path4538-6-2" inkscape:connector-curvature="0" fill="#D7F0FE" d="M14.97,296.108c-0.074,0.004-0.146,0.031-0.205,0.075
			c-0.559,0.392-1.078,0.8-1.566,1.221c-0.16-0.082-0.337-0.132-0.53-0.132c-0.642,0-1.16,0.517-1.16,1.159
			c0,0.184,0.045,0.355,0.121,0.509c-1.261,1.413-2.17,2.945-2.721,4.534c-0.036-0.003-0.068-0.018-0.105-0.018
			c-0.335,0-0.634,0.143-0.845,0.369c-1.344-0.473-2.558-1.228-3.517-2.186c-0.151-0.151-0.397-0.151-0.548,0s-0.151,0.396,0,0.548
			c1.031,1.031,2.325,1.844,3.758,2.355c-0.002,0.026-0.008,0.048-0.008,0.074c0,0.495,0.31,0.913,0.745,1.079
			c-0.023,0.178-0.052,0.354-0.066,0.532c-0.084,1.031-0.009,2.07,0.205,3.098c-1.402,0.68-2.716,1.678-3.88,2.995
			c-0.148,0.154-0.144,0.401,0.01,0.55s0.4,0.144,0.549-0.01c0.008-0.008,0.015-0.018,0.023-0.026
			c1.06-1.202,2.239-2.104,3.487-2.736c0.307,1.088,0.773,2.161,1.415,3.201c-0.104,0.174-0.167,0.376-0.167,0.594
			c0,0.644,0.517,1.159,1.159,1.159c0.086,0,0.169-0.01,0.25-0.028c0.534,0.64,1.136,1.264,1.811,1.863
			c0.152,0.149,0.397,0.147,0.547-0.003c0.149-0.153,0.148-0.397-0.003-0.548c-0.009-0.009-0.02-0.02-0.031-0.026
			c-0.621-0.552-1.172-1.12-1.667-1.701c0.156-0.198,0.252-0.444,0.252-0.716c0-0.644-0.516-1.159-1.159-1.159
			c-0.141,0-0.272,0.028-0.397,0.074c-0.6-0.989-1.029-2.004-1.304-3.027c1.199-0.496,2.451-0.757,3.727-0.757
			c0.015,0,0.032,0.003,0.047,0.003c0.195,0.364,0.575,0.615,1.019,0.615c0.358,0,0.674-0.164,0.887-0.417
			c0.79,0.154,1.582,0.407,2.365,0.75c-0.777,1.964-0.811,4.228,0.283,6.05c0.114,0.18,0.354,0.232,0.534,0.117
			c0.173-0.111,0.229-0.34,0.127-0.518c-0.934-1.555-0.924-3.551-0.244-5.314c1.209,0.619,2.391,1.461,3.508,2.548
			c0.146,0.154,0.391,0.163,0.548,0.018c0.155-0.146,0.164-0.393,0.018-0.549c-0.007-0.007-0.016-0.015-0.023-0.021
			c-1.178-1.146-2.437-2.04-3.73-2.7c0.012-0.024,0.021-0.05,0.033-0.074c0.321-0.615,0.734-1.171,1.203-1.654
			c0.188,0.136,0.419,0.218,0.67,0.219c0.769,0.841,1.74,1.518,2.898,1.91c0.198,0.075,0.423-0.022,0.499-0.222
			c0.077-0.2-0.022-0.423-0.222-0.501c-0.01-0.003-0.019-0.007-0.027-0.009c-0.926-0.313-1.707-0.84-2.354-1.489
			c0.228-0.211,0.371-0.512,0.371-0.849c0-0.115-0.022-0.224-0.053-0.328c0.616-0.276,1.278-0.444,1.983-0.444
			c0.214,0.001,0.391-0.172,0.391-0.386c0.003-0.214-0.172-0.389-0.387-0.39c-0.001,0-0.003,0-0.004,0
			c-0.881,0-1.705,0.215-2.455,0.578c-0.182-0.12-0.399-0.189-0.636-0.189c-0.189,0-0.366,0.049-0.524,0.131
			c-0.807-1.704-0.924-3.699-0.215-5.319c0.373-0.482,0.732-1.001,1.073-1.568c0.011-0.017,0.021-0.034,0.027-0.052
			c0.003-0.005,0.005-0.011,0.008-0.017c0.077-0.199-0.021-0.423-0.221-0.5c-0.053-0.02-0.107-0.029-0.163-0.025
			c-0.003,0-0.007,0.001-0.01,0.001c-0.123,0.009-0.235,0.075-0.3,0.18c-0.46,0.473-0.82,1.008-1.089,1.583
			c-2.087,2.673-4.593,3.901-7.029,4.137c-0.69,0.066-1.375,0.049-2.045-0.037c-0.056-0.188-0.165-0.346-0.298-0.481
			c0.507-1.506,1.359-2.969,2.568-4.327c0.149,0.069,0.312,0.11,0.487,0.11c0.643,0,1.159-0.517,1.159-1.16
			c0-0.164-0.034-0.319-0.095-0.46c0.461-0.396,0.948-0.785,1.477-1.155c0.179-0.118,0.227-0.358,0.108-0.536
			C15.241,296.163,15.109,296.098,14.97,296.108L14.97,296.108z M18.468,301.94c-0.225,1.542,0.077,3.191,0.84,4.62
			c-0.041,0.119-0.068,0.242-0.068,0.375c0,0.1,0.016,0.196,0.039,0.288c-0.573,0.566-1.067,1.227-1.444,1.948
			c-0.017,0.033-0.028,0.067-0.045,0.099c-0.798-0.35-1.604-0.615-2.415-0.784c0-0.002,0-0.003,0-0.006
			c0-0.642-0.517-1.161-1.159-1.161c-0.563,0-1.029,0.399-1.135,0.93c-1.309,0.01-2.598,0.277-3.832,0.769
			c-0.174-0.91-0.229-1.823-0.155-2.731c0.015-0.19,0.046-0.381,0.072-0.572c0.322-0.104,0.581-0.344,0.709-0.654
			c0.706,0.085,1.428,0.104,2.157,0.034c2.21-0.213,4.464-1.197,6.436-3.155V301.94z"/>
		<path id="rect843-7" inkscape:connector-curvature="0" fill="#363C4D" d="M18.853,305.001c3.854,0,6.957,3.103,6.957,6.958
			s-3.103,6.957-6.957,6.957c-3.854,0-6.957-3.103-6.957-6.957S14.999,305.001,18.853,305.001z"/>
		
			<linearGradient id="rect843-6-0_1_" gradientUnits="userSpaceOnUse" x1="2.8742" y1="312.8519" x2="2.8742" y2="325.22" gradientTransform="matrix(1 0 0 -1 15.979 630.9948)">
			<stop  offset="0" style="stop-color:#5B637B"/>
			<stop  offset="1" style="stop-color:#727B97"/>
		</linearGradient>
		<path id="rect843-6-0" inkscape:connector-curvature="0" fill="url(#rect843-6-0_1_)" d="M18.853,305.775
			c3.426,0,6.185,2.758,6.185,6.184s-2.759,6.185-6.185,6.185s-6.184-2.759-6.184-6.185S15.427,305.775,18.853,305.775z"/>
		<path id="rect1360-7" inkscape:connector-curvature="0" fill="#484F66" d="M15.005,309.64v6.184h1.546v0.772h4.638v-0.772h1.547
			v-6.184H15.005z M15.779,310.412h6.184v4.638h-1.546v0.773h-3.092v-0.773h-1.546V310.412z M16.551,311.186v3.092h1.546v0.772
			h1.546v-0.772h1.546v-3.092H16.551z"/>
		<path id="rect1360" inkscape:connector-curvature="0" fill="#FFFFFF" d="M15.005,308.867v6.184h1.546v0.773h4.638v-0.773h1.547
			v-6.184H15.005z M15.779,309.64h6.184v4.638h-1.546v0.772h-3.092v-0.772h-1.546V309.64z M16.551,310.412v3.092h1.546v0.773h1.546
			v-0.773h1.546v-3.092H16.551z"/>
	</g>
</g>
</svg>
