<?xml version="1.0" encoding="UTF-8" standalone="no"?>
<svg
   version="1.1"
   width="28"
   height="28"
   color-interpolation="linearRGB"
   id="svg90"
   sodipodi:docname="renta.svg"
   inkscape:version="1.2.2 (b0a8486541, 2022-12-01)"
   xmlns:inkscape="http://www.inkscape.org/namespaces/inkscape"
   xmlns:sodipodi="http://sodipodi.sourceforge.net/DTD/sodipodi-0.dtd"
   xmlns="http://www.w3.org/2000/svg"
   xmlns:svg="http://www.w3.org/2000/svg">
  <defs
     id="defs94" />
  <sodipodi:namedview
     id="namedview92"
     pagecolor="#ffffff"
     bordercolor="#000000"
     borderopacity="0.25"
     inkscape:showpageshadow="2"
     inkscape:pageopacity="0.0"
     inkscape:pagecheckerboard="0"
     inkscape:deskcolor="#d1d1d1"
     showgrid="false"
     inkscape:zoom="12.9375"
     inkscape:cx="30.415459"
     inkscape:cy="19.63285"
     inkscape:window-width="1920"
     inkscape:window-height="1008"
     inkscape:window-x="0"
     inkscape:window-y="0"
     inkscape:window-maximized="1"
     inkscape:current-layer="svg90" />
  <g
     id="g88"
     transform="matrix(0.42963713,0,0,0.42963713,0.4820314,1.0968276)">
    <path
       style="fill:#010101;fill-opacity:0.5725"
       d="m 27,57 2,2 3.12,-3.19 L 37,59 45.39,47.52 64,38 59,35 61,37 36,49 Z m 31,-23 4,-3 -4,-2 -3,3 z"
       id="path2" />
    <path
       style="fill:none;stroke:#010101;stroke-width:4"
       d="m 6.24,30 c 0,0 5.63,6 10.63,12.5 5,6.5 9.37,13.24 9.37,13.24 L 59.1,36.86 32,15 Z"
       id="path4" />
    <radialGradient
       id="gradient0"
       gradientUnits="userSpaceOnUse"
       cx="0"
       cy="0"
       r="64"
       gradientTransform="matrix(0.5714,0,0,0.3333,26,35)">
      <stop
         offset="0.4862"
         stop-color="#896eff"
         id="stop6" />
      <stop
         offset="1"
         stop-color="#c0d5ff"
         id="stop8" />
    </radialGradient>
    <path
       style="fill:url(#gradient0)"
       d="m 6.24,30 c 0,0 5.63,6 10.63,12.5 5,6.5 9.37,13.24 9.37,13.24 L 59.1,36.86 32,15 Z"
       id="path11" />
    <path
       style="fill:none;stroke:#010101;stroke-width:4"
       d="m 2.61,30.87 c 0,0 8.33,5.38 16.39,10.99 8.44,5.88 16.74,10.88 16.74,10.88 L 58.1,26.37 c 0,0 -12.66,-5.67 -22.74,-11 -5.19,-2.76 -9.36,-6 -9.36,-6 z"
       id="path13" />
    <linearGradient
       id="gradient1"
       gradientUnits="userSpaceOnUse"
       x1="105.45"
       y1="-23.42"
       x2="119.92"
       y2="34.32">
      <stop
         offset="0"
         stop-color="#a5b1ff"
         id="stop15" />
      <stop
         offset="0.7372"
         stop-color="#eaf1ff"
         id="stop17" />
      <stop
         offset="1"
         stop-color="#b3b8ff"
         id="stop19" />
    </linearGradient>
    <path
       style="fill:url(#gradient1)"
       d="m 2.61,30.87 c 0,0 8.33,5.38 16.39,10.99 8.44,5.88 16.74,10.88 16.74,10.88 L 58.1,26.37 c 0,0 -12.66,-5.67 -22.74,-11 -5.19,-2.76 -9.36,-6 -9.36,-6 z"
       id="path22" />
    <radialGradient
       id="gradient2"
       gradientUnits="userSpaceOnUse"
       cx="0"
       cy="0"
       r="64"
       gradientTransform="matrix(0.5714,0,0,0.3333,26,35)">
      <stop
         offset="0.4862"
         stop-color="#896eff"
         id="stop24" />
      <stop
         offset="1"
         stop-color="#c0d5ff"
         id="stop26" />
    </radialGradient>
    <path
       style="fill:url(#gradient2)"
       d="m 50,33 c 0,6 -7,11 -16,11 -9,0 -16,-5 -16,-11 0,-6 7,-11 16,-11 9,0 16,5 16,11 z"
       transform="translate(-2,-4)"
       id="path29" />
    <path
       style="fill:none;stroke:#000001;stroke-width:4"
       d="m 50,28 v 5 H 18 v -5 z m 0,5 c 0,6 -7,11 -16,11 -9,0 -16,-5 -16,-11 0,-6 7,-11 16,-11 9,0 16,5 16,11 z"
       transform="translate(-8,-6)"
       id="path31" />
    <path
       style="fill:none;stroke:#000001;stroke-width:4"
       d="m 50,33 c 0,6 -7,11 -16,11 -9,0 -16,-5 -16,-11 0,-6 7,-11 16,-11 9,0 16,5 16,11 z"
       transform="translate(-8,-12)"
       id="path33" />
    <radialGradient
       id="gradient3"
       gradientUnits="userSpaceOnUse"
       cx="0"
       cy="0"
       r="64"
       gradientTransform="matrix(0.4369,0.1165,-0.1165,0.4369,26.2174,18.7597)">
      <stop
         offset="0.6627"
         stop-color="#ffe405"
         id="stop35" />
      <stop
         offset="1"
         stop-color="#cb7f1b"
         id="stop37" />
    </radialGradient>
    <path
       style="fill:url(#gradient3)"
       d="m 50,28 v 5 H 18 v -5 z m 0,5 c 0,6 -7,11 -16,11 -9,0 -16,-5 -16,-11 0,-6 7,-11 16,-11 9,0 16,5 16,11 z"
       transform="translate(-8,-6)"
       id="path40" />
    <radialGradient
       id="gradient4"
       gradientUnits="userSpaceOnUse"
       cx="0"
       cy="0"
       r="64"
       gradientTransform="matrix(0.4316,0.3011,-0.2428,0.348,28.0792,12.9124)">
      <stop
         offset="0.6705"
         stop-color="#f3c406"
         id="stop42" />
      <stop
         offset="1"
         stop-color="#fff3a5"
         id="stop44" />
    </radialGradient>
    <path
       style="fill:url(#gradient4)"
       d="m 50,33 c 0,6 -7,11 -16,11 -9,0 -16,-5 -16,-11 0,-6 7,-11 16,-11 9,0 16,5 16,11 z"
       transform="translate(-8,-12)"
       id="path47" />
    <path
       style="fill:none;stroke:#000001;stroke-width:4"
       d="m 34,34 6,-11 v -6 c 0,0 -3,-1 -6,-1 -6,0 -11,1 -14,4 v 14 z"
       transform="translate(-8,-12)"
       id="path49" />
    <linearGradient
       id="gradient5"
       gradientUnits="userSpaceOnUse"
       x1="21.52"
       y1="28.07"
       x2="29"
       y2="21.43">
      <stop
         offset="0"
         stop-color="#026402"
         id="stop51" />
      <stop
         offset="1"
         stop-color="#42bc42"
         id="stop53" />
    </linearGradient>
    <path
       style="fill:url(#gradient5)"
       d="M 34,26 20,20 v 14 h 14 z"
       transform="translate(-8,-12)"
       id="path56" />
    <linearGradient
       id="gradient6"
       gradientUnits="userSpaceOnUse"
       x1="34.580002"
       y1="32.16"
       x2="38.580002"
       y2="18.16">
      <stop
         offset="0"
         stop-color="#1e591e"
         id="stop58" />
      <stop
         offset="1"
         stop-color="#339933"
         id="stop60" />
    </linearGradient>
    <path
       style="fill:url(#gradient6)"
       d="m 34,34 6,-11 v -6 l -6,9 z"
       transform="translate(-8,-12)"
       id="path63" />
    <linearGradient
       id="gradient7"
       gradientUnits="userSpaceOnUse"
       x1="30.360001"
       y1="27.57"
       x2="28.02"
       y2="16.700001">
      <stop
         offset="0"
         stop-color="#2aae2a"
         id="stop65" />
      <stop
         offset="1"
         stop-color="#c0ffc0"
         id="stop67" />
    </linearGradient>
    <path
       style="fill:url(#gradient7)"
       d="m 34,26 6,-9 c 0,0 -3,-1 -6,-1 -6,0 -11,1 -14,4 z"
       transform="translate(-8,-12)"
       id="path70" />
    <path
       style="fill:none;stroke:#000001;stroke-width:4"
       d="m 17,23 c -2,2 -3,5 -3,7 v 8 h 2 v -4 h 14 v -4 z"
       transform="translate(-8,-12)"
       id="path72" />
    <linearGradient
       id="gradient8"
       gradientUnits="userSpaceOnUse"
       x1="19.01"
       y1="37.669998"
       x2="16.93"
       y2="28.83">
      <stop
         offset="0"
         stop-color="#c20505"
         id="stop74" />
      <stop
         offset="1"
         stop-color="#ff0606"
         id="stop76" />
    </linearGradient>
    <path
       style="fill:url(#gradient8)"
       d="m 14,30 v 8 h 1.87 L 16,34 h 14 v -4 z"
       transform="translate(-8,-12)"
       id="path79" />
    <linearGradient
       id="gradient9"
       gradientUnits="userSpaceOnUse"
       x1="17.25"
       y1="34.580002"
       x2="13.49"
       y2="28.360001">
      <stop
         offset="0"
         stop-color="#ff4444"
         id="stop81" />
      <stop
         offset="1"
         stop-color="#ffa5a5"
         id="stop83" />
    </linearGradient>
    <path
       style="fill:url(#gradient9)"
       d="m 17,23 c -2,2 -3,5 -3,7 h 16 z"
       transform="translate(-8,-12)"
       id="path86" />
  </g>
</svg>
