<?xml version="1.0" encoding="UTF-8" standalone="no"?>
<svg
   version="1.1"
   width="28"
   height="28"
   color-interpolation="linearRGB"
   id="svg71"
   sodipodi:docname="revista.svg"
   inkscape:version="1.2.2 (b0a8486541, 2022-12-01)"
   xmlns:inkscape="http://www.inkscape.org/namespaces/inkscape"
   xmlns:sodipodi="http://sodipodi.sourceforge.net/DTD/sodipodi-0.dtd"
   xmlns="http://www.w3.org/2000/svg"
   xmlns:svg="http://www.w3.org/2000/svg">
  <defs
     id="defs75" />
  <sodipodi:namedview
     id="namedview73"
     pagecolor="#ffffff"
     bordercolor="#000000"
     borderopacity="0.25"
     inkscape:showpageshadow="2"
     inkscape:pageopacity="0.0"
     inkscape:pagecheckerboard="0"
     inkscape:deskcolor="#d1d1d1"
     showgrid="false"
     inkscape:zoom="12.9375"
     inkscape:cx="26.512077"
     inkscape:cy="25.816425"
     inkscape:window-width="1920"
     inkscape:window-height="1008"
     inkscape:window-x="0"
     inkscape:window-y="0"
     inkscape:window-maximized="1"
     inkscape:current-layer="svg71" />
  <g
     id="g69"
     transform="matrix(0.43654897,0,0,0.43654897,0.0415959,-0.48846078)">
    <path
       style="fill:#010101;fill-opacity:0.4549"
       d="m 26,62 c 0,0 7,0 9,-1 2,-1 6,-7 13,-13 7,-6 13,-11 14,-12 1,-1 5,-6 -4,-10 H 26 Z"
       id="path2" />
    <path
       style="fill:none;stroke:#010101;stroke-width:4"
       d="m 2,48 c 0,1 6,3 12,6 6,3 7,6 12,6 5,0 11,-9 17,-14 6,-5 13,-11 13,-11 1,-1 3,-2 3,-6 C 59,25 51,18 48,14 45,10 42,8 42,8 l -3,3 C 38,10 33,8 33,8 33,8 28,16 22,20 16,24 8,26 8,28 8,31 7,31 14,38 8,42 2,44 2,48 Z"
       id="path4" />
    <radialGradient
       id="gradient0"
       gradientUnits="userSpaceOnUse"
       cx="0"
       cy="0"
       r="64"
       gradientTransform="matrix(0.1999,-0.2074,0.3331,0.3211,6.306,45.2983)">
      <stop
         offset="0"
         stop-color="#fcfaf4"
         id="stop6" />
      <stop
         offset="1"
         stop-color="#808076"
         id="stop8" />
    </radialGradient>
    <path
       style="fill:url(#gradient0)"
       d="m 2,48 c 0,1 6,3 12,6 6,3 7,6 12,6 5,0 11,-9 17,-14 6,-5 13,-11 13,-11 1,-1 3,-2 3,-6 C 59,25 51,18 48,14 45,10 42,8 42,8 l -3,3 C 38,10 33,8 33,8 33,8 28,16 22,20 16,24 8,26 8,28 8,31 7,31 14,38 8,42 2,44 2,48 Z"
       id="path11" />
    <radialGradient
       id="gradient1"
       gradientUnits="userSpaceOnUse"
       cx="0"
       cy="0"
       r="64"
       gradientTransform="matrix(0.1999,-0.2074,0.3331,0.3211,6.306,45.2983)">
      <stop
         offset="0"
         stop-color="#ff90aa"
         id="stop13" />
      <stop
         offset="0.9843"
         stop-color="#6d021b"
         id="stop15" />
    </radialGradient>
    <path
       style="fill:url(#gradient1)"
       d="m 18,39 c 0,1 -11,8 -11,9 l 9,4 10,-9 c 0,0 -8,-5 -8,-4 z"
       id="path18" />
    <radialGradient
       id="gradient2"
       gradientUnits="userSpaceOnUse"
       cx="0"
       cy="0"
       r="64"
       gradientTransform="matrix(0.1999,-0.2074,0.3331,0.3211,6.306,45.2983)">
      <stop
         offset="0"
         stop-color="#acacac"
         id="stop20" />
      <stop
         offset="1"
         stop-color="#010101"
         id="stop22" />
    </radialGradient>
    <path
       style="fill:none;stroke:url(#gradient2);stroke-width:2"
       d="m 28,46 -8,8 m 11,-5 -7,7"
       id="path25" />
    <radialGradient
       id="gradient3"
       gradientUnits="userSpaceOnUse"
       cx="0"
       cy="0"
       r="64"
       gradientTransform="matrix(0.3606,-0.2081,0.045,0.078,31.0422,10.7541)">
      <stop
         offset="0.3294"
         stop-color="#e2e2d7"
         id="stop27" />
      <stop
         offset="1"
         stop-color="#949490"
         id="stop29" />
    </radialGradient>
    <path
       style="fill:url(#gradient3)"
       d="m 8,28 c 0,-2.09 8,-4 14,-8 6,-4 11,-12 11,-12 0,0 6,2 7,4 1,2 5,-1 8,2 L 14,38 C 7,31 8,31 8,28 Z"
       id="path32" />
    <radialGradient
       id="gradient4"
       gradientUnits="userSpaceOnUse"
       cx="0"
       cy="0"
       r="64"
       gradientTransform="matrix(0.4752,-0.355,0.2271,0.3041,31.9656,24.2154)">
      <stop
         offset="0.3294"
         stop-color="#fcfbf4"
         id="stop34" />
      <stop
         offset="1"
         stop-color="#bfbfb0"
         id="stop36" />
    </radialGradient>
    <path
       style="fill:url(#gradient4)"
       d="m 8,28 c 2,0 13,-6 22,-11 9,-5 12,-9 12,-9 0,0 3,2 6,6 3,4 11,11 11,15 0,2 -2,5 -3,6 0,0 -7,6 -13,11 C 37,51 31,60 26,60 21,60 14,54 14,54 L 3,48 c 0,0 7,3 12,6 5,3 9,5 11,5 2,0 3,-3 2,-5 C 25,49 20,44 14,38 7,31 8,31 8,28 Z"
       id="path39" />
    <radialGradient
       id="gradient5"
       gradientUnits="userSpaceOnUse"
       cx="0"
       cy="0"
       r="64"
       gradientTransform="matrix(0.4752,-0.355,0.2271,0.3041,31.9656,24.2154)">
      <stop
         offset="0.3294"
         stop-color="#acacac"
         id="stop41" />
      <stop
         offset="1"
         stop-color="#4a4a4a"
         id="stop43" />
    </radialGradient>
    <path
       style="fill:none;stroke:url(#gradient5);stroke-width:2"
       d="m 41,31 -7,6 m 7,0 -4,4 m -6,-2 -7,5 m 22,-5 -6,6 m -5,-2 -7,6 m 8,0 -5,5"
       id="path46" />
    <radialGradient
       id="gradient6"
       gradientUnits="userSpaceOnUse"
       cx="0"
       cy="0"
       r="64"
       gradientTransform="matrix(0.4752,-0.355,0.2271,0.3041,31.9656,24.2154)">
      <stop
         offset="0.3294"
         stop-color="#89bbff"
         id="stop48" />
      <stop
         offset="1"
         stop-color="#0552bb"
         id="stop50" />
    </radialGradient>
    <path
       style="fill:none;stroke:url(#gradient6);stroke-width:2"
       d="m 15,34 h 3 l 1,-3 h 3 l 1,-2 m 21,-13 -1,2 h -2 v 2 h -2"
       id="path53" />
    <radialGradient
       id="gradient7"
       gradientUnits="userSpaceOnUse"
       cx="0"
       cy="0"
       r="64"
       gradientTransform="matrix(0.4752,-0.355,0.2271,0.3041,31.9656,24.2154)">
      <stop
         offset="0.3294"
         stop-color="#acacac"
         id="stop55" />
      <stop
         offset="1"
         stop-color="#4a4a4a"
         id="stop57" />
    </radialGradient>
    <path
       style="fill:url(#gradient7)"
       d="m 28,31 c 0,-1 -3,-5 -4,-5 1,-1 10,-6 11,-6 1,0 3,3 3,4 0,1 -9,7 -10,7 z"
       id="path60" />
    <radialGradient
       id="gradient8"
       gradientUnits="userSpaceOnUse"
       cx="0"
       cy="0"
       r="64"
       gradientTransform="matrix(0.4752,-0.355,0.2271,0.3041,31.9656,24.2154)">
      <stop
         offset="0.3294"
         stop-color="#89bbff"
         id="stop62" />
      <stop
         offset="1"
         stop-color="#0552bb"
         id="stop64" />
    </radialGradient>
    <path
       style="fill:url(#gradient8)"
       d="m 43,29 c 2,1 6,7 6,9 1,0 8,-5 8,-8 0,-2 -3,-8 -6,-8 -1,0 -8,7 -8,7 z"
       id="path67" />
  </g>
</svg>
