<?xml version="1.0" encoding="utf-8"?>
<!-- Generator: Adobe Illustrator 16.0.3, SVG Export Plug-In . SVG Version: 6.00 Build 0)  -->
<!DOCTYPE svg PUBLIC "-//W3C//DTD SVG 1.1//EN" "http://www.w3.org/Graphics/SVG/1.1/DTD/svg11.dtd">
<svg version="1.1"
	 id="svg8" sodipodi:docname="configure.svg" inkscape:version="1.2.1 (9c6d41e410, 2022-07-14)" xmlns:dc="http://purl.org/dc/elements/1.1/" xmlns:cc="http://creativecommons.org/ns#" xmlns:rdf="http://www.w3.org/1999/02/22-rdf-syntax-ns#" xmlns:svg="http://www.w3.org/2000/svg" xmlns:sodipodi="http://sodipodi.sourceforge.net/DTD/sodipodi-0.dtd" xmlns:inkscape="http://www.inkscape.org/namespaces/inkscape"
	 xmlns="http://www.w3.org/2000/svg" xmlns:xlink="http://www.w3.org/1999/xlink" x="0px" y="0px" width="24px" height="24px"
	 viewBox="-1 -1 24 24" enable-background="new -1 -1 24 24" xml:space="preserve">
<title  id="title7895">Antu icon Theme</title>
<sodipodi:namedview  id="base" units="px" inkscape:bbox-nodes="true" inkscape:bbox-paths="true" inkscape:showpageshadow="false" inkscape:object-paths="true" inkscape:deskcolor="#d1d1d1" inkscape:snap-bbox="true" inkscape:window-y="0" inkscape:window-x="0" inkscape:window-height="1005" inkscape:window-width="1920" inkscape:current-layer="layer1" inkscape:document-units="px" inkscape:pageshadow="2" inkscape:pageopacity="0.0" objecttolerance="10" guidetolerance="10" inkscape:cy="11.234375" inkscape:cx="17.921875" inkscape:zoom="32" gridtolerance="10" borderopacity="1.0" bordercolor="#666666" showgrid="true" pagecolor="#ffffff" inkscape:pagecheckerboard="0" inkscape:snap-bbox-midpoints="true" inkscape:window-maximized="1" inkscape:snap-intersection-paths="true" inkscape:snap-bbox-edge-midpoints="true">
	<inkscape:grid  originy="0" originx="0" id="grid7897" type="xygrid" empspacing="4"></inkscape:grid>
</sodipodi:namedview>
<g id="layer1" transform="translate(0,-250.64999)" inkscape:groupmode="layer" inkscape:label="Capa 1">
	<path id="rect863" d="M0.548,249.65H21.45c0.859,0,1.55,0.689,1.55,1.548v20.903c0,0.859-0.69,1.549-1.55,1.549H0.548
		c-0.857,0-1.548-0.689-1.548-1.549v-20.903C-1,250.341-0.31,249.65,0.548,249.65z"/>
	
		<linearGradient id="rect863-9_1_" gradientUnits="userSpaceOnUse" x1="1227.7207" y1="2627.2192" x2="1227.7207" y2="2562.2017" gradientTransform="matrix(0.3334 0 0 0.3334 -398.3214 -603.4432)">
		<stop  offset="0" style="stop-color:#E5E5E5"/>
		<stop  offset="1" style="stop-color:#FBFBFB"/>
	</linearGradient>
	<path id="rect863-9" fill="url(#rect863-9_1_)" d="M0.548,250.037c-0.643,0-1.161,0.517-1.161,1.161v20.903
		c0,0.644,0.518,1.163,1.161,1.163H21.45c0.645,0,1.164-0.52,1.164-1.163v-20.903c0-0.644-0.52-1.161-1.164-1.161H0.548z
		 M1.709,251.198c0.643,0,1.161,0.519,1.161,1.162c0,0.643-0.518,1.162-1.161,1.162c-0.644,0-1.162-0.519-1.162-1.162
		C0.548,251.716,1.066,251.198,1.709,251.198z M20.288,251.198c0.646,0,1.162,0.519,1.162,1.162c0,0.643-0.517,1.162-1.162,1.162
		c-0.643,0-1.16-0.519-1.16-1.162C19.13,251.716,19.646,251.198,20.288,251.198z M1.709,269.781c0.643,0,1.161,0.519,1.161,1.16
		c0,0.645-0.518,1.162-1.161,1.162c-0.644,0-1.162-0.518-1.162-1.162C0.548,270.298,1.066,269.781,1.709,269.781z M20.288,269.781
		c0.646,0,1.162,0.519,1.162,1.16c0,0.645-0.517,1.162-1.162,1.162c-0.643,0-1.16-0.518-1.16-1.162
		C19.13,270.298,19.646,269.781,20.288,269.781z"/>
	<g id="layer1-6" transform="translate(8,-7.999995)" inkscape:label="Capa 1">
		<g id="g1535" transform="matrix(-1,0,0,1,13,-15.000005)">
			<g id="g1089">
				<g id="g5422" transform="translate(-59,11)">
					<g id="layer1-3-2" transform="matrix(5.5433071,0,0,5.5433071,24.533333,-1328.2455)" inkscape:label="Capa 1">
					</g>
				</g>
				<g id="g959" transform="matrix(0.33342131,0,0,0.33342131,13.644074,182.76333)">
					<path id="rect914" fill="#808080" d="M-2.75,292.81h-16.357c-7.05,0-12.72,5.672-12.72,12.72v0.101
						c0,7.048,5.67,12.719,12.72,12.719H-2.75c7.047,0,12.719-5.67,12.719-12.719v-0.101C9.968,298.481,4.295,292.81-2.75,292.81
						L-2.75,292.81z"/>
					<path id="rect916" fill="#FF0000" d="M-2.803,293.969H-19.06c-6.432,0-11.607,5.178-11.607,11.612
						c0,6.433,5.178,11.606,11.607,11.606h16.257c6.432,0,11.609-5.172,11.609-11.606C8.806,299.148,3.629,293.969-2.803,293.969z"
						/>
					<path id="rect931" fill="#808080" d="M-2.803,295.131c-5.789,0-10.449,4.663-10.449,10.45l0,0
						c0,5.783,4.66,10.452,10.449,10.452s10.449-4.669,10.449-10.452l0,0C7.646,299.794,2.984,295.131-2.803,295.131z"/>
					
						<linearGradient id="rect933_1_" gradientUnits="userSpaceOnUse" x1="14173.958" y1="20487.8496" x2="14173.958" y2="20471.5938" gradientTransform="matrix(-0.1112 0 0 0.1112 1572.8104 -1963.8413)">
						<stop  offset="0" style="stop-color:#E6E6E6"/>
						<stop  offset="1" style="stop-color:#F9F9F9"/>
					</linearGradient>
					<path id="rect933" fill="url(#rect933_1_)" d="M-2.803,296.292L-2.803,296.292c-5.145,0-9.288,4.143-9.288,9.289
						c0,5.142,4.143,9.289,9.288,9.289l0,0c5.146,0,9.286-4.147,9.286-9.289C6.483,300.435,2.343,296.292-2.803,296.292z"/>
				</g>
			</g>
		</g>
	</g>
</g>
</svg>
