<?xml version="1.0" encoding="UTF-8" standalone="no"?>
<svg
   version="1.1"
   width="28"
   height="28"
   color-interpolation="linearRGB"
   id="svg127"
   sodipodi:docname="salidas.svg"
   inkscape:version="1.2.2 (b0a8486541, 2022-12-01)"
   xmlns:inkscape="http://www.inkscape.org/namespaces/inkscape"
   xmlns:sodipodi="http://sodipodi.sourceforge.net/DTD/sodipodi-0.dtd"
   xmlns="http://www.w3.org/2000/svg"
   xmlns:svg="http://www.w3.org/2000/svg">
  <defs
     id="defs131" />
  <sodipodi:namedview
     id="namedview129"
     pagecolor="#ffffff"
     bordercolor="#000000"
     borderopacity="0.25"
     inkscape:showpageshadow="2"
     inkscape:pageopacity="0.0"
     inkscape:pagecheckerboard="0"
     inkscape:deskcolor="#d1d1d1"
     showgrid="false"
     inkscape:zoom="12.9375"
     inkscape:cx="26.512077"
     inkscape:cy="19.63285"
     inkscape:window-width="1920"
     inkscape:window-height="1012"
     inkscape:window-x="0"
     inkscape:window-y="0"
     inkscape:window-maximized="1"
     inkscape:current-layer="svg127" />
  <g
     id="g125"
     transform="matrix(0.43648034,0,0,0.43648034,-0.54213124,1.2588465e-4)">
    <path
       style="fill:none;stroke:#000000;stroke-width:4"
       d="M 52,28 C 52,28 34,60 12.1,62 8,46 44,24 44,24 Z"
       id="path2" />
    <linearGradient
       id="gradient0"
       gradientUnits="userSpaceOnUse"
       x1="99.809998"
       y1="-35.950001"
       x2="110.26"
       y2="-25.4">
      <stop
         offset="0.2"
         stop-color="#e20644"
         id="stop4" />
      <stop
         offset="0.3499"
         stop-color="#ffffff"
         id="stop6" />
      <stop
         offset="0.6499"
         stop-color="#ffffff"
         id="stop8" />
      <stop
         offset="0.8022"
         stop-color="#e20644"
         id="stop10" />
    </linearGradient>
    <path
       style="fill:url(#gradient0)"
       d="M 52,28 C 52,28 34,60 12.1,62 8,46 44,24 44,24 Z"
       id="path13" />
    <radialGradient
       id="gradient1"
       gradientUnits="userSpaceOnUse"
       cx="0"
       cy="0"
       r="64"
       gradientTransform="matrix(0.1244,0.1132,-0.4819,0.5295,35.6314,32.1488)">
      <stop
         offset="0.7994"
         stop-color="#010101"
         stop-opacity="0"
         id="stop15" />
      <stop
         offset="1"
         stop-color="#010101"
         stop-opacity="0.7294"
         id="stop17" />
    </radialGradient>
    <path
       style="fill:url(#gradient1)"
       d="M 52,28 C 52,28 34,60 12.1,62 8,46 44,24 44,24 Z"
       id="path20" />
    <path
       style="fill:#000000;fill-opacity:0.4196"
       d="m 12,62 c 18,0 23.84,-7.93 33.92,-17.97 0,0 2.08,-0.03 6.08,-2.03 0,0 -1,2 -1,3 0,1 4,0 4,0 2,0 3,1 3,1 3.99,-2.01 6,-6 4,-8 -1,-1 -3,-2 -3,-2 0,0 1,-3 0,-4 0,0 -3,-2 -5,-2 0,-2 -2,-6 -4,-6 2,5 0,10 -5,15 l -8,1 -1,3 c 1,1 2,0 2,0 h 2 l -3,3 -7,-3 -5,9 c 0,0 5,-2 5,-4 0,0 2,0 3,-1 l 4.05,1 C 29,56 24,61 12,62 Z"
       id="path22" />
    <path
       style="fill:none;stroke:#000000;stroke-width:6;stroke-linecap:round;stroke-linejoin:round"
       d="m 42,8 c 2,-2 6,-2 8,2 2,4 -2,10 -4,12 -2,2 -20,4 -16,8"
       id="path24" />
    <radialGradient
       id="gradient2"
       gradientUnits="userSpaceOnUse"
       cx="0"
       cy="0"
       r="64"
       gradientTransform="matrix(-0.1773,-0.1846,0.2413,-0.2319,45.4561,26.3863)">
      <stop
         offset="0"
         stop-color="#d8a440"
         id="stop26" />
      <stop
         offset="0.4212"
         stop-color="#926103"
         id="stop28" />
      <stop
         offset="1"
         stop-color="#d8a440"
         id="stop30" />
    </radialGradient>
    <path
       style="fill:none;stroke:url(#gradient2);stroke-width:2;stroke-linecap:round;stroke-linejoin:round"
       d="m 42,8 c 2,-2 6,-2 8,2 2,4 -2,10 -4,12 -2,2 -20,4 -16,8"
       id="path33" />
    <path
       style="fill:none;stroke:#000000;stroke-width:4"
       d="m 30,22 c 0,0 10,-3 11,-3 1,0 3,1 3,1 l 3,-3 c -1,-1 -5,-1 -5,-1 0,0 1,-1 1,-2 -3,0 -13,4 -13,4 m 14,2 c 0,4 2,7 3,7 2,-1 -1,-4 0,-4 2,0 3,5 4,5 1,0 1,-2 1,-4 0,0 4,-2 0,-4 -3,-1 -3,1 -6,-2 z"
       id="path35" />
    <radialGradient
       id="gradient3"
       gradientUnits="userSpaceOnUse"
       cx="0"
       cy="0"
       r="64"
       gradientTransform="matrix(0.0882,0.0333,-0.0322,0.0853,43.6343,19.1063)">
      <stop
         offset="0.2148"
         stop-color="#d8a440"
         id="stop37" />
      <stop
         offset="1"
         stop-color="#5c3e05"
         id="stop39" />
    </radialGradient>
    <path
       style="fill:url(#gradient3)"
       d="m 30,22 c 0,0 10,-3 11,-3 1,0 3,1 3,1 l 3,-3 c -1,-1 -5,-1 -5,-1 0,0 1,-1 1,-2 -3,0 -13,4 -13,4"
       id="path42" />
    <radialGradient
       id="gradient4"
       gradientUnits="userSpaceOnUse"
       cx="0"
       cy="0"
       r="64"
       gradientTransform="matrix(0.1095,0.0258,-0.0173,0.0735,47.1071,22.9618)">
      <stop
         offset="0.2693"
         stop-color="#f3e3c5"
         id="stop44" />
      <stop
         offset="1"
         stop-color="#dcc28f"
         id="stop46" />
    </radialGradient>
    <path
       style="fill:url(#gradient4)"
       d="m 44,20 c 0,4 2,7 3,7 2,-1 -1,-4 0,-4 2,0 3,5 4,5 1,0 1,-2 1,-4 0,0 4,-2 0,-4 -3,-1 -3,1 -6,-2 z"
       id="path49" />
    <path
       style="fill:none;stroke:#000000;stroke-width:4"
       d="m 24,18 -10,1 -2,-1 c 0,0 -2,-1 -1,-2 1,-1 4,0 4,0 v -1 l 7,-1 m -8,5 c 0,2 1,3 1,4 0,2 0,3 -1,3 -1,0 -1,-2 -2,-3 -2,1 1,5 -1,6 -1,0 -2,-1 -3,-2 -1,0 -2,0 -2,-1 0,-2 2,-6 6,-8 z"
       id="path51" />
    <path
       style="fill:#d8a440"
       d="m 24,18 -10,1 -2,-1 c 0,0 -2,-1 -1,-2 1,-1 4,0 4,0 v -1 l 7,-1"
       id="path53" />
    <radialGradient
       id="gradient5"
       gradientUnits="userSpaceOnUse"
       cx="0"
       cy="0"
       r="64"
       gradientTransform="matrix(0.0341,-0.0873,0.0737,0.0288,9.9939,20.9888)">
      <stop
         offset="0.2693"
         stop-color="#f3e3c5"
         id="stop55" />
      <stop
         offset="1"
         stop-color="#dcc28f"
         id="stop57" />
    </radialGradient>
    <path
       style="fill:url(#gradient5)"
       d="m 14,19 c 0,2 1,3 1,4 0,2 0,3 -1,3 -1,0 -1,-2 -2,-3 -2,1 1,5 -1,6 -1,0 -2,-1 -3,-2 -1,0 -2,0 -2,-1 0,-2 2,-6 6,-8 z"
       id="path60" />
    <path
       style="fill:none;stroke:#000000;stroke-width:4"
       d="m 24,21 c 0,0 -2,6 0,12 -2,3 -3,6 -3,7 h 2 c 0,2 2,4 2,4 h 3 l -2,-4 2,-4 c 3,0 5,-1 6,-2 h 3 l -1,2 v 1 h 4 v -5 c 2,0 0,-1 0,-1 0,0 -4.79,-1.4 -6,-2 0,0 -2,-3 0,-9 m 4,21 c 0,-1 -1,-2 0,-2 1,0 3,5 6,1 3,-4 -3,-3 -4,-4 l -3.06,1.05 C 35,39 37,43 38,41 Z M 25,51 c 1,0 2,-6 3,-6 2,0 1.02,0.97 2.01,0.98 C 31,46 32,44 29,42 l -2,2 -3.05,1.04 C 20,49 23,51 25,51 Z"
       id="path62" />
    <radialGradient
       id="gradient6"
       gradientUnits="userSpaceOnUse"
       cx="0"
       cy="0"
       r="64"
       gradientTransform="matrix(0.1891,0.0714,-0.1156,0.3059,25.6343,25.1063)">
      <stop
         offset="0.2148"
         stop-color="#d8a440"
         id="stop64" />
      <stop
         offset="0.6475"
         stop-color="#926102"
         id="stop66" />
      <stop
         offset="1"
         stop-color="#5d410a"
         id="stop68" />
    </radialGradient>
    <path
       style="fill:url(#gradient6)"
       d="m 24,21 c 0,0 -2,6 0,12 -2,3 -3,6 -3,7 h 2 c 0,2 2,4 2,4 h 3 l -2,-4 2,-4 c 3,0 5,-1 6,-2 h 3 l -1,2 v 1 h 4 v -5 c 2,0 0,-1 0,-1 0,0 -4.79,-1.4 -6,-2 0,0 -2,-3 0,-9"
       id="path71" />
    <radialGradient
       id="gradient7"
       gradientUnits="userSpaceOnUse"
       cx="0"
       cy="0"
       r="64"
       gradientTransform="matrix(0.1388,-0.0152,0.0067,0.0618,34.2713,39.2796)">
      <stop
         offset="0.5329"
         stop-color="#f3e3c5"
         id="stop73" />
      <stop
         offset="0.9283"
         stop-color="#dcc28f"
         id="stop75" />
    </radialGradient>
    <path
       style="fill:url(#gradient7)"
       d="m 38,41 c 0,-1 -1,-2 0,-2 1,0 3,5 6,1 3,-4 -3,-3 -4,-4 l -3.06,1.05 C 35,39 37,43 38,41 Z"
       id="path78" />
    <radialGradient
       id="gradient8"
       gradientUnits="userSpaceOnUse"
       cx="0"
       cy="0"
       r="64"
       gradientTransform="matrix(0.0661,-0.1191,0.0692,0.0384,23.7744,47.5102)">
      <stop
         offset="0.2693"
         stop-color="#f3e3c5"
         id="stop80" />
      <stop
         offset="1"
         stop-color="#dcc28f"
         id="stop82" />
    </radialGradient>
    <path
       style="fill:url(#gradient8)"
       d="m 25,51 c 1,0 2,-6 3,-6 2,0 1.02,0.97 2.01,0.98 C 31,46 32,44 29,42 l -2,2 -3.05,1.04 C 20,49 23,51 25,51 Z"
       id="path85" />
    <radialGradient
       id="gradient9"
       gradientUnits="userSpaceOnUse"
       cx="0"
       cy="0"
       r="64"
       gradientTransform="matrix(0.0459,0.008,-0.0108,0.0615,28.5966,29.9773)">
      <stop
         offset="0.2693"
         stop-color="#f3e3c5"
         id="stop87" />
      <stop
         offset="1"
         stop-color="#dcc28f"
         id="stop89" />
    </radialGradient>
    <path
       style="fill:url(#gradient9)"
       d="M 29.5,27 C 31.45,27 33,28.54 33,30.5 33,32.45 31.45,34 29.5,34 27.54,34 26,32.45 26,30.5 26,28.54 27.54,27 29.5,27 Z"
       id="path92" />
    <path
       style="fill:#000000"
       d="M 29.5,27 C 31.45,27 33,28.54 33,30.5 33,32.45 31.45,34 29.5,34 27.54,34 26,32.45 26,30.5 26,28.54 27.54,27 29.5,27 Z"
       transform="matrix(0.1428,0,0,0.1428,26.2857,26.1428)"
       id="path94" />
    <path
       style="fill:none;stroke:#000000;stroke-width:4"
       d="m 24,2 c -3,0 -8,5 -9,7 0,1 4,-1 4,-1 0,0 -2,2 -2,3 h 2 c 0,0 1,9 0,11 l 11,2 c 0,0 1,-2 3,-4 C 38,13 38,8 34,6 34,6 37,5 36,4 29,4 27,2 24,2 Z m 10,12 c 0,0 4,-3 4,2 0,6 -6,3 -6,3 z m -13,0 c 1,-1 4,1 4,1 0,0 3,-1 4,0 1,1 0,3 0,3 l 1,2 c 0,0 -3,4 -6,5 -5,1 -3,-8 -3,-8 0,0 -1,-2 0,-3 z"
       id="path96" />
    <radialGradient
       id="gradient10"
       gradientUnits="userSpaceOnUse"
       cx="0"
       cy="0"
       r="64"
       gradientTransform="matrix(0.2046,0.0773,-0.0994,0.263,25.6343,6.1063)">
      <stop
         offset="0.2148"
         stop-color="#d8a440"
         id="stop98" />
      <stop
         offset="1"
         stop-color="#926103"
         id="stop100" />
    </radialGradient>
    <path
       style="fill:url(#gradient10)"
       d="m 24,2 c -3,0 -8,5 -9,7 0,1 4,-1 4,-1 0,0 -2,2 -2,3 h 2 c 0,0 1,9 0,11 l 11,2 c 0,0 1,-2 3,-4 C 38,13 38,8 34,6 34,6 37,5 36,4 29,4 27,2 24,2 Z"
       id="path103" />
    <radialGradient
       id="gradient11"
       gradientUnits="userSpaceOnUse"
       cx="0"
       cy="0"
       r="64"
       gradientTransform="matrix(0.0338,-0.0874,0.101,0.039,22,21)">
      <stop
         offset="0.2693"
         stop-color="#f3e3c5"
         id="stop105" />
      <stop
         offset="1"
         stop-color="#dcc28f"
         id="stop107" />
    </radialGradient>
    <path
       style="fill:url(#gradient11)"
       d="m 21,14 c 1,-1 4,1 4,1 0,0 3,-1 4,0 1,1 0,3 0,3 l 1,2 c 0,0 -3,4 -6,5 -5,1 -3,-8 -3,-8 0,0 -1,-2 0,-3 z"
       id="path110" />
    <path
       style="fill:#8c5d03"
       d="m 20.43,22.25 2.5,0.25 0.88,1.37 h -1.75 z"
       id="path112" />
    <path
       style="fill:#000000"
       d="m 27,16 c 2,1 2,4 0,3 -2,-1 -2,-4 0,-3 z"
       transform="translate(-4,-1)"
       id="path114" />
    <path
       style="fill:#000000"
       d="m 27,16 c 2,1 2,4 0,3 -2,-1 -2,-4 0,-3 z"
       id="path116" />
    <radialGradient
       id="gradient12"
       gradientUnits="userSpaceOnUse"
       cx="0"
       cy="0"
       r="64"
       gradientTransform="matrix(0.023,-0.0732,0.0474,0.0149,33.5096,18.0361)">
      <stop
         offset="0"
         stop-color="#f1d9a9"
         id="stop118" />
      <stop
         offset="1"
         stop-color="#d0af70"
         id="stop120" />
    </radialGradient>
    <path
       style="fill:url(#gradient12)"
       d="m 34,14 c 0,0 4,-3 4,2 0,6 -6,3 -6,3 z"
       id="path123" />
  </g>
</svg>
