<?xml version="1.0" encoding="utf-8"?>
<!-- Generator: Adobe Illustrator 16.0.3, SVG Export Plug-In . SVG Version: 6.00 Build 0)  -->
<!DOCTYPE svg PUBLIC "-//W3C//DTD SVG 1.1//EN" "http://www.w3.org/Graphics/SVG/1.1/DTD/svg11.dtd">
<svg version="1.1"
	 id="svg8" sodipodi:docname="korganizer.svg" inkscape:version="0.92.2 (5c3e80d, 2017-08-06)" xmlns:dc="http://purl.org/dc/elements/1.1/" xmlns:cc="http://creativecommons.org/ns#" xmlns:rdf="http://www.w3.org/1999/02/22-rdf-syntax-ns#" xmlns:svg="http://www.w3.org/2000/svg" xmlns:sodipodi="http://sodipodi.sourceforge.net/DTD/sodipodi-0.dtd" xmlns:inkscape="http://www.inkscape.org/namespaces/inkscape"
	 xmlns="http://www.w3.org/2000/svg" xmlns:xlink="http://www.w3.org/1999/xlink" x="0px" y="0px" width="24px" height="24px"
	 viewBox="4 4 24 24" enable-background="new 4 4 24 24" xml:space="preserve">
<title  id="title7895">Antu icon Theme</title>
<sodipodi:namedview  id="base" units="px" inkscape:window-y="0" inkscape:window-x="0" inkscape:window-height="729" inkscape:window-width="1280" inkscape:current-layer="g2981" inkscape:document-units="px" inkscape:pageshadow="2" inkscape:pageopacity="0.0" inkscape:zoom="8" borderopacity="1.0" bordercolor="#666666" showgrid="true" pagecolor="#ffffff" guidetolerance="10" gridtolerance="10" objecttolerance="10" inkscape:cy="16.599938" inkscape:cx="18.01678" inkscape:window-maximized="1">
	<inkscape:grid  id="grid7897" type="xygrid" empspacing="4"></inkscape:grid>
</sodipodi:namedview>
<g id="layer1" transform="translate(0,-282.64999)" inkscape:groupmode="layer" inkscape:label="Capa 1">
	<g id="g2981" transform="translate(18,-6)">
		<path id="rect843" inkscape:connector-curvature="0" fill="#90A4AE" d="M-12.212,292.842H8.525c0.883,0,1.595,0.712,1.595,1.595
			v20.738c0,0.883-0.712,1.595-1.595,1.595h-20.738c-0.883,0-1.595-0.712-1.595-1.595v-20.738
			C-13.808,293.554-13.096,292.842-12.212,292.842z"/>
		
			<linearGradient id="rect843-3_1_" gradientUnits="userSpaceOnUse" x1="-214.3188" y1="330.442" x2="-214.3188" y2="334.8732" gradientTransform="matrix(3.7795 0 0 -3.7795 808.1791 1561.6936)">
			<stop  offset="0" style="stop-color:#E4EFEF"/>
			<stop  offset="1" style="stop-color:#FCFCFC"/>
		</linearGradient>
		<path id="rect843-3" inkscape:connector-curvature="0" fill="url(#rect843-3_1_)" d="M-12.212,293.64H8.525
			c0.442,0,0.797,0.356,0.797,0.798v20.738c0,0.441-0.354,0.797-0.797,0.797h-20.738c-0.442,0-0.798-0.355-0.798-0.797v-20.738
			C-13.01,293.996-12.654,293.64-12.212,293.64z"/>
		
			<path id="rect875" sodipodi:nodetypes="ssccccccccsss" inkscape:connector-curvature="0" opacity="0.98" fill="#BD0420" enable-background="new    " d="
			M-12.212,292.842c-0.883,0-1.595,0.712-1.595,1.595v2.393v1.595v1.596h1.595H8.525h1.595v-1.596v-1.595v-2.393
			c0-0.883-0.712-1.595-1.595-1.595H-12.212z"/>
		
			<linearGradient id="rect882_1_" gradientUnits="userSpaceOnUse" x1="-11.4839" y1="44.6842" x2="-11.4839" y2="51.0648" gradientTransform="matrix(1 0 0 -1 9.6401 344.7043)">
			<stop  offset="0" style="stop-color:#EF0B2C"/>
			<stop  offset="1" style="stop-color:#FC3A56"/>
		</linearGradient>
		
			<path id="rect882" sodipodi:nodetypes="ssccccccccsss" inkscape:connector-curvature="0" opacity="0.98" fill="url(#rect882_1_)" enable-background="new    " d="
			M-12.212,293.64c-0.442,0-0.798,0.356-0.798,0.798v2.393v1.595v0.797h0.798H8.525h0.797v-0.797v-1.595v-2.393
			c0-0.442-0.354-0.798-0.797-0.798H-12.212z"/>
		<path id="rect3294-2" opacity="0.98" fill="#90A4AE" enable-background="new    " d="M-10.617,301.616v0.798v1.595v10.369h4.786
			h7.976h2.393H6.93v-0.798v-1.595v-0.798v-6.381v-0.797v-1.595v-0.798H6.133H4.537h-4.785h-0.798h-4.786h-1.595h-0.798H-9.82
			H-10.617z M-9.82,302.414h1.595v1.595H-9.82V302.414z M-7.427,302.414h1.595v1.595h-1.595V302.414z M-5.034,302.414h1.595v1.595
			h-1.595V302.414z M-2.642,302.414h1.596v1.595h-1.596V302.414z M-0.248,302.414h1.595v1.595h-1.595V302.414z M2.145,302.414h1.595
			v1.595H2.145V302.414z M4.537,302.414h1.596v1.595H4.537V302.414z M-9.82,304.806h1.595v1.596H-9.82V304.806z M-7.427,304.806
			h1.595v1.596h-1.595V304.806z M-5.034,304.806h1.595v1.596h-1.595V304.806z M-2.642,304.806h1.596v1.596h-1.596V304.806z
			 M-0.248,304.806h1.595v1.596h-1.595V304.806z M2.145,304.806h1.595v1.596H2.145V304.806z M4.537,304.806h1.596v1.596H4.537
			V304.806z M-9.82,307.2h1.595v1.595H-9.82V307.2z M-7.427,307.2h1.595v1.595h-1.595V307.2z M-5.034,307.2h1.595v1.595h-1.595
			V307.2z M-2.642,307.2h1.596v1.595h-1.596V307.2z M-0.248,307.2h1.595v1.595h-1.595V307.2z M2.145,307.2h1.595v1.595H2.145V307.2z
			 M4.537,307.2h1.596v1.595H4.537V307.2z M-9.82,309.592h1.595v1.595H-9.82V309.592z M-7.427,309.592h1.595v1.595h-1.595V309.592z
			 M-5.034,309.592h1.595v1.595h-1.595V309.592z M-2.642,309.592h1.596v1.595h-1.596V309.592z M-0.248,309.592h1.595v1.595h-1.595
			V309.592z M2.145,309.592h1.595v1.595H2.145V309.592z M4.537,309.592h1.596v1.595H4.537V309.592z M-9.82,311.985h1.595v1.595
			H-9.82V311.985z M-7.427,311.985h1.595v1.595h-1.595V311.985z M-5.034,311.985h1.595v1.595h-1.595V311.985z M-2.642,311.985h1.596
			v1.595h-1.596V311.985z M-0.248,311.985h1.595v1.595h-1.595V311.985z M2.145,311.985h1.595v1.595H2.145V311.985z M4.537,311.985
			h1.596v1.595H4.537V311.985z"/>
	</g>
</g>
</svg>
