<?xml version="1.0" encoding="UTF-8" standalone="no"?>
<svg
   version="1.1"
   width="28"
   height="28"
   color-interpolation="linearRGB"
   id="svg100"
   sodipodi:docname="schedule.svg"
   inkscape:version="1.2.2 (b0a8486541, 2022-12-01)"
   xmlns:inkscape="http://www.inkscape.org/namespaces/inkscape"
   xmlns:sodipodi="http://sodipodi.sourceforge.net/DTD/sodipodi-0.dtd"
   xmlns="http://www.w3.org/2000/svg"
   xmlns:svg="http://www.w3.org/2000/svg">
  <defs
     id="defs104" />
  <sodipodi:namedview
     id="namedview102"
     pagecolor="#ffffff"
     bordercolor="#000000"
     borderopacity="0.25"
     inkscape:showpageshadow="2"
     inkscape:pageopacity="0.0"
     inkscape:pagecheckerboard="0"
     inkscape:deskcolor="#d1d1d1"
     showgrid="false"
     inkscape:zoom="12.9375"
     inkscape:cx="32.038647"
     inkscape:cy="19.63285"
     inkscape:window-width="1920"
     inkscape:window-height="1008"
     inkscape:window-x="0"
     inkscape:window-y="0"
     inkscape:window-maximized="1"
     inkscape:current-layer="svg100" />
  <g
     id="g98"
     transform="matrix(0.45730849,0,0,0.45730849,0.25884098,-1.6197241)">
    <path
       style="fill:#010000;fill-opacity:0.4823"
       d="m 34,64 h 4 L 60,42 56,40 H 34 Z"
       id="path2" />
    <path
       style="fill:#010000;fill-opacity:0.4823"
       d="M 30,4 C 35.59,4 40,8.39 40,14 40,19.59 35.59,24 30,24 24.39,24 20,19.59 20,14 20,8.39 24.39,4 30,4 Z"
       transform="matrix(1.2,0,0,0.6999,12,41.2)"
       id="path4" />
    <path
       style="fill:none;stroke:#010000;stroke-width:4"
       d="m 2,42 v 4 L 34,62 54,42 V 38 L 24,25 Z"
       id="path6" />
    <linearGradient
       id="gradient0"
       gradientUnits="userSpaceOnUse"
       x1="75.239998"
       y1="45.189999"
       x2="69.610001"
       y2="66.480003">
      <stop
         offset="0"
         stop-color="#999999"
         id="stop8" />
      <stop
         offset="0.9962"
         stop-color="#6c6c6c"
         id="stop10" />
    </linearGradient>
    <path
       style="fill:url(#gradient0)"
       d="m 34,56 v 6 L 54,42 v -4 z"
       id="path13" />
    <linearGradient
       id="gradient1"
       gradientUnits="userSpaceOnUse"
       x1="25.049999"
       y1="21.51"
       x2="44.619999"
       y2="40.619999">
      <stop
         offset="0"
         stop-color="#cccccc"
         id="stop15" />
      <stop
         offset="1"
         stop-color="#a5a5a5"
         id="stop17" />
    </linearGradient>
    <path
       style="fill:url(#gradient1)"
       d="m 34,56 v 6 L 2,46 v -4 z"
       id="path20" />
    <linearGradient
       id="gradient2"
       gradientUnits="userSpaceOnUse"
       x1="54.759998"
       y1="9.2600002"
       x2="65.080002"
       y2="30.93">
      <stop
         offset="0"
         stop-color="#e5e5e5"
         id="stop22" />
      <stop
         offset="1"
         stop-color="#cbcbcb"
         id="stop24" />
    </linearGradient>
    <path
       style="fill:url(#gradient2)"
       d="m 2,42 32,14 7.97,-7.18 C 32,46 34,38 49.67,36.12 L 24,25 Z"
       id="path27" />
    <path
       style="fill:#9b9b9b"
       d="M 41.97,48.82 54,38 49.67,36.12 C 34,38 32,46 41.97,48.82 Z"
       id="path29" />
    <path
       style="fill:none;stroke:#010000;stroke-width:4"
       d="M 30,4 C 35.59,4 40,8.39 40,14 40,19.59 35.59,24 30,24 24.39,24 20,19.59 20,14 20,8.39 24.39,4 30,4 Z"
       transform="matrix(1.2,0,0,0.8999,-8,26.4)"
       id="path31" />
    <radialGradient
       id="gradient3"
       gradientUnits="userSpaceOnUse"
       cx="0"
       cy="0"
       r="64"
       gradientTransform="matrix(0.2188,-0.1207,0.1207,0.2188,23.1307,9.8599)">
      <stop
         offset="0"
         stop-color="#e4e4e4"
         id="stop33" />
      <stop
         offset="1"
         stop-color="#212121"
         id="stop35" />
    </radialGradient>
    <path
       style="fill:url(#gradient3)"
       d="M 30,4 C 35.59,4 40,8.39 40,14 40,19.59 35.59,24 30,24 24.39,24 20,19.59 20,14 20,8.39 24.39,4 30,4 Z"
       transform="matrix(1.2,0,0,0.8999,-8,26.3999)"
       id="path38" />
    <linearGradient
       id="gradient4"
       gradientUnits="userSpaceOnUse"
       x1="19.889999"
       y1="2.1099999"
       x2="39.900002"
       y2="1.9400001">
      <stop
         offset="0.0075"
         stop-color="#bebebe"
         id="stop40" />
      <stop
         offset="1"
         stop-color="#0b0b0b"
         id="stop42" />
    </linearGradient>
    <path
       style="fill:none;stroke:url(#gradient4);stroke-width:4"
       d="M 30,4 C 35.59,4 40,8.39 40,14 40,19.59 35.59,24 30,24 24.39,24 20,19.59 20,14 20,8.39 24.39,4 30,4 Z"
       transform="matrix(0.8999,0,0,0.6083,1,28.4833)"
       id="path45" />
    <linearGradient
       id="gradient5"
       gradientUnits="userSpaceOnUse"
       x1="34.5"
       y1="20.889999"
       x2="41.580002"
       y2="24.610001">
      <stop
         offset="0.0037"
         stop-color="#010000"
         id="stop47" />
      <stop
         offset="0.4659"
         stop-color="#6c6c6c"
         id="stop49" />
      <stop
         offset="0.9962"
         stop-color="#010101"
         id="stop51" />
    </linearGradient>
    <path
       style="fill:url(#gradient5)"
       d="M 30,4 C 35.59,4 40,8.39 40,14 40,19.59 35.59,24 30,24 24.39,24 20,19.59 20,14 20,8.39 24.39,4 30,4 Z"
       transform="matrix(0.8999,0,0,0.6499,1,27.3999)"
       id="path54" />
    <path
       style="fill:#010000"
       d="M 30,4 C 35.59,4 40,8.39 40,14 40,19.59 35.59,24 30,24 24.39,24 20,19.59 20,14 20,8.39 24.39,4 30,4 Z"
       transform="matrix(0.4,0,0,0.3,16,34.7999)"
       id="path56" />
    <radialGradient
       id="gradient6"
       gradientUnits="userSpaceOnUse"
       cx="0"
       cy="0"
       r="64"
       gradientTransform="matrix(0.0625,0,0,0.2343,26,25.5)">
      <stop
         offset="0"
         stop-color="#ffffff"
         id="stop58" />
      <stop
         offset="0.7878"
         stop-color="#868686"
         id="stop60" />
      <stop
         offset="1"
         stop-color="#414141"
         id="stop62" />
    </radialGradient>
    <path
       style="fill:url(#gradient6)"
       d="m 28,41 c 0.73,0 1.4,-0.16 2,-0.42 V 23 h -4 v 17.58 c 0.59,0.26 1.26,0.42 2,0.42 z"
       id="path65" />
    <path
       style="fill:none;stroke:#010000;stroke-width:4"
       d="M 30,4 C 35.59,4 40,8.39 40,14 40,19.59 35.59,24 30,24 24.39,24 20,19.59 20,14 20,8.39 24.39,4 30,4 Z"
       transform="translate(-2,2)"
       id="path67" />
    <radialGradient
       id="gradient7"
       gradientUnits="userSpaceOnUse"
       cx="0"
       cy="0"
       r="64"
       gradientTransform="matrix(0.2069,0,0,0.2069,26.9995,9.9995)">
      <stop
         offset="0"
         stop-color="#ffffff"
         id="stop69" />
      <stop
         offset="0.5"
         stop-color="#ff3300"
         id="stop71" />
      <stop
         offset="1"
         stop-color="#cc0000"
         id="stop73" />
    </radialGradient>
    <path
       style="fill:url(#gradient7)"
       d="M 30,4 C 35.59,4 40,8.39 40,14 40,19.59 35.59,24 30,24 24.39,24 20,19.59 20,14 20,8.39 24.39,4 30,4 Z"
       transform="translate(-2,2)"
       id="path76" />
    <path
       style="fill:none;stroke:#010000;stroke-width:4"
       d="m 52,36 c 0,1 0,2 -3,2 -3,0 -3,-1 -3,-2 0,-1 0,-3 3,-3 3,0 3,2 3,3 z"
       transform="translate(-2,2)"
       id="path78" />
    <linearGradient
       id="gradient8"
       gradientUnits="userSpaceOnUse"
       x1="46"
       y1="32"
       x2="54"
       y2="32">
      <stop
         offset="0"
         stop-color="#ff5959"
         id="stop80" />
      <stop
         offset="0.6022"
         stop-color="#b30404"
         id="stop82" />
      <stop
         offset="1"
         stop-color="#ff0606"
         id="stop84" />
    </linearGradient>
    <path
       style="fill:url(#gradient8)"
       d="m 52,36 c 0,1 0,2 -3,2 -3,0 -3,-1 -3,-2 0,-1 0,-3 3,-3 3,0 3,2 3,3 z"
       transform="translate(-2,2)"
       id="path87" />
    <radialGradient
       id="gradient9"
       gradientUnits="userSpaceOnUse"
       cx="0"
       cy="0"
       r="64"
       gradientTransform="matrix(0.2187,0,0,0.2187,26,10)">
      <stop
         offset="0"
         stop-color="#ffd5d5"
         id="stop89" />
      <stop
         offset="0.4393"
         stop-color="#fbaaaa"
         id="stop91" />
      <stop
         offset="1"
         stop-color="#ee0606"
         id="stop93" />
    </radialGradient>
    <path
       style="fill:url(#gradient9)"
       d="M 30,4 C 35.59,4 40,8.39 40,14 40,19.59 35.59,24 30,24 24.39,24 20,19.59 20,14 20,8.39 24.39,4 30,4 Z"
       transform="matrix(0.3,0,0,0.2,38,33.2)"
       id="path96" />
  </g>
</svg>
