<?xml version="1.0" encoding="utf-8"?>
<!-- Generator: Adobe Illustrator 16.0.3, SVG Export Plug-In . SVG Version: 6.00 Build 0)  -->
<!DOCTYPE svg PUBLIC "-//W3C//DTD SVG 1.1//EN" "http://www.w3.org/Graphics/SVG/1.1/DTD/svg11.dtd">
<svg version="1.1"
	 id="svg8" sodipodi:docname="security-medium.svg" inkscape:version="0.91 r13725" xmlns:dc="http://purl.org/dc/elements/1.1/" xmlns:cc="http://creativecommons.org/ns#" xmlns:rdf="http://www.w3.org/1999/02/22-rdf-syntax-ns#" xmlns:svg="http://www.w3.org/2000/svg" xmlns:sodipodi="http://sodipodi.sourceforge.net/DTD/sodipodi-0.dtd" xmlns:inkscape="http://www.inkscape.org/namespaces/inkscape"
	 xmlns="http://www.w3.org/2000/svg" xmlns:xlink="http://www.w3.org/1999/xlink" x="0px" y="0px" width="24px" height="24px"
	 viewBox="4 4 24 24" enable-background="new 4 4 24 24" xml:space="preserve">
<title  id="title7895">Antu icon Theme</title>
<sodipodi:namedview  id="base" units="px" inkscape:snap-midpoints="false" inkscape:object-nodes="false" inkscape:object-paths="true" inkscape:bbox-paths="true" inkscape:showpageshadow="false" inkscape:bbox-nodes="true" inkscape:snap-bbox="true" inkscape:window-y="0" inkscape:window-x="0" inkscape:window-height="697" inkscape:window-width="1360" inkscape:current-layer="layer1" inkscape:document-units="px" inkscape:pageshadow="2" inkscape:pageopacity="0.0" inkscape:zoom="11.313708" borderopacity="1.0" bordercolor="#666666" showgrid="true" pagecolor="#ffffff" guidetolerance="10" gridtolerance="10" objecttolerance="10" inkscape:cy="10.464864" inkscape:cx="27.325061" inkscape:snap-smooth-nodes="false" inkscape:snap-intersection-paths="true" inkscape:snap-bbox-midpoints="true" inkscape:snap-bbox-edge-midpoints="true" inkscape:window-maximized="1">
	<inkscape:grid  id="grid7897" type="xygrid" empspacing="4"></inkscape:grid>
</sodipodi:namedview>
<g id="layer1" transform="translate(0,-282.64999)" inkscape:groupmode="layer" inkscape:label="Capa 1">
	<path id="rect4187-1" inkscape:connector-curvature="0" fill="#FE9500" d="M6,286.65c-1.108,0-2,0.823-2,1.846v9.231
		c0,0.051,0.011,0.1,0.016,0.149C4.013,297.981,4,298.083,4,298.189v0.923c0,6.392,5.352,11.539,12,11.539
		c6.648,0,12-5.146,12-11.539v-0.923c0-0.105-0.013-0.208-0.016-0.312c0.004-0.05,0.016-0.099,0.016-0.149v-9.231
		c0-1.023-0.893-1.846-2-1.846H16H6z"/>
	
		<linearGradient id="rect4200-8_1_" gradientUnits="userSpaceOnUse" x1="-8.9448" y1="279.9323" x2="-8.9448" y2="302.087" gradientTransform="matrix(1 0 0 -1 24.9448 589.6594)">
		<stop  offset="0" style="stop-color:#FFC900"/>
		<stop  offset="1" style="stop-color:#FFE200"/>
	</linearGradient>
	<path id="rect4200-8" inkscape:connector-curvature="0" fill="url(#rect4200-8_1_)" d="M6,287.573c-0.554,0-1,0.412-1,0.923v9.692
		v0.461v0.461c0,5.881,4.906,10.616,11,10.616c6.094,0,11-4.734,11-10.616v-0.461v-0.461v-9.692c0-0.512-0.445-0.923-1-0.923H16H6z"
		/>
	<path id="rect4146" inkscape:connector-curvature="0" fill="#FFE880" d="M6,287.573c-0.554,0-1,0.412-1,0.923v3.692v6.461h11
		v-5.539v-3.692v-1.846h-3H6z M16,298.65v11.077c1.523,0,2.973-0.283,4.289-0.795c1.316-0.513,2.502-1.255,3.496-2.173
		s1.799-2.012,2.354-3.228c0.555-1.215,0.861-2.553,0.861-3.959v-0.923H16z"/>
	<path id="rect5924-9-33" sodipodi:nodetypes="ssssssscssscss" inkscape:connector-curvature="0" fill="#FE9807" d="M16,306.035
		c-1.108,0-2-0.824-2-1.847c0-1.021,0.892-1.846,2-1.846c1.107,0,2,0.824,2,1.846C18,305.211,17.107,306.035,16,306.035z
		 M16,300.496c-1.108,0-2-0.823-2-1.846v-2.769v-2.77c0-1.022,0.892-1.846,2-1.846c1.107,0,2,0.824,2,1.846v2.77v2.769
		C18,299.672,17.107,300.496,16,300.496z"/>
	<path id="rect5924-9-3-8" sodipodi:nodetypes="ssssssscssscss" inkscape:connector-curvature="0" fill="#714500" d="M16,305.112
		c-1.108,0-2-0.824-2-1.847s0.892-1.846,2-1.846c1.107,0,2,0.823,2,1.846S17.107,305.112,16,305.112z M16,299.573
		c-1.108,0-2-0.824-2-1.846v-2.77v-2.769c0-1.023,0.892-1.846,2-1.846c1.107,0,2,0.823,2,1.846v2.769v2.77
		C18,298.749,17.107,299.573,16,299.573z"/>
</g>
</svg>
