<?xml version="1.0" encoding="UTF-8" standalone="no"?>
<svg
   version="1.1"
   width="28"
   height="28"
   color-interpolation="linearRGB"
   id="svg58"
   sodipodi:docname="abrirBuscar.svg"
   inkscape:version="1.2.2 (b0a8486541, 2022-12-01)"
   xmlns:inkscape="http://www.inkscape.org/namespaces/inkscape"
   xmlns:sodipodi="http://sodipodi.sourceforge.net/DTD/sodipodi-0.dtd"
   xmlns="http://www.w3.org/2000/svg"
   xmlns:svg="http://www.w3.org/2000/svg">
  <defs
     id="defs62">
    <linearGradient
       id="gradient0"
       gradientUnits="userSpaceOnUse"
       x1="102.6"
       y1="8.5"
       x2="102.74"
       y2="47.07"
       gradientTransform="matrix(0.43521695,0,0,0.43521695,0.48186094,-0.89941668)">
      <stop
         offset="0"
         stop-color="#face79"
         id="stop6" />
      <stop
         offset="1"
         stop-color="#bc4105"
         id="stop8" />
    </linearGradient>
    <linearGradient
       id="gradient1"
       gradientUnits="userSpaceOnUse"
       x1="103.24"
       y1="12.68"
       x2="103.39"
       y2="55.34"
       gradientTransform="matrix(0.43521695,0,0,0.43521695,0.48186094,-0.89941668)">
      <stop
         offset="0"
         stop-color="#ffffff"
         id="stop13" />
      <stop
         offset="1"
         stop-color="#8e8e8e"
         id="stop15" />
    </linearGradient>
    <linearGradient
       id="gradient2"
       gradientUnits="userSpaceOnUse"
       x1="78.339996"
       y1="-26.66"
       x2="101.46"
       y2="12.94"
       gradientTransform="matrix(0.43521695,0,0,0.43521695,0.48186094,-0.89941668)">
      <stop
         offset="0"
         stop-color="#9a9a9a"
         id="stop20" />
      <stop
         offset="1"
         stop-color="#505050"
         id="stop22" />
    </linearGradient>
    <linearGradient
       id="gradient3"
       gradientUnits="userSpaceOnUse"
       x1="88.519997"
       y1="9.5900002"
       x2="97.540001"
       y2="51.290001"
       gradientTransform="matrix(0.43521695,0,0,0.43521695,0.48186094,-0.89941668)">
      <stop
         offset="0"
         stop-color="#ffe2ac"
         id="stop27" />
      <stop
         offset="1"
         stop-color="#f49806"
         id="stop29" />
    </linearGradient>
    <linearGradient
       id="gradient4"
       gradientUnits="userSpaceOnUse"
       x1="23.15"
       y1="39.189999"
       x2="25.459999"
       y2="41.669998"
       gradientTransform="matrix(0.43521695,0,0,0.43521695,0.48186094,-0.89941668)">
      <stop
         offset="0"
         stop-color="#d4d4d4"
         id="stop38" />
      <stop
         offset="1"
         stop-color="#474747"
         id="stop40" />
    </linearGradient>
    <radialGradient
       id="gradient5"
       gradientUnits="userSpaceOnUse"
       cx="0"
       cy="0"
       r="64"
       gradientTransform="matrix(0.08839256,0,0,0.08839256,8.750983,19.120563)">
      <stop
         offset="0"
         stop-color="#dcf4ff"
         id="stop47" />
      <stop
         offset="1"
         stop-color="#6094aa"
         id="stop49" />
    </radialGradient>
  </defs>
  <sodipodi:namedview
     id="namedview60"
     pagecolor="#ffffff"
     bordercolor="#000000"
     borderopacity="0.25"
     inkscape:showpageshadow="2"
     inkscape:pageopacity="0.0"
     inkscape:pagecheckerboard="0"
     inkscape:deskcolor="#d1d1d1"
     showgrid="false"
     inkscape:zoom="12.9375"
     inkscape:cx="32.038647"
     inkscape:cy="19.63285"
     inkscape:window-width="1920"
     inkscape:window-height="1008"
     inkscape:window-x="0"
     inkscape:window-y="0"
     inkscape:window-maximized="1"
     inkscape:current-layer="svg58" />
  <g
     id="g229"
     transform="matrix(2.4038676,0,0,2.4038676,-2.8355761,-34.970988)">
    <path
       style="fill:none;stroke:#000000;stroke-width:1.74087"
       d="m 3.9635965,22.602299 -1.7408678,1.740867 c 0,0 -0.056578,0.487443 0.1610303,0.705052 0.2176085,0.217608 0.7094036,0.165382 0.7094036,0.165382 l 1.7408678,-1.740867 1.3056509,-2.176085 z"
       id="path36" />
    <path
       style="fill:url(#gradient4);stroke-width:0.435217"
       d="m 3.9635965,22.602299 -1.7408678,1.740867 c 0,0 -0.056578,0.487443 0.1610303,0.705052 0.2176085,0.217608 0.7094036,0.165382 0.7094036,0.165382 l 1.7408678,-1.740867 1.3056509,-2.176085 z"
       id="path43" />
    <path
       style="fill:none;stroke:#000000;stroke-width:1.74087"
       d="m 8.315766,15.638827 c -1.9236589,0 -3.4817356,1.558077 -3.4817356,3.481736 0,1.919307 1.5580767,3.481736 3.4817356,3.481736 1.919307,0 3.481736,-1.562429 3.481736,-3.481736 0,-1.923659 -1.562429,-3.481736 -3.481736,-3.481736 z"
       id="path45" />
    <path
       style="fill:url(#gradient5);stroke-width:0.435217"
       d="m 8.315766,15.638827 c -1.9236589,0 -3.4817356,1.558077 -3.4817356,3.481736 0,1.919307 1.5580767,3.481736 3.4817356,3.481736 1.919307,0 3.481736,-1.562429 3.481736,-3.481736 0,-1.923659 -1.562429,-3.481736 -3.481736,-3.481736 z"
       id="path52" />
    <path
       style="fill:#ffffff;stroke-width:0.108804"
       d="m 7.4453322,16.944478 c -0.4809147,0 -0.8704339,0.389519 -0.8704339,0.870434 0,0.479827 0.3895192,0.870434 0.8704339,0.870434 0.4798267,0 0.8704339,-0.390607 0.8704339,-0.870434 0,-0.480915 -0.3906072,-0.870434 -0.8704339,-0.870434 z"
       id="path54" />
  </g>
</svg>
