<?xml version="1.0" encoding="UTF-8" standalone="no"?>
<svg
   version="1.1"
   width="32"
   height="32"
   color-interpolation="linearRGB"
   id="svg62"
   sodipodi:docname="search.svg"
   inkscape:version="1.2.2 (b0a8486541, 2022-12-01)"
   xmlns:inkscape="http://www.inkscape.org/namespaces/inkscape"
   xmlns:sodipodi="http://sodipodi.sourceforge.net/DTD/sodipodi-0.dtd"
   xmlns="http://www.w3.org/2000/svg"
   xmlns:svg="http://www.w3.org/2000/svg">
  <defs
     id="defs66" />
  <sodipodi:namedview
     id="namedview64"
     pagecolor="#ffffff"
     bordercolor="#000000"
     borderopacity="0.25"
     inkscape:showpageshadow="2"
     inkscape:pageopacity="0.0"
     inkscape:pagecheckerboard="0"
     inkscape:deskcolor="#d1d1d1"
     showgrid="false"
     inkscape:zoom="12.9375"
     inkscape:cx="32.038647"
     inkscape:cy="24.657005"
     inkscape:window-width="1920"
     inkscape:window-height="1008"
     inkscape:window-x="0"
     inkscape:window-y="0"
     inkscape:window-maximized="1"
     inkscape:current-layer="svg62" />
  <g
     id="g60"
     transform="matrix(0.48836645,0,0,0.48836645,0.60062199,0.16499477)">
    <path
       style="fill:#010101;fill-opacity:0.5725"
       d="m 27,57 2,2 3.13,-3.17 L 37,59 45.39,47.54 64,38 59,35 61,37 36,49 Z m 31,-23 4,-3 -4,-2 -3,3 z"
       id="path2" />
    <path
       style="fill:none;stroke:#010101;stroke-width:4"
       d="m 6.25,30 c 0,0 5.62,6 10.62,12.5 5,6.5 9.38,13.25 9.38,13.25 L 59.12,36.87 32,15 Z"
       id="path4" />
    <radialGradient
       id="gradient0"
       gradientUnits="userSpaceOnUse"
       cx="0"
       cy="0"
       r="64"
       gradientTransform="matrix(0.5714,0,0,0.3333,26,35)">
      <stop
         offset="1"
         stop-color="#fffcc0"
         id="stop6" />
      <stop
         offset="0.4886"
         stop-color="#f1b706"
         id="stop8" />
    </radialGradient>
    <path
       style="fill:url(#gradient0)"
       d="m 6.25,30 c 0,0 5.62,6 10.62,12.5 5,6.5 9.38,13.25 9.38,13.25 L 59.12,36.87 32,15 Z"
       id="path11" />
    <path
       style="fill:none;stroke:#010101;stroke-width:4"
       d="m 2.62,30.87 c 0,0 8.33,5.39 16.38,11 8.44,5.88 16.75,10.88 16.75,10.88 L 58.12,26.37 c 0,0 -12.68,-5.67 -22.75,-11 -5.19,-2.75 -9.37,-6 -9.37,-6 z"
       id="path13" />
    <linearGradient
       id="gradient1"
       gradientUnits="userSpaceOnUse"
       x1="107.04"
       y1="-17.09"
       x2="118.33"
       y2="27.99">
      <stop
         offset="0"
         stop-color="#ffefa5"
         id="stop15" />
      <stop
         offset="0.7424"
         stop-color="#fffcc0"
         id="stop17" />
      <stop
         offset="1"
         stop-color="#fff890"
         id="stop19" />
    </linearGradient>
    <path
       style="fill:url(#gradient1)"
       d="m 2.62,30.87 c 0,0 8.33,5.39 16.38,11 8.44,5.88 16.75,10.88 16.75,10.88 L 58.12,26.37 c 0,0 -12.68,-5.67 -22.75,-11 -5.19,-2.75 -9.37,-6 -9.37,-6 z"
       id="path22" />
    <linearGradient
       id="gradient2"
       gradientUnits="userSpaceOnUse"
       x1="-47.139999"
       y1="-15.78"
       x2="-28.459999"
       y2="-37.849998">
      <stop
         offset="0"
         stop-color="#010101"
         id="stop24" />
      <stop
         offset="1"
         stop-color="#9e9e9e"
         id="stop26" />
    </linearGradient>
    <path
       style="fill:none;stroke:url(#gradient2);stroke-width:1"
       d="M 19,36 31.87,22.87 M 13,32 27.87,17"
       id="path29" />
    <linearGradient
       id="gradient3"
       gradientUnits="userSpaceOnUse"
       x1="-47.139999"
       y1="-15.78"
       x2="-28.459999"
       y2="-37.849998">
      <stop
         offset="0"
         stop-color="#010101"
         id="stop31" />
      <stop
         offset="1"
         stop-color="#9e9e9e"
         id="stop33" />
    </linearGradient>
    <path
       style="fill:none;stroke:url(#gradient3);stroke-width:1"
       d="M 22,38 33.75,26.25 M 16,34 30.12,19.62"
       id="path36" />
    <path
       style="fill:none;stroke:#010101;stroke-width:4"
       d="m 44,49 10,10 c 0,0 1.49,-0.51 2,-1 0.5,-0.5 1,-2 1,-2 L 47,46 43,45 Z"
       transform="translate(1,-4)"
       id="path38" />
    <linearGradient
       id="gradient4"
       gradientUnits="userSpaceOnUse"
       x1="30.33"
       y1="44.369999"
       x2="34.459999"
       y2="36.98">
      <stop
         offset="1"
         stop-color="#555555"
         id="stop40" />
      <stop
         offset="0.7613"
         stop-color="#858585"
         id="stop42" />
      <stop
         offset="0"
         stop-color="#505050"
         id="stop44" />
    </linearGradient>
    <path
       style="fill:url(#gradient4)"
       d="m 44,49 10,10 c 0,0 1.49,-0.51 2,-1 0.5,-0.5 1,-2 1,-2 L 47,46 43,45 Z"
       transform="translate(1,-4)"
       id="path47" />
    <path
       style="fill:none;stroke:#010101;stroke-width:4"
       d="m 34,26 c -5.53,0 -10,4.47 -10,10 0,5.52 4.47,10 10,10 5.52,0 10,-4.48 10,-10 0,-5.53 -4.48,-10 -10,-10 z"
       transform="translate(1,-4)"
       id="path49" />
    <radialGradient
       id="gradient5"
       gradientUnits="userSpaceOnUse"
       cx="0"
       cy="0"
       r="64"
       gradientTransform="matrix(0.25,0,0,0.25,35,37)">
      <stop
         offset="0"
         stop-color="#dcf4ff"
         id="stop51" />
      <stop
         offset="1"
         stop-color="#6094aa"
         id="stop53" />
    </radialGradient>
    <path
       style="fill:url(#gradient5)"
       d="m 34,26 c -5.53,0 -10,4.47 -10,10 0,5.52 4.47,10 10,10 5.52,0 10,-4.48 10,-10 0,-5.53 -4.48,-10 -10,-10 z"
       transform="translate(1,-4)"
       id="path56" />
    <path
       style="fill:#ffffff"
       d="m 34,26 c -5.53,0 -10,4.47 -10,10 0,5.52 4.47,10 10,10 5.52,0 10,-4.48 10,-10 0,-5.53 -4.48,-10 -10,-10 z"
       transform="matrix(0.25,0,0,0.25,22.5,19.5)"
       id="path58" />
  </g>
</svg>
