<?xml version="1.0" encoding="utf-8"?>
<!-- Generator: Adobe Illustrator 16.0.3, SVG Export Plug-In . SVG Version: 6.00 Build 0)  -->
<!DOCTYPE svg PUBLIC "-//W3C//DTD SVG 1.1//EN" "http://www.w3.org/Graphics/SVG/1.1/DTD/svg11.dtd">
<svg version="1.1"
	 id="svg1399" sodipodi:docname="preferences-system-backup.svg" inkscape:version="0.92.4 5da689c313, 2019-01-14" xmlns:dc="http://purl.org/dc/elements/1.1/" xmlns:cc="http://creativecommons.org/ns#" xmlns:rdf="http://www.w3.org/1999/02/22-rdf-syntax-ns#" xmlns:svg="http://www.w3.org/2000/svg" xmlns:sodipodi="http://sodipodi.sourceforge.net/DTD/sodipodi-0.dtd" xmlns:inkscape="http://www.inkscape.org/namespaces/inkscape"
	 xmlns="http://www.w3.org/2000/svg" xmlns:xlink="http://www.w3.org/1999/xlink" x="0px" y="0px" width="24px" height="24px"
	 viewBox="4 4 24 24" enable-background="new 4 4 24 24" xml:space="preserve">
<sodipodi:namedview  id="base" units="px" inkscape:window-y="0" inkscape:window-x="0" inkscape:window-height="1003" inkscape:window-width="1920" inkscape:showpageshadow="false" inkscape:current-layer="layer1" inkscape:document-units="mm" inkscape:pageshadow="2" inkscape:pageopacity="0.0" inkscape:cy="-0.67020984" inkscape:cx="-15.98796" inkscape:zoom="7.9195959" borderopacity="1.0" bordercolor="#666666" showgrid="false" pagecolor="#ffffff" inkscape:window-maximized="1">
	</sodipodi:namedview>
<g id="layer1" transform="translate(0,-288.53338)" inkscape:groupmode="layer" inkscape:label="Capa 1">
	<g id="g1665" transform="translate(7.9751067,-5.1353709)">
		<g id="layer1-5" transform="matrix(0.26458333,0,0,0.26458333,-7.44594,219.14886)" inkscape:label="Capa 1">
			<g id="g1577" transform="translate(60,7.999995)">
				<path id="rect842-1" inkscape:connector-curvature="0" d="M-37.669,352.017h72.284c3.337,0,6.024,2.687,6.024,6.024v15.059
					c0,3.337-2.687,6.024-6.024,6.024h-72.284c-3.337,0-6.024-2.687-6.024-6.024V358.04
					C-43.693,354.704-41.006,352.017-37.669,352.017z"/>
				
					<linearGradient id="path1024-6_1_" gradientUnits="userSpaceOnUse" x1="-50.6613" y1="-798.8289" x2="-50.6613" y2="-796.4382" gradientTransform="matrix(1 0 0 -1 49.1339 -422.7178)">
					<stop  offset="0" style="stop-color:#323232"/>
					<stop  offset="1" style="stop-color:#484849"/>
				</linearGradient>
				<path id="path1024-6" inkscape:connector-curvature="0" fill="url(#path1024-6_1_)" d="M-37.669,355.028
					c-1.668,0-3.012,1.34-3.012,3.012v15.059c0,1.668,1.344,3.012,3.012,3.012h3.012v-6.024h57.224v6.024h12.047
					c1.672,0,3.012-1.344,3.012-3.012V358.04c0-1.672-1.34-3.012-3.012-3.012H-37.669z"/>
				<path id="rect838-8" inkscape:connector-curvature="0" fill="#808080" d="M-37.669,288.769h72.284
					c3.337,0,6.024,2.687,6.024,6.024v66.26c0,3.337-2.687,6.024-6.024,6.024h-72.284c-3.337,0-6.024-2.687-6.024-6.024v-66.26
					C-43.693,291.456-41.006,288.769-37.669,288.769z"/>
				
					<linearGradient id="rect840-7_1_" gradientUnits="userSpaceOnUse" x1="-50.6613" y1="-780.7579" x2="-50.6613" y2="-764.8204" gradientTransform="matrix(1 0 0 -1 49.1339 -422.7178)">
					<stop  offset="0" style="stop-color:#DADBDB"/>
					<stop  offset="1" style="stop-color:#E5E6E6"/>
				</linearGradient>
				
					<path id="rect840-7" sodipodi:nodetypes="sssssssssssssssssssssssssssssssssssssss" inkscape:connector-curvature="0" fill="url(#rect840-7_1_)" d="
					M-37.669,291.78c-1.668,0-3.012,1.344-3.012,3.012v66.26c0,1.668,1.344,3.012,3.012,3.012h72.284
					c1.672,0,3.012-1.344,3.012-3.012v-66.26c0-1.668-1.34-3.012-3.012-3.012H-37.669z M-34.657,294.792
					c1.668,0,3.012,1.344,3.012,3.012c0,1.668-1.344,3.012-3.012,3.012c-1.668,0-3.012-1.343-3.012-3.012
					C-37.669,296.136-36.326,294.792-34.657,294.792z M31.603,294.792c1.672,0,3.012,1.344,3.012,3.012
					c0,1.668-1.34,3.012-3.012,3.012s-3.012-1.343-3.012-3.012C28.591,296.136,29.931,294.792,31.603,294.792z M-34.657,321.898
					c1.668,0,3.012,1.344,3.012,3.012s-1.344,3.012-3.012,3.012c-1.668,0-3.012-1.344-3.012-3.012S-36.326,321.898-34.657,321.898z
					 M31.603,321.898c1.672,0,3.012,1.344,3.012,3.012s-1.34,3.012-3.012,3.012s-3.012-1.344-3.012-3.012
					S29.931,321.898,31.603,321.898z M-34.657,355.028c1.668,0,3.012,1.34,3.012,3.012c0,1.668-1.344,3.012-3.012,3.012
					c-1.668,0-3.012-1.344-3.012-3.012C-37.669,356.368-36.326,355.028-34.657,355.028z M31.603,355.028
					c1.672,0,3.012,1.34,3.012,3.012c0,1.668-1.34,3.012-3.012,3.012s-3.012-1.344-3.012-3.012
					C28.591,356.368,29.931,355.028,31.603,355.028z"/>
				
					<linearGradient id="rect848-7_1_" gradientUnits="userSpaceOnUse" x1="-6.047" y1="295.9142" x2="-6.047" y2="296.7111" gradientTransform="matrix(1 0 0 -1 -4.130258e-005 672.0253)">
					<stop  offset="0" style="stop-color:#FFC900"/>
					<stop  offset="1" style="stop-color:#FFE200"/>
				</linearGradient>
				<path id="rect848-7" inkscape:connector-curvature="0" fill="url(#rect848-7_1_)" d="M-31.646,373.099v3.012h6.024v-3.012
					H-31.646z M-22.61,373.099v3.012h6.024v-3.012H-22.61z M-13.575,373.099v3.012h6.024v-3.012H-13.575z M-4.539,373.099v3.012
					h6.024v-3.012H-4.539z M4.496,373.099v3.012h6.024v-3.012H4.496z M13.532,373.099v3.012h6.024v-3.012H13.532z"/>
			</g>
		</g>
		<g id="g1613" transform="translate(0.50949797,291.87497)">
			<path id="rect871" inkscape:connector-curvature="0" fill="#1F1F26" d="M7.515,9.778c3.531,0,6.375,2.843,6.375,6.375
				c0,3.531-2.844,6.375-6.375,6.375S1.14,19.684,1.14,16.153C1.14,12.621,3.984,9.778,7.515,9.778z"/>
			
				<linearGradient id="rect871-2_1_" gradientUnits="userSpaceOnUse" x1="-225.6394" y1="306.8153" x2="-225.6394" y2="309.7664" gradientTransform="matrix(3.7795 0 0 -3.7795 860.3245 1181.3497)">
				<stop  offset="0" style="stop-color:#252A34"/>
				<stop  offset="1" style="stop-color:#353D4B"/>
			</linearGradient>
			<path id="rect871-2" inkscape:connector-curvature="0" fill="url(#rect871-2_1_)" d="M7.515,10.575
				c3.09,0,5.578,2.488,5.578,5.578c0,3.09-2.488,5.578-5.578,5.578s-5.578-2.488-5.578-5.578
				C1.937,13.063,4.426,10.575,7.515,10.575z"/>
			
				<linearGradient id="rect871-2-9_1_" gradientUnits="userSpaceOnUse" x1="-225.6394" y1="307.0262" x2="-225.6394" y2="309.5565" gradientTransform="matrix(3.7795 0 0 -3.7795 860.3245 1181.3497)">
				<stop  offset="0" style="stop-color:#E4EFEF"/>
				<stop  offset="1" style="stop-color:#FCFCFC"/>
			</linearGradient>
			<path id="rect871-2-9" inkscape:connector-curvature="0" fill="url(#rect871-2-9_1_)" d="M7.515,11.372
				c2.649,0,4.781,2.132,4.781,4.781c0,2.649-2.132,4.781-4.781,4.781c-2.648,0-4.781-2.132-4.781-4.781
				C2.734,13.504,4.867,11.372,7.515,11.372z"/>
			<path id="path961" inkscape:connector-curvature="0" fill="#F4203E" d="M6.86,16.606c-0.059,0.11-0.142,0.209-0.142,0.344v2.391
				c0,0.442,0.355,0.797,0.797,0.797s0.797-0.354,0.797-0.797V16.95c0-0.134-0.084-0.232-0.142-0.342
				c-0.015,0.02-0.03,0.041-0.045,0.059c-0.018,0.02-0.036,0.039-0.055,0.058c-0.02,0.019-0.04,0.036-0.061,0.053
				s-0.042,0.033-0.063,0.047c-0.023,0.014-0.047,0.027-0.07,0.039c-0.023,0.012-0.047,0.023-0.072,0.032
				c-0.024,0.01-0.051,0.018-0.076,0.025c-0.025,0.008-0.051,0.014-0.078,0.019c-0.025,0.004-0.053,0.008-0.078,0.009
				c-0.02,0.001-0.038,0.001-0.057,0.001c-0.026,0-0.053-0.001-0.08-0.005c-0.025-0.002-0.053-0.006-0.078-0.011
				c-0.026-0.005-0.052-0.012-0.076-0.02c-0.025-0.008-0.051-0.017-0.075-0.027c-0.024-0.011-0.048-0.022-0.071-0.036
				c-0.023-0.012-0.047-0.025-0.068-0.041c-0.022-0.016-0.044-0.031-0.064-0.048c-0.02-0.018-0.039-0.036-0.058-0.055
				c-0.019-0.02-0.036-0.04-0.053-0.061C6.881,16.634,6.869,16.62,6.86,16.606L6.86,16.606z"/>
			<path id="rect871-2-9-2" inkscape:connector-curvature="0" fill="#292E39" d="M7.515,12.169c-0.441,0-0.797,0.355-0.797,0.797
				v1.813c-0.475,0.276-0.797,0.784-0.797,1.375c0,0.882,0.711,1.594,1.594,1.594c0.503,0,0.945-0.236,1.237-0.598h1.054
				c0.496,0,0.896-0.4,0.896-0.896s-0.4-0.896-0.896-0.896H8.889c-0.138-0.24-0.337-0.438-0.577-0.578v-1.813
				C8.312,12.524,7.957,12.169,7.515,12.169z M7.515,15.356c0.441,0,0.797,0.355,0.797,0.797c0,0.442-0.355,0.797-0.797,0.797
				s-0.797-0.355-0.797-0.797C6.719,15.712,7.074,15.356,7.515,15.356z"/>
		</g>
	</g>
</g>
</svg>
