<?xml version="1.0" encoding="utf-8"?>
<!-- Generator: Adobe Illustrator 16.0.3, SVG Export Plug-In . SVG Version: 6.00 Build 0)  -->
<!DOCTYPE svg PUBLIC "-//W3C//DTD SVG 1.1//EN" "http://www.w3.org/Graphics/SVG/1.1/DTD/svg11.dtd">
<svg version="1.1"
	 id="svg8" sodipodi:docname="inkscape.svg" inkscape:version="0.91 r13725" xmlns:dc="http://purl.org/dc/elements/1.1/" xmlns:cc="http://creativecommons.org/ns#" xmlns:rdf="http://www.w3.org/1999/02/22-rdf-syntax-ns#" xmlns:svg="http://www.w3.org/2000/svg" xmlns:sodipodi="http://sodipodi.sourceforge.net/DTD/sodipodi-0.dtd" xmlns:inkscape="http://www.inkscape.org/namespaces/inkscape"
	 xmlns="http://www.w3.org/2000/svg" xmlns:xlink="http://www.w3.org/1999/xlink" x="0px" y="0px" width="24px" height="24px"
	 viewBox="4 4 24 24" enable-background="new 4 4 24 24" xml:space="preserve">
<title  id="title7895">Antu icon Theme</title>
<sodipodi:namedview  id="base" units="px" inkscape:window-y="0" inkscape:window-x="0" inkscape:window-height="697" inkscape:window-width="1360" inkscape:current-layer="g1698" inkscape:document-units="px" inkscape:pageshadow="2" inkscape:pageopacity="0.0" inkscape:zoom="8" borderopacity="1.0" bordercolor="#666666" showgrid="true" pagecolor="#ffffff" guidetolerance="10" gridtolerance="10" objecttolerance="10" inkscape:cy="19.85344" inkscape:cx="5.929235" inkscape:window-maximized="1">
	<inkscape:grid  id="grid7897" type="xygrid" empspacing="4"></inkscape:grid>
</sodipodi:namedview>
<g id="layer1" transform="translate(0,-282.64999)" inkscape:groupmode="layer" inkscape:label="Capa 1">
	<g id="g1698" transform="translate(17,-4)">
		<path id="path4218" sodipodi:nodetypes="cccccccccc" inkscape:connector-curvature="0" fill="#15151A" d="M-1.057,290.551
			c-0.247-0.002-0.481,0.112-0.634,0.31l-11.115,14.486c-0.277,0.361-0.203,0.883,0.165,1.149l11.115,8.048
			c0.276,0.201,0.648,0.201,0.924,0l11.115-8.048c0.366-0.267,0.442-0.788,0.165-1.149L-0.438,290.86
			C-0.587,290.667-0.815,290.553-1.057,290.551z"/>
		
			<linearGradient id="path4222_1_" gradientUnits="userSpaceOnUse" x1="-9.7046" y1="30.4244" x2="-9.7046" y2="48.9347" gradientTransform="matrix(1 0 0 -1 8.6401 342.7043)">
			<stop  offset="0" style="stop-color:#252A34"/>
			<stop  offset="1" style="stop-color:#353D4B"/>
		</linearGradient>
		<path id="path4222" inkscape:connector-curvature="0" opacity="0.98" fill="url(#path4222_1_)" enable-background="new    " d="
			M-12.18,305.841l11.116-14.486l11.115,14.486l-11.115,8.048L-12.18,305.841z"/>
		<path id="path4224-6" sodipodi:nodetypes="cccccccccccc" inkscape:connector-curvature="0" fill="#15151A" d="M-1.103,294.574
			c-0.243,0.012-0.467,0.136-0.608,0.336l-3.97,5.633c-0.45,0.635,0.167,1.481,0.898,1.232l1.917-0.647l1.241,1.257
			c0.31,0.314,0.813,0.314,1.122,0l1.241-1.257l1.917,0.647c0.73,0.249,1.347-0.597,0.897-1.232l-3.97-5.633
			C-0.574,294.688-0.833,294.561-1.103,294.574z"/>
		<path id="path4224" sodipodi:nodetypes="cccccccccccc" inkscape:connector-curvature="0" fill="#D4EC41" d="M-1.103,293.77
			c-0.243,0.012-0.467,0.136-0.608,0.336l-3.97,5.634c-0.45,0.635,0.167,1.481,0.898,1.232l1.917-0.648l1.241,1.258
			c0.31,0.313,0.813,0.313,1.122,0l1.241-1.258l1.917,0.648c0.73,0.249,1.347-0.598,0.897-1.232l-3.97-5.634
			C-0.574,293.883-0.833,293.756-1.103,293.77z"/>
	</g>
</g>
</svg>
