<?xml version="1.0" encoding="utf-8"?>
<!-- Generator: Adobe Illustrator 16.0.3, SVG Export Plug-In . SVG Version: 6.00 Build 0)  -->
<!DOCTYPE svg PUBLIC "-//W3C//DTD SVG 1.1//EN" "http://www.w3.org/Graphics/SVG/1.1/DTD/svg11.dtd">
<svg version="1.1" id="Capa_1" xmlns="http://www.w3.org/2000/svg" xmlns:xlink="http://www.w3.org/1999/xlink" x="0px" y="0px"
	 width="24px" height="24px" viewBox="0 0 24 24" enable-background="new 0 0 24 24" xml:space="preserve">
<g transform="scale(.26458)">
	<path fill="#001AA2" d="M9.447,0.183h71.814c5.212,0,9.449,3.61,9.449,8.069V82.46c0,4.455-4.237,8.069-9.449,8.069H9.447
		c-5.219,0-9.449-3.613-9.449-8.069V8.251C-0.002,3.792,4.228,0.183,9.447,0.183z"/>
</g>
<g transform="translate(1,1)">
	<path fill="#FFFFFF" d="M-0.97,4.429v1.46h3.65v8.761h1.461V5.889h3.65v-1.46H-0.97z M15.669,4.714l-1.153,0.891l3.309,4.301
		l-3.309,4.301l1.153,0.891l3.074-3.996l3.071,3.996l1.154-0.891L19.66,9.906l3.309-4.301l-1.154-0.891L18.743,8.71L15.669,4.714z
		 M6.331,7.35v1.46v2.189v1.46v3.652v1.459h7.303v-1.459H7.792v-2.922h5.842V11.73H7.792V8.81h5.842V7.35H6.331L6.331,7.35z"/>
</g>
</svg>
