<?xml version="1.0" encoding="UTF-8" standalone="no"?>
<svg
   version="1.1"
   width="28"
   height="28"
   color-interpolation="linearRGB"
   id="svg61"
   sodipodi:docname="titulo.svg"
   inkscape:version="1.2.2 (b0a8486541, 2022-12-01)"
   xmlns:inkscape="http://www.inkscape.org/namespaces/inkscape"
   xmlns:sodipodi="http://sodipodi.sourceforge.net/DTD/sodipodi-0.dtd"
   xmlns="http://www.w3.org/2000/svg"
   xmlns:svg="http://www.w3.org/2000/svg">
  <defs
     id="defs65" />
  <sodipodi:namedview
     id="namedview63"
     pagecolor="#ffffff"
     bordercolor="#000000"
     borderopacity="0.25"
     inkscape:showpageshadow="2"
     inkscape:pageopacity="0.0"
     inkscape:pagecheckerboard="0"
     inkscape:deskcolor="#d1d1d1"
     showgrid="false"
     inkscape:zoom="13.5625"
     inkscape:cx="26.986175"
     inkscape:cy="26.101382"
     inkscape:window-width="1920"
     inkscape:window-height="1052"
     inkscape:window-x="0"
     inkscape:window-y="0"
     inkscape:window-maximized="1"
     inkscape:current-layer="svg61" />
  <g
     id="g59"
     transform="matrix(0.43741541,0,0,0.43741541,0,-1.300314)">
    <path
       style="fill:#010000;fill-opacity:0.4431"
       d="m 38,58 h 5 L 64,36 56,32 H 38 Z"
       id="path2" />
    <path
       style="fill:none;stroke:#010000;stroke-width:4"
       d="M 2,30 21,14 58,28 v 8 L 38,56 2,38 Z"
       id="path4" />
    <linearGradient
       id="gradient0"
       gradientUnits="userSpaceOnUse"
       x1="35.389999"
       y1="14.68"
       x2="50.490002"
       y2="42.900002">
      <stop
         offset="0"
         stop-color="#c2772f"
         id="stop6" />
      <stop
         offset="1"
         stop-color="#7f4c00"
         id="stop8" />
    </linearGradient>
    <path
       style="fill:url(#gradient0)"
       d="M 38,56 2,38 v -8 l 36,16 z"
       id="path11" />
    <linearGradient
       id="gradient1"
       gradientUnits="userSpaceOnUse"
       x1="35.459999"
       y1="64.93"
       x2="27.91"
       y2="55.93">
      <stop
         offset="0"
         stop-color="#e6e276"
         id="stop13" />
      <stop
         offset="1"
         stop-color="#e8bf71"
         id="stop15" />
    </linearGradient>
    <path
       style="fill:url(#gradient1)"
       d="M 38,46 V 56 L 58,36 v -8 z"
       id="path18" />
    <radialGradient
       id="gradient2"
       gradientUnits="userSpaceOnUse"
       cx="0"
       cy="0"
       r="64"
       gradientTransform="matrix(0.6073,0.2281,-0.0814,0.2168,31.6668,28.5743)">
      <stop
         offset="0"
         stop-color="#ffb267"
         id="stop20" />
      <stop
         offset="1"
         stop-color="#a35d01"
         id="stop22" />
    </radialGradient>
    <path
       style="fill:url(#gradient2)"
       d="M 4.23,28.11 21,14 58,28 40,44 Z"
       id="path25" />
    <linearGradient
       id="gradient3"
       gradientUnits="userSpaceOnUse"
       x1="33.549999"
       y1="5.0799999"
       x2="57.119999"
       y2="26.73">
      <stop
         offset="0"
         stop-color="#f0b840"
         id="stop27" />
      <stop
         offset="1"
         stop-color="#b96d23"
         id="stop29" />
    </linearGradient>
    <path
       style="fill:url(#gradient3)"
       d="M 2,30 4.23,28.11 40.37,43.86 38,46 Z"
       id="path32" />
    <linearGradient
       id="gradient4"
       gradientUnits="userSpaceOnUse"
       x1="26"
       y1="-48"
       x2="62"
       y2="-48">
      <stop
         offset="0"
         stop-color="#7f4c00"
         id="stop34" />
      <stop
         offset="1"
         stop-color="#e8bf71"
         id="stop36" />
    </linearGradient>
    <path
       style="fill:url(#gradient4)"
       d="M 58,32 34,54 h 2"
       transform="matrix(0.8333,0,0,0.8363,9.6666,3.2363)"
       id="path39" />
    <linearGradient
       id="gradient5"
       gradientUnits="userSpaceOnUse"
       x1="26"
       y1="-48"
       x2="62"
       y2="-48">
      <stop
         offset="0"
         stop-color="#7f4c00"
         id="stop41" />
      <stop
         offset="1"
         stop-color="#e8bf71"
         id="stop43" />
    </linearGradient>
    <path
       style="fill:url(#gradient5)"
       d="M 58,32 34,54 h 2"
       transform="matrix(0.8333,0,0,0.8363,9.6666,5.9963)"
       id="path46" />
    <linearGradient
       id="gradient6"
       gradientUnits="userSpaceOnUse"
       x1="26"
       y1="-48"
       x2="62"
       y2="-48">
      <stop
         offset="0"
         stop-color="#7f4c00"
         id="stop48" />
      <stop
         offset="1"
         stop-color="#e8bf71"
         id="stop50" />
    </linearGradient>
    <path
       style="fill:url(#gradient6)"
       d="M 58,32 34,54 h 2"
       transform="matrix(0.8333,0,0,0.8363,9.6666,7.8363)"
       id="path53" />
    <path
       style="fill:none;stroke:#3c2401;stroke-width:1"
       d="M 58,28 40,44 38.87,45.75 38.75,50.62 39,56 58.25,36.87"
       id="path55" />
    <path
       style="fill:none;stroke:#3c2401;stroke-width:1"
       d="M 4,28 41,44 38.87,45.75 38.75,50.62 39,56 58.25,36.87"
       id="path57" />
  </g>
</svg>
