<?xml version="1.0" encoding="UTF-8" standalone="no"?>
<svg
   version="1.1"
   width="28"
   height="28"
   color-interpolation="linearRGB"
   id="svg71"
   sodipodi:docname="web.svg"
   inkscape:version="1.2.2 (b0a8486541, 2022-12-01)"
   xmlns:inkscape="http://www.inkscape.org/namespaces/inkscape"
   xmlns:sodipodi="http://sodipodi.sourceforge.net/DTD/sodipodi-0.dtd"
   xmlns="http://www.w3.org/2000/svg"
   xmlns:svg="http://www.w3.org/2000/svg">
  <defs
     id="defs75" />
  <sodipodi:namedview
     id="namedview73"
     pagecolor="#ffffff"
     bordercolor="#000000"
     borderopacity="0.25"
     inkscape:showpageshadow="2"
     inkscape:pageopacity="0.0"
     inkscape:pagecheckerboard="0"
     inkscape:deskcolor="#d1d1d1"
     showgrid="false"
     inkscape:zoom="12.9375"
     inkscape:cx="32.038647"
     inkscape:cy="19.63285"
     inkscape:window-width="1920"
     inkscape:window-height="1008"
     inkscape:window-x="0"
     inkscape:window-y="0"
     inkscape:window-maximized="1"
     inkscape:current-layer="svg71" />
  <g
     id="g69"
     transform="matrix(0.42684368,0,0,0.42684368,0.44310008,0.98446382)">
    <path
       style="fill:#010101;fill-opacity:0.5725"
       d="m 27,57 2,2 3.13,-3.17 L 37,59 45.39,47.54 64,38 59,35 61,37 36,49 Z m 31,-23 4,-3 -4,-2 -3,3 z"
       transform="translate(0,3)"
       id="path2" />
    <path
       style="fill:none;stroke:#010101;stroke-width:4"
       d="m 6.25,30 c 0,0 5.62,6 10.62,12.5 5,6.5 9.38,13.25 9.38,13.25 L 59.12,36.87 32,15 Z"
       transform="translate(0,3)"
       id="path4" />
    <radialGradient
       id="gradient0"
       gradientUnits="userSpaceOnUse"
       cx="0"
       cy="0"
       r="64"
       gradientTransform="matrix(0.5714,0,0,0.3333,26,35)">
      <stop
         offset="1"
         stop-color="#fffcc0"
         id="stop6" />
      <stop
         offset="0.4886"
         stop-color="#f1b706"
         id="stop8" />
    </radialGradient>
    <path
       style="fill:url(#gradient0)"
       d="m 6.25,30 c 0,0 5.62,6 10.62,12.5 5,6.5 9.38,13.25 9.38,13.25 L 59.12,36.87 32,15 Z"
       transform="translate(0,3)"
       id="path11" />
    <path
       style="fill:none;stroke:#010101;stroke-width:4"
       d="m 2.62,30.87 c 0,0 8.33,5.39 16.38,11 8.44,5.88 16.75,10.88 16.75,10.88 L 58.12,26.37 c 0,0 -12.68,-5.67 -22.75,-11 -5.19,-2.75 -9.37,-6 -9.37,-6 z"
       transform="translate(0,3)"
       id="path13" />
    <linearGradient
       id="gradient1"
       gradientUnits="userSpaceOnUse"
       x1="107.04"
       y1="-17.09"
       x2="118.33"
       y2="27.99">
      <stop
         offset="0"
         stop-color="#ffefa5"
         id="stop15" />
      <stop
         offset="0.7424"
         stop-color="#fffcc0"
         id="stop17" />
      <stop
         offset="1"
         stop-color="#fff890"
         id="stop19" />
    </linearGradient>
    <path
       style="fill:url(#gradient1)"
       d="m 2.62,30.87 c 0,0 8.33,5.39 16.38,11 8.44,5.88 16.75,10.88 16.75,10.88 L 58.12,26.37 c 0,0 -12.68,-5.67 -22.75,-11 -5.19,-2.75 -9.37,-6 -9.37,-6 z"
       transform="translate(0,3)"
       id="path22" />
    <linearGradient
       id="gradient2"
       gradientUnits="userSpaceOnUse"
       x1="-47.139999"
       y1="-15.78"
       x2="-28.459999"
       y2="-37.849998">
      <stop
         offset="0"
         stop-color="#010101"
         id="stop24" />
      <stop
         offset="1"
         stop-color="#9e9e9e"
         id="stop26" />
    </linearGradient>
    <path
       style="fill:none;stroke:url(#gradient2);stroke-width:1"
       d="M 20,36 34.87,20.87 M 14,32 26.87,19 M 26,40 38.75,26.87 M 32,44 42.75,32.37"
       transform="translate(0,3)"
       id="path29" />
    <linearGradient
       id="gradient3"
       gradientUnits="userSpaceOnUse"
       x1="-47.139999"
       y1="-15.78"
       x2="-28.459999"
       y2="-37.849998">
      <stop
         offset="0"
         stop-color="#010101"
         id="stop31" />
      <stop
         offset="1"
         stop-color="#9e9e9e"
         id="stop33" />
    </linearGradient>
    <path
       style="fill:none;stroke:url(#gradient3);stroke-width:1"
       d="M 29,42 44,26.37 M 23,38 34.75,26.25 M 17,34 28.12,22.62"
       transform="translate(0,3)"
       id="path36" />
    <path
       style="fill:none;stroke:#010101;stroke-width:4"
       d="m 32.02,1.91 c 10.01,0 18.12,8.11 18.12,18.12 0,10.01 -8.11,18.12 -18.12,18.12 C 22.01,38.15 13.9,30.04 13.9,20.03 13.9,10.02 22.01,1.91 32.02,1.91 Z"
       id="path38" />
    <radialGradient
       id="gradient4"
       gradientUnits="userSpaceOnUse"
       cx="0"
       cy="0"
       r="64"
       gradientTransform="matrix(0.3803,0,0,-0.3803,23.5321,21.0147)">
      <stop
         offset="0.1931"
         stop-color="#33ffff"
         id="stop40" />
      <stop
         offset="0.7878"
         stop-color="#0066ff"
         id="stop42" />
      <stop
         offset="1"
         stop-color="#0034cc"
         id="stop44" />
    </radialGradient>
    <path
       style="fill:url(#gradient4)"
       d="m 32.02,1.91 c 10.01,0 18.12,8.11 18.12,18.12 0,10.01 -8.11,18.12 -18.12,18.12 C 22.01,38.15 13.9,30.04 13.9,20.03 13.9,10.02 22.01,1.91 32.02,1.91 Z"
       id="path47" />
    <radialGradient
       id="gradient5"
       gradientUnits="userSpaceOnUse"
       cx="0"
       cy="0"
       r="64"
       gradientTransform="matrix(0.3803,0,0,-0.3803,23.5321,17.0147)">
      <stop
         offset="0.33"
         stop-color="#09b4b6"
         id="stop49" />
      <stop
         offset="0.85"
         stop-color="#033784"
         id="stop51" />
      <stop
         offset="1"
         stop-color="#051d61"
         id="stop53" />
    </radialGradient>
    <path
       style="fill:url(#gradient5)"
       d="M 47.33,10.33 C 44.65,6.1 40.23,3.11 35.3,2.2 34.22,2.01 33.12,1.91 32.02,1.91 c -5.08,0 -10.01,2.18 -13.42,5.95 -3.61,3.98 -5.28,9.45 -4.51,14.77 0.41,2.49 0.66,3.24 1.32,4.65 1.82,4.16 5.22,7.55 9.38,9.37 4.75,2.07 10.3,1.98 14.98,-0.24 -0.19,-0.87 -0.93,-0.9 -1.66,-0.97 h -0.08 l 0.26,0.06 c -0.58,-0.13 -1.11,0.13 -1.65,0.29 -0.63,0.19 -1.29,0.1 -1.93,0.03 -1.29,-0.15 -2.87,-0.4 -3.94,0.52 -0.06,0 -0.12,0 -0.12,0 h -0.22 c 0,0 -2.48,0 -3,0 -0.52,-0.37 -1.01,-0.47 -1.48,-0.51 -0.03,-0.03 -0.24,-0.27 -0.24,-0.27 -0.13,-0.15 -0.24,-0.24 -0.42,-0.3 L 24.2,34.89 23.07,34.47 c -0.1,-0.03 -0.2,-0.04 -0.3,-0.05 -0.02,-0.04 -0.01,-0.09 -0.04,-0.13 L 22.48,33.9 c -0.33,-0.58 -0.7,-1.16 -1.39,-1.3 0.09,-0.38 -0.04,-0.7 -0.15,-1.06 -0.12,-0.39 -0.15,-0.81 -0.13,-1.22 l 0.03,-0.36 c 0.04,-0.51 0.07,-1.01 -0.01,-1.51 0.8,-0.89 0.98,-1.8 0.91,-2.97 l -0.02,-0.43 c 0,-0.63 0,-0.71 0.2,-0.98 l 0.11,-0.14 c 0.56,-0.74 1.45,-2.23 0.27,-2.88 l -2.94,-1.6 c 0,0 -0.38,-0.17 -0.43,-0.2 0,0 0,-0.02 0,-0.02 -0.02,-0.86 -0.32,-1.46 -1.01,-1.97 0,0 -0.18,-0.13 -0.18,-0.13 0,-0.01 -0.25,-0.34 -0.25,-0.34 l -0.73,-0.87 c -0.47,-0.44 -0.91,-0.58 -1.31,-0.61 -0.03,-0.08 -0.08,-0.16 -0.13,-0.23 1.03,-0.43 1.51,-1.58 1.91,-2.54 0.24,-0.57 0.44,-1.18 0.87,-1.64 0.39,-0.43 0.75,-0.8 0.65,-1.43 0.82,-0.32 1.57,-0.74 2.28,-1.16 l 0.1,-0.06 1.44,-0.89 c 1.01,-0.6 1.47,-1.42 1.8,-2.53 0.62,0.06 1.17,-0.09 1.59,-0.31 0.78,0.47 2.05,0.49 2.71,-0.2 0.03,0 0.15,-0.01 0.27,-0.02 -0.38,0.79 0,1.88 0.87,2.2 0.03,0.04 0.04,0.11 0.08,0.14 -0.17,0.06 -0.34,0.12 -0.34,0.12 l -0.8,0.9 c -0.18,0.55 0,1.12 0.27,1.61 0.01,0.02 0.02,0.08 0.02,0.08 0.02,0.1 0.05,0.24 0.1,0.4 -0.08,0.1 -0.16,0.18 -0.16,0.18 -0.8,0.97 -2.09,1.19 -2.45,2.53 l -0.05,0.18 c -0.41,0.53 -0.51,1.17 -0.14,1.76 -0.04,0.07 -0.07,0.14 -0.07,0.14 -0.33,0.6 -0.61,1.29 -0.42,1.97 0.19,0.67 0.74,1.16 1.25,1.59 0.5,0.43 1.01,0.87 1.64,1.11 0.73,0.28 1.55,0.22 2.3,0.03 L 31.81,19 c 0.35,-0.12 0.71,-0.3 1.09,-0.26 0.41,0.04 0.72,0.36 1.02,0.62 -0.54,1.36 0.49,2.71 1.1,3.88 0,0 0.14,0.23 0.18,0.3 -0.75,1.36 -0.83,2.86 0.32,4 l 0.11,0.12 c -0.01,1.11 0.02,3.07 1.44,3.41 1.45,0.34 2.91,-0.47 3.79,-1.57 l 0.35,-0.41 0.28,-0.22 c 0.31,-0.22 0.64,-0.48 0.82,-0.82 0.18,-0.36 0.2,-0.8 0.45,-1.13 v 0.01 c 0.03,0.7 0.69,1.2 1.37,1.08 0.84,-0.14 1.35,-1.04 1.69,-1.73 l 0.15,-0.3 0.04,-0.07 c 0.41,-0.71 0.71,-1.6 0.19,-2.34 -0.45,-0.64 -1.33,-0.81 -1.94,-0.28 0,-0.21 0,-0.41 0,-0.41 l 0.03,-1.3 c 0.02,-0.19 0.43,-0.59 0.65,-0.81 l 0.22,-0.21 0.23,-0.21 c 0.46,-0.4 0.9,-0.84 1.06,-1.45 0.1,-0.26 0.04,-0.7 0.06,-0.98 l -0.01,-0.2 0.01,-0.1 c 0.05,-0.59 -0.04,-1.19 -0.51,-1.6 0.53,-0.32 0.9,-0.86 1.07,-1.54 0.03,0.05 0.09,0.18 0.09,0.18 0.15,0.3 0.34,0.66 0.68,0.98 -0.05,0.75 0.22,1.45 0.55,2.1 0.33,0.64 0.4,1.35 0.39,2.06 l 0.02,0.71 c 0.02,0.37 0.06,0.76 -0.04,1.13 -0.09,0.34 -0.27,0.65 -0.36,0.99 -0.22,0.78 -0.28,1.6 -0.28,2.41 -0.11,0.66 0.27,1.3 0.81,1.51 2.05,-5.31 1.45,-11.41 -1.6,-16.22 z"
       id="path56" />
    <radialGradient
       id="gradient6"
       gradientUnits="userSpaceOnUse"
       cx="0"
       cy="0"
       r="64"
       gradientTransform="matrix(0.4477,0,0,0.4477,26.4917,10.4363)">
      <stop
         offset="0"
         stop-color="#ffffff"
         id="stop58" />
      <stop
         offset="0.2992"
         stop-color="#00ff00"
         id="stop60" />
      <stop
         offset="0.5643"
         stop-color="#00b200"
         id="stop62" />
      <stop
         offset="1"
         stop-color="#008000"
         id="stop64" />
    </radialGradient>
    <path
       style="fill:url(#gradient6)"
       d="m 19.58,28.17 c 0.29,-0.39 0.68,-0.71 0.9,-1.15 0.26,-0.55 0.11,-1.38 0.11,-1.97 0,-0.69 0,-1.08 0.43,-1.66 0.31,-0.43 0.64,-0.8 0.73,-1.35 -0.97,-0.53 -1.94,-1.07 -2.92,-1.59 -0.25,-0.13 -0.82,-0.29 -0.95,-0.58 -0.16,-0.39 0,-0.89 -0.19,-1.26 -0.14,-0.29 -0.59,-0.49 -0.81,-0.75 -0.3,-0.36 -0.54,-0.78 -0.89,-1.11 -0.34,-0.31 -0.66,-0.46 -1.09,-0.23 -0.47,0.26 -0.44,-0.45 -0.49,-0.76 -0.12,0.51 -0.23,1.03 -0.31,1.55 0.42,0 0.37,0.12 0.38,0.52 0.01,0.4 0.02,0.8 0.04,1.21 0.07,0.17 0.02,0.26 -0.15,0.26 -0.05,0.02 -0.1,0.04 -0.16,0.06 -0.1,0.08 -0.17,0.07 -0.22,-0.03 -0.16,-0.01 -0.05,1.77 -0.04,1.92 0.04,0.57 -0.02,2.39 0.81,2.11 0.43,0.29 0.36,0.99 0.65,1.4 0.34,0.49 0.78,0.74 0.96,1.35 0.17,0.62 0.18,1.27 0.28,1.9 0.13,0.79 0.56,1.07 1.14,1.55 0.14,0.82 0.38,1.33 0.93,1.96 0.25,0.28 0.5,0.56 0.73,0.86 0.24,0.31 0.35,0.3 0.59,-0.03 -0.31,-0.64 -0.4,-1.38 -0.36,-2.09 0.04,-0.68 0.19,-1.45 -0.1,-2.09 M 26.02,3.13 c 0.34,0.23 0.37,0.45 0.81,0.53 0.31,0.06 0.79,0.13 1.03,-0.13 0.58,-0.6 1.48,-0.17 2.16,-0.59 0.54,-0.33 0.99,-1 1.69,-1 0.43,-0.01 0.69,0.26 1.04,0.45 0.47,0.26 0.85,-0.23 1.28,-0.37 -3.34,-0.37 -6.76,0.2 -9.81,1.65 0.68,0.2 1.28,-0.13 1.8,-0.54 m 4.62,2.69 c 0.31,0.02 0.68,0.24 0.99,0.11 0.5,-0.2 0.02,-0.96 -0.19,-1.18 C 31.29,4.59 30.57,3.87 30.71,4.51 30.8,4.94 31.17,5.53 30.64,5.82 M 17.63,9.8 C 17.69,9.57 17.55,9.48 17.4,9.33 16.34,10.78 15.49,12.39 14.9,14.09 16.3,13 16.19,10.9 17.63,9.8 m 32.48,9.14 C 49.85,16.17 49.05,13.44 47.68,11 46.99,9.76 46.15,8.6 45.17,7.57 44.69,7.06 44.18,6.58 43.64,6.13 43.47,5.99 43.29,5.74 43.06,5.87 42.85,5.98 42.68,5.58 42.74,5.42 40.37,3.68 37.58,2.53 34.67,2.1 c 0.42,0.29 0.95,0.26 1.4,0.45 0.16,0.06 0.63,0.32 0.25,0.44 -0.74,0.25 -1.58,-0.05 -2.34,0 -0.47,0.04 -0.69,0.2 -0.73,0.68 -0.02,0.26 -0.09,0.77 0.01,1.02 0.11,0.29 1.01,-0.07 1.15,-0.23 0.23,-0.27 -0.05,-0.85 0.58,-0.67 0.23,0.47 0.72,1.83 -0.33,1.47 -0.26,-0.09 -0.75,-0.52 -1.03,-0.39 -0.02,0.01 -0.07,0.34 -0.09,0.38 -0.09,0.16 -0.25,0.27 -0.43,0.32 -0.74,0.2 -1.27,0.31 -1.54,1.11 -0.13,0.39 -0.12,0.63 -0.55,0.78 -0.32,0.11 -0.68,0.18 -0.99,0.33 -0.42,0.2 -0.13,0.75 0.03,1.03 0.11,0.2 0.09,0.67 0.3,0.79 0.63,0.36 1.36,-1.04 1.62,-1.37 0.34,-0.45 0.73,-0.34 1.2,-0.5 0.22,-0.07 0.51,-0.63 0.74,-0.54 0.78,0.3 1.01,1.23 1.13,1.96 0.25,0 0.09,-0.59 0.61,-0.46 C 35.27,8.28 35,7.72 34.94,7.14 c 0.56,0.36 0.95,0.75 1.13,1.38 0.17,0.62 0.46,0.97 0.97,0.34 0.13,-0.13 0.31,-0.97 0.58,-0.73 0.23,0.2 0.23,0.88 -0.12,0.97 0.2,0.18 0.48,0.1 0.71,0.04 0.32,-0.08 0.5,-0.06 0.8,0.06 0.35,0.13 0.72,0.18 1.09,0.2 0.37,0.02 0.58,0.36 0.75,0.64 0.47,0.77 -2.33,0.45 -2.47,0.44 -0.34,-0.02 -0.72,-0.02 -1.03,0.1 C 37.11,10.68 36.93,11 36.64,10.9 36.32,10.8 36.03,10.51 35.75,10.33 35.37,10.08 34.97,9.85 34.56,9.67 33.87,9.36 33.09,9.17 32.34,9.32 31.99,9.4 31.65,9.55 31.36,9.77 c -0.35,0.26 -0.73,0.03 -1.07,0.39 -0.53,0.54 -0.9,1.2 -1.6,1.54 -0.29,0.14 -0.63,0.26 -0.83,0.51 -0.21,0.26 -0.21,0.61 -0.35,0.9 -0.13,0.28 -0.43,0.42 -0.19,0.75 0.21,0.29 0.27,0.52 0.12,0.86 -0.21,0.51 -0.79,1.19 -0.37,1.74 0.4,0.54 1.11,1.07 1.64,1.46 0.61,0.45 1.36,0.4 2.05,0.22 0.64,-0.17 1.29,-0.48 1.96,-0.53 0.84,-0.06 1.48,0.47 2.07,1 0.39,0.35 0.54,0.49 0.24,0.98 -0.33,0.56 -0.13,0.96 0.14,1.5 0.27,0.54 0.56,1.08 0.84,1.6 0.13,0.23 0.3,0.44 0.4,0.68 0.12,0.28 -0.07,0.44 -0.2,0.68 -0.27,0.48 -0.46,1.03 -0.46,1.59 0.01,0.62 0.3,0.83 0.69,1.23 0.36,0.36 0.34,1 0.31,1.47 -0.05,0.65 0.15,1.1 0.53,1.61 0.58,0.03 1.18,-0.01 1.71,-0.26 0.65,-0.31 0.93,-0.91 1.42,-1.4 0.45,-0.45 0.92,-0.49 1.06,-1.18 0.16,-0.81 0.59,-1.13 1.18,-1.63 0.54,-0.46 0.47,-1.12 0.49,-1.76 0.01,-0.74 -0.07,-1.55 0.02,-2.29 0.09,-0.67 0.74,-1.21 1.19,-1.66 0.33,-0.34 0.88,-0.67 1,-1.16 0.07,-0.26 0.01,-0.61 0.01,-0.89 0,-0.2 0.07,-0.53 -0.02,-0.72 -0.24,-0.52 -1.32,-0.01 -1.44,-0.49 -0.08,-0.29 -0.06,-0.24 0.13,-0.42 0.22,-0.2 0,-0.4 -0.19,-0.51 -0.52,-0.31 -0.94,-0.51 -1.32,-1.02 -0.36,-0.47 -0.66,-0.99 -0.95,-1.51 -0.07,-0.13 -0.77,-1.54 -0.36,-1.41 0.45,0.15 0.86,0.68 1.17,1.02 0.53,0.58 1.02,1.23 1.35,1.94 0.01,0.09 0.34,0.27 0.41,0.32 0.24,0.18 0.51,0.32 0.82,0.3 0.71,-0.06 1.05,-0.7 1.1,-1.34 0.07,-0.87 -0.6,-0.69 -1.12,-1.1 -0.29,-0.24 -0.49,-0.57 -0.72,-0.86 -0.15,-0.17 -0.55,-0.45 -0.41,-0.73 0.3,-0.2 0.42,-0.02 0.71,0.15 0.34,0.21 0.71,0.39 1.09,0.51 0.4,0.13 0.99,0.01 1.33,0.27 0.21,0.15 0.36,0.52 0.5,0.74 0.23,0.35 0.44,0.71 0.63,1.08 0.29,0.58 0.37,0.97 1.07,1.18 -0.44,0.73 -0.01,1.58 0.33,2.24 0.41,0.8 0.45,1.57 0.44,2.45 -0.01,0.8 0.18,1.72 -0.19,2.47 -0.39,0.82 -0.47,1.93 -0.47,2.84 0.01,-0.05 0.03,-0.13 0.06,-0.18 -0.04,0.07 -0.16,0.53 -0.05,0.55 0.17,0.04 0.48,-1.67 0.52,-1.87 0.32,-1.53 0.42,-3.11 0.33,-4.68 M 40.17,8.15 C 39.9,8.19 39.92,7.75 39.73,7.65 39.38,7.47 38.98,7.68 38.68,7.84 37.69,8.38 37.97,7.25 38.18,6.7 c 0.03,-0.09 0.67,0.02 0.77,0.01 0.33,-0.05 0.82,-0.19 1.08,0.1 0.24,0.28 0.43,0.55 0.71,0.81 0.36,0.32 -0.31,0.5 -0.57,0.53 m 4.89,15.91 c -0.33,0.4 -0.77,0.7 -1.02,1.16 -0.3,0.52 -0.15,1.14 -0.15,1.71 0.56,-0.26 0.81,-1.01 1.1,-1.51 0.21,-0.37 0.67,-1.1 0.07,-1.36 m -7.23,12.48 c -1.45,1.03 -3.66,0.11 -5.3,0.29 -0.37,0.04 -0.73,0.11 -1.02,0.37 -0.38,0.33 -0.55,0.27 -1.08,0.27 -1.11,0 -2.22,0 -3.33,0 2.4,0.67 4.94,0.85 7.41,0.51 1.17,-0.16 2.34,-0.43 3.46,-0.81 0.09,-0.03 0.94,-0.48 0.63,-0.59 -0.24,-0.09 -0.54,0.06 -0.77,-0.04 M 22.76,5.77 c 0.32,-0.52 0.52,-1.1 0.66,-1.69 -2.08,1.12 -3.93,2.66 -5.43,4.49 0.91,-0.3 1.74,-0.81 2.56,-1.3 0.4,-0.24 0.8,-0.48 1.19,-0.73 0.33,-0.21 0.81,-0.44 1.02,-0.77 m -1.86,27.9 c -0.14,0.11 -0.27,0.26 -0.45,0.3 0.46,0.39 0.95,0.75 1.45,1.09 -0.39,-0.42 -0.53,-1.03 -1,-1.39"
       id="path67" />
  </g>
</svg>
