<?xml version="1.0" encoding="UTF-8" standalone="no"?>
<svg
   width="28"
   height="28"
   version="1.1"
   id="svg150"
   sodipodi:docname="wiktionary.svg"
   inkscape:version="1.2.2 (b0a8486541, 2022-12-01)"
   xmlns:inkscape="http://www.inkscape.org/namespaces/inkscape"
   xmlns:sodipodi="http://sodipodi.sourceforge.net/DTD/sodipodi-0.dtd"
   xmlns="http://www.w3.org/2000/svg"
   xmlns:svg="http://www.w3.org/2000/svg">
  <sodipodi:namedview
     id="namedview152"
     pagecolor="#ffffff"
     bordercolor="#000000"
     borderopacity="0.25"
     inkscape:showpageshadow="2"
     inkscape:pageopacity="0.0"
     inkscape:pagecheckerboard="0"
     inkscape:deskcolor="#d1d1d1"
     showgrid="false"
     inkscape:zoom="17.36"
     inkscape:cx="20.910138"
     inkscape:cy="16.647465"
     inkscape:window-width="1920"
     inkscape:window-height="1052"
     inkscape:window-x="0"
     inkscape:window-y="0"
     inkscape:window-maximized="1"
     inkscape:current-layer="svg150" />
  <defs
     id="defs92">
    <linearGradient
       id="a"
       x1="15.321873"
       x2="6.3369231"
       y1="11.817648"
       y2="4.7082214"
       gradientTransform="scale(1.0019074,0.99809628)"
       gradientUnits="userSpaceOnUse">
      <stop
         offset="0%"
         stop-color="#F4E3CA"
         id="stop2" />
      <stop
         offset="100%"
         stop-color="#E9CC9D"
         id="stop4" />
    </linearGradient>
    <linearGradient
       id="b"
       x1="29.640562"
       x2="20.655613"
       y1="12.108202"
       y2="4.998775"
       gradientTransform="scale(1.0019074,0.99809628)"
       gradientUnits="userSpaceOnUse">
      <stop
         offset="0%"
         stop-color="#F4E3CA"
         id="stop7" />
      <stop
         offset="100%"
         stop-color="#E9CC9D"
         id="stop9" />
    </linearGradient>
    <linearGradient
       id="c"
       x1="44.489239"
       x2="35.504288"
       y1="11.62428"
       y2="4.5148535"
       gradientTransform="scale(1.0019074,0.99809628)"
       gradientUnits="userSpaceOnUse">
      <stop
         offset="0%"
         stop-color="#F4E3CA"
         id="stop12" />
      <stop
         offset="100%"
         stop-color="#E9CC9D"
         id="stop14" />
    </linearGradient>
    <linearGradient
       id="d"
       x1="12.187851"
       x2="3.2029009"
       y1="25.561813"
       y2="18.452263"
       gradientTransform="scale(1.0019074,0.99809628)"
       gradientUnits="userSpaceOnUse">
      <stop
         offset="0%"
         stop-color="#F4E3CA"
         id="stop17" />
      <stop
         offset="100%"
         stop-color="#E9CC9D"
         id="stop19" />
    </linearGradient>
    <linearGradient
       id="e"
       x1="26.747082"
       x2="17.762131"
       y1="26.239101"
       y2="19.129553"
       gradientTransform="scale(1.0019074,0.99809628)"
       gradientUnits="userSpaceOnUse">
      <stop
         offset="0%"
         stop-color="#F4E3CA"
         id="stop22" />
      <stop
         offset="100%"
         stop-color="#E9CC9D"
         id="stop24" />
    </linearGradient>
    <linearGradient
       id="f"
       x1="41.307308"
       x2="32.322361"
       y1="24.691156"
       y2="17.581606"
       gradientTransform="scale(1.0019074,0.99809628)"
       gradientUnits="userSpaceOnUse">
      <stop
         offset="0%"
         stop-color="#F4E3CA"
         id="stop27" />
      <stop
         offset="100%"
         stop-color="#E9CC9D"
         id="stop29" />
    </linearGradient>
    <linearGradient
       id="g"
       x1="16.912838"
       x2="7.9278884"
       y1="39.789902"
       y2="32.680473"
       gradientTransform="scale(1.0019074,0.99809628)"
       gradientUnits="userSpaceOnUse">
      <stop
         offset="0%"
         stop-color="#F4E3CA"
         id="stop32" />
      <stop
         offset="100%"
         stop-color="#E9CC9D"
         id="stop34" />
    </linearGradient>
    <linearGradient
       id="h"
       x1="30.990986"
       x2="22.006037"
       y1="40.177639"
       y2="33.068211"
       gradientTransform="scale(1.0019074,0.99809628)"
       gradientUnits="userSpaceOnUse">
      <stop
         offset="0%"
         stop-color="#F4E3CA"
         id="stop37" />
      <stop
         offset="100%"
         stop-color="#E9CC9D"
         id="stop39" />
    </linearGradient>
    <linearGradient
       id="i"
       x1="43.911343"
       x2="34.926392"
       y1="38.919243"
       y2="31.809814"
       gradientTransform="scale(1.0019074,0.99809628)"
       gradientUnits="userSpaceOnUse">
      <stop
         offset="0%"
         stop-color="#F4E3CA"
         id="stop42" />
      <stop
         offset="100%"
         stop-color="#E9CC9D"
         id="stop44" />
    </linearGradient>
    <linearGradient
       id="j"
       x1="40.096607"
       x2="44.445736"
       y1="29.682734"
       y2="35.518703"
       gradientTransform="scale(0.92816413,1.0773957)"
       gradientUnits="userSpaceOnUse">
      <stop
         offset="0%"
         stop-color="#006"
         id="stop47" />
      <stop
         offset="100%"
         stop-color="#00004F"
         id="stop49" />
    </linearGradient>
    <linearGradient
       id="k"
       x1="12.544851"
       x2="12.08378"
       y1="40.782589"
       y2="27.656584"
       gradientTransform="scale(0.95685443,1.045091)"
       gradientUnits="userSpaceOnUse">
      <stop
         offset="0%"
         stop-color="#006"
         id="stop52" />
      <stop
         offset="100%"
         stop-color="#00004F"
         id="stop54" />
    </linearGradient>
    <linearGradient
       id="l"
       x1="24.108019"
       x2="24.231806"
       y1="14.989679"
       y2="2.5476437"
       gradientTransform="scale(1.001558,0.99844439)"
       gradientUnits="userSpaceOnUse">
      <stop
         offset="0%"
         stop-color="#006"
         id="stop57" />
      <stop
         offset="100%"
         stop-color="#00004F"
         id="stop59" />
    </linearGradient>
    <linearGradient
       id="m"
       x1="24.472754"
       x2="20.645361"
       y1="27.80501"
       y2="16.763603"
       gradientTransform="scale(0.98104206,1.0193243)"
       gradientUnits="userSpaceOnUse">
      <stop
         offset="0%"
         stop-color="#D40000"
         id="stop62" />
      <stop
         offset="100%"
         stop-color="#570000"
         id="stop64" />
    </linearGradient>
    <linearGradient
       id="n"
       x1="36.735325"
       x2="30.542786"
       y1="26.884726"
       y2="17.982315"
       gradientTransform="scale(1.0823056,0.92395343)"
       gradientUnits="userSpaceOnUse">
      <stop
         offset="0%"
         stop-color="#006"
         id="stop67" />
      <stop
         offset="100%"
         stop-color="#00004F"
         id="stop69" />
    </linearGradient>
    <linearGradient
       id="o"
       x1="10.413139"
       x2="5.5661278"
       y1="24.143282"
       y2="15.535874"
       gradientTransform="scale(0.91884514,1.0883227)"
       gradientUnits="userSpaceOnUse">
      <stop
         offset="0%"
         stop-color="#006"
         id="stop72" />
      <stop
         offset="100%"
         stop-color="#00004F"
         id="stop74" />
    </linearGradient>
    <linearGradient
       id="p"
       x1="29.848886"
       x2="22.432991"
       y1="40.8908"
       y2="32.809162"
       gradientTransform="scale(0.99925941,1.0007411)"
       gradientUnits="userSpaceOnUse">
      <stop
         offset="0%"
         stop-color="#006"
         id="stop77" />
      <stop
         offset="100%"
         stop-color="#00004F"
         id="stop79" />
    </linearGradient>
    <linearGradient
       id="q"
       x1="13.760521"
       x2="6.6388102"
       y1="10.216398"
       y2="5.1042538"
       gradientTransform="scale(0.99544868,1.0045721)"
       gradientUnits="userSpaceOnUse">
      <stop
         offset="0%"
         stop-color="#006"
         id="stop82" />
      <stop
         offset="100%"
         stop-color="#00004F"
         id="stop84" />
    </linearGradient>
    <linearGradient
       id="r"
       x1="43.494667"
       x2="41.44331"
       y1="12.42721"
       y2="2.2154684"
       gradientTransform="scale(0.90483182,1.1051778)"
       gradientUnits="userSpaceOnUse">
      <stop
         offset="0%"
         stop-color="#006"
         id="stop87" />
      <stop
         offset="100%"
         stop-color="#00004F"
         id="stop89" />
    </linearGradient>
  </defs>
  <g
     fill="none"
     stroke="#000000"
     stroke-width="0.2"
     transform="matrix(0.58833516,0,0,0.58833516,0.05938967,0.6342719)"
     id="g148">
    <rect
       width="12.156"
       height="12.109"
       x="4.0869999"
       y="3.29"
       fill="#e7c78d"
       stroke-linecap="round"
       stroke-linejoin="round"
       rx="1.239"
       transform="rotate(-6.955,10.165,9.344)"
       id="rect94" />
    <rect
       width="12.156"
       height="12.109"
       x="18.433001"
       y="3.579"
       fill="#e7c78d"
       stroke-linecap="round"
       stroke-linejoin="round"
       rx="1.239"
       transform="rotate(38.339,24.51,9.634)"
       id="rect96" />
    <rect
       width="12.156"
       height="12.109"
       x="33.310001"
       y="3.096"
       fill="#e7c78d"
       stroke-linecap="round"
       stroke-linejoin="round"
       rx="1.239"
       transform="rotate(-66.447,39.388,9.15)"
       id="rect98" />
    <rect
       width="12.156"
       height="12.109"
       x="0.94700003"
       y="17.007999"
       fill="#e7c78d"
       stroke-linecap="round"
       stroke-linejoin="round"
       rx="1.239"
       transform="rotate(8.928,7.025,23.062)"
       id="rect100" />
    <rect
       width="12.156"
       height="12.109"
       x="15.534"
       y="17.684"
       fill="#e7c78d"
       stroke-linecap="round"
       stroke-linejoin="round"
       rx="1.239"
       transform="rotate(30.362,21.612,23.738)"
       id="rect102" />
    <rect
       width="12.156"
       height="12.109"
       x="30.122"
       y="16.138"
       fill="#e7c78d"
       stroke-linecap="round"
       stroke-linejoin="round"
       rx="1.239"
       transform="rotate(8.904,36.2,22.193)"
       id="rect104" />
    <rect
       width="12.156"
       height="12.109"
       x="5.6810002"
       y="31.209"
       fill="#e7c78d"
       stroke-linecap="round"
       stroke-linejoin="round"
       rx="1.239"
       transform="rotate(-32.281,11.758,37.263)"
       id="rect106" />
    <rect
       width="12.156"
       height="12.109"
       x="19.785"
       y="31.594999"
       fill="#e7c78d"
       stroke-linecap="round"
       stroke-linejoin="round"
       rx="1.239"
       transform="rotate(-6.955,25.863,37.65)"
       id="rect108" />
    <rect
       width="12.156"
       height="12.109"
       x="32.730999"
       y="30.339001"
       fill="#e7c78d"
       stroke-linecap="round"
       stroke-linejoin="round"
       rx="1.239"
       transform="rotate(2.773,38.809,36.394)"
       id="rect110" />
    <rect
       width="12.156"
       height="12.109"
       x="4.1760001"
       y="2.2219999"
       fill="url(#a)"
       stroke-linecap="round"
       stroke-linejoin="round"
       rx="1.239"
       transform="rotate(-6.955,10.254,8.277)"
       id="rect112"
       style="fill:url(#a)" />
    <rect
       width="12.156"
       height="12.109"
       x="18.521999"
       y="2.5120001"
       fill="url(#b)"
       stroke-linecap="round"
       stroke-linejoin="round"
       rx="1.239"
       transform="rotate(38.339,24.6,8.567)"
       id="rect114"
       style="fill:url(#b)" />
    <rect
       width="12.156"
       height="12.109"
       x="33.398998"
       y="2.029"
       fill="url(#c)"
       stroke-linecap="round"
       stroke-linejoin="round"
       rx="1.239"
       transform="rotate(-66.447,39.477,8.083)"
       id="rect116"
       style="fill:url(#c)" />
    <rect
       width="12.156"
       height="12.109"
       x="1.036"
       y="15.94"
       fill="url(#d)"
       stroke-linecap="round"
       stroke-linejoin="round"
       rx="1.239"
       transform="rotate(8.928,7.114,21.995)"
       id="rect118"
       style="fill:url(#d)" />
    <rect
       width="12.156"
       height="12.109"
       x="15.623"
       y="16.615999"
       fill="url(#e)"
       stroke-linecap="round"
       stroke-linejoin="round"
       rx="1.239"
       transform="rotate(30.362,21.701,22.67)"
       id="rect120"
       style="fill:url(#e)" />
    <rect
       width="12.156"
       height="12.109"
       x="30.211"
       y="15.071"
       fill="url(#f)"
       stroke-linecap="round"
       stroke-linejoin="round"
       rx="1.239"
       transform="rotate(8.904,36.289,21.125)"
       id="rect122"
       style="fill:url(#f)" />
    <rect
       width="12.156"
       height="12.109"
       x="5.77"
       y="30.141001"
       fill="url(#g)"
       stroke-linecap="round"
       stroke-linejoin="round"
       rx="1.239"
       transform="rotate(-32.281,11.848,36.196)"
       id="rect124"
       style="fill:url(#g)" />
    <rect
       width="12.156"
       height="12.109"
       x="19.875"
       y="30.528"
       fill="url(#h)"
       stroke-linecap="round"
       stroke-linejoin="round"
       rx="1.239"
       transform="rotate(-6.955,25.952,36.583)"
       id="rect126"
       style="fill:url(#h)" />
    <rect
       width="12.156"
       height="12.109"
       x="32.82"
       y="29.271999"
       fill="url(#i)"
       stroke-linecap="round"
       stroke-linejoin="round"
       rx="1.239"
       transform="rotate(2.773,38.898,35.327)"
       id="rect128"
       style="fill:url(#i)" />
    <path
       fill="url(#j)"
       d="m 39.996,39.455 -3.739,-0.22 a 26.987,26.987 0 0 0 -0.311,-2.066 c -0.168,-0.875 -0.237,-1.584 -0.208,-2.126 0.04,-0.735 0.167,-1.393 0.381,-1.973 -0.547,-0.216 -0.808,-0.567 -0.782,-1.055 0.025,-0.464 0.16,-0.874 0.402,-1.23 l 0.18,0.01 c 0.035,0.186 0.098,0.318 0.187,0.397 0.09,0.08 0.282,0.163 0.577,0.25 0.44,0.13 0.643,0.524 0.607,1.185 -0.009,0.167 -0.03,0.3 -0.061,0.397 a 2.352,2.352 0 0 1 -0.798,0.109 8.617,8.617 0 0 0 -0.245,1.691 c -0.043,0.804 0.163,1.78 0.62,2.93 l 0.208,0.005 c 0.673,-1.197 1.291,-2.716 1.856,-4.557 -0.541,-0.26 -0.798,-0.635 -0.772,-1.128 0.023,-0.424 0.158,-0.8 0.403,-1.127 l 0.18,0.011 c 0.04,0.28 0.155,0.452 0.349,0.518 l 0.415,0.128 c 0.445,0.14 0.652,0.493 0.621,1.06 a 2.02,2.02 0 0 1 -0.088,0.522 2.327,2.327 0 0 1 -0.755,0.059 c -0.425,1.671 -0.992,3.188 -1.701,4.55 l 2.127,0.126 c 0.245,-0.737 0.87,-1.798 1.875,-3.183 0.256,-0.346 0.39,-0.645 0.404,-0.896 A 0.511,0.511 0 0 0 41.595,33.303 L 41.51,33.268 c -0.437,-0.193 -0.645,-0.497 -0.622,-0.912 0.025,-0.468 0.177,-0.882 0.456,-1.241 l 0.174,0.01 c 0.018,0.239 0.123,0.403 0.315,0.493 l 0.367,0.163 c 0.415,0.188 0.609,0.538 0.581,1.05 -0.024,0.444 -0.262,1.01 -0.715,1.698 a 15.07,15.07 0 0 0 -1.223,2.28 14.08,14.08 0 0 0 -0.847,2.646 z"
       id="path130"
       style="fill:url(#j)" />
    <path
       fill="url(#k)"
       d="m 7.91,36.96 0.17,-0.114 c 0.23,0.357 0.43,0.549 0.6,0.576 0.17,0.027 0.46,-0.097 0.87,-0.37 l 1.903,-1.273 -0.068,-0.124 a 0.538,0.538 0 0 0 -0.221,-0.22 0.541,0.541 0 0 0 -0.269,-0.052 c -0.095,0.005 -0.577,0.061 -1.446,0.168 l -2.214,0.28 -0.888,-1.486 0.17,-0.114 c 0.324,0.378 0.688,0.575 1.09,0.591 0.404,0.016 1.212,-0.04 2.423,-0.166 0.443,-0.047 0.775,-0.026 0.995,0.064 0.032,-0.262 0.112,-0.499 0.24,-0.71 0.13,-0.21 0.411,-0.563 0.846,-1.06 0.343,-0.393 0.546,-0.652 0.61,-0.778 0.064,-0.125 0.066,-0.238 0.006,-0.338 -0.056,-0.095 -0.176,-0.188 -0.359,-0.279 -0.176,-0.087 -0.295,-0.182 -0.357,-0.286 a 0.497,0.497 0 0 1 0.15,-0.684 0.562,0.562 0 0 1 0.477,-0.066 c 0.18,0.048 0.341,0.19 0.482,0.425 0.137,0.23 0.198,0.478 0.181,0.744 a 1.405,1.405 0 0 1 -0.207,0.684 c -0.122,0.19 -0.382,0.517 -0.78,0.98 -0.363,0.42 -0.598,0.712 -0.708,0.88 a 0.968,0.968 0 0 0 -0.169,0.517 c -0.003,0.177 0.054,0.363 0.17,0.559 0.04,0.066 0.102,0.147 0.185,0.244 l 1.71,-1.143 c 0.41,-0.274 0.64,-0.498 0.69,-0.672 0.05,-0.174 -0.028,-0.448 -0.234,-0.82 l 0.17,-0.114 1.504,2.516 -0.17,0.113 c -0.229,-0.354 -0.427,-0.543 -0.597,-0.569 -0.169,-0.025 -0.458,0.099 -0.868,0.373 l -1.71,1.143 c 0.03,0.093 0.065,0.174 0.106,0.243 0.129,0.215 0.269,0.359 0.42,0.43 a 0.85,0.85 0 0 0 0.507,0.063 c 0.185,-0.03 0.54,-0.13 1.063,-0.298 0.563,-0.183 0.95,-0.292 1.163,-0.326 a 1.27,1.27 0 0 1 0.676,0.094 c 0.237,0.097 0.425,0.262 0.564,0.494 0.134,0.224 0.187,0.434 0.159,0.63 a 0.607,0.607 0 0 1 -0.263,0.441 0.446,0.446 0 0 1 -0.354,0.074 0.448,0.448 0 0 1 -0.295,-0.225 c -0.058,-0.098 -0.088,-0.252 -0.09,-0.464 -0.002,-0.216 -0.031,-0.373 -0.09,-0.471 -0.056,-0.095 -0.156,-0.137 -0.297,-0.127 -0.142,0.01 -0.447,0.092 -0.916,0.245 -0.615,0.202 -1.039,0.32 -1.272,0.352 a 1.489,1.489 0 0 1 -0.705,-0.074 1.957,1.957 0 0 1 -0.175,0.609 c -0.091,0.191 -0.35,0.665 -0.776,1.42 -0.408,0.719 -0.638,1.221 -0.688,1.506 -0.05,0.285 -0.01,0.612 0.122,0.983 l -0.17,0.113 -0.888,-1.486 c 0.06,-0.088 0.369,-0.605 0.929,-1.55 l 0.924,-1.558 c 0.058,-0.095 0.108,-0.211 0.15,-0.348 0.043,-0.137 0.019,-0.282 -0.072,-0.434 a 1.815,1.815 0 0 0 -0.072,-0.109 l -1.903,1.272 c -0.41,0.274 -0.64,0.498 -0.69,0.67 -0.051,0.173 0.025,0.444 0.23,0.814 l -0.17,0.114 z"
       id="path132"
       style="fill:url(#k)" />
    <path
       fill="url(#l)"
       d="m 30.022,9.523 -1.376,-1.141 -4.84,5.363 -0.935,-0.775 4.84,-5.364 -0.664,-0.551 0.668,-0.74 2.974,2.468 z M 25.413,7.6 c -0.517,0.574 -1.131,0.928 -1.842,1.064 -0.71,0.135 -1.423,0.044 -2.139,-0.275 l 0.246,3.114 -1.197,-0.022 -0.453,-5.55 1.2,0.017 0.095,1.162 c 0.005,0.036 0.051,0.09 0.14,0.164 0.435,0.361 0.98,0.476 1.631,0.343 0.588,-0.116 1.06,-0.371 1.416,-0.766 0.276,-0.305 0.417,-0.695 0.423,-1.169 0.009,-0.51 -0.159,-0.908 -0.502,-1.193 a 1.405,1.405 0 0 0 -0.703,-0.333 0.721,0.721 0 0 0 -0.67,0.238 c -0.25,0.277 -0.189,0.57 0.183,0.879 0.085,0.07 0.186,0.133 0.304,0.187 l -0.626,0.694 c -0.17,-0.066 -0.368,-0.192 -0.595,-0.38 -0.36,-0.3 -0.547,-0.657 -0.558,-1.07 -0.013,-0.383 0.122,-0.732 0.406,-1.046 0.364,-0.404 0.839,-0.587 1.424,-0.55 0.549,0.03 1.055,0.238 1.52,0.623 0.683,0.567 1.041,1.212 1.076,1.936 0.026,0.685 -0.234,1.33 -0.779,1.933 z"
       id="path134"
       style="fill:url(#l)" />
    <path
       fill="url(#m)"
       d="m 28.017,22.317 -0.116,0.188 a 0.93,0.93 0 0 0 -0.474,-0.16 c -0.146,-10e-4 -0.321,0.057 -0.526,0.173 -0.137,0.08 -0.413,0.3 -0.826,0.662 l -5.237,4.432 -0.193,-0.12 1.216,-5.33 -4.189,3.494 -0.174,-0.107 1.572,-6.928 c 0.118,-0.517 0.181,-0.826 0.19,-0.928 a 0.77,0.77 0 0 0 -0.086,-0.45 c -0.072,-0.13 -0.204,-0.255 -0.393,-0.372 l 0.115,-0.188 2.423,1.496 -0.116,0.188 -0.116,-0.071 c -0.17,-0.106 -0.325,-0.146 -0.466,-0.12 a 0.448,0.448 0 0 0 -0.316,0.212 c -0.073,0.118 -0.17,0.435 -0.29,0.95 l -1.089,4.666 3.107,-2.62 0.163,-0.699 0.13,-0.558 c 0.036,-0.211 0.052,-0.407 0.048,-0.588 A 0.712,0.712 0 0 0 22.319,19.281 1.007,1.007 0 0 0 22.159,19 1.174,1.174 0 0 0 21.889,18.79 l 0.115,-0.188 2.548,1.574 -0.116,0.188 -0.173,-0.107 c -0.18,-0.111 -0.338,-0.152 -0.471,-0.122 a 0.514,0.514 0 0 0 -0.329,0.253 c -0.106,0.173 -0.219,0.52 -0.338,1.04 l -1.047,4.522 3.577,-3.03 c 0.4,-0.333 0.65,-0.58 0.75,-0.743 a 0.445,0.445 0 0 0 0.064,-0.262 0.441,0.441 0 0 0 -0.088,-0.251 1.58,1.58 0 0 0 -0.434,-0.367 l 0.115,-0.188 z"
       id="path136"
       style="fill:url(#m)" />
    <path
       fill="url(#n)"
       d="m 40.503,17.54 -0.65,0.72 -0.636,-0.746 0.636,-0.724 z m 0.65,1.332 -0.653,0.707 -0.645,-0.749 0.636,-0.705 0.661,0.747 z m -1.307,0.158 -0.645,0.716 -0.648,-0.737 0.634,-0.719 z m 0.024,5.19 -0.392,-0.123 a 1.4,1.4 0 0 1 -0.493,-0.26 1.77,1.77 0 0 1 -0.362,-0.447 c -0.185,0.102 -0.34,0.16 -0.466,0.176 -0.177,0.02 -0.415,-0.017 -0.712,-0.11 l -0.61,-0.193 a 2.691,2.691 0 0 1 -0.548,0.96 2.427,2.427 0 0 1 -1.193,0.759 c -0.588,0.165 -1.248,0.132 -1.978,-0.099 -0.662,-0.208 -1.125,-0.502 -1.389,-0.881 -0.289,-0.417 -0.336,-0.93 -0.14,-1.54 a 5.19,5.19 0 0 1 0.425,-0.968 c 0.177,-0.316 0.38,-0.626 0.609,-0.93 0.139,-0.184 0.367,-0.462 0.683,-0.836 l 0.165,0.166 c -0.409,0.48 -0.7,0.867 -0.877,1.162 a 4.075,4.075 0 0 0 -0.392,0.84 c -0.153,0.475 -0.122,0.883 0.091,1.222 0.214,0.34 0.591,0.596 1.134,0.767 0.634,0.2 1.243,0.25 1.824,0.151 0.724,-0.122 1.177,-0.47 1.36,-1.04 a 3.36,3.36 0 0 0 0.01,-2.062 l 0.79,-1.05 c 0.065,0.366 0.088,0.68 0.07,0.94 -0.026,0.368 -0.134,0.847 -0.323,1.438 l 0.61,0.192 c 0.314,0.1 0.555,0.114 0.723,0.045 0.146,-0.06 0.251,-0.19 0.315,-0.389 0.036,-0.111 0.066,-0.225 0.09,-0.342 0.025,-0.117 0.048,-0.246 0.067,-0.387 l 0.31,-0.283 -0.1,0.583 c -0.048,0.399 -0.037,0.7 0.033,0.904 0.076,0.227 0.238,0.38 0.486,0.458 a 0.217,0.217 0 0 0 0.203,-0.028 0.361,0.361 0 0 0 0.13,-0.19 c 0.06,-0.193 0.075,-0.414 0.043,-0.665 a 2.698,2.698 0 0 0 -0.148,-0.579 l 0.534,-0.522 c 0.06,0.344 0.09,0.575 0.089,0.693 -0.005,0.265 -0.081,0.627 -0.229,1.088 z"
       id="path138"
       style="fill:url(#n)" />
    <path
       fill="url(#o)"
       d="m 10.614,25.132 0.276,0.057 c -0.133,0.627 -0.362,1.056 -0.685,1.287 A 1.317,1.317 0 0 1 9.128,26.7 1.734,1.734 0 0 1 8.261,26.224 C 8.004,25.974 7.846,25.414 7.785,24.543 L 7.616,22.095 4.476,25.645 3.027,25.343 7.475,20.536 C 7.452,19.789 7.354,19.219 7.181,18.826 7.008,18.434 6.741,18.2 6.377,18.125 a 1.219,1.219 0 0 0 -0.818,0.1 C 5.305,18.353 5.127,18.595 5.025,18.95 L 4.749,18.893 c 0.14,-0.58 0.39,-1.017 0.75,-1.308 0.361,-0.292 0.756,-0.393 1.185,-0.304 0.276,0.057 0.52,0.2 0.73,0.428 0.21,0.229 0.361,0.575 0.452,1.04 0.09,0.464 0.186,1.407 0.284,2.829 l 0.144,2.001 c 0.053,0.828 0.174,1.4 0.36,1.714 0.187,0.314 0.45,0.507 0.787,0.577 0.572,0.119 0.963,-0.127 1.173,-0.738 z"
       id="path140"
       style="fill:url(#o)" />
    <path
       fill="url(#p)"
       d="m 25.884,41.356 c -0.01,-0.05 -0.138,-1.362 -0.285,-2.917 a 539.717,539.717 0 0 0 -0.29,-3.02 l -0.023,-0.192 -0.108,0.208 c -0.23,0.445 -0.494,0.754 -0.642,0.754 -0.057,0 -0.113,-0.016 -0.124,-0.036 -0.012,-0.019 0.044,-0.185 0.124,-0.368 0.479,-1.095 0.835,-2.511 0.835,-3.325 0,-0.294 0.035,-0.493 0.085,-0.493 0.094,0 1.048,0.455 1.048,0.5 0,0.029 -0.068,0.113 -0.15,0.188 -0.135,0.12 -0.165,0.184 -0.282,0.589 -0.071,0.25 -0.123,0.46 -0.115,0.47 0.008,0.008 0.59,-0.047 1.29,-0.122 l 1.277,-0.138 0.28,-0.305 c 0.154,-0.168 0.291,-0.306 0.305,-0.306 0.043,0 0.653,0.5 0.768,0.63 0.06,0.066 0.1,0.144 0.092,0.173 -0.012,0.038 -0.293,0.082 -1.007,0.158 -0.544,0.058 -0.996,0.112 -1.003,0.12 -0.007,0.008 0.019,0.337 0.058,0.731 0.039,0.395 0.07,0.751 0.071,0.793 10e-4,0.069 0.023,0.073 0.256,0.051 l 0.255,-0.024 0.248,-0.287 c 0.183,-0.21 0.263,-0.278 0.302,-0.252 0.155,0.1 0.81,0.674 0.82,0.718 0.015,0.065 -0.039,0.075 -1.03,0.18 -0.436,0.046 -0.795,0.087 -0.798,0.09 -0.006,0.007 0.131,1.406 0.147,1.497 0.007,0.044 0.06,0.056 0.217,0.05 0.205,-0.01 0.21,-0.012 0.475,-0.307 0.148,-0.164 0.292,-0.298 0.321,-0.298 0.062,0 0.865,0.702 0.865,0.755 a 0.07,0.07 0 0 1 -0.029,0.054 14.4,14.4 0 0 1 -0.896,0.107 c -0.478,0.05 -0.879,0.1 -0.891,0.114 -0.028,0.03 0.126,1.661 0.16,1.697 0.014,0.014 0.183,0.007 0.376,-0.015 l 0.351,-0.042 0.305,-0.32 c 0.167,-0.175 0.325,-0.32 0.351,-0.32 0.058,0 0.952,0.748 0.952,0.797 0,0.02 -0.014,0.045 -0.032,0.056 -0.018,0.012 -0.963,0.12 -2.101,0.241 -1.138,0.121 -2.078,0.23 -2.088,0.24 -0.01,0.011 0,0.195 0.023,0.409 l 0.041,0.388 -0.117,0.108 c -0.105,0.097 -0.54,0.31 -0.633,0.31 -0.02,0 -0.045,-0.04 -0.054,-0.09 z m 1.332,-1.602 c 0.277,-0.03 0.51,-0.063 0.519,-0.071 0.016,-0.018 -0.139,-1.675 -0.16,-1.699 -0.02,-0.023 -1.097,0.084 -1.14,0.113 -0.025,0.017 0.107,1.63 0.14,1.706 0.008,0.018 0.132,0.009 0.641,-0.049 z M 27.07,37.62 c 0.239,-0.025 0.442,-0.053 0.451,-0.062 0.025,-0.025 -0.113,-1.504 -0.143,-1.535 -0.029,-0.031 -1.108,0.083 -1.143,0.12 -0.012,0.014 0.008,0.33 0.045,0.703 0.038,0.372 0.07,0.719 0.07,0.77 0.003,0.085 0.016,0.091 0.145,0.07 A 19.2,19.2 0 0 1 27.07,37.62 Z m -0.283,-1.951 c 0.228,-0.023 0.45,-0.05 0.492,-0.058 l 0.077,-0.017 -0.076,-0.798 c -0.07,-0.75 -0.08,-0.798 -0.152,-0.797 -0.192,0.002 -1.055,0.12 -1.08,0.148 -0.015,0.017 0.004,0.353 0.043,0.747 0.04,0.395 0.072,0.74 0.072,0.767 0.001,0.06 0.091,0.062 0.624,0.008 z m -4.865,4.91 c -0.192,-0.237 -0.25,-0.337 -0.25,-0.434 0,-0.125 10e-4,-0.126 0.274,-0.174 0.412,-0.073 1.475,-0.366 2.216,-0.611 0.363,-0.12 0.673,-0.21 0.69,-0.2 0.015,0.012 0.029,0.06 0.028,0.107 0,0.07 -0.087,0.138 -0.443,0.343 l -1.32,0.767 c -0.48,0.281 -0.891,0.51 -0.91,0.51 -0.02,0 -0.148,-0.138 -0.285,-0.308 z m -0.023,-2.16 c -0.104,-0.218 -0.19,-0.422 -0.19,-0.453 0,-0.031 0.045,-0.068 0.099,-0.082 0.14,-0.037 0.444,-0.352 0.641,-0.665 0.183,-0.29 0.677,-1.342 0.646,-1.375 -0.01,-0.01 -0.076,0.011 -0.145,0.05 -0.243,0.132 -1.255,0.573 -1.316,0.573 -0.06,0 -0.49,-0.622 -0.49,-0.71 0,-0.025 0.082,-0.089 0.182,-0.142 0.168,-0.09 0.194,-0.125 0.343,-0.465 0.31,-0.705 0.582,-1.578 0.762,-2.456 0.057,-0.276 0.1,-0.408 0.136,-0.408 0.085,0 0.8,0.533 0.801,0.597 0,0.033 -0.064,0.109 -0.144,0.168 -0.116,0.087 -0.169,0.172 -0.268,0.438 a 16.091,16.091 0 0 1 -0.808,1.734 7.124,7.124 0 0 0 -0.2,0.368 c 0.004,0 0.288,-0.044 0.63,-0.099 0.343,-0.054 0.637,-0.099 0.654,-0.1 0.068,0 0.516,-1.125 0.516,-1.295 0,-0.15 0.127,-0.096 0.472,0.197 a 5.2,5.2 0 0 1 0.359,0.32 c 0,0.008 -0.075,0.092 -0.167,0.187 -0.108,0.112 -0.323,0.46 -0.609,0.988 -0.469,0.866 -0.828,1.47 -1.098,1.844 -0.09,0.126 -0.165,0.234 -0.165,0.24 0,0.007 0.404,-0.046 0.897,-0.118 0.493,-0.072 0.96,-0.131 1.038,-0.132 0.136,0 0.142,0.005 0.142,0.136 0,0.132 -0.007,0.138 -0.218,0.2 -0.543,0.158 -1.534,0.517 -1.876,0.68 a 4.36,4.36 0 0 1 -0.406,0.178 c -0.016,0 -0.114,-0.179 -0.218,-0.397 z m 5.571,-5 A 0.64,0.64 0 0 1 27.371,33.19 2.091,2.091 0 0 0 26.808,32.148 c -0.143,-0.148 -0.19,-0.227 -0.19,-0.314 0,-0.112 0.004,-0.115 0.15,-0.095 0.26,0.037 0.751,0.321 1.029,0.596 0.254,0.252 0.255,0.253 0.254,0.47 0,0.251 -0.106,0.474 -0.285,0.598 -0.134,0.093 -0.218,0.098 -0.296,0.016 z"
       id="path142"
       style="fill:url(#p)" />
    <path
       fill="url(#q)"
       d="M 9.066,12.882 C 8.975,12.839 8.828,12.732 8.489,12.46 8.239,12.26 8.026,12.084 8.018,12.071 8.009,12.058 8.008,12.041 8.013,12.033 c 0.006,-0.008 0.11,-0.077 0.231,-0.153 1.237,-0.782 2.269,-1.688 2.982,-2.62 0.87,-1.135 1.553,-2.526 1.871,-3.81 0.034,-0.136 0.069,-0.27 0.078,-0.296 l 0.016,-0.048 0.496,0.242 c 0.273,0.133 0.502,0.25 0.508,0.262 0.022,0.037 -0.183,0.753 -0.344,1.2 A 10.98,10.98 0 0 1 12.358,9.611 14.426,14.426 0 0 1 9.537,12.416 L 9.32,12.58 9.322,12.67 c 0,0.05 -0.006,0.123 -0.015,0.162 -0.014,0.06 -0.026,0.074 -0.069,0.09 -0.041,0.014 -0.074,0.006 -0.172,-0.04 z M 7.93,8.829 C 7.11,8.583 6.54,8.447 5.985,8.364 A 0.895,0.895 0 0 1 5.774,8.317 C 5.764,8.289 6.102,7.227 6.123,7.219 6.148,7.21 7.276,7.424 7.514,7.483 7.787,7.55 8.637,7.787 8.653,7.8 8.666,7.812 8.311,8.88 8.283,8.916 8.276,8.925 8.117,8.886 7.93,8.829 Z M 8.433,6.037 A 15.79,15.79 0 0 0 7.14,5.714 C 6.482,5.582 6.203,5.516 6.204,5.493 6.206,5.445 6.448,4.463 6.464,4.442 6.474,4.426 6.495,4.422 6.53,4.429 l 0.614,0.124 c 0.31,0.063 0.658,0.138 0.773,0.166 0.219,0.052 0.909,0.234 1.031,0.27 L 9.019,5.011 9.007,5.065 A 22.257,22.257 0 0 1 8.712,6.099 1.336,1.336 0 0 1 8.432,6.037 Z"
       id="path144"
       style="fill:url(#q)" />
    <path
       fill="url(#r)"
       d="m 37.814,2.786 c 0.09,0.054 0.309,0.24 0.657,0.559 0.113,0.105 0.221,0.188 0.323,0.249 0.294,0.176 0.75,0.43 1.368,0.764 l 0.762,0.332 c 0.486,0.291 0.677,0.511 0.573,0.661 -0.04,0.059 -0.159,0.144 -0.356,0.256 l -0.148,0.104 -1.439,1.415 c -0.072,0.068 -0.068,0.171 0.013,0.312 0.076,0.147 0.09,0.256 0.04,0.327 -0.112,0.163 -0.48,0.057 -1.104,-0.316 l -0.16,-0.082 -0.9,-0.484 -0.721,-0.39 C 36.686,6.471 36.59,6.523 36.434,6.651 l -0.208,0.152 -0.134,0.03 -0.07,-0.029 c -0.138,-0.082 0.057,-0.54 0.584,-1.375 a 0.781,0.781 0 0 1 0.052,-0.093 l 0.608,-1.043 c 0.168,-0.267 0.26,-0.437 0.277,-0.51 0.081,-0.264 0.016,-0.524 -0.197,-0.78 -0.126,-0.15 -0.172,-0.26 -0.14,-0.332 0.082,-0.117 0.284,-0.079 0.608,0.115 z m -0.912,3.318 1.469,0.838 c 0.28,0.122 0.51,0.121 0.688,-0.002 0.138,-0.101 0.438,-0.473 0.901,-1.116 0.144,-0.208 0.271,-0.385 0.38,-0.53 0.083,-0.108 0.103,-0.197 0.06,-0.27 A 0.357,0.357 0 0 0 40.287,4.93 L 38.403,3.828 Z m -0.467,1.61 0.414,0.303 c 0.505,0.349 0.811,0.556 0.92,0.62 l 1.016,0.61 1.047,0.6 0.018,0.01 0.442,0.154 0.009,0.005 c 0.401,0.24 0.557,0.426 0.467,0.556 -0.036,0.052 -0.139,0.115 -0.309,0.188 a 0.46,0.46 0 0 0 -0.112,0.07 c -0.426,0.407 -0.654,0.625 -0.682,0.654 -0.017,0.036 0.003,0.1 0.06,0.189 0.037,0.068 0.046,0.129 0.027,0.181 a 0.21,0.21 0 0 1 -0.025,0.054 c -0.027,0.04 -0.079,0.059 -0.155,0.059 -0.122,-0.008 -0.493,-0.19 -1.113,-0.543 l -1.89,-1.131 c -0.191,-0.115 -0.35,-0.081 -0.476,0.1 l -0.331,0.478 c -0.185,0.267 -0.077,0.52 0.325,0.761 l 1.03,0.59 0.018,0.01 c 0.51,0.306 0.785,0.466 0.825,0.48 a 0.72,0.72 0 0 0 0.115,0.056 l 0.73,0.23 c 0.041,0.016 0.08,0.034 0.116,0.055 0.485,0.291 0.66,0.534 0.526,0.73 -0.109,0.156 -0.292,0.156 -0.55,0.002 l -2.912,-1.73 -0.198,-0.12 c -0.515,-0.308 -0.776,-0.611 -0.782,-0.91 -0.004,-0.177 0.068,-0.373 0.217,-0.587 L 35.546,9.97 c 0.126,-0.182 0.093,-0.373 -0.1,-0.571 l -0.198,-0.23 a 0.107,0.107 0 0 1 0.007,-0.12 c 0.067,-0.097 0.253,-0.059 0.557,0.114 l 0.063,0.038 0.717,0.636 0.1,0.06 c 0.431,0.258 1.09,0.643 1.974,1.155 0.276,0.165 0.508,0.166 0.698,0.004 0.072,-0.068 0.155,-0.17 0.25,-0.306 0.13,-0.188 0.196,-0.296 0.198,-0.323 0.016,-0.073 -0.017,-0.134 -0.101,-0.184 L 37.551,9.005 A 7.614,7.614 0 0 0 37.057,8.819 0.723,0.723 0 0 1 36.9,8.752 C 36.756,8.665 36.592,8.462 36.407,8.14 L 36.287,7.874 C 36.27,7.8 36.273,7.746 36.295,7.714 c 0.027,-0.04 0.074,-0.04 0.14,0 z m 5.649,0.831 c -0.518,0.748 -0.927,1.147 -1.225,1.198 h -0.14 L 40.692,9.726 c -0.108,-0.064 0.036,-0.388 0.43,-0.97 l 1.88,-2.71 0.153,-0.24 0.007,-0.01 C 43.304,5.578 43.262,5.24 43.037,4.783 42.875,4.465 42.805,4.266 42.826,4.187 42.88,4.109 43,4.126 43.186,4.237 c 0.257,0.155 0.527,0.427 0.809,0.816 0.142,0.187 0.216,0.332 0.22,0.436 0.004,0.067 -0.028,0.144 -0.097,0.231 l -0.527,0.65 -1.277,1.844 c 0.137,0.082 0.42,0.187 0.85,0.316 0.177,0.05 0.319,0.108 0.427,0.173 0.462,0.276 0.63,0.506 0.503,0.688 -0.121,0.175 -0.491,0.078 -1.109,-0.292 l -0.73,-0.452 z"
       id="path146"
       style="fill:url(#r)" />
  </g>
</svg>
