<?xml version="1.0" encoding="UTF-8" standalone="no"?>
<svg
   viewBox="-0.12979373 0 0.35985369 0.36129032"
   width="28"
   height="28"
   version="1.1"
   id="svg24"
   sodipodi:docname="word-1.svg"
   inkscape:version="1.2.2 (b0a8486541, 2022-12-01)"
   xmlns:inkscape="http://www.inkscape.org/namespaces/inkscape"
   xmlns:sodipodi="http://sodipodi.sourceforge.net/DTD/sodipodi-0.dtd"
   xmlns="http://www.w3.org/2000/svg"
   xmlns:svg="http://www.w3.org/2000/svg">
  <defs
     id="defs28" />
  <sodipodi:namedview
     id="namedview26"
     pagecolor="#ffffff"
     bordercolor="#000000"
     borderopacity="0.25"
     inkscape:showpageshadow="2"
     inkscape:pageopacity="0.0"
     inkscape:pagecheckerboard="0"
     inkscape:deskcolor="#d1d1d1"
     showgrid="false"
     inkscape:zoom="8.8864317"
     inkscape:cx="15.754355"
     inkscape:cy="29.370619"
     inkscape:window-width="1920"
     inkscape:window-height="1052"
     inkscape:window-x="0"
     inkscape:window-y="0"
     inkscape:window-maximized="1"
     inkscape:current-layer="svg24" />
  <path
     d="M 0.21296008,0.0283665 H -0.02298983 A 0.01474272,0.01474272 0 0 0 -0.03773266,0.04310922 V 0.10578517 L 0.094985,0.14449455 0.22770267,0.10578517 V 0.04310922 A 0.01474272,0.01474272 0 0 0 0.21296008,0.0283665 Z"
     fill="#41a5ee"
     id="path2"
     style="stroke-width:0.0110599" />
  <path
     d="m 0.22770278,0.10578514 h -0.26543532 v 0.0774186 l 0.13271767,0.0387094 0.13271765,-0.0387094 z"
     fill="#2b7cd3"
     id="path4"
     style="stroke-width:0.0110599" />
  <path
     d="m 0.22770278,0.18320378 h -0.26543532 v 0.0774187 l 0.13271767,0.0387094 0.13271765,-0.0387094 z"
     fill="#185abd"
     id="path6"
     style="stroke-width:0.0110599" />
  <path
     d="m 0.22770278,0.26062243 h -0.26543532 v 0.062676 a 0.01474272,0.01474272 0 0 0 0.01474282,0.0147428 H 0.2129602 A 0.01474272,0.01474272 0 0 0 0.227703,0.32329843 Z"
     fill="#103f91"
     id="path8"
     style="stroke-width:0.0110599" />
  <path
     d="M 0.05812278,0.08366554 H -0.03773254 V 0.29380185 H 0.05812278 A 0.01478696,0.01478696 0 0 0 0.0728656,0.27905902 V 0.0984082 A 0.01478696,0.01478696 0 0 0 0.05812278,0.08366554 Z"
     opacity="0.1"
     id="path10"
     style="stroke-width:0.0110599" />
  <path
     d="m 0.04706299,0.09472536 h -0.08479553 v 0.2101363 H 0.04706299 A 0.01478696,0.01478696 0 0 0 0.06180581,0.29011886 V 0.10946798 A 0.01478696,0.01478696 0 0 0 0.04706299,0.09472536 Z"
     opacity="0.2"
     id="path12"
     style="stroke-width:0.0110599" />
  <path
     d="M 0.04706299,0.09472536 H -0.03773254 V 0.28274202 H 0.04706299 A 0.01478696,0.01478696 0 0 0 0.06180582,0.26799919 V 0.10946807 A 0.01478696,0.01478696 0 0 0 0.04706299,0.09472536 Z"
     opacity="0.2"
     id="path14"
     style="stroke-width:0.0110599" />
  <path
     d="M 0.03600317,0.09472536 H -0.03773254 V 0.28274202 H 0.03600317 A 0.01478696,0.01478696 0 0 0 0.05074601,0.26799923 V 0.10946807 A 0.01478696,0.01478696 0 0 0 0.03600317,0.09472536 Z"
     opacity="0.2"
     id="path16"
     style="stroke-width:0.0110599" />
  <path
     d="M -0.11146826,0.09472536 H 0.03600317 A 0.01474272,0.01474272 0 0 1 0.05074601,0.1094681 v 0.14747147 a 0.01474272,0.01474272 0 0 1 -0.01474284,0.0147428 h -0.14747143 a 0.01474272,0.01474272 0 0 1 -0.0147427,-0.0147428 v -0.1474715 a 0.01474272,0.01474272 0 0 1 0.0147427,-0.01474271 z"
     fill="#185abd"
     id="path18"
     style="stroke-width:0.0110599" />
  <path
     d="m 0.00595369,0.23850279 h -0.01990778 l -0.02322549,-0.0763126 -0.02433171,0.0763126 H -0.08141906 L -0.10353863,0.12790478 h 0.01990777 l 0.01548385,0.0774185 0.02322549,-0.0752066 h 0.01658978 l 0.02211956,0.0752066 0.01548387,-0.0774185 h 0.01880157 z"
     fill="#ffffff"
     id="path20"
     style="stroke-width:0.0110599" />
  <path
     d="m -0.126211,0.00624689 h 0.35391378 v 0.3539138 H -0.126211 Z"
     fill="none"
     id="path22"
     style="stroke-width:0.0110599" />
</svg>
