<?xml version="1.0" encoding="UTF-8" standalone="no"?>
<svg
   version="1.1"
   width="32"
   height="32"
   color-interpolation="linearRGB"
   id="svg49"
   sodipodi:docname="xml.svg"
   inkscape:version="1.2.2 (b0a8486541, 2022-12-01)"
   xmlns:inkscape="http://www.inkscape.org/namespaces/inkscape"
   xmlns:sodipodi="http://sodipodi.sourceforge.net/DTD/sodipodi-0.dtd"
   xmlns="http://www.w3.org/2000/svg"
   xmlns:svg="http://www.w3.org/2000/svg">
  <defs
     id="defs53" />
  <sodipodi:namedview
     id="namedview51"
     pagecolor="#ffffff"
     bordercolor="#000000"
     borderopacity="0.25"
     inkscape:showpageshadow="2"
     inkscape:pageopacity="0.0"
     inkscape:pagecheckerboard="0"
     inkscape:deskcolor="#d1d1d1"
     showgrid="false"
     inkscape:zoom="12.9375"
     inkscape:cx="32.038647"
     inkscape:cy="19.63285"
     inkscape:window-width="1920"
     inkscape:window-height="1008"
     inkscape:window-x="0"
     inkscape:window-y="0"
     inkscape:window-maximized="1"
     inkscape:current-layer="svg49" />
  <g
     id="g47"
     transform="matrix(0.49464027,0,0,0.49464027,0.36409491,0.24786374)">
    <path
       style="fill:#010101;fill-opacity:0.4745"
       d="m 34,64 c 0,0 8,0 10,-2 2,-2 0,-4 2,-6 2,-2 5,-6 7,-8 2,-2 8,0 10,-4 2,-4 -5,-16 -29,-16"
       id="path2" />
    <path
       style="fill:none;stroke:#010101;stroke-width:4;stroke-linejoin:round"
       d="m 38,7 c 7,2 14,1 18,3 4,2 2,10 -2,10 l -5,-1 c 0,0 -1,1 -3,13 h -5 l 4,4 C 42,49 40,62 34,62 32,62 26,57 19,53 12,49 6,47 4,46 0,44 3,38 7,38 c 2,0 3,1 4,1 0,0 1,-3 1,-5 h 4 l -3,-4 c 1,-6 2,-14 4,-19 h 4 L 18,8 c 1,-4 3,-6 6,-6 3,0 7,3 14,5 z"
       id="path4" />
    <linearGradient
       id="gradient0"
       gradientUnits="userSpaceOnUse"
       x1="6.8400002"
       y1="-5.8800001"
       x2="4.3000002"
       y2="0.95999998">
      <stop
         offset="0"
         stop-color="#b17703"
         id="stop6" />
      <stop
         offset="1"
         stop-color="#c7ac5b"
         id="stop8" />
    </linearGradient>
    <path
       style="fill:url(#gradient0)"
       d="m 38,7 c 7,2 14,1 18,3 4,2 2,10 -2,10 l -5,-1 c 0,0 -1,1 -3,13 h -5 l 4,4 C 42,49 40,62 34,62 32,62 26,57 19,53 12,49 6,47 4,46 0,44 3,38 7,38 c 2,0 3,1 4,1 0,0 1,-3 1,-5 h 4 l -3,-4 c 1,-6 2,-14 4,-19 h 4 L 18,8 c 1,-4 3,-6 6,-6 3,0 7,3 14,5 z"
       id="path11" />
    <path
       style="fill:none;stroke:#010101;stroke-width:4"
       d="M 47,21 C 52,17 48,11 58,11"
       id="path13" />
    <path
       style="fill:none;stroke:#010101;stroke-width:4"
       d=""
       id="path15" />
    <linearGradient
       id="gradient1"
       gradientUnits="userSpaceOnUse"
       x1="130.53"
       y1="28.690001"
       x2="115.08"
       y2="81.620003">
      <stop
         offset="0"
         stop-color="#dad09f"
         id="stop17" />
      <stop
         offset="0.1957"
         stop-color="#fffdf2"
         id="stop19" />
      <stop
         offset="0.4761"
         stop-color="#dad09f"
         id="stop21" />
      <stop
         offset="0.7751"
         stop-color="#c7ac5b"
         id="stop23" />
      <stop
         offset="1"
         stop-color="#b17703"
         id="stop25" />
    </linearGradient>
    <path
       style="fill:url(#gradient1)"
       d="m 34,62 c 6,0 8,-13 11,-26 l -4,-4 h 5 C 48,20 51,10 56,10 52,8 45,9 38,7 31,5 27,2 24,2 21,2 19,4 18,8 l 3,3 -4.07,0.1 C 15,16 14,24 12.88,29.95 L 16,34 11.99,34.02 C 12,36 11,39 11,39 c -1.46,4.27 -4.04,7 -7,7 2,1 8,3 15,7 7,4 13,9 15,9 z"
       id="path28" />
    <path
       style="fill:none;stroke:#010101;stroke-width:4;stroke-linecap:round;stroke-linejoin:round"
       d="m 32,60 c 0,-2 2,-8 6,-8 C 34,50 27,48 21,45 15,42 10,38 8,38"
       id="path30" />
    <linearGradient
       id="gradient2"
       gradientUnits="userSpaceOnUse"
       x1="-10.95"
       y1="26.76"
       x2="-15.71"
       y2="36.200001">
      <stop
         offset="0"
         stop-color="#dad09f"
         id="stop32" />
      <stop
         offset="0.3121"
         stop-color="#fffdf2"
         id="stop34" />
      <stop
         offset="0.619"
         stop-color="#dad09f"
         id="stop36" />
      <stop
         offset="1"
         stop-color="#c7ac5b"
         id="stop38" />
    </linearGradient>
    <path
       style="fill:url(#gradient2)"
       d="m 8,38 c -4,0 -8,6 -4,8 2,1 8,3 15,7 7,4 13,9 15,9 C 31,60 34,52 38,52 34,50 27,48 21,45 15,42 10,38 8,38 Z"
       id="path41" />
    <path
       style="fill:none;stroke:#010101;stroke-width:2"
       d="m 19,15 24,9 m -25,-3 18,8"
       transform="matrix(0.9587,0.0398,-0.0415,0.9991,-0.3497,12.7822)"
       id="path43" />
    <path
       style="fill:none;stroke:#010101;stroke-width:2"
       d="m 19,15 24,9 m -25,-3 18,8"
       id="path45" />
  </g>
</svg>
