<?xml version="1.0" encoding="utf-8"?>
<!-- Generator: Adobe Illustrator 16.0.3, SVG Export Plug-In . SVG Version: 6.00 Build 0)  -->
<!DOCTYPE svg PUBLIC "-//W3C//DTD SVG 1.1//EN" "http://www.w3.org/Graphics/SVG/1.1/DTD/svg11.dtd">
<svg version="1.1" id="Capa_1" xmlns="http://www.w3.org/2000/svg" xmlns:xlink="http://www.w3.org/1999/xlink" x="0px" y="0px"
	 width="24px" height="24px" viewBox="0 0 24 24" enable-background="new 0 0 24 24" xml:space="preserve">
<path d="M12.433-0.031c-0.401-0.014-0.804-0.008-1.205,0.017C4.59,0.415-0.438,6.14-0.015,12.772
	c0.429,6.637,6.153,11.666,12.789,11.24c6.636-0.43,11.666-6.154,11.24-12.79C23.616,5.057,18.607,0.188,12.433-0.031z"/>
<path fill="#FFFFFF" d="M8.611,15.905l-6.935-2.891v-1.469l6.935-2.898v1.906l-4.284,1.728l4.284,1.714V15.905z"/>
<path fill="#FFFFFF" d="M15.389,8.647l6.936,2.884v1.479l-6.936,2.896v-1.904l4.28-1.727l-4.28-1.717V8.647z"/>
<g>
	<path fill="#FFFFFF" d="M14.619,2.754l-3.196,19.043H9.38l3.217-19.043H14.619z"/>
</g>
</svg>
